<svg width="71" height="70" viewBox="0 0 71 70" fill="none" xmlns="http://www.w3.org/2000/svg">
<path d="M32.6159 67.2657C36.4702 67.2749 40.2757 66.4036 43.7421 64.7183C45.7121 66.2283 48.0915 67.1095 50.5698 67.2471C53.4758 67.4132 56.3494 66.5664 58.7009 64.8509C61.0523 63.1355 62.736 60.6576 63.465 57.8396C64.194 55.0217 63.9231 52.0382 62.6985 49.3976C61.4739 46.7571 59.3715 44.6229 56.7495 43.359V12.5782C56.7495 11.1278 56.1733 9.73678 55.1478 8.71119C54.1222 7.6856 52.7312 7.10943 51.2808 7.10943C49.8304 7.10943 48.4394 7.6856 47.4138 8.71119C46.3882 9.73678 45.812 11.1278 45.812 12.5782V15.9196C41.9723 11.3148 37.8011 6.9968 33.3318 3.00021C33.133 2.82827 32.879 2.73364 32.6162 2.73364C32.3534 2.73364 32.0994 2.82827 31.9006 3.00021C30.8823 3.88287 6.98389 24.7461 6.98389 41.6331C6.99141 48.4289 9.69432 54.9442 14.4996 59.7496C19.3049 64.555 25.8201 67.258 32.6159 67.2657ZM47.9995 12.5782C47.9995 11.7079 48.3452 10.8733 48.9606 10.258C49.5759 9.64263 50.4105 9.29693 51.2808 9.29693C52.151 9.29693 52.9856 9.64263 53.601 10.258C54.2163 10.8733 54.562 11.7079 54.562 12.5782V44.0672C54.562 44.2836 54.626 44.495 54.7462 44.6749C54.8663 44.8548 55.037 44.995 55.2369 45.0779C56.9571 45.7858 58.4558 46.9426 59.5764 48.4274C60.697 49.9123 61.3985 51.6707 61.6075 53.5192C61.8165 55.3676 61.5255 57.2383 60.7647 58.9359C60.004 60.6335 58.8014 62.0957 57.2827 63.1699C55.7639 64.2441 53.9846 64.8909 52.1306 65.0427C50.2766 65.1945 48.4158 64.8457 46.7425 64.0329C45.0692 63.2201 43.6449 61.9729 42.6181 60.4217C41.5914 58.8705 40.9999 57.072 40.9054 55.2142C40.7995 53.0692 41.3592 50.9439 42.508 49.1293C43.6567 47.3148 45.3383 45.8997 47.3225 45.0779C47.5228 44.9953 47.6941 44.8552 47.8146 44.6751C47.9351 44.4951 47.9995 44.2833 47.9995 44.0667V12.5782ZM32.6165 5.29381C37.3848 9.63628 41.7975 14.354 45.812 19.4015V43.3579C44.0483 44.2058 42.5074 45.4545 41.3126 47.0042C40.1177 48.554 39.302 50.3618 38.9307 52.2832C38.5594 54.2045 38.6427 56.1861 39.1741 58.0695C39.7055 59.9528 40.6702 61.6857 41.991 63.1297C39.0358 64.425 35.8425 65.0887 32.6159 65.0782C26.4001 65.0712 20.4408 62.5989 16.0456 58.2036C11.6504 53.8083 9.17819 47.8489 9.17139 41.6331C9.17139 27.3099 28.6101 8.92943 32.6165 5.29381Z" fill="#FD4D4D"/>
<path d="M32.617 62.8906C32.9071 62.8906 33.1853 62.7754 33.3904 62.5703C33.5955 62.3652 33.7108 62.087 33.7108 61.7969C33.7108 61.5068 33.5955 61.2286 33.3904 61.0235C33.1853 60.8184 32.9071 60.7031 32.617 60.7031C27.5608 60.6973 22.7133 58.6861 19.1381 55.1107C15.5628 51.5353 13.5519 46.6877 13.5464 41.6314C13.5464 41.3413 13.4312 41.0631 13.226 40.858C13.0209 40.6529 12.7427 40.5377 12.4526 40.5377C12.1626 40.5377 11.8844 40.6529 11.6792 40.858C11.4741 41.0631 11.3589 41.3413 11.3589 41.6314C11.365 47.2676 13.6066 52.6713 17.5919 56.6568C21.5772 60.6424 26.9808 62.8843 32.617 62.8906ZM43.0776 54.6875C43.0762 56.2636 43.5287 57.8067 44.3812 59.1323C45.2337 60.4579 46.4501 61.5099 47.8847 62.1623C49.3194 62.8148 50.9116 63.0402 52.471 62.8115C54.0304 62.5828 55.4909 61.9098 56.6778 60.8728C57.8647 59.8359 58.7278 58.479 59.1638 56.9644C59.5998 55.4498 59.5902 53.8417 59.1363 52.3325C58.6823 50.8232 57.8032 49.4766 56.604 48.4539C55.4049 47.4311 53.9365 46.7755 52.3745 46.5653V20.2344C52.3745 19.9443 52.2593 19.6661 52.0542 19.461C51.849 19.2559 51.5708 19.1406 51.2808 19.1406C50.9907 19.1406 50.7125 19.2559 50.5074 19.461C50.3022 19.6661 50.187 19.9443 50.187 20.2344V46.5653C48.2205 46.8313 46.4168 47.8005 45.1098 49.2938C43.8028 50.787 43.0809 52.7031 43.0776 54.6875ZM51.2808 48.6719C52.4705 48.6719 53.6336 49.0247 54.6229 49.6857C55.6121 50.3467 56.3832 51.2862 56.8385 52.3854C57.2938 53.4846 57.4129 54.6942 57.1808 55.8611C56.9487 57.028 56.3758 58.0999 55.5345 58.9412C54.6931 59.7825 53.6213 60.3554 52.4544 60.5875C51.2874 60.8196 50.0779 60.7005 48.9787 60.2452C47.8795 59.7899 46.94 59.0189 46.279 58.0296C45.6179 57.0403 45.2651 55.8773 45.2651 54.6875C45.267 53.0926 45.9014 51.5636 47.0291 50.4359C48.1569 49.3081 49.6859 48.6738 51.2808 48.6719Z" fill="#FD4D4D"/>
</svg>
