<svg width="71" height="70" viewBox="0 0 71 70" fill="none" xmlns="http://www.w3.org/2000/svg">
<g clip-path="url(#clip0_877_253)">
<path d="M56.6991 35.8127C56.0757 35.8127 55.5703 35.3074 55.5703 34.6829V32.1913C55.5703 31.8918 55.6893 31.6046 55.9011 31.3928C56.1129 31.181 56.4001 31.062 56.6996 31.062C56.9991 31.062 57.2864 31.181 57.4982 31.3928C57.71 31.6046 57.8289 31.8918 57.8289 32.1913V34.6829C57.8289 35.3063 57.3236 35.8127 56.6991 35.8127ZM70.4563 38.0407V44.5157C70.4563 45.6074 70.0233 46.6546 69.2524 47.4275C68.4815 48.2005 67.4355 48.6362 66.3438 48.6391H62.1656C60.6125 51.3735 58.4907 53.8235 55.8657 55.9126L55.1657 63.6891C55.0588 64.9542 54.4795 66.1328 53.5432 66.9902C52.6069 67.8477 51.3821 68.3213 50.1125 68.3168C48.9626 68.3177 47.8466 67.9273 46.9481 67.2097C46.0496 66.492 45.4221 65.49 45.1688 64.3684L44.5125 61.4808C39.0613 62.8701 33.3486 62.8701 27.8974 61.4808L27.2411 64.3684C26.9907 65.4915 26.364 66.4954 25.4648 67.2135C24.5657 67.9316 23.4481 68.3209 22.2974 68.3168C21.0291 68.3211 19.8058 67.8473 18.8713 66.9898C17.9368 66.1323 17.3597 64.9542 17.2552 63.6902L16.5552 55.9137C11.0339 51.5223 7.75487 45.4443 7.42237 39.0437C6.94599 39.1611 6.45723 39.2209 5.96659 39.2219H5.81346C4.28221 39.1891 2.90409 38.5985 1.91971 37.5594C0.257214 35.8094 -0.0162232 32.9985 1.24159 30.7235C1.54784 30.1766 2.22596 29.9798 2.77284 30.2751C3.31971 30.5813 3.51659 31.2704 3.21034 31.8173C2.42284 33.2391 2.56503 34.9563 3.56034 36.0063C4.11815 36.5969 4.96034 36.9469 5.86815 36.9688C6.41066 36.9587 6.94685 36.8505 7.45081 36.6494C8.06768 26.7784 15.5467 18.444 25.9024 15.0479C25.6684 14.1667 25.5485 13.2591 25.5458 12.3474C25.5458 6.47397 30.3255 1.68335 36.2099 1.68335C42.0942 1.68335 46.8739 6.47397 46.8739 12.3474C46.8739 13.2771 46.7438 14.174 46.5196 15.0337C48.6524 15.7264 50.7039 16.6483 52.638 17.7834C53.3052 17.324 53.9833 16.9302 54.7052 16.613C56.2364 15.924 58.763 15.4208 60.4364 15.8583C61.0927 16.0224 61.6067 16.449 61.9239 17.0833C62.9849 19.238 61.5083 23.6787 60.8958 25.2974C62.7771 27.9552 64.0239 30.8427 64.6255 33.9173H66.3427C67.4346 33.9199 68.4809 34.3554 69.252 35.1285C70.0232 35.9015 70.4563 36.9488 70.4563 38.0407ZM27.7989 12.3485C27.7989 15.1321 29.1738 17.5876 31.2661 19.1221C34.5365 18.5557 37.88 18.556 41.1503 19.1232C43.2482 17.5941 44.6208 15.1398 44.6208 12.3474C44.6208 7.72085 40.8474 3.94741 36.2099 3.94741C31.5724 3.94741 27.7989 7.72194 27.7989 12.3485ZM68.2021 38.0407C68.2021 37.0126 67.3599 36.1813 66.3427 36.1813H63.663C63.1052 36.1813 62.6349 35.7657 62.5474 35.2188C62.0661 31.9594 60.7755 28.8969 58.7192 26.1407C58.4786 25.8126 58.4239 25.386 58.588 25.0251C59.7146 22.3782 60.4036 18.5829 59.8567 18.0251C58.8942 17.7844 56.9474 18.0798 55.6349 18.6704C54.8474 19.0313 54.1146 19.4688 53.3927 20.0266C53.0208 20.3219 52.4958 20.3438 52.1021 20.0923C50.1076 18.8479 47.9655 17.8577 45.7255 17.1446C45.2431 18.0974 44.6212 18.973 43.8803 19.7423C44.8516 20.0157 45.8042 20.3373 46.7274 20.719C47.3049 20.9563 47.5783 21.6159 47.3399 22.1933C47.1047 22.7698 46.4474 23.0465 45.8677 22.8058C39.8597 20.3241 32.5228 20.3307 26.5564 22.8058C26.4194 22.8626 26.2725 22.8918 26.1242 22.8918C25.9759 22.8917 25.8291 22.8625 25.6921 22.8057C25.5551 22.749 25.4306 22.6657 25.3257 22.5609C25.2209 22.456 25.1377 22.3315 25.081 22.1944C25.0242 22.0574 24.995 21.9106 24.9951 21.7623C24.9951 21.6139 25.0243 21.4671 25.0811 21.3301C25.1379 21.1931 25.2211 21.0686 25.326 20.9637C25.4308 20.8589 25.5553 20.7757 25.6924 20.719C26.6111 20.3384 27.5627 20.0168 28.5317 19.7423C27.7987 18.9784 27.1824 18.1104 26.703 17.1665C16.7411 20.3766 9.65253 28.4857 9.65253 37.9641C9.65253 44.1985 12.8135 50.2032 18.315 54.4251C18.5666 54.6219 18.7307 54.9063 18.7635 55.2235L19.4963 63.4923C19.5547 64.1933 19.8755 64.8464 20.3946 65.3211C20.9137 65.7958 21.5929 66.0571 22.2963 66.0527C23.6197 66.0527 24.7463 65.1558 25.0416 63.8652L25.9603 59.8293C26.026 59.523 26.2228 59.2605 26.4963 59.0965C26.7588 58.9433 27.0869 58.9105 27.3822 58.998C33.1464 60.6825 39.2722 60.6825 45.0364 58.998C45.1349 58.9652 45.2442 58.9433 45.3536 58.9433C45.5505 58.9433 45.7474 58.998 45.9224 59.0965C46.1958 59.2605 46.3817 59.523 46.4583 59.8293L47.3771 63.8652C47.6614 65.1558 48.7989 66.0527 50.1114 66.0527C51.5771 66.0527 52.7802 64.948 52.9224 63.4933L53.6552 55.2246C53.688 54.9074 53.8411 54.623 54.0927 54.4262C56.838 52.3152 58.9927 49.8105 60.4911 46.9777C60.688 46.6058 61.0708 46.3762 61.4974 46.3762H66.3427C67.3599 46.3762 68.2031 45.5449 68.2031 44.5168V38.0418L68.2021 38.0407ZM30.2391 12.3518C30.2391 9.0596 32.9177 6.38101 36.211 6.38101C39.5042 6.38101 42.1828 9.06069 42.1828 12.3529C42.1828 15.6451 39.5032 18.3248 36.211 18.3248C32.9188 18.3248 30.2391 15.644 30.2391 12.3518ZM32.4977 12.3518C32.4986 13.3363 32.8899 14.2802 33.5858 14.9765C34.2817 15.6728 35.2254 16.0647 36.2099 16.0662C37.1947 16.0653 38.139 15.6737 38.8354 14.9773C39.5318 14.2809 39.9234 13.3366 39.9242 12.3518C39.9228 11.3674 39.5309 10.4238 38.8345 9.72809C38.1382 9.03234 37.1942 8.64127 36.2099 8.64069C35.2257 8.64185 34.2822 9.03333 33.5862 9.72925C32.8903 10.4252 32.4988 11.3676 32.4977 12.3518Z" fill="#FD4D4D"/>
</g>
<defs>
<clipPath id="clip0_877_253">
<rect width="70" height="70" fill="white" transform="translate(0.456055 0.00012207)"/>
</clipPath>
</defs>
</svg>
