<svg width="71" height="70" viewBox="0 0 71 70" fill="none" xmlns="http://www.w3.org/2000/svg">
<g clip-path="url(#clip0_877_312)">
<path d="M1.04525 56.6573L7.18983 59.3478C10.2222 60.6771 13.5059 61.3357 16.8164 61.2785C20.1269 61.2214 23.3859 60.4498 26.3706 59.0165C32.1227 56.2574 38.7208 56.2574 44.4729 59.0165C47.5783 60.5076 50.979 61.2818 54.4238 61.2819C57.601 61.2815 60.7436 60.6229 63.6537 59.3478L69.7983 56.6573C70.0485 56.5449 70.2442 56.3383 70.3429 56.0823C70.4416 55.8263 70.4352 55.5418 70.3252 55.2905C70.2152 55.0392 70.0104 54.8415 69.7554 54.7404C69.5004 54.6393 69.2157 54.643 68.9634 54.7506L62.8188 57.4411C60.2947 58.5467 57.5771 59.1426 54.822 59.1947V43.6588C58.915 38.9693 61.1654 32.9781 61.1654 26.7397C61.1654 21.5325 59.6173 16.5153 56.6886 12.2303C56.5328 12.0025 56.2929 11.8458 56.0216 11.7948C55.7503 11.7438 55.4699 11.8027 55.242 11.9585C55.0141 12.1143 54.8575 12.3542 54.8065 12.6254C54.7555 12.8967 54.8144 13.1771 54.9702 13.405C57.6615 17.3425 59.084 21.9535 59.084 26.7397C59.084 31.6185 57.586 36.333 54.8221 40.2858V39.4005C54.8231 38.0208 54.5212 36.6577 53.9377 35.4075C55.2154 32.6871 55.8636 29.7739 55.8636 26.7397C55.8636 15.4681 46.6935 6.29807 35.422 6.29807C29.3482 6.29807 23.6283 8.97452 19.7292 13.6412C19.5548 13.8533 19.4713 14.1257 19.4968 14.3992C19.5224 14.6726 19.655 14.9248 19.8657 15.1009C20.0764 15.277 20.3482 15.3627 20.6218 15.3392C20.8954 15.3158 21.1487 15.1852 21.3264 14.9759C24.8291 10.7839 29.9667 8.37961 35.422 8.37961C45.5458 8.37961 53.782 16.6159 53.782 26.7397C53.782 29.0099 53.3771 31.2039 52.5796 33.285C50.8382 31.2255 48.2379 29.9144 45.3361 29.9144H25.6463C22.6911 29.9144 20.0478 31.2733 18.3067 33.3985C17.4808 31.2855 17.0616 29.0535 17.0616 26.7397C17.0616 23.8388 17.7193 21.063 19.0162 18.4893C19.0777 18.3672 19.1146 18.2342 19.1247 18.0979C19.1348 17.9616 19.1179 17.8246 19.0751 17.6948C19.0323 17.565 18.9643 17.4449 18.8751 17.3414C18.7859 17.2379 18.6771 17.1529 18.5551 17.0914C18.433 17.0299 18.3 16.9931 18.1637 16.983C18.0274 16.9728 17.8904 16.9897 17.7606 17.0325C17.6308 17.0753 17.5108 17.1433 17.4072 17.2325C17.3037 17.3218 17.2187 17.4305 17.1572 17.5526C15.7125 20.4194 14.9799 23.5105 14.9799 26.7397C14.9799 29.8335 15.652 32.7974 16.9764 35.5582C16.4376 36.7675 16.1596 38.0766 16.1603 39.4005V40.4837C13.3067 36.4916 11.7597 31.7061 11.7597 26.7397C11.7597 13.6924 22.3744 3.07764 35.4217 3.07764C41.78 3.07764 47.7479 5.56536 52.2259 10.0825C52.4208 10.2753 52.6841 10.3835 52.9584 10.3833C53.2326 10.3832 53.4958 10.2748 53.6906 10.0817C53.8853 9.88858 53.996 9.6264 53.9985 9.35214C54.0011 9.07787 53.8952 8.8137 53.704 8.61705C48.8322 3.70252 42.3395 0.996094 35.4217 0.996094C21.2267 0.996094 9.67811 12.5446 9.67811 26.7397C9.67811 33.0556 11.9778 39.1028 16.1603 43.8165V49.106C16.1603 49.382 16.27 49.6468 16.4652 49.842C16.6603 50.0371 16.9251 50.1468 17.2011 50.1468C17.4771 50.1468 17.7418 50.0371 17.937 49.842C18.1322 49.6468 18.2419 49.382 18.2419 49.106V39.4005C18.2419 35.3176 21.5635 31.996 25.6463 31.996H45.3357C49.4185 31.996 52.7401 35.3176 52.7401 39.4005V59.1305C50.4515 58.9452 48.209 58.3845 46.1025 57.4706V51.9346C46.1025 51.6585 45.9929 51.3938 45.7977 51.1986C45.6025 51.0034 45.3378 50.8938 45.0617 50.8938C44.7857 50.8938 44.521 51.0034 44.3258 51.1986C44.1306 51.3938 44.021 51.6585 44.021 51.9346V56.5446C42.5415 55.9461 41.0039 55.5029 39.433 55.222V36.4512C39.433 36.1752 39.3233 35.9104 39.1281 35.7153C38.9329 35.5201 38.6682 35.4104 38.3922 35.4104C38.1162 35.4104 37.8514 35.5201 37.6562 35.7153C37.4611 35.9104 37.3514 36.1752 37.3514 36.4512V54.9467C36.1135 54.8418 34.8692 54.8384 33.6307 54.9364V36.4512C33.6307 36.1752 33.5211 35.9104 33.3259 35.7153C33.1307 35.5201 32.866 35.4104 32.59 35.4104C32.3139 35.4104 32.0492 35.5201 31.854 35.7153C31.6588 35.9104 31.5492 36.1752 31.5492 36.4512V55.1966C29.9793 55.4679 28.4417 55.9012 26.9612 56.4897V51.9346C26.9612 51.6585 26.8515 51.3938 26.6563 51.1986C26.4612 51.0034 26.1964 50.8938 25.9204 50.8938C25.6444 50.8938 25.3796 51.0034 25.1845 51.1986C24.9893 51.3938 24.8796 51.6585 24.8796 51.9346V57.4108C22.7761 58.3412 20.5334 58.9183 18.242 59.1187V53.5462C18.242 53.2702 18.1323 53.0055 17.9372 52.8103C17.742 52.6151 17.4773 52.5055 17.2012 52.5055C16.9252 52.5055 16.6605 52.6151 16.4653 52.8103C16.2701 53.0055 16.1605 53.2702 16.1605 53.5462V59.1976C13.3583 59.1628 10.5916 58.5654 8.02481 57.4408L1.88008 54.7505C1.75488 54.6957 1.6201 54.666 1.48345 54.6633C1.3468 54.6606 1.21095 54.6848 1.08366 54.7346C0.956363 54.7843 0.840119 54.8587 0.741561 54.9534C0.643004 55.0481 0.564064 55.1613 0.509247 55.2865C0.454431 55.4117 0.424813 55.5465 0.422083 55.6831C0.419353 55.8198 0.443565 55.9556 0.493337 56.0829C0.543109 56.2102 0.617466 56.3264 0.712163 56.425C0.806859 56.5236 0.920041 56.6025 1.04525 56.6573ZM68.9631 62.4726L62.8186 65.1631C60.0605 66.3721 57.0738 66.9711 54.0629 66.9191C51.0519 66.8671 48.0877 66.1653 45.373 64.8618C39.0487 61.8281 31.7944 61.8281 25.4701 64.8618C22.7554 66.1653 19.7912 66.8671 16.7802 66.9191C13.7693 66.9711 10.7826 66.3721 8.02453 65.1631L1.88008 62.4726C1.62776 62.3649 1.34314 62.3613 1.08813 62.4624C0.833112 62.5635 0.628322 62.7612 0.518295 63.0124C0.408268 63.2637 0.401902 63.5483 0.500581 63.8043C0.599261 64.0602 0.795005 64.2669 1.04525 64.3793L7.18983 67.0697C10.2222 68.3991 13.5059 69.0577 16.8164 69.0005C20.1269 68.9433 23.3859 68.1717 26.3706 66.7385C32.1227 63.9794 38.7208 63.9794 44.4729 66.7385C47.5783 68.2295 50.979 69.0037 54.4238 69.0039C57.601 69.0035 60.7436 68.3449 63.6537 67.0697L69.7983 64.3793C69.9235 64.3244 70.0366 64.2455 70.1313 64.1469C70.226 64.0484 70.3003 63.9321 70.3501 63.8048C70.3998 63.6775 70.424 63.5416 70.4213 63.405C70.4185 63.2683 70.3889 63.1336 70.3341 63.0084C70.2792 62.8832 70.2003 62.77 70.1017 62.6753C70.0031 62.5807 69.8869 62.5063 69.7596 62.4566C69.6323 62.4068 69.4964 62.3826 69.3598 62.3854C69.2231 62.3881 69.0883 62.4178 68.9631 62.4726Z" fill="#FD4D4D"/>
<path d="M25.9202 46.8564C26.1962 46.8564 26.4609 46.7468 26.6561 46.5516C26.8513 46.3564 26.9609 46.0917 26.9609 45.8157V42.8973C26.9609 42.6213 26.8513 42.3566 26.6561 42.1614C26.4609 41.9662 26.1962 41.8566 25.9202 41.8566C25.6441 41.8566 25.3794 41.9662 25.1842 42.1614C24.989 42.3566 24.8794 42.6213 24.8794 42.8973V45.8157C24.8794 46.0917 24.989 46.3564 25.1842 46.5516C25.3794 46.7468 25.6441 46.8564 25.9202 46.8564ZM45.0616 46.8564C45.3377 46.8564 45.6024 46.7468 45.7976 46.5516C45.9928 46.3564 46.1024 46.0917 46.1024 45.8157V42.8973C46.1024 42.6213 45.9928 42.3566 45.7976 42.1614C45.6024 41.9662 45.3377 41.8566 45.0616 41.8566C44.7856 41.8566 44.5209 41.9662 44.3257 42.1614C44.1305 42.3566 44.0209 42.6213 44.0209 42.8973V45.8157C44.0209 46.0917 44.1305 46.3564 44.3257 46.5516C44.5209 46.7468 44.7856 46.8564 45.0616 46.8564Z" fill="#FD4D4D"/>
</g>
<defs>
<clipPath id="clip0_877_312">
<rect width="70" height="70" fill="white" transform="translate(0.421387)"/>
</clipPath>
</defs>
</svg>
