<svg width="100" height="100" viewBox="0 0 100 100" fill="none" xmlns="http://www.w3.org/2000/svg">
<path d="M41.3335 47.3474V47.3313H28.0001V47.3474C23.2015 47.4329 18.6278 49.3974 15.2621 52.8188C11.8963 56.2402 10.0069 60.8454 10 65.6448V88.665C10 89.0186 10.1405 89.3577 10.3905 89.6078C10.6406 89.8578 10.9797 89.9983 11.3333 89.9983H58.0003C58.354 89.9983 58.6931 89.8578 58.9431 89.6078C59.1932 89.3577 59.3337 89.0186 59.3337 88.665V65.6448C59.3268 60.8454 57.4374 56.2402 54.0716 52.8188C50.7058 49.3974 46.1322 47.4329 41.3335 47.3474ZM30.6668 49.998H38.6669V55.9981C38.6669 57.0589 38.2454 58.0764 37.4953 58.8265C36.7451 59.5767 35.7277 59.9981 34.6668 59.9981C33.606 59.9981 32.5885 59.5767 31.8384 58.8265C31.0882 58.0764 30.6668 57.0589 30.6668 55.9981V49.998ZM20.6667 87.3316H12.6667V72.4075H20.6667V87.3316ZM20.6667 69.7408H12.6667V65.6448C12.6695 62.8661 13.4121 60.1383 14.818 57.7416C16.224 55.3449 18.2427 53.3657 20.6667 52.0074V69.7408ZM40.0002 87.3316H29.3335V72.4075H40.0002V87.3316ZM46.0002 69.7408V87.3316H42.6669V71.0742C42.6669 70.7206 42.5264 70.3814 42.2764 70.1314C42.0263 69.8813 41.6872 69.7408 41.3335 69.7408H28.0001C27.6465 69.7408 27.3074 69.8813 27.0573 70.1314C26.8073 70.3814 26.6668 70.7206 26.6668 71.0742V87.3316H23.3334V50.8247C24.8385 50.3178 26.4123 50.0444 28.0001 50.014V55.9981C28.0001 57.7662 28.7025 59.4619 29.9528 60.7122C31.203 61.9624 32.8987 62.6648 34.6668 62.6648C36.435 62.6648 38.1307 61.9624 39.3809 60.7122C40.6312 59.4619 41.3335 57.7662 41.3335 55.9981V50.014C42.9214 50.0445 44.4952 50.3179 46.0002 50.8247V69.7408ZM56.667 87.3316H48.6669V72.4075H56.667V87.3316ZM56.667 69.7408H48.6669V52.0074C51.0908 53.3656 53.1094 55.3446 54.5153 57.741C55.9213 60.1375 56.6639 62.865 56.667 65.6435V69.7408ZM81.2752 44.7127C81.0504 44.6128 80.8024 44.577 80.5585 44.6093C80.3147 44.6416 80.0845 44.7407 79.8935 44.8957C79.7025 45.0507 79.5581 45.2555 79.4763 45.4875C79.3944 45.7194 79.3783 45.9695 79.4298 46.21C79.447 46.2853 79.4559 46.3622 79.4565 46.4393V56.1354C79.4563 56.2788 79.4279 56.4208 79.3728 56.5532C79.3178 56.6856 79.2372 56.8059 79.1357 56.9072C79.0342 57.0085 78.9137 57.0888 78.7811 57.1435C78.6486 57.1982 78.5065 57.2263 78.3631 57.2261H72.3044C72.015 57.2261 71.7375 57.1112 71.5327 56.9067C71.328 56.7022 71.2128 56.4248 71.2124 56.1354V46.4393C71.213 46.3622 71.2219 46.2853 71.2391 46.21C71.2905 45.9695 71.2745 45.7194 71.1926 45.4875C71.1108 45.2555 70.9664 45.0507 70.7754 44.8957C70.5844 44.7407 70.3542 44.6416 70.1104 44.6093C69.8665 44.577 69.6185 44.6128 69.3937 44.7127C67.0959 45.7279 65.0979 47.3171 63.5917 49.3276C62.0856 51.3381 61.1219 53.7022 60.7934 56.1928C60.4649 58.6833 60.7826 61.2164 61.716 63.5487C62.6494 65.881 64.167 67.9339 66.123 69.5102V88.665C66.123 89.0186 66.2635 89.3577 66.5136 89.6078C66.7636 89.8578 67.1028 89.9983 67.4564 89.9983H83.2125C83.5661 89.9983 83.9053 89.8578 84.1553 89.6078C84.4054 89.3577 84.5458 89.0186 84.5458 88.665V69.5102C86.5015 67.9337 88.0188 65.8807 88.952 63.5485C89.8851 61.2163 90.2027 58.6833 89.8742 56.1929C89.5458 53.7025 88.5823 51.3385 87.0764 49.328C85.5704 47.3175 83.5727 45.7281 81.2752 44.7127ZM82.4218 67.7795C82.2533 67.9036 82.1163 68.0658 82.022 68.2527C81.9277 68.4396 81.8788 68.6461 81.8792 68.8555V87.3316H68.7884V68.8555C68.7886 68.6464 68.7395 68.4401 68.6453 68.2534C68.551 68.0667 68.4141 67.9048 68.2457 67.7808C66.6985 66.6511 65.4449 65.1666 64.5903 63.452C63.7357 61.7373 63.305 59.8427 63.3344 57.9271C63.3638 56.0115 63.8524 54.131 64.7592 52.4434C65.666 50.7558 66.9646 49.3104 68.5457 48.2287V56.1354C68.5468 57.1316 68.943 58.0867 69.6474 58.7911C70.3518 59.4955 71.3069 59.8917 72.3031 59.8928H78.3645C79.3607 59.8917 80.3157 59.4955 81.0202 58.7911C81.7246 58.0867 82.1208 57.1316 82.1218 56.1354V48.2287C83.727 49.3307 85.0401 50.8065 85.948 52.5288C86.856 54.2511 87.3316 56.1684 87.3339 58.1154C87.3402 60.0004 86.8983 61.8599 86.0444 63.5405C85.1906 65.2211 83.9494 66.6745 82.4232 67.7808L82.4218 67.7795ZM75.3338 41.1086C77.9851 41.1058 80.527 40.0513 82.4018 38.1766C84.2765 36.3018 85.331 33.7599 85.3338 31.1086C85.3338 25.9605 77.2485 16.8018 76.3258 15.7738C76.1974 15.6402 76.0433 15.534 75.8729 15.4614C75.7024 15.3888 75.5191 15.3514 75.3338 15.3514C75.1485 15.3514 74.9651 15.3888 74.7947 15.4614C74.6242 15.534 74.4702 15.6402 74.3418 15.7738C73.4204 16.8005 65.3337 25.9605 65.3337 31.1086C65.3365 33.7599 66.391 36.3018 68.2658 38.1766C70.1405 40.0513 72.6825 41.1058 75.3338 41.1086ZM75.3338 18.6952C78.5111 22.4472 82.6672 28.2979 82.6672 31.1086C82.6672 33.0535 81.8945 34.9188 80.5193 36.2941C79.144 37.6693 77.2787 38.442 75.3338 38.442C73.3888 38.442 71.5236 37.6693 70.1483 36.2941C68.773 34.9188 68.0004 33.0535 68.0004 31.1086C68.0004 28.3019 72.1578 22.4485 75.3338 18.6952ZM18.0667 26.6645H20.0001V31.3312C20.0001 35.2211 21.5453 38.9517 24.2959 41.7022C27.0464 44.4528 30.777 45.998 34.6668 45.998C38.5567 45.998 42.2873 44.4528 45.0378 41.7022C47.7884 38.9517 49.3336 35.2211 49.3336 31.3312V26.6645H56.7337C57.0873 26.6645 57.4264 26.5241 57.6765 26.274C57.9265 26.024 58.067 25.6848 58.067 25.3312C58.067 24.9776 57.9265 24.6384 57.6765 24.3884C57.4264 24.1383 57.0873 23.9979 56.7337 23.9979H51.0963C50.4679 20.0931 48.4694 16.5398 45.4588 13.9749C42.4482 11.41 38.6225 10.0013 34.6675 10.0013C30.7125 10.0013 26.8868 11.41 23.8762 13.9749C20.8656 16.5398 18.8671 20.0931 18.2387 23.9979H18.0667C17.7131 23.9979 17.374 24.1383 17.1239 24.3884C16.8739 24.6384 16.7334 24.9776 16.7334 25.3312C16.7334 25.6848 16.8739 26.024 17.1239 26.274C17.374 26.5241 17.7131 26.6645 18.0667 26.6645ZM46.6669 31.3312C46.6669 34.5139 45.4026 37.5661 43.1522 39.8166C40.9017 42.067 37.8495 43.3313 34.6668 43.3313C31.4842 43.3313 28.4319 42.067 26.1815 39.8166C23.931 37.5661 22.6668 34.5139 22.6668 31.3312V26.6645H46.6669V31.3312ZM34.6668 12.6644C37.9108 12.6842 41.0487 13.8225 43.5509 15.8872C46.0531 17.9519 47.7663 20.8166 48.4016 23.9979H20.9334C21.5686 20.8168 23.2817 17.9523 25.7836 15.8876C28.2855 13.8229 31.4231 12.6845 34.6668 12.6644Z" fill="white"/>
</svg>
