<svg width="101" height="101" viewBox="0 0 101 101" fill="none" xmlns="http://www.w3.org/2000/svg">
<path d="M50.9215 22.6821C35.7578 22.6821 23.4215 35.0184 23.4215 50.1821C23.4215 65.3459 35.7578 77.6821 50.9215 77.6821C55.494 77.6821 60.0228 76.5371 64.0178 74.3709C64.6253 74.0421 64.8503 73.2834 64.5203 72.6771C64.1903 72.0709 63.4315 71.8459 62.8265 72.1746C59.1965 74.1434 55.0803 75.1834 50.9228 75.1834C37.1378 75.1834 25.9228 63.9684 25.9228 50.1834C25.9228 36.3984 37.1365 25.1821 50.9215 25.1821C64.7065 25.1821 75.9215 36.3971 75.9215 50.1821C75.9215 57.2859 72.884 64.0784 67.5878 68.8184C67.0728 69.2784 67.0303 70.0696 67.4903 70.5834C67.9515 71.0959 68.7403 71.1409 69.2553 70.6809C75.0803 65.4659 78.4215 57.9959 78.4215 50.1821C78.4215 35.0184 66.0853 22.6821 50.9215 22.6821Z" fill="white"/>
<path d="M89.6715 32.6821H79.7515C73.6653 22.6459 62.6953 16.4321 50.9215 16.4321C39.1478 16.4321 28.174 22.6471 22.0903 32.6821H12.1715C11.4815 32.6821 10.9215 33.2409 10.9215 33.9321V66.4321C10.9215 67.1234 11.4815 67.6821 12.1715 67.6821H22.0903C28.1765 77.7184 39.1465 83.9321 50.9215 83.9321C62.6965 83.9321 73.669 77.7171 79.7528 67.6821H89.6715C90.3615 67.6821 90.9215 67.1234 90.9215 66.4321V33.9321C90.9215 33.2409 90.3615 32.6821 89.6715 32.6821ZM13.4215 35.1821H20.694C18.3853 39.8171 17.1715 44.9584 17.1715 50.1821C17.1715 55.4059 18.3865 60.5496 20.694 65.1821H13.4215V35.1821ZM50.9215 81.4321C39.7915 81.4321 29.424 75.4459 23.8653 65.8034C21.1215 61.0834 19.6715 55.6809 19.6715 50.1821C19.6715 44.6834 21.1215 39.2809 23.8665 34.5571C29.424 24.9184 39.7903 18.9321 50.9215 18.9321C62.0528 18.9321 72.419 24.9184 77.9765 34.5571V34.5609C80.7215 39.2809 82.1715 44.6834 82.1715 50.1821C82.1715 55.6809 80.7215 61.0834 77.9765 65.8071C72.419 75.4459 62.0528 81.4321 50.9215 81.4321ZM88.4215 65.1821H81.149C83.4578 60.5471 84.6715 55.4059 84.6715 50.1821C84.6715 44.9584 83.4578 39.8159 81.149 35.1821H88.4215V65.1821Z" fill="white"/>
<path d="M68.4215 46.4321C69.1115 46.4321 69.6715 45.8734 69.6715 45.1821V37.6821C69.6715 36.9909 69.1115 36.4321 68.4215 36.4321H33.4215C32.7315 36.4321 32.1715 36.9909 32.1715 37.6821V45.1821C32.1715 45.8734 32.7315 46.4321 33.4215 46.4321H68.4215ZM52.1715 38.9321H58.4215V43.9321H52.1715V38.9321ZM49.6715 43.9321H43.4215V38.9321H49.6715V43.9321ZM67.1715 43.9321H60.9215V38.9321H67.1715V43.9321ZM34.6715 38.9321H40.9215V43.9321H34.6715V38.9321Z" fill="white"/>
<path d="M49.9065 50.7022L44.1478 58.7109C43.264 59.9297 42.7965 61.3534 42.7965 62.8322C42.7965 64.7972 43.684 66.6622 45.3003 68.0872C46.8503 69.4384 48.8465 70.1822 50.9215 70.1822C55.3253 70.1822 59.0465 66.8172 59.0465 62.8322C59.0465 61.3534 58.579 59.9297 57.699 58.7147L51.9365 50.7022C51.4665 50.0509 50.3765 50.0509 49.9065 50.7022ZM56.5465 62.8322C56.5465 65.4147 53.9178 67.6822 50.9215 67.6822C49.4715 67.6822 48.0215 67.1422 46.9478 66.2072C45.8828 65.2684 45.2965 64.0697 45.2965 62.8322C45.2965 61.8847 45.599 60.9672 46.174 60.1747L50.9215 53.5734L55.6715 60.1784C56.244 60.9672 56.5465 61.8847 56.5465 62.8322Z" fill="white"/>
<path d="M65.2965 58.9321C67.709 58.9321 69.6715 56.9696 69.6715 54.5571C69.6715 52.1446 67.709 50.1821 65.2965 50.1821C62.884 50.1821 60.9215 52.1446 60.9215 54.5571C60.9215 56.9696 62.884 58.9321 65.2965 58.9321ZM65.2965 52.6821C66.3303 52.6821 67.1715 53.5234 67.1715 54.5571C67.1715 55.5909 66.3303 56.4321 65.2965 56.4321C64.2628 56.4321 63.4215 55.5909 63.4215 54.5571C63.4215 53.5234 64.2628 52.6821 65.2965 52.6821Z" fill="white"/>
<path d="M32.1715 54.5571C32.1715 56.9696 34.134 58.9321 36.5465 58.9321C38.959 58.9321 40.9215 56.9696 40.9215 54.5571C40.9215 52.1446 38.959 50.1821 36.5465 50.1821C34.134 50.1821 32.1715 52.1446 32.1715 54.5571ZM38.4215 54.5571C38.4215 55.5909 37.5803 56.4321 36.5465 56.4321C35.5128 56.4321 34.6715 55.5909 34.6715 54.5571C34.6715 53.5234 35.5128 52.6821 36.5465 52.6821C37.5803 52.6821 38.4215 53.5234 38.4215 54.5571Z" fill="white"/>
<path d="M54.6715 32.6821C55.3615 32.6821 55.9215 32.1234 55.9215 31.4321C55.9215 30.7409 55.3615 30.1821 54.6715 30.1821H47.1715C46.4815 30.1821 45.9215 30.7409 45.9215 31.4321C45.9215 32.1234 46.4815 32.6821 47.1715 32.6821H54.6715Z" fill="white"/>
<path d="M50.9215 65.1821C51.957 65.1821 52.7965 64.3427 52.7965 63.3071C52.7965 62.2716 51.957 61.4321 50.9215 61.4321C49.886 61.4321 49.0465 62.2716 49.0465 63.3071C49.0465 64.3427 49.886 65.1821 50.9215 65.1821Z" fill="white"/>
</svg>
