<svg width="101" height="100" viewBox="0 0 101 100" fill="none" xmlns="http://www.w3.org/2000/svg">
<g clip-path="url(#clip0_682_242)">
<path d="M50.8282 22.4995C35.6644 22.4995 23.3282 34.8358 23.3282 49.9995C23.3282 65.1633 35.6644 77.4995 50.8282 77.4995C55.4007 77.4995 59.9294 76.3545 63.9244 74.1883C64.5319 73.8595 64.7569 73.1008 64.4269 72.4945C64.0969 71.8883 63.3382 71.6633 62.7332 71.992C59.1032 73.9608 54.9869 75.0008 50.8294 75.0008C37.0444 75.0008 25.8294 63.7858 25.8294 50.0008C25.8294 36.2158 37.0432 24.9995 50.8282 24.9995C64.6132 24.9995 75.8282 36.2145 75.8282 49.9995C75.8282 57.1033 72.7907 63.8958 67.4944 68.6358C66.9794 69.0958 66.9369 69.887 67.3969 70.4008C67.8582 70.9133 68.6469 70.9583 69.1619 70.4983C74.9869 65.2833 78.3282 57.8133 78.3282 49.9995C78.3282 34.8358 65.9919 22.4995 50.8282 22.4995Z" fill="white"/>
<path d="M89.5781 32.5H79.6581C73.5718 22.4637 62.6018 16.25 50.8281 16.25C39.0543 16.25 28.0806 22.465 21.9968 32.5H12.0781C11.3881 32.5 10.8281 33.0587 10.8281 33.75V66.25C10.8281 66.9412 11.3881 67.5 12.0781 67.5H21.9968C28.0831 77.5362 39.0531 83.75 50.8281 83.75C62.6031 83.75 73.5756 77.535 79.6593 67.5H89.5781C90.2681 67.5 90.8281 66.9412 90.8281 66.25V33.75C90.8281 33.0587 90.2681 32.5 89.5781 32.5ZM13.3281 35H20.6006C18.2918 39.635 17.0781 44.7762 17.0781 50C17.0781 55.2237 18.2931 60.3675 20.6006 65H13.3281V35ZM50.8281 81.25C39.6981 81.25 29.3306 75.2637 23.7718 65.6212C21.0281 60.9012 19.5781 55.4987 19.5781 50C19.5781 44.5012 21.0281 39.0987 23.7731 34.375C29.3306 24.7362 39.6968 18.75 50.8281 18.75C61.9593 18.75 72.3256 24.7362 77.8831 34.375V34.3787C80.6281 39.0987 82.0781 44.5012 82.0781 50C82.0781 55.4987 80.6281 60.9012 77.8831 65.625C72.3256 75.2637 61.9593 81.25 50.8281 81.25ZM88.3281 65H81.0556C83.3643 60.365 84.5781 55.2237 84.5781 50C84.5781 44.7762 83.3643 39.6337 81.0556 35H88.3281V65Z" fill="white"/>
<path d="M68.328 46.2499C69.018 46.2499 69.578 45.6911 69.578 44.9999V37.4999C69.578 36.8086 69.018 36.2499 68.328 36.2499H33.328C32.638 36.2499 32.078 36.8086 32.078 37.4999V44.9999C32.078 45.6911 32.638 46.2499 33.328 46.2499H68.328ZM52.078 38.7499H58.328V43.7499H52.078V38.7499ZM49.578 43.7499H43.328V38.7499H49.578V43.7499ZM67.078 43.7499H60.828V38.7499H67.078V43.7499ZM34.578 38.7499H40.828V43.7499H34.578V38.7499Z" fill="white"/>
<path d="M49.813 50.5193L44.0543 58.5281C43.1705 59.7468 42.703 61.1706 42.703 62.6493C42.703 64.6143 43.5905 66.4793 45.2068 67.9043C46.7568 69.2556 48.753 69.9993 50.828 69.9993C55.2318 69.9993 58.953 66.6343 58.953 62.6493C58.953 61.1706 58.4855 59.7468 57.6055 58.5318L51.843 50.5193C51.373 49.8681 50.283 49.8681 49.813 50.5193ZM56.453 62.6493C56.453 65.2318 53.8243 67.4993 50.828 67.4993C49.378 67.4993 47.928 66.9593 46.8543 66.0243C45.7893 65.0856 45.203 63.8868 45.203 62.6493C45.203 61.7018 45.5055 60.7843 46.0805 59.9918L50.828 53.3906L55.578 59.9956C56.1505 60.7843 56.453 61.7018 56.453 62.6493Z" fill="white"/>
<path d="M65.2032 58.7498C67.6157 58.7498 69.5782 56.7873 69.5782 54.3748C69.5782 51.9623 67.6157 49.9998 65.2032 49.9998C62.7907 49.9998 60.8282 51.9623 60.8282 54.3748C60.8282 56.7873 62.7907 58.7498 65.2032 58.7498ZM65.2032 52.4998C66.237 52.4998 67.0782 53.3411 67.0782 54.3748C67.0782 55.4086 66.237 56.2498 65.2032 56.2498C64.1695 56.2498 63.3282 55.4086 63.3282 54.3748C63.3282 53.3411 64.1695 52.4998 65.2032 52.4998Z" fill="white"/>
<path d="M32.078 54.3748C32.078 56.7873 34.0405 58.7498 36.453 58.7498C38.8655 58.7498 40.828 56.7873 40.828 54.3748C40.828 51.9623 38.8655 49.9998 36.453 49.9998C34.0405 49.9998 32.078 51.9623 32.078 54.3748ZM38.328 54.3748C38.328 55.4086 37.4868 56.2498 36.453 56.2498C35.4193 56.2498 34.578 55.4086 34.578 54.3748C34.578 53.3411 35.4193 52.4998 36.453 52.4998C37.4868 52.4998 38.328 53.3411 38.328 54.3748Z" fill="white"/>
<path d="M54.5781 32.4999C55.2681 32.4999 55.8281 31.9412 55.8281 31.2499C55.8281 30.5587 55.2681 29.9999 54.5781 29.9999H47.0781C46.3881 29.9999 45.8281 30.5587 45.8281 31.2499C45.8281 31.9412 46.3881 32.4999 47.0781 32.4999H54.5781Z" fill="white"/>
<path d="M50.8281 65.0001C51.8636 65.0001 52.7031 64.1606 52.7031 63.1251C52.7031 62.0895 51.8636 61.2501 50.8281 61.2501C49.7925 61.2501 48.9531 62.0895 48.9531 63.1251C48.9531 64.1606 49.7925 65.0001 50.8281 65.0001Z" fill="white"/>
<path d="M39.0603 6.98292C39.0616 6.88909 39.0406 6.79629 38.9991 6.71212C38.9576 6.62796 38.8967 6.55483 38.8215 6.49874L32.1305 1.52701C32.0681 1.48062 31.9971 1.44698 31.9216 1.42802C31.8461 1.40907 31.7676 1.40517 31.6906 1.41654C31.6137 1.42791 31.5397 1.45433 31.4729 1.4943C31.4061 1.53427 31.3479 1.587 31.3015 1.64948C31.2551 1.71196 31.2214 1.78296 31.2025 1.85844C31.1835 1.93392 31.1796 2.01239 31.191 2.08938C31.2024 2.16636 31.2288 2.24035 31.2688 2.30713C31.3087 2.3739 31.3615 2.43215 31.4239 2.47855L36.3587 6.14562C31.753 5.73912 14.644 5.89214 2.6055 27.6731C2.56661 27.7413 2.54164 27.8165 2.53206 27.8944C2.52247 27.9723 2.52845 28.0513 2.54965 28.1269C2.57086 28.2024 2.60686 28.273 2.65557 28.3346C2.70428 28.3961 2.76473 28.4474 2.8334 28.4854C2.90208 28.5233 2.97762 28.5473 3.05563 28.5559C3.13365 28.5644 3.21259 28.5574 3.28786 28.5352C3.36314 28.513 3.43325 28.476 3.49414 28.4265C3.55503 28.377 3.60547 28.3159 3.64254 28.2467C15.9987 5.88992 33.7403 7.00642 36.838 7.39094L31.2955 11.2641C31.1994 11.3309 31.1252 11.4246 31.0824 11.5335C31.0395 11.6424 31.0299 11.7615 31.0547 11.8759C31.0795 11.9902 31.1376 12.0946 31.2217 12.176C31.3058 12.2573 31.4122 12.3119 31.5273 12.3328C31.6776 12.3607 31.8393 12.3304 31.9743 12.236L38.8072 7.46098C38.9637 7.35135 39.0576 7.17346 39.0603 6.98292Z" fill="white"/>
<path d="M62.5961 92.9497C62.5948 93.0435 62.6157 93.1363 62.6573 93.2205C62.6988 93.3047 62.7596 93.3778 62.8349 93.4339L69.5258 98.4056C69.5883 98.452 69.6593 98.4856 69.7348 98.5046C69.8103 98.5235 69.8887 98.5275 69.9657 98.5161C70.0427 98.5047 70.1167 98.4783 70.1835 98.4383C70.2503 98.3983 70.3085 98.3456 70.3549 98.2831C70.4013 98.2207 70.4349 98.1497 70.4539 98.0742C70.4728 97.9987 70.4767 97.9202 70.4654 97.8432C70.454 97.7663 70.4276 97.6923 70.3876 97.6255C70.3476 97.5587 70.2949 97.5005 70.2324 97.4541L65.2977 93.787C69.9034 94.1935 87.0123 94.0405 99.0509 72.2595C99.0898 72.1913 99.1147 72.1161 99.1243 72.0382C99.1339 71.9603 99.1279 71.8813 99.1067 71.8057C99.0855 71.7302 99.0495 71.6596 99.0008 71.598C98.9521 71.5365 98.8916 71.4852 98.823 71.4473C98.7543 71.4093 98.6788 71.3853 98.6007 71.3768C98.5227 71.3682 98.4438 71.3752 98.3685 71.3974C98.2932 71.4196 98.2231 71.4566 98.1622 71.5061C98.1013 71.5556 98.0509 71.6167 98.0138 71.6859C85.6577 94.0427 67.9161 92.9262 64.8184 92.5417L70.3609 88.6685C70.457 88.6017 70.5311 88.508 70.574 88.3991C70.6169 88.2902 70.6265 88.1711 70.6017 88.0568C70.5769 87.9424 70.5188 87.838 70.4347 87.7566C70.3506 87.6753 70.2442 87.6207 70.1291 87.5998C69.9788 87.5719 69.8171 87.6023 69.6821 87.6966L62.8492 92.4716C62.6926 92.5813 62.5988 92.7592 62.5961 92.9497Z" fill="white"/>
</g>
<defs>
<clipPath id="clip0_682_242">
<rect width="100" height="100" fill="white" transform="translate(0.828125)"/>
</clipPath>
</defs>
</svg>
