<svg width="100" height="100" viewBox="0 0 100 100" fill="none" xmlns="http://www.w3.org/2000/svg">
<g clip-path="url(#clip0_682_254)">
<path d="M50 6.25C34.8363 6.25 22.5 18.5863 22.5 33.75C22.5 48.9137 34.8363 61.25 50 61.25C54.5725 61.25 59.1012 60.105 63.0963 57.9388C63.7038 57.61 63.9288 56.8512 63.5988 56.245C63.2688 55.6387 62.51 55.4138 61.905 55.7425C58.275 57.7113 54.1587 58.7513 50.0012 58.7513C36.2162 58.7513 25.0013 47.5362 25.0013 33.7512C25.0013 19.9662 36.215 8.75 50 8.75C63.785 8.75 75 19.965 75 33.75C75 40.8537 71.9625 47.6463 66.6663 52.3862C66.1512 52.8462 66.1088 53.6375 66.5688 54.1512C67.03 54.6637 67.8187 54.7087 68.3337 54.2487C74.1587 49.0337 77.5 41.5638 77.5 33.75C77.5 18.5863 65.1637 6.25 50 6.25Z" fill="white"/>
<path d="M88.75 16.25H78.83C72.7437 6.21375 61.7738 0 50 0C38.2262 0 27.2525 6.215 21.1688 16.25H11.25C10.56 16.25 10 16.8088 10 17.5V50C10 50.6912 10.56 51.25 11.25 51.25H21.1688C27.255 61.2863 38.225 67.5 50 67.5C61.775 67.5 72.7475 61.285 78.8312 51.25H88.75C89.44 51.25 90 50.6912 90 50V17.5C90 16.8088 89.44 16.25 88.75 16.25ZM12.5 18.75H19.7725C17.4637 23.385 16.25 28.5263 16.25 33.75C16.25 38.9738 17.465 44.1175 19.7725 48.75H12.5V18.75ZM50 65C38.87 65 28.5025 59.0138 22.9437 49.3713C20.2 44.6513 18.75 39.2487 18.75 33.75C18.75 28.2512 20.2 22.8487 22.945 18.125C28.5025 8.48625 38.8687 2.5 50 2.5C61.1312 2.5 71.4975 8.48625 77.055 18.125V18.1287C79.8 22.8488 81.25 28.2512 81.25 33.75C81.25 39.2487 79.8 44.6512 77.055 49.375C71.4975 59.0137 61.1312 65 50 65ZM87.5 48.75H80.2275C82.5362 44.115 83.75 38.9738 83.75 33.75C83.75 28.5263 82.5362 23.3838 80.2275 18.75H87.5V48.75Z" fill="white"/>
<path d="M67.5 30C68.19 30 68.75 29.4412 68.75 28.75V21.25C68.75 20.5588 68.19 20 67.5 20H32.5C31.81 20 31.25 20.5588 31.25 21.25V28.75C31.25 29.4412 31.81 30 32.5 30H67.5ZM51.25 22.5H57.5V27.5H51.25V22.5ZM48.75 27.5H42.5V22.5H48.75V27.5ZM66.25 27.5H60V22.5H66.25V27.5ZM33.75 22.5H40V27.5H33.75V22.5Z" fill="white"/>
<path d="M48.985 34.2701L43.2262 42.2788C42.3425 43.4976 41.875 44.9213 41.875 46.4001C41.875 48.3651 42.7625 50.2301 44.3788 51.6551C45.9288 53.0063 47.925 53.7501 50 53.7501C54.4038 53.7501 58.125 50.3851 58.125 46.4001C58.125 44.9213 57.6575 43.4976 56.7775 42.2826L51.015 34.2701C50.545 33.6188 49.455 33.6188 48.985 34.2701ZM55.625 46.4001C55.625 48.9826 52.9963 51.2501 50 51.2501C48.55 51.2501 47.1 50.7101 46.0262 49.7751C44.9612 48.8363 44.375 47.6376 44.375 46.4001C44.375 45.4526 44.6775 44.5351 45.2525 43.7426L50 37.1413L54.75 43.7463C55.3225 44.5351 55.625 45.4526 55.625 46.4001Z" fill="white"/>
<path d="M64.375 42.5C66.7875 42.5 68.75 40.5375 68.75 38.125C68.75 35.7125 66.7875 33.75 64.375 33.75C61.9625 33.75 60 35.7125 60 38.125C60 40.5375 61.9625 42.5 64.375 42.5ZM64.375 36.25C65.4088 36.25 66.25 37.0912 66.25 38.125C66.25 39.1588 65.4088 40 64.375 40C63.3412 40 62.5 39.1588 62.5 38.125C62.5 37.0912 63.3412 36.25 64.375 36.25Z" fill="white"/>
<path d="M31.25 38.125C31.25 40.5375 33.2125 42.5 35.625 42.5C38.0375 42.5 40 40.5375 40 38.125C40 35.7125 38.0375 33.75 35.625 33.75C33.2125 33.75 31.25 35.7125 31.25 38.125ZM37.5 38.125C37.5 39.1588 36.6588 40 35.625 40C34.5912 40 33.75 39.1588 33.75 38.125C33.75 37.0912 34.5912 36.25 35.625 36.25C36.6588 36.25 37.5 37.0912 37.5 38.125Z" fill="white"/>
<path d="M53.75 16.25C54.44 16.25 55 15.6912 55 15C55 14.3088 54.44 13.75 53.75 13.75H46.25C45.56 13.75 45 14.3088 45 15C45 15.6912 45.56 16.25 46.25 16.25H53.75Z" fill="white"/>
<path d="M50 48.75C51.0355 48.75 51.875 47.9105 51.875 46.875C51.875 45.8395 51.0355 45 50 45C48.9645 45 48.125 45.8395 48.125 46.875C48.125 47.9105 48.9645 48.75 50 48.75Z" fill="white"/>
<mask id="path-9-outside-1_682_254" maskUnits="userSpaceOnUse" x="43.0762" y="42.1699" width="58" height="58" fill="black">
<rect fill="white" x="43.0762" y="42.1699" width="58" height="58"/>
<path d="M93.6086 65.5431L90.1663 64.9591C89.8078 63.8014 89.3468 62.6847 88.7833 61.6193L90.8118 58.7814C91.6724 57.5725 91.5392 55.9231 90.4839 54.8781L87.431 51.8251C86.8572 51.2514 86.0991 50.9338 85.2898 50.9338C84.6546 50.9338 84.0501 51.1285 83.5379 51.4973L80.6898 53.5258C79.5833 52.9418 78.4257 52.4603 77.227 52.1017L76.6533 48.7004C76.5357 47.9924 76.1703 47.3492 75.6223 46.8857C75.0744 46.4222 74.3795 46.1685 73.6618 46.1699H69.3487C67.8631 46.1699 66.603 47.2354 66.3571 48.7004L65.7629 52.1837C64.6155 52.5423 63.4988 53.0135 62.4333 53.5873L59.616 51.5588C59.1037 51.1899 58.489 50.9953 57.8538 50.9953C57.0445 50.9953 56.2761 51.3129 55.7127 51.8866L52.6494 54.9396C51.6044 55.9846 51.461 57.634 52.3216 58.8429L54.3706 61.7217C53.8071 62.7974 53.3563 63.9141 53.008 65.0718L49.6067 65.6455C48.8987 65.7631 48.2555 66.1285 47.7919 66.6765C47.3284 67.2245 47.0747 67.9193 47.0762 68.6371V72.9502C47.0762 74.4357 48.1417 75.6958 49.6067 75.9417L53.09 76.5359C53.4485 77.6833 53.9198 78.8 54.4935 79.8655L52.4753 82.6726C51.6147 83.8815 51.7479 85.5309 52.8031 86.5759L55.8561 89.6289C56.4298 90.2026 57.1879 90.5202 57.9973 90.5202C58.6325 90.5202 59.2369 90.3256 59.7492 89.9567L62.628 87.9078C63.6627 88.4507 64.7487 88.8913 65.8654 89.2396L66.4391 92.6819C66.5567 93.3899 66.9221 94.0331 67.4701 94.4966C68.018 94.9601 68.7129 95.2138 69.4306 95.2124H73.754C75.2395 95.2124 76.4996 94.1469 76.7455 92.6819L77.3295 89.2396C78.4871 88.881 79.6038 88.42 80.6693 87.8565L83.5071 89.885C84.0194 90.2538 84.6341 90.4485 85.2693 90.4485C86.0786 90.4485 86.8367 90.1309 87.4105 89.5572L90.4635 86.5042C91.5084 85.4592 91.6519 83.8098 90.7913 82.6009L88.7628 79.7528C89.3263 78.6771 89.7975 77.5604 90.1459 76.413L93.5882 75.8392C94.2962 75.7216 94.9394 75.3562 95.4029 74.8083C95.8664 74.2603 96.1201 73.5654 96.1187 72.8477V68.5346C96.1391 67.0491 95.0737 65.789 93.6086 65.5431ZM93.373 72.8477C93.373 72.9809 93.2808 73.0936 93.1476 73.1141L88.8448 73.8312C88.3018 73.9234 87.8715 74.323 87.7383 74.8455C87.349 76.3515 86.7548 77.796 85.9557 79.1381C85.6791 79.6094 85.6996 80.1933 86.0172 80.6441L88.5476 84.2093C88.6194 84.3118 88.6091 84.4655 88.5169 84.5577L85.4639 87.6107C85.3922 87.6824 85.3205 87.6926 85.2693 87.6926C85.2078 87.6926 85.1566 87.6721 85.1156 87.6414L81.5606 85.1109C81.1201 84.7933 80.5259 84.7728 80.0546 85.0494C78.7125 85.8485 77.268 86.4427 75.762 86.832C75.2292 86.9652 74.8297 87.4058 74.7477 87.9385L74.0203 92.2414C73.9998 92.3745 73.8872 92.4668 73.754 92.4668H69.4409C69.3077 92.4668 69.195 92.3745 69.1745 92.2414L68.4573 87.9385C68.3651 87.3955 67.9656 86.9652 67.4431 86.832C65.9781 86.453 64.5643 85.869 63.2427 85.1109C63.0275 84.988 62.7817 84.9265 62.546 84.9265C62.2694 84.9265 61.9825 85.0084 61.7469 85.1826L58.1612 87.7336C58.11 87.7643 58.0587 87.7848 58.0075 87.7848C57.9665 87.7848 57.8846 87.7746 57.8129 87.7029L54.7599 84.6499C54.6677 84.5577 54.6574 84.4142 54.7291 84.3015L57.2494 80.767C57.567 80.3163 57.5875 79.7221 57.3109 79.2508C56.5118 77.919 55.8971 76.4744 55.5078 74.9684C55.3643 74.4459 54.934 74.0464 54.4013 73.9542L50.0677 73.2165C49.9345 73.196 49.8423 73.0834 49.8423 72.9502V68.6371C49.8423 68.5039 49.9345 68.3912 50.0677 68.3707L54.3398 67.6535C54.8828 67.5613 55.3233 67.1618 55.4565 66.629C55.8356 65.123 56.4196 63.6683 57.2084 62.3262C57.485 61.8549 57.4543 61.271 57.1367 60.8304L54.5857 57.2447C54.514 57.1422 54.5242 56.9886 54.6164 56.8964L57.6694 53.8434C57.7411 53.7717 57.8129 53.7614 57.8641 53.7614C57.9256 53.7614 57.9768 53.7819 58.0178 53.8126L61.5523 56.3329C62.003 56.6505 62.5972 56.671 63.0685 56.3944C64.4004 55.5953 65.8449 54.9806 67.3509 54.5913C67.8734 54.4478 68.2729 54.0175 68.3651 53.4848L69.1028 49.1512C69.1233 49.018 69.236 48.9258 69.3691 48.9258H73.6823C73.8154 48.9258 73.9281 49.018 73.9486 49.1512L74.6658 53.4233C74.758 53.9663 75.1575 54.4068 75.6903 54.54C77.2372 54.9293 78.7125 55.5338 80.0853 56.3431C80.5566 56.6198 81.1406 56.5993 81.5913 56.2817L85.1258 53.7409C85.1771 53.7102 85.2283 53.6897 85.2795 53.6897C85.3205 53.6897 85.4025 53.6999 85.4742 53.7717L88.5272 56.8247C88.6194 56.9169 88.6296 57.0603 88.5579 57.173L86.0274 60.728C85.7098 61.1685 85.6893 61.7627 85.9659 62.234C86.765 63.5761 87.3592 65.0206 87.7485 66.5266C87.8817 67.0593 88.3223 67.4589 88.855 67.5408L93.1579 68.2682C93.291 68.2887 93.3833 68.4014 93.3833 68.5346V72.8477H93.373Z"/>
</mask>
<path d="M93.6086 65.5431L90.1663 64.9591C89.8078 63.8014 89.3468 62.6847 88.7833 61.6193L90.8118 58.7814C91.6724 57.5725 91.5392 55.9231 90.4839 54.8781L87.431 51.8251C86.8572 51.2514 86.0991 50.9338 85.2898 50.9338C84.6546 50.9338 84.0501 51.1285 83.5379 51.4973L80.6898 53.5258C79.5833 52.9418 78.4257 52.4603 77.227 52.1017L76.6533 48.7004C76.5357 47.9924 76.1703 47.3492 75.6223 46.8857C75.0744 46.4222 74.3795 46.1685 73.6618 46.1699H69.3487C67.8631 46.1699 66.603 47.2354 66.3571 48.7004L65.7629 52.1837C64.6155 52.5423 63.4988 53.0135 62.4333 53.5873L59.616 51.5588C59.1037 51.1899 58.489 50.9953 57.8538 50.9953C57.0445 50.9953 56.2761 51.3129 55.7127 51.8866L52.6494 54.9396C51.6044 55.9846 51.461 57.634 52.3216 58.8429L54.3706 61.7217C53.8071 62.7974 53.3563 63.9141 53.008 65.0718L49.6067 65.6455C48.8987 65.7631 48.2555 66.1285 47.7919 66.6765C47.3284 67.2245 47.0747 67.9193 47.0762 68.6371V72.9502C47.0762 74.4357 48.1417 75.6958 49.6067 75.9417L53.09 76.5359C53.4485 77.6833 53.9198 78.8 54.4935 79.8655L52.4753 82.6726C51.6147 83.8815 51.7479 85.5309 52.8031 86.5759L55.8561 89.6289C56.4298 90.2026 57.1879 90.5202 57.9973 90.5202C58.6325 90.5202 59.2369 90.3256 59.7492 89.9567L62.628 87.9078C63.6627 88.4507 64.7487 88.8913 65.8654 89.2396L66.4391 92.6819C66.5567 93.3899 66.9221 94.0331 67.4701 94.4966C68.018 94.9601 68.7129 95.2138 69.4306 95.2124H73.754C75.2395 95.2124 76.4996 94.1469 76.7455 92.6819L77.3295 89.2396C78.4871 88.881 79.6038 88.42 80.6693 87.8565L83.5071 89.885C84.0194 90.2538 84.6341 90.4485 85.2693 90.4485C86.0786 90.4485 86.8367 90.1309 87.4105 89.5572L90.4635 86.5042C91.5084 85.4592 91.6519 83.8098 90.7913 82.6009L88.7628 79.7528C89.3263 78.6771 89.7975 77.5604 90.1459 76.413L93.5882 75.8392C94.2962 75.7216 94.9394 75.3562 95.4029 74.8083C95.8664 74.2603 96.1201 73.5654 96.1187 72.8477V68.5346C96.1391 67.0491 95.0737 65.789 93.6086 65.5431ZM93.373 72.8477C93.373 72.9809 93.2808 73.0936 93.1476 73.1141L88.8448 73.8312C88.3018 73.9234 87.8715 74.323 87.7383 74.8455C87.349 76.3515 86.7548 77.796 85.9557 79.1381C85.6791 79.6094 85.6996 80.1933 86.0172 80.6441L88.5476 84.2093C88.6194 84.3118 88.6091 84.4655 88.5169 84.5577L85.4639 87.6107C85.3922 87.6824 85.3205 87.6926 85.2693 87.6926C85.2078 87.6926 85.1566 87.6721 85.1156 87.6414L81.5606 85.1109C81.1201 84.7933 80.5259 84.7728 80.0546 85.0494C78.7125 85.8485 77.268 86.4427 75.762 86.832C75.2292 86.9652 74.8297 87.4058 74.7477 87.9385L74.0203 92.2414C73.9998 92.3745 73.8872 92.4668 73.754 92.4668H69.4409C69.3077 92.4668 69.195 92.3745 69.1745 92.2414L68.4573 87.9385C68.3651 87.3955 67.9656 86.9652 67.4431 86.832C65.9781 86.453 64.5643 85.869 63.2427 85.1109C63.0275 84.988 62.7817 84.9265 62.546 84.9265C62.2694 84.9265 61.9825 85.0084 61.7469 85.1826L58.1612 87.7336C58.11 87.7643 58.0587 87.7848 58.0075 87.7848C57.9665 87.7848 57.8846 87.7746 57.8129 87.7029L54.7599 84.6499C54.6677 84.5577 54.6574 84.4142 54.7291 84.3015L57.2494 80.767C57.567 80.3163 57.5875 79.7221 57.3109 79.2508C56.5118 77.919 55.8971 76.4744 55.5078 74.9684C55.3643 74.4459 54.934 74.0464 54.4013 73.9542L50.0677 73.2165C49.9345 73.196 49.8423 73.0834 49.8423 72.9502V68.6371C49.8423 68.5039 49.9345 68.3912 50.0677 68.3707L54.3398 67.6535C54.8828 67.5613 55.3233 67.1618 55.4565 66.629C55.8356 65.123 56.4196 63.6683 57.2084 62.3262C57.485 61.8549 57.4543 61.271 57.1367 60.8304L54.5857 57.2447C54.514 57.1422 54.5242 56.9886 54.6164 56.8964L57.6694 53.8434C57.7411 53.7717 57.8129 53.7614 57.8641 53.7614C57.9256 53.7614 57.9768 53.7819 58.0178 53.8126L61.5523 56.3329C62.003 56.6505 62.5972 56.671 63.0685 56.3944C64.4004 55.5953 65.8449 54.9806 67.3509 54.5913C67.8734 54.4478 68.2729 54.0175 68.3651 53.4848L69.1028 49.1512C69.1233 49.018 69.236 48.9258 69.3691 48.9258H73.6823C73.8154 48.9258 73.9281 49.018 73.9486 49.1512L74.6658 53.4233C74.758 53.9663 75.1575 54.4068 75.6903 54.54C77.2372 54.9293 78.7125 55.5338 80.0853 56.3431C80.5566 56.6198 81.1406 56.5993 81.5913 56.2817L85.1258 53.7409C85.1771 53.7102 85.2283 53.6897 85.2795 53.6897C85.3205 53.6897 85.4025 53.6999 85.4742 53.7717L88.5272 56.8247C88.6194 56.9169 88.6296 57.0603 88.5579 57.173L86.0274 60.728C85.7098 61.1685 85.6893 61.7627 85.9659 62.234C86.765 63.5761 87.3592 65.0206 87.7485 66.5266C87.8817 67.0593 88.3223 67.4589 88.855 67.5408L93.1579 68.2682C93.291 68.2887 93.3833 68.4014 93.3833 68.5346V72.8477H93.373Z" fill="white"/>
<path d="M93.6086 65.5431L90.1663 64.9591C89.8078 63.8014 89.3468 62.6847 88.7833 61.6193L90.8118 58.7814C91.6724 57.5725 91.5392 55.9231 90.4839 54.8781L87.431 51.8251C86.8572 51.2514 86.0991 50.9338 85.2898 50.9338C84.6546 50.9338 84.0501 51.1285 83.5379 51.4973L80.6898 53.5258C79.5833 52.9418 78.4257 52.4603 77.227 52.1017L76.6533 48.7004C76.5357 47.9924 76.1703 47.3492 75.6223 46.8857C75.0744 46.4222 74.3795 46.1685 73.6618 46.1699H69.3487C67.8631 46.1699 66.603 47.2354 66.3571 48.7004L65.7629 52.1837C64.6155 52.5423 63.4988 53.0135 62.4333 53.5873L59.616 51.5588C59.1037 51.1899 58.489 50.9953 57.8538 50.9953C57.0445 50.9953 56.2761 51.3129 55.7127 51.8866L52.6494 54.9396C51.6044 55.9846 51.461 57.634 52.3216 58.8429L54.3706 61.7217C53.8071 62.7974 53.3563 63.9141 53.008 65.0718L49.6067 65.6455C48.8987 65.7631 48.2555 66.1285 47.7919 66.6765C47.3284 67.2245 47.0747 67.9193 47.0762 68.6371V72.9502C47.0762 74.4357 48.1417 75.6958 49.6067 75.9417L53.09 76.5359C53.4485 77.6833 53.9198 78.8 54.4935 79.8655L52.4753 82.6726C51.6147 83.8815 51.7479 85.5309 52.8031 86.5759L55.8561 89.6289C56.4298 90.2026 57.1879 90.5202 57.9973 90.5202C58.6325 90.5202 59.2369 90.3256 59.7492 89.9567L62.628 87.9078C63.6627 88.4507 64.7487 88.8913 65.8654 89.2396L66.4391 92.6819C66.5567 93.3899 66.9221 94.0331 67.4701 94.4966C68.018 94.9601 68.7129 95.2138 69.4306 95.2124H73.754C75.2395 95.2124 76.4996 94.1469 76.7455 92.6819L77.3295 89.2396C78.4871 88.881 79.6038 88.42 80.6693 87.8565L83.5071 89.885C84.0194 90.2538 84.6341 90.4485 85.2693 90.4485C86.0786 90.4485 86.8367 90.1309 87.4105 89.5572L90.4635 86.5042C91.5084 85.4592 91.6519 83.8098 90.7913 82.6009L88.7628 79.7528C89.3263 78.6771 89.7975 77.5604 90.1459 76.413L93.5882 75.8392C94.2962 75.7216 94.9394 75.3562 95.4029 74.8083C95.8664 74.2603 96.1201 73.5654 96.1187 72.8477V68.5346C96.1391 67.0491 95.0737 65.789 93.6086 65.5431ZM93.373 72.8477C93.373 72.9809 93.2808 73.0936 93.1476 73.1141L88.8448 73.8312C88.3018 73.9234 87.8715 74.323 87.7383 74.8455C87.349 76.3515 86.7548 77.796 85.9557 79.1381C85.6791 79.6094 85.6996 80.1933 86.0172 80.6441L88.5476 84.2093C88.6194 84.3118 88.6091 84.4655 88.5169 84.5577L85.4639 87.6107C85.3922 87.6824 85.3205 87.6926 85.2693 87.6926C85.2078 87.6926 85.1566 87.6721 85.1156 87.6414L81.5606 85.1109C81.1201 84.7933 80.5259 84.7728 80.0546 85.0494C78.7125 85.8485 77.268 86.4427 75.762 86.832C75.2292 86.9652 74.8297 87.4058 74.7477 87.9385L74.0203 92.2414C73.9998 92.3745 73.8872 92.4668 73.754 92.4668H69.4409C69.3077 92.4668 69.195 92.3745 69.1745 92.2414L68.4573 87.9385C68.3651 87.3955 67.9656 86.9652 67.4431 86.832C65.9781 86.453 64.5643 85.869 63.2427 85.1109C63.0275 84.988 62.7817 84.9265 62.546 84.9265C62.2694 84.9265 61.9825 85.0084 61.7469 85.1826L58.1612 87.7336C58.11 87.7643 58.0587 87.7848 58.0075 87.7848C57.9665 87.7848 57.8846 87.7746 57.8129 87.7029L54.7599 84.6499C54.6677 84.5577 54.6574 84.4142 54.7291 84.3015L57.2494 80.767C57.567 80.3163 57.5875 79.7221 57.3109 79.2508C56.5118 77.919 55.8971 76.4744 55.5078 74.9684C55.3643 74.4459 54.934 74.0464 54.4013 73.9542L50.0677 73.2165C49.9345 73.196 49.8423 73.0834 49.8423 72.9502V68.6371C49.8423 68.5039 49.9345 68.3912 50.0677 68.3707L54.3398 67.6535C54.8828 67.5613 55.3233 67.1618 55.4565 66.629C55.8356 65.123 56.4196 63.6683 57.2084 62.3262C57.485 61.8549 57.4543 61.271 57.1367 60.8304L54.5857 57.2447C54.514 57.1422 54.5242 56.9886 54.6164 56.8964L57.6694 53.8434C57.7411 53.7717 57.8129 53.7614 57.8641 53.7614C57.9256 53.7614 57.9768 53.7819 58.0178 53.8126L61.5523 56.3329C62.003 56.6505 62.5972 56.671 63.0685 56.3944C64.4004 55.5953 65.8449 54.9806 67.3509 54.5913C67.8734 54.4478 68.2729 54.0175 68.3651 53.4848L69.1028 49.1512C69.1233 49.018 69.236 48.9258 69.3691 48.9258H73.6823C73.8154 48.9258 73.9281 49.018 73.9486 49.1512L74.6658 53.4233C74.758 53.9663 75.1575 54.4068 75.6903 54.54C77.2372 54.9293 78.7125 55.5338 80.0853 56.3431C80.5566 56.6198 81.1406 56.5993 81.5913 56.2817L85.1258 53.7409C85.1771 53.7102 85.2283 53.6897 85.2795 53.6897C85.3205 53.6897 85.4025 53.6999 85.4742 53.7717L88.5272 56.8247C88.6194 56.9169 88.6296 57.0603 88.5579 57.173L86.0274 60.728C85.7098 61.1685 85.6893 61.7627 85.9659 62.234C86.765 63.5761 87.3592 65.0206 87.7485 66.5266C87.8817 67.0593 88.3223 67.4589 88.855 67.5408L93.1579 68.2682C93.291 68.2887 93.3833 68.4014 93.3833 68.5346V72.8477H93.373Z" stroke="#275AAE" stroke-width="8" mask="url(#path-9-outside-1_682_254)"/>
<path d="M71.6025 58.1029C64.6584 58.1029 59.0195 63.7417 59.0195 70.6859C59.0195 77.6301 64.6584 83.2689 71.6025 83.2689C78.5467 83.2689 84.1855 77.6301 84.1855 70.6859C84.1855 63.7417 78.5467 58.1029 71.6025 58.1029ZM71.6025 76.5028C68.394 76.5028 65.7857 73.8945 65.7857 70.6859C65.7857 67.4774 68.394 64.869 71.6025 64.869C74.8111 64.869 77.4194 67.4774 77.4194 70.6859C77.4194 73.8945 74.8111 76.5028 71.6025 76.5028Z" fill="white" stroke="#275AAE" stroke-width="4"/>
</g>
<defs>
<clipPath id="clip0_682_254">
<rect width="100" height="100" fill="white"/>
</clipPath>
</defs>
</svg>
