<svg width="150" height="150" viewBox="0 0 150 150" fill="none" xmlns="http://www.w3.org/2000/svg">
<rect width="150" height="150" fill="white"/>
<g clip-path="url(#clip0_831_576)">
<path d="M76.5433 123.539C66.3801 123.833 56.358 121.105 47.7444 115.698C39.1309 110.291 32.3129 102.45 28.1526 93.1648C23.9923 83.88 22.6766 73.5689 24.372 63.5356C26.0673 53.5023 30.6975 44.1976 37.677 36.7981C44.6565 29.3986 53.6718 24.2367 63.5827 21.9653C73.4936 19.6939 83.855 20.4149 93.3564 24.0373C102.858 27.6596 111.073 34.0205 116.962 42.3155C122.851 50.6106 126.15 60.4671 126.441 70.6387C126.637 77.3916 125.502 84.117 123.1 90.4306C120.698 96.7442 117.077 102.522 112.443 107.435C107.809 112.348 102.254 116.298 96.094 119.062C89.9342 121.825 83.2908 123.346 76.5433 123.539ZM144.091 70.1298C143.687 56.4833 139.251 43.2628 131.342 32.1387C123.434 21.0147 112.408 12.4864 99.6581 7.63139C86.9084 2.7764 73.0069 1.81263 59.71 4.86185C46.4132 7.91107 34.3179 14.8364 24.9524 24.7629C15.5868 34.6894 9.37139 47.1714 7.09144 60.6319C4.81149 74.0923 6.56934 87.9271 12.1429 100.388C17.7164 112.849 26.8555 123.377 38.4053 130.642C49.9551 137.906 63.3974 141.582 77.0335 141.203C86.1022 140.951 95.0322 138.912 103.312 135.203C111.593 131.493 119.061 126.186 125.289 119.584C131.518 112.983 136.384 105.217 139.611 96.7307C142.837 88.2447 144.359 79.2053 144.091 70.1298Z" fill="#0066B3"/>
<path d="M75 122.322C61.8935 122.207 49.3524 116.963 40.0597 107.712C30.767 98.461 25.4605 85.9379 25.2754 72.8216C25.0904 59.7052 30.0414 47.0372 39.0695 37.5275C48.0975 28.0177 60.4856 22.4215 73.5836 21.936H75.0544C88.2448 21.9179 100.911 27.1013 110.31 36.3633C119.709 45.6253 125.084 58.2203 125.27 71.4201C125.456 84.6198 120.439 97.3617 111.305 106.886C102.172 116.41 89.6564 121.949 76.4708 122.304H75M75 123.539H76.5071C90.0254 123.18 102.858 117.505 112.224 107.742C121.59 97.9795 126.735 84.9164 126.544 71.3837C126.353 57.8509 120.841 44.9386 111.203 35.4447C101.565 25.9509 88.5775 20.6404 75.0544 20.6639H73.5473C59.9139 20.8567 46.9153 26.4618 37.4113 36.2463C27.9072 46.0308 22.676 59.1931 22.8687 72.8376C23.0613 86.4822 28.6619 99.4913 38.4384 109.003C48.2149 118.515 61.3665 123.75 75 123.558" fill="white"/>
<path d="M75.0906 23.1717H73.6561C60.6776 23.35 48.3015 28.6809 39.2503 37.9917C30.1991 47.3024 25.2143 59.8303 25.3925 72.8193C25.5707 85.8083 30.8973 98.1945 40.2004 107.253C49.5036 116.312 62.0213 121.3 74.9998 121.122H76.4343C89.2016 120.644 101.275 115.185 110.074 105.914C118.872 96.6425 123.697 84.2939 123.517 71.5086C123.336 58.7233 118.165 46.5159 109.109 37.4966C100.053 28.4774 87.83 23.362 75.0543 23.2444L75.0906 23.1717ZM74.9998 124.757C64.7411 124.713 54.7185 121.672 46.1633 116.006C37.608 110.34 30.8928 102.296 26.8426 92.8629C22.7924 83.4298 21.5836 73.0181 23.3647 62.9069C25.1457 52.7957 29.8391 43.4254 36.8683 35.947C41.5897 30.9079 47.2621 26.8551 53.5577 24.0229C59.8533 21.1907 66.6474 19.6352 73.5472 19.4463H75.0906C89.0563 19.2511 102.528 24.6163 112.541 34.3615C122.554 44.1068 128.289 57.4339 128.484 71.4109C128.679 85.388 123.318 98.8701 113.581 108.891C103.843 118.913 90.5271 124.652 76.5614 124.848H74.9998" fill="#0066B3"/>
<path d="M123.826 111.345L121.629 107.983L120.05 109.982L123.826 111.345ZM116.109 110.473L115.728 110.309C115.728 110.309 115.601 110.2 115.601 110.128C115.567 110.04 115.567 109.943 115.601 109.855C115.7 109.708 115.809 109.569 115.928 109.437C116.033 109.284 116.148 109.138 116.273 109.001C116.341 108.923 116.421 108.856 116.509 108.801C116.532 108.791 116.556 108.786 116.581 108.786C116.606 108.786 116.631 108.791 116.654 108.801H116.799L118.615 109.455L120.721 106.802L119.705 105.276C119.699 105.221 119.699 105.166 119.705 105.112C119.686 105.053 119.686 104.989 119.705 104.93L119.85 104.676L120.14 104.294L120.467 103.913C120.496 103.877 120.532 103.847 120.572 103.825C120.613 103.803 120.657 103.79 120.703 103.785C120.703 103.785 120.83 103.785 120.903 103.876C120.993 103.977 121.072 104.086 121.139 104.203L125.66 111.345C125.667 111.406 125.667 111.467 125.66 111.527C125.669 111.599 125.669 111.673 125.66 111.745L125.479 112.036C125.373 112.188 125.258 112.334 125.134 112.472L124.734 112.981L124.444 113.253C124.379 113.273 124.309 113.273 124.244 113.253C124.166 113.27 124.086 113.27 124.008 113.253L116.109 110.473ZM124.462 102.386C124.621 102.487 124.801 102.549 124.988 102.568C125.15 102.604 125.317 102.604 125.479 102.568C125.652 102.501 125.807 102.396 125.933 102.259C126.128 102.078 126.289 101.863 126.405 101.623L126.986 100.605L124.716 99.3149L124.135 100.351C124.01 100.568 123.912 100.8 123.844 101.041C123.819 101.216 123.819 101.394 123.844 101.568C123.881 101.737 123.949 101.897 124.044 102.041C124.159 102.194 124.309 102.319 124.48 102.404M123.681 104.094C123.345 103.905 123.049 103.652 122.81 103.349C122.578 103.07 122.416 102.74 122.337 102.386C122.248 101.985 122.248 101.569 122.337 101.169C122.455 100.614 122.67 100.085 122.973 99.6057L124.153 97.4977C124.181 97.4282 124.223 97.3651 124.276 97.312C124.329 97.259 124.392 97.2171 124.462 97.1887C124.544 97.173 124.628 97.1746 124.709 97.1934C124.791 97.2122 124.867 97.2477 124.934 97.2978L131.743 101.132C131.818 101.161 131.885 101.208 131.939 101.268C131.993 101.328 132.031 101.4 132.052 101.477C132.104 101.612 132.104 101.761 132.052 101.895L129.473 106.348L129.383 106.439H129.237H129.001L128.711 106.293L128.42 106.112C128.357 106.067 128.302 106.011 128.257 105.948C128.243 105.907 128.243 105.862 128.257 105.821C128.247 105.801 128.242 105.779 128.242 105.757C128.242 105.735 128.247 105.713 128.257 105.694L130.073 102.386L128.112 101.278L127.385 102.586C127.16 103.009 126.879 103.401 126.55 103.749C126.286 103.997 125.978 104.194 125.642 104.331C125.331 104.454 124.994 104.498 124.662 104.458C124.297 104.425 123.944 104.313 123.627 104.131M125.66 95.4078C125.625 95.4203 125.587 95.4203 125.551 95.4078C125.551 95.4078 125.551 95.317 125.551 95.2443C125.544 95.1475 125.544 95.0503 125.551 94.9535C125.588 94.7987 125.637 94.6468 125.697 94.4992C125.723 94.2827 125.771 94.0695 125.842 93.8632C125.875 93.7651 125.924 93.673 125.987 93.5906C126.023 93.5396 126.074 93.5014 126.132 93.4815H126.314H128.438C128.698 93.5127 128.96 93.5127 129.219 93.4815C129.416 93.4542 129.606 93.3927 129.782 93.2998C129.933 93.2146 130.064 93.0967 130.163 92.9545C130.268 92.7982 130.348 92.6265 130.399 92.4457L130.527 92.1004L127.113 90.9737C127.113 90.9737 127.113 90.9737 127.004 90.9737C126.983 90.9212 126.983 90.8626 127.004 90.8101C126.999 90.7194 126.999 90.6283 127.004 90.5376L127.131 90.1196L127.276 89.7198L127.422 89.4654L127.549 89.3563H127.658L131.053 90.483L131.18 90.1559C131.213 89.9574 131.213 89.7548 131.18 89.5562C131.189 89.38 131.152 89.2044 131.071 89.0474C130.992 88.8712 130.881 88.7111 130.744 88.5749C130.568 88.4049 130.38 88.2471 130.182 88.1024L128.366 86.8485L128.475 86.5941C128.463 86.528 128.463 86.4603 128.475 86.3942C128.469 86.2974 128.469 86.2003 128.475 86.1034C128.507 85.9494 128.55 85.7976 128.602 85.6491C128.654 85.5003 128.714 85.3547 128.783 85.213C128.819 85.119 128.861 85.0278 128.911 84.9404L129.038 84.8313C129.084 84.8131 129.136 84.8131 129.183 84.8313C129.183 84.8313 129.183 84.8313 129.292 84.8313H129.419L129.601 84.9767L131.108 86.1398C131.357 86.3166 131.588 86.5175 131.798 86.7395C131.963 86.8929 132.104 87.0706 132.215 87.2665C132.327 87.4189 132.407 87.5918 132.451 87.7753C132.461 87.963 132.461 88.151 132.451 88.3387C132.547 88.2005 132.663 88.0779 132.796 87.9752C132.93 87.8616 133.084 87.7752 133.25 87.7208C133.452 87.6556 133.658 87.607 133.868 87.5754C134.152 87.5544 134.437 87.5544 134.721 87.5754H136.791H136.991C137.026 87.5629 137.064 87.5629 137.1 87.5754C137.1 87.5754 137.1 87.6663 137.1 87.739C137.107 87.8297 137.107 87.9208 137.1 88.0116C137.069 88.1602 137.027 88.306 136.973 88.4477C136.93 88.5974 136.876 88.7433 136.809 88.8838C136.809 88.9929 136.809 89.1019 136.664 89.1383C136.63 89.1951 136.579 89.2397 136.519 89.2655H136.337H134.358C134.122 89.2454 133.885 89.2454 133.65 89.2655C133.472 89.2783 133.299 89.3278 133.141 89.4109C133 89.4954 132.877 89.6064 132.778 89.738C132.667 89.8932 132.581 90.0649 132.524 90.2468L132.415 90.5921L135.611 91.6461C135.646 91.6349 135.684 91.6349 135.72 91.6461C135.72 91.6461 135.72 91.6461 135.72 91.8096C135.734 91.8999 135.734 91.992 135.72 92.0822C135.694 92.2262 135.652 92.3665 135.593 92.5002C135.553 92.6365 135.505 92.7701 135.447 92.9C135.411 92.9912 135.362 93.0768 135.302 93.1544C135.274 93.2051 135.229 93.2439 135.175 93.2635H135.048L132.016 92.5911L131.907 92.9182C131.837 93.098 131.8 93.2887 131.798 93.4815C131.797 93.6454 131.834 93.8071 131.907 93.954C131.991 94.1214 132.102 94.2747 132.233 94.4083C132.39 94.5755 132.567 94.7221 132.76 94.8445L134.376 95.9893C134.426 96.0163 134.469 96.0535 134.503 96.0984C134.521 96.1576 134.521 96.2209 134.503 96.2801C134.518 96.3765 134.518 96.4745 134.503 96.5709C134.479 96.7269 134.437 96.8795 134.376 97.0252C134.334 97.1691 134.279 97.309 134.213 97.4432C134.178 97.5315 134.135 97.6166 134.086 97.6976C134.053 97.7438 134.009 97.7813 133.958 97.8066H133.831H133.613L133.341 97.4977L132.016 96.48C131.794 96.317 131.581 96.141 131.38 95.953C131.231 95.8032 131.097 95.6389 130.981 95.4623C130.892 95.3151 130.825 95.156 130.781 94.9899C130.753 94.8153 130.753 94.6374 130.781 94.4629C130.65 94.6161 130.504 94.7561 130.345 94.8808C130.188 94.993 130.017 95.0845 129.837 95.1534C129.625 95.2314 129.406 95.2862 129.183 95.317C128.881 95.3378 128.577 95.3378 128.275 95.317H125.697M131.834 81.5239C131.41 81.3003 131.003 81.0452 130.617 80.7607C130.342 80.5662 130.107 80.3192 129.927 80.0338C129.753 79.8078 129.646 79.5368 129.619 79.2523C129.564 78.9458 129.564 78.632 129.619 78.3255V77.9621C129.619 77.8531 129.619 77.744 129.746 77.635C129.777 77.5451 129.82 77.4596 129.873 77.3806L130 77.217H130.109H130.272H130.527H130.89C131.084 77.2227 131.275 77.2659 131.453 77.3442C131.562 77.3442 131.616 77.4714 131.598 77.5441C131.613 77.5914 131.613 77.6422 131.598 77.6895C131.541 77.7355 131.492 77.7908 131.453 77.8531C131.403 77.9275 131.36 78.0066 131.326 78.0893C131.313 78.198 131.313 78.3077 131.326 78.4164C131.307 78.5064 131.307 78.599 131.326 78.689C131.31 78.7731 131.31 78.8593 131.326 78.9434C131.388 79.0313 131.461 79.1107 131.543 79.1796C131.66 79.2895 131.788 79.3869 131.925 79.4704L138.298 77.3442C138.418 77.3232 138.541 77.3232 138.661 77.3442C138.693 77.3296 138.727 77.322 138.761 77.322C138.796 77.322 138.83 77.3296 138.861 77.3442C138.887 77.4394 138.887 77.5398 138.861 77.635C138.875 77.8104 138.875 77.9866 138.861 78.162C138.861 78.3801 138.861 78.5436 138.861 78.6708C138.85 78.7811 138.813 78.887 138.752 78.9798C138.724 79.0494 138.673 79.1071 138.607 79.1433L138.371 79.2342L135.502 80.1246L134.594 80.4154L133.668 80.6516L134.539 81.0696L135.411 81.5239L138.008 82.9051C138.064 82.9374 138.113 82.9806 138.153 83.0323C138.159 83.0866 138.159 83.1415 138.153 83.1958C138.162 83.2986 138.162 83.402 138.153 83.5047C138.153 83.632 138.153 83.8137 138.153 84.0136C138.163 84.177 138.163 84.3408 138.153 84.5042C138.133 84.6009 138.096 84.6933 138.044 84.7768C138.019 84.7912 137.991 84.7987 137.962 84.7987C137.934 84.7987 137.905 84.7912 137.881 84.7768C137.743 84.8114 137.6 84.8114 137.463 84.7768L131.834 81.5239ZM130.345 74.2549H130.218C130.201 74.2078 130.201 74.1565 130.218 74.1095C130.204 74.0192 130.204 73.9272 130.218 73.8369C130.206 73.6918 130.206 73.5459 130.218 73.4008V72.9464C130.218 72.8374 130.218 72.7465 130.218 72.6739C130.211 72.6195 130.211 72.5646 130.218 72.5103H130.345L137.608 72.2922V70.3659C136.537 70.2569 135.611 70.166 134.83 70.0388C134.139 69.9648 133.453 69.8433 132.778 69.6754C132.298 69.5705 131.83 69.4183 131.38 69.221C131.059 69.069 130.765 68.8665 130.508 68.6214C130.291 68.4025 130.129 68.1345 130.036 67.8399C129.955 67.5124 129.906 67.1776 129.891 66.8404C129.882 66.7802 129.882 66.7189 129.891 66.6587C129.917 66.6084 129.954 66.5648 130 66.5315H130.218H130.563C130.726 66.513 130.89 66.513 131.053 66.5315H131.326C131.318 66.5578 131.306 66.5824 131.289 66.6042C131.3 66.6459 131.3 66.6897 131.289 66.7314C131.297 66.8708 131.334 67.007 131.398 67.1312C131.476 67.2879 131.595 67.42 131.743 67.5128C131.979 67.6487 132.228 67.7584 132.488 67.8399C132.893 67.9667 133.305 68.0698 133.722 68.1489L135.538 68.4033C136.264 68.4941 137.136 68.5668 138.153 68.6577C138.326 68.6619 138.495 68.7121 138.643 68.8031C138.74 68.9002 138.798 69.0295 138.807 69.1665L138.934 73.5825C138.943 73.6516 138.937 73.722 138.915 73.7881C138.893 73.8543 138.856 73.9145 138.807 73.9641C138.749 74.0191 138.68 74.0619 138.605 74.09C138.53 74.118 138.451 74.1309 138.371 74.1277L130.345 74.2549ZM130.999 65.0413H130.708H130.508H130.345H130.182C130.088 64.9664 130.002 64.881 129.927 64.7869C129.818 64.6597 129.709 64.4962 129.582 64.3144C129.455 64.1327 129.364 63.8965 129.256 63.642C129.161 63.3618 129.083 63.0767 129.019 62.7879C128.911 62.2298 128.911 61.656 129.019 61.0979C129.104 60.5902 129.31 60.1103 129.619 59.6986C129.948 59.2606 130.369 58.9007 130.853 58.6446C131.421 58.3342 132.034 58.1135 132.669 57.9904C133.35 57.854 134.049 57.8233 134.739 57.8995C135.312 57.9705 135.863 58.1625 136.355 58.4628C136.821 58.7415 137.213 59.1279 137.499 59.5895C137.82 60.066 138.036 60.6047 138.135 61.1706C138.161 61.4122 138.161 61.6559 138.135 61.8975C138.135 62.1337 138.135 62.3518 138.135 62.5699C138.112 62.7615 138.069 62.9503 138.008 63.1332C137.971 63.2615 137.916 63.3839 137.844 63.4967L137.717 63.6602C137.669 63.6669 137.62 63.6669 137.572 63.6602C137.5 63.6731 137.426 63.6731 137.354 63.6602H137.045H136.682C136.604 63.6694 136.524 63.6694 136.446 63.6602C136.399 63.6785 136.347 63.6785 136.301 63.6602C136.291 63.6436 136.286 63.6248 136.286 63.6057C136.286 63.5866 136.291 63.5678 136.301 63.5512C136.265 63.4638 136.265 63.366 136.301 63.2786L136.482 62.8061C136.575 62.6844 136.66 62.5569 136.737 62.4245C136.78 62.1476 136.78 61.8655 136.737 61.5885C136.679 61.2577 136.542 60.9459 136.337 60.6799C136.135 60.4335 135.881 60.2349 135.593 60.0984C135.256 59.9613 134.901 59.8756 134.539 59.844C134.101 59.829 133.662 59.8656 133.232 59.953C132.778 60.0263 132.337 60.1672 131.925 60.371C131.604 60.5286 131.314 60.7442 131.071 61.007C130.878 61.2456 130.741 61.5253 130.672 61.8248C130.599 62.1478 130.599 62.483 130.672 62.8061C130.716 63.0922 130.808 63.3688 130.944 63.6239C131.05 63.8151 131.172 63.9974 131.307 64.1691C131.402 64.2966 131.512 64.4125 131.634 64.5143C131.705 64.5807 131.76 64.6612 131.798 64.7506C131.798 64.7506 131.798 64.8414 131.798 64.8596C131.798 64.8778 131.798 64.8596 131.798 64.9505H131.562H131.18M130.835 43.634L130.2 42.9798C130.072 42.7152 129.907 42.4704 129.709 42.2528C129.578 42.1284 129.424 42.0298 129.256 41.9621C129.094 41.9266 128.927 41.9266 128.765 41.9621C128.588 41.997 128.416 42.0582 128.257 42.1438C128.103 42.2334 127.963 42.3435 127.839 42.4709C127.741 42.6248 127.679 42.7987 127.658 42.9798C127.62 43.1596 127.62 43.3451 127.658 43.5249C127.723 43.8018 127.833 44.0658 127.984 44.3064L128.438 45.1605L130.835 43.634ZM125.261 48.7405C125.214 48.7587 125.162 48.7587 125.116 48.7405C125.116 48.7405 125.116 48.7405 124.97 48.6496L124.807 48.4315C124.718 48.3106 124.64 48.183 124.571 48.0499L124.389 47.6683C124.373 47.5781 124.373 47.4859 124.389 47.3957C124.371 47.3365 124.371 47.2732 124.389 47.214C124.38 47.1845 124.38 47.1526 124.389 47.1231L127.331 45.5239L127.022 44.9242C126.926 44.7335 126.797 44.5612 126.641 44.4154C126.525 44.3041 126.38 44.2284 126.223 44.1973C126.049 44.1671 125.871 44.1671 125.697 44.1973H125.043L122.828 44.797C122.775 44.8165 122.717 44.8165 122.664 44.797C122.664 44.797 122.555 44.797 122.501 44.7062C122.425 44.6353 122.358 44.556 122.301 44.4699C122.301 44.3609 122.156 44.2155 122.065 44.0519C121.984 43.9045 121.912 43.7528 121.847 43.5976C121.829 43.5077 121.829 43.4149 121.847 43.325C121.836 43.2711 121.836 43.2154 121.847 43.1615H122.011H122.319L124.135 42.9071H124.789C124.97 42.8963 125.152 42.8963 125.333 42.9071C125.498 42.9395 125.656 42.9946 125.806 43.0706C125.955 43.1271 126.091 43.2137 126.205 43.325C126.178 43.0531 126.178 42.7792 126.205 42.5073C126.215 42.2647 126.264 42.0253 126.35 41.7985C126.449 41.5777 126.584 41.375 126.75 41.1988C126.938 41.0044 127.16 40.8445 127.403 40.7263C127.732 40.5358 128.097 40.4181 128.475 40.3811C128.826 40.3476 129.181 40.3974 129.51 40.5264C129.869 40.6823 130.195 40.9042 130.472 41.1807C130.869 41.6115 131.205 42.0945 131.471 42.6163L132.506 44.5608C132.558 44.6889 132.558 44.8325 132.506 44.9606C132.482 45.0345 132.441 45.1022 132.388 45.1588C132.335 45.2153 132.269 45.2593 132.197 45.2877L125.261 48.7405ZM124.298 34.0206L120.395 35.529L121.883 37.528L124.298 34.0206ZM121.629 41.2897C121.562 41.4062 121.476 41.5106 121.375 41.5986C121.352 41.6301 121.322 41.6562 121.287 41.675C121.253 41.6938 121.214 41.705 121.175 41.7077C121.084 41.6745 121.002 41.6181 120.939 41.5441L120.395 41.3442L120.068 40.9081C120.006 40.8251 119.957 40.7332 119.922 40.6355C119.91 40.6101 119.903 40.5821 119.903 40.5537C119.903 40.5253 119.91 40.4973 119.922 40.4719C119.912 40.449 119.907 40.4243 119.907 40.3992C119.907 40.3742 119.912 40.3495 119.922 40.3265L120.957 38.7455L118.978 36.0742L117.162 36.7102H116.981H116.817C116.735 36.6619 116.662 36.6005 116.6 36.5285L116.291 36.1468L116.073 35.7107C116.044 35.6222 116.044 35.5266 116.073 35.4381C116.098 35.3667 116.15 35.3081 116.218 35.2746L116.6 35.111L124.571 32.4033H124.789C124.854 32.3884 124.923 32.3884 124.988 32.4033C125.076 32.4726 125.155 32.5518 125.225 32.6395C125.333 32.7486 125.442 32.8939 125.588 33.0757L125.987 33.6027C126.061 33.7039 126.122 33.8138 126.169 33.9298C126.194 34.0065 126.194 34.0893 126.169 34.166C126.143 34.2378 126.106 34.3053 126.06 34.3659L121.629 41.2897ZM117.998 28.06C118.113 27.9342 118.21 27.7936 118.288 27.642C118.324 27.4988 118.324 27.3491 118.288 27.2059C118.266 27.0503 118.211 26.9014 118.125 26.7698C118.004 26.5753 117.857 26.398 117.689 26.2428L116.763 25.843L115.183 27.533L115.928 28.2417C116.08 28.3931 116.259 28.5162 116.454 28.6052C116.61 28.6403 116.771 28.6403 116.926 28.6052C117.072 28.6037 117.216 28.5663 117.344 28.4962C117.484 28.4256 117.608 28.3266 117.707 28.2054M115.437 31.3311C115.559 31.1867 115.663 31.0281 115.746 30.8586C115.781 30.6908 115.781 30.5176 115.746 30.3498C115.721 30.1555 115.652 29.9693 115.546 29.8046C115.403 29.5678 115.218 29.3586 115.002 29.1867L114.312 28.4416L112.496 30.2589L113.458 31.1494C113.609 31.3072 113.788 31.4365 113.985 31.531C114.137 31.6122 114.303 31.6616 114.475 31.6764C114.637 31.7107 114.804 31.7107 114.965 31.6764C115.131 31.605 115.279 31.4997 115.401 31.3674M116.817 32.6213C116.62 32.8341 116.394 33.0177 116.146 33.1665C115.916 33.294 115.662 33.3743 115.401 33.4028C115.149 33.448 114.891 33.448 114.638 33.4028C114.376 33.3615 114.12 33.2883 113.876 33.1847C113.619 33.0742 113.371 32.9467 113.131 32.8031C112.867 32.6104 112.612 32.4041 112.369 32.1852L110.644 30.5497C110.588 30.5058 110.541 30.4509 110.507 30.3884C110.472 30.326 110.451 30.2572 110.444 30.1862C110.441 30.1047 110.456 30.0235 110.487 29.9482C110.518 29.8729 110.566 29.8053 110.626 29.7501L115.964 24.0257C116.014 23.9627 116.077 23.912 116.15 23.8773C116.222 23.8427 116.301 23.8251 116.382 23.8258C116.525 23.8278 116.662 23.8866 116.763 23.9893L118.397 25.5158C118.753 25.8296 119.065 26.1903 119.323 26.588C119.535 26.8747 119.683 27.203 119.759 27.5512C119.832 27.8559 119.832 28.1733 119.759 28.478C119.654 28.8103 119.467 29.1105 119.214 29.3503C119.075 29.5034 118.916 29.6378 118.742 29.7501C118.576 29.8566 118.391 29.9305 118.197 29.9681C118.011 29.9952 117.821 29.9952 117.635 29.9681C117.435 29.9456 117.24 29.8967 117.053 29.8228C117.197 30.0247 117.313 30.2447 117.398 30.477C117.47 30.7064 117.507 30.9453 117.507 31.1857C117.488 31.4346 117.433 31.6794 117.344 31.9126C117.23 32.175 117.07 32.4149 116.872 32.6213M109.5 23.9167C109.734 23.5544 109.935 23.1711 110.099 22.7718C110.251 22.4473 110.331 22.0941 110.335 21.7359C110.34 21.4114 110.259 21.0914 110.099 20.8091C109.893 20.4819 109.613 20.2079 109.282 20.0095C108.99 19.7938 108.648 19.6585 108.288 19.617C107.927 19.5755 107.563 19.6294 107.23 19.7733C106.906 19.9267 106.611 20.1358 106.358 20.3912C106.072 20.6785 105.816 20.9952 105.596 21.3361C105.352 21.7022 105.145 22.0919 104.978 22.4992C104.827 22.8236 104.746 23.1768 104.742 23.535C104.73 23.8603 104.812 24.1821 104.978 24.4618C105.189 24.785 105.468 25.058 105.796 25.2614C106.113 25.4826 106.482 25.6201 106.867 25.6612C107.202 25.6811 107.537 25.6252 107.847 25.4977C108.18 25.3493 108.482 25.1397 108.737 24.8798C109.02 24.5823 109.275 24.2599 109.5 23.9167ZM111.152 24.8798C110.787 25.4504 110.34 25.9646 109.827 26.4063C109.385 26.7738 108.872 27.046 108.32 27.2059C107.776 27.333 107.211 27.333 106.667 27.2059C106.018 27.0811 105.401 26.8278 104.851 26.4608C104.329 26.1251 103.863 25.708 103.471 25.2251C103.151 24.8094 102.933 24.3237 102.836 23.8076C102.759 23.2585 102.809 22.699 102.981 22.1721C103.189 21.5236 103.496 20.9108 103.889 20.3548C104.237 19.7875 104.679 19.2836 105.196 18.8647C105.628 18.4966 106.137 18.2296 106.685 18.0832C107.228 17.9471 107.795 17.9471 108.338 18.0832C108.988 18.2041 109.606 18.4578 110.153 18.8283C110.674 19.1526 111.135 19.5645 111.515 20.0459C111.843 20.4573 112.062 20.9449 112.151 21.4633C112.237 22.0038 112.199 22.5567 112.042 23.0807C111.838 23.7276 111.538 24.3402 111.152 24.898M104.052 16.2115C104.01 16.3202 103.955 16.4238 103.889 16.5204C103.855 16.591 103.805 16.6531 103.744 16.7021C103.702 16.7121 103.658 16.7121 103.617 16.7021C103.576 16.7174 103.531 16.7174 103.49 16.7021L100.784 15.4664L97.7516 22.0449C97.7628 22.0804 97.7628 22.1184 97.7516 22.1539H97.5882H97.3159L96.8982 21.9722L96.5169 21.7723C96.4271 21.7359 96.3465 21.6801 96.2809 21.6087C96.2334 21.5698 96.196 21.5199 96.1719 21.4633C96.1719 21.4633 96.1719 21.4633 96.1719 21.3361L99.5493 13.9035C99.6059 13.7585 99.7165 13.6412 99.858 13.5764C99.992 13.5228 100.142 13.5228 100.276 13.5764L104.161 15.3937C104.161 15.3937 104.27 15.5027 104.27 15.6299C104.251 15.8286 104.189 16.0208 104.089 16.1933M93.3574 15.7208C93.4838 15.307 93.5629 14.8803 93.5935 14.4487C93.63 14.0948 93.5992 13.7371 93.5027 13.3947C93.4069 13.0878 93.2314 12.8119 92.9943 12.5951C92.7044 12.3517 92.3628 12.1776 91.9956 12.0863C91.6156 11.9791 91.2135 11.9791 90.8335 12.0863C90.5086 12.1597 90.2083 12.3162 89.9619 12.5406C89.6927 12.7749 89.4708 13.0587 89.3082 13.3765C89.1304 13.7386 88.9845 14.1156 88.8724 14.5032C88.7557 14.9017 88.6707 15.3088 88.6182 15.7208C88.5511 16.0689 88.5511 16.4267 88.6182 16.7748C88.7111 17.0882 88.8868 17.3707 89.1267 17.5926C89.4229 17.8368 89.7705 18.0108 90.1435 18.1014C90.5187 18.1984 90.9123 18.1984 91.2874 18.1014C91.6152 18.021 91.9197 17.8654 92.1772 17.6471C92.4428 17.3954 92.6639 17.1005 92.8309 16.7748C93.0378 16.4401 93.214 16.0873 93.3574 15.7208ZM95.1732 16.1569C94.9936 16.8003 94.7181 17.4129 94.3561 17.9742C94.0676 18.5203 93.6576 18.9929 93.1577 19.3553C92.682 19.6433 92.1489 19.8233 91.5961 19.8823C90.9837 19.9297 90.3678 19.8619 89.7803 19.6824C89.179 19.5238 88.6082 19.2658 88.0917 18.9192C87.6552 18.6239 87.2994 18.2241 87.0567 17.7561C86.8181 17.2632 86.694 16.7228 86.6935 16.1751C86.7008 15.4796 86.8047 14.7885 87.0022 14.1216C87.1804 13.4807 87.4494 12.8688 87.8011 12.3043C88.1145 11.8268 88.5224 11.4186 88.9995 11.1049C89.4728 10.8118 90.0071 10.6315 90.5611 10.5779C91.1736 10.5232 91.7909 10.5912 92.3769 10.7778C92.9704 10.934 93.5346 11.1856 94.0474 11.5229C94.4788 11.8187 94.8286 12.2188 95.0643 12.686C95.3064 13.1719 95.4367 13.7059 95.4456 14.2488C95.4565 14.9383 95.3585 15.6253 95.1551 16.2841M83.5704 17.8288C83.5804 17.8645 83.5804 17.9022 83.5704 17.9379C83.5167 17.951 83.4606 17.951 83.4069 17.9379H83.1346H82.6806H82.2448H81.9725C81.919 17.9169 81.8742 17.8785 81.8454 17.8288C81.8321 17.8103 81.8249 17.788 81.8249 17.7652C81.8249 17.7424 81.8321 17.7201 81.8454 17.7016L82.5354 10.4326L80.6106 10.2508C80.3746 11.3048 80.1567 12.1953 79.9569 12.9767C79.7572 13.7581 79.5393 14.4124 79.3214 14.9757C79.1623 15.4382 78.9554 15.8828 78.704 16.3023C78.5211 16.6065 78.2805 16.8719 77.9959 17.0837C77.7528 17.2739 77.4654 17.399 77.1606 17.4472C76.8288 17.4853 76.4937 17.4853 76.1619 17.4472H75.9804L75.8714 17.3382C75.8597 17.2598 75.8597 17.1802 75.8714 17.1019C75.8621 16.987 75.8621 16.8715 75.8714 16.7566C75.8714 16.5567 75.8714 16.3932 75.8714 16.2841C75.8457 16.1951 75.8457 16.1006 75.8714 16.0116C75.8682 15.9479 75.8861 15.8849 75.9222 15.8324C75.9583 15.7798 76.0106 15.7406 76.0712 15.7208H76.2164C76.3543 15.7477 76.4961 15.7477 76.634 15.7208C76.7909 15.6441 76.9324 15.5394 77.0517 15.4119C77.2122 15.1986 77.3463 14.9668 77.4511 14.7213C77.6466 14.3397 77.7989 13.9374 77.9051 13.5219C78.0685 13.0494 78.2319 12.4315 78.4135 11.7046C78.5951 10.9777 78.7767 10.1236 78.9764 9.1423C79.0085 8.96356 79.0832 8.79522 79.1943 8.65163C79.3166 8.60212 79.4533 8.60212 79.5756 8.65163L83.9698 9.0696C84.04 9.07095 84.1091 9.08796 84.1719 9.1194C84.2347 9.15084 84.2898 9.19591 84.333 9.25133C84.3641 9.31982 84.3802 9.39417 84.3802 9.4694C84.3802 9.54463 84.3641 9.61899 84.333 9.68748L83.5704 17.8288ZM70.0972 10.269L69.1167 14.1579L71.6588 13.9762L70.0972 10.269ZM74.7093 16.5204C74.7093 16.6839 74.8183 16.8293 74.8364 16.9202C74.8555 16.9533 74.8656 16.9909 74.8656 17.0292C74.8656 17.0675 74.8555 17.1051 74.8364 17.1383C74.7694 17.2067 74.678 17.2459 74.5822 17.2473H74.0375H73.4927H73.184H73.0388C73.0353 17.1989 73.0353 17.1503 73.0388 17.1019L72.3125 15.2846L68.8262 15.7208L68.3904 17.5381C68.4005 17.5982 68.4005 17.6596 68.3904 17.7198C68.3615 17.7694 68.3167 17.8079 68.2633 17.8288H67.9727H67.5006H66.9922C66.899 17.8323 66.8079 17.7998 66.738 17.738C66.7219 17.7039 66.7135 17.6666 66.7135 17.6289C66.7135 17.5912 66.7219 17.554 66.738 17.5199C66.7178 17.3874 66.7178 17.2526 66.738 17.1201L68.8443 8.99691C68.8311 8.93094 68.8311 8.86299 68.8443 8.79702C68.8867 8.74098 68.943 8.6971 69.0077 8.66981C69.1162 8.65552 69.2261 8.65552 69.3346 8.66981H69.9156H70.5512H70.9506C71.0272 8.6838 71.0972 8.72202 71.1504 8.77884C71.1981 8.83859 71.235 8.90625 71.2593 8.97874L74.7093 16.5204ZM64.7588 17.9015C64.777 17.9483 64.777 18.0001 64.7588 18.0469L64.6498 18.1741L64.3775 18.2831C64.2456 18.3466 64.1047 18.3895 63.9599 18.4103C63.8178 18.4544 63.6719 18.4848 63.5241 18.5012H63.2517C63.1925 18.5194 63.1293 18.5194 63.0701 18.5012C63.0616 18.4654 63.0616 18.428 63.0701 18.3922L62.1077 14.8667L58.8575 15.7208L59.7291 19.2463C59.7376 19.2664 59.7419 19.288 59.7419 19.3099C59.7419 19.3317 59.7376 19.3534 59.7291 19.3735L59.602 19.5007L59.3477 19.6279L58.9301 19.7551H58.4943C58.398 19.7698 58.3001 19.7698 58.2038 19.7551C58.1501 19.7682 58.0941 19.7682 58.0404 19.7551C58.0323 19.7381 58.0281 19.7195 58.0281 19.7006C58.0281 19.6817 58.0323 19.6631 58.0404 19.6461L55.8978 11.4139C55.8903 11.3718 55.8903 11.3287 55.8978 11.2867L56.0067 11.1595L56.2791 11.0504L56.6967 10.905H57.1325H57.423C57.4754 10.8838 57.534 10.8838 57.5864 10.905V11.0141L58.3854 14.2125L61.6356 13.3947L60.8367 10.1963C60.8282 10.1762 60.8238 10.1546 60.8238 10.1327C60.8238 10.1109 60.8282 10.0892 60.8367 10.0691C60.862 10.0184 60.8994 9.9747 60.9456 9.94189L61.1999 9.81468L61.6356 9.68748L62.0714 9.59661H62.3438C62.3962 9.57539 62.4548 9.57539 62.5072 9.59661H62.598L64.7588 17.9015ZM42.4973 18.792L41.7165 19.3553C41.4529 19.4982 41.2138 19.6822 41.0083 19.9005C40.8856 20.0343 40.7982 20.1968 40.7541 20.373C40.7091 20.5334 40.7091 20.7032 40.7541 20.8636C40.8114 21.0336 40.8843 21.1979 40.972 21.3543C41.0686 21.5079 41.1916 21.6432 41.3351 21.7541C41.4703 21.8527 41.6252 21.9208 41.7891 21.954C41.9689 21.9898 42.154 21.9898 42.3338 21.954C42.602 21.8646 42.8581 21.7425 43.0965 21.5906L43.9136 21.0635L42.4973 18.792ZM47.9446 24.0257C47.9531 24.0458 47.9575 24.0674 47.9575 24.0893C47.9575 24.1111 47.9531 24.1328 47.9446 24.1529C47.9612 24.1999 47.9612 24.2512 47.9446 24.2983L47.7449 24.4982L47.3817 24.7526L47.0004 24.9707L46.728 25.0797H46.5465C46.5368 25.0502 46.5368 25.0183 46.5465 24.9888L44.7307 22.1539L44.1678 22.5174C43.9793 22.6243 43.813 22.7661 43.6775 22.9353C43.5823 23.059 43.5142 23.2015 43.4778 23.3533C43.4502 23.5279 43.4502 23.7057 43.4778 23.8803C43.4993 24.1006 43.5357 24.3192 43.5867 24.5345L44.0588 26.5335V26.7152C44.0323 26.7812 43.9956 26.8425 43.9499 26.897L43.732 27.0969L43.3325 27.3513C43.1942 27.4475 43.0485 27.5326 42.8967 27.6057L42.6244 27.7147H42.3157H42.2249V27.5512C42.1872 27.4505 42.1568 27.3473 42.1341 27.2422L41.7709 25.425C41.7177 25.2107 41.6872 24.9914 41.6801 24.7708C41.6619 24.5834 41.6619 24.3948 41.6801 24.2074C41.7119 24.0472 41.7543 23.8894 41.8072 23.7349C41.8671 23.5858 41.9465 23.4452 42.0433 23.317C41.7838 23.3972 41.5155 23.446 41.2444 23.4623C41.0044 23.508 40.758 23.508 40.518 23.4623C40.2902 23.3834 40.0803 23.2599 39.9007 23.0989C39.6892 22.9265 39.5108 22.7172 39.3741 22.481C39.1659 22.1678 39.0237 21.8153 38.9565 21.4452C38.8951 21.0919 38.9264 20.7287 39.0473 20.3912C39.1774 20.0194 39.3743 19.6745 39.6283 19.3735C40.0335 18.953 40.4913 18.5865 40.9901 18.2831L42.8059 17.1201C42.9296 17.0785 43.0635 17.0785 43.1872 17.1201C43.2665 17.1361 43.3408 17.1709 43.404 17.2215C43.4672 17.272 43.5173 17.337 43.5504 17.4108L47.9446 24.0257ZM33.4183 25.952L35.0162 29.5865L36.8683 27.9692L33.4183 25.952ZM40.863 28.1327C40.988 28.1958 41.104 28.2753 41.208 28.3689C41.2405 28.3915 41.2672 28.4213 41.2861 28.456C41.305 28.4907 41.3156 28.5293 41.317 28.5688C41.2923 28.6599 41.2418 28.742 41.1717 28.8051C41.1717 28.9141 40.9538 29.0232 40.7904 29.1867C40.6537 29.3122 40.508 29.4276 40.3546 29.532L40.1186 29.7137C40.059 29.7291 39.9965 29.7291 39.937 29.7137H39.7917L38.1394 28.7687L35.6336 31.004L36.378 32.694C36.385 32.7544 36.385 32.8154 36.378 32.8758C36.3908 32.9011 36.3975 32.9291 36.3975 32.9575C36.3975 32.9859 36.3908 33.014 36.378 33.0393C36.3309 33.1275 36.2696 33.2074 36.1965 33.2756C36.1965 33.3664 35.9967 33.4755 35.8515 33.6208L35.4702 33.9298C35.3972 33.9862 35.3082 34.018 35.2159 34.0206C35.1469 34.0014 35.0881 33.9557 35.0525 33.8934C34.9775 33.7801 34.9165 33.6581 34.8709 33.53L31.6388 25.7339C31.6038 25.6731 31.5853 25.6042 31.5853 25.534C31.5853 25.4638 31.6038 25.3949 31.6388 25.3341L31.8567 25.0615L32.2744 24.6799L32.7646 24.2619C32.8614 24.1725 32.9718 24.0989 33.0915 24.0439C33.1634 24.0292 33.2375 24.0292 33.3094 24.0439L33.5273 24.1347L40.863 28.1327ZM33.7996 35.2927C33.8077 35.3098 33.8119 35.3284 33.8119 35.3472C33.8119 35.3661 33.8077 35.3847 33.7996 35.4018C33.8168 35.4611 33.8168 35.5241 33.7996 35.5835L33.6725 35.8197C33.5978 35.9476 33.5128 36.0691 33.4183 36.1832L33.1096 36.5103C33.0531 36.5811 32.9857 36.6424 32.9099 36.692C32.8572 36.7115 32.7992 36.7115 32.7465 36.692C32.7267 36.7017 32.7049 36.7067 32.6829 36.7067C32.6609 36.7067 32.6392 36.7017 32.6194 36.692L29.7504 34.4386L27.6623 37.0736L30.4949 39.3452C30.503 39.3623 30.5072 39.3809 30.5072 39.3997C30.5072 39.4186 30.503 39.4372 30.4949 39.4543C30.4949 39.4543 30.4949 39.5451 30.4949 39.6178C30.4636 39.7077 30.4209 39.7932 30.3678 39.8722C30.2931 40.0001 30.208 40.1216 30.1136 40.2357C30.0198 40.3529 29.9165 40.4623 29.8049 40.5628C29.7469 40.639 29.6724 40.7011 29.587 40.7445C29.54 40.7611 29.4887 40.7611 29.4417 40.7445C29.4216 40.753 29.4 40.7574 29.3782 40.7574C29.3564 40.7574 29.3348 40.753 29.3146 40.7445L22.7415 35.4745C22.7021 35.4468 22.6708 35.4091 22.6507 35.3654C22.6353 35.3058 22.6353 35.2433 22.6507 35.1837C22.6507 35.1837 22.6507 35.0383 22.7778 34.9293L23.032 34.584L23.3225 34.2387C23.3956 34.1712 23.4746 34.1103 23.5586 34.057H23.7039H23.831L26.4094 36.1287L28.4975 33.4936L25.9736 31.422C25.9736 31.422 25.9736 31.422 25.9736 31.3129C25.9564 31.2536 25.9564 31.1905 25.9736 31.1312C26.0093 31.049 26.0518 30.97 26.1007 30.8949C26.178 30.7642 26.2694 30.6424 26.3731 30.5315L26.6636 30.1862L26.8633 30.0045H27.0449H27.172L33.7996 35.2927ZM25.0839 42.798C24.9021 42.6968 24.7063 42.6233 24.5028 42.58C24.3302 42.5345 24.1488 42.5345 23.9762 42.58C23.7828 42.6371 23.6076 42.7435 23.4678 42.8889C23.2469 43.1127 23.063 43.3704 22.9231 43.6521L22.342 44.6335L24.8478 46.0328L25.3744 45.0696C25.5462 44.7896 25.669 44.4823 25.7375 44.161C25.786 43.964 25.786 43.7582 25.7375 43.5613C25.6869 43.3891 25.5931 43.2327 25.4652 43.107C25.36 42.9795 25.2303 42.8744 25.0839 42.798ZM25.8646 41.0716C26.2065 41.2755 26.5182 41.5263 26.7907 41.8167C27.0394 42.1058 27.2194 42.4475 27.3173 42.8162C27.4086 43.2414 27.4086 43.6812 27.3173 44.1065C27.1777 44.7456 26.9387 45.3588 26.6091 45.9237L25.5196 47.8864L25.3744 48.0681C25.3216 48.0876 25.2637 48.0876 25.211 48.0681C25.1394 48.0858 25.0646 48.0858 24.9931 48.0681C24.9091 48.0843 24.8228 48.0843 24.7389 48.0681L17.6028 44.0701V43.9066C17.626 43.8052 17.6626 43.7074 17.7118 43.6158C17.7679 43.4834 17.8347 43.3557 17.9115 43.2342C17.9751 43.102 18.0479 42.9745 18.1294 42.8525L18.311 42.6345C18.358 42.6178 18.4092 42.6178 18.4562 42.6345C18.5029 42.6162 18.5548 42.6162 18.6015 42.6345L21.2525 44.1246L21.8699 43.0161C22.1258 42.5348 22.4432 42.0889 22.8141 41.6895C23.0851 41.4103 23.4135 41.1933 23.7765 41.0535C24.1116 40.9242 24.4721 40.8745 24.8296 40.9081C25.2252 40.9413 25.6091 41.0591 25.9554 41.2533M23.8854 50.6304C23.8854 50.6304 23.8854 50.6304 23.9944 50.6304C24.1033 50.6304 23.9944 50.7213 23.9944 50.794C24 50.8908 24 50.9879 23.9944 51.0847C23.9539 51.2267 23.9054 51.3662 23.8491 51.5027C23.804 51.6455 23.7494 51.7852 23.6857 51.9207C23.6511 52.0034 23.6085 52.0825 23.5586 52.1569C23.5197 52.2045 23.4698 52.2419 23.4133 52.266C23.3935 52.2756 23.3718 52.2806 23.3498 52.2806C23.3278 52.2806 23.306 52.2756 23.2862 52.266L16.4407 49.8854L15.8052 51.7026C16.7676 52.1933 17.621 52.6294 18.2747 53.0111C18.9283 53.3927 19.5639 53.7743 20.0904 54.1014C20.4948 54.3873 20.8772 54.7032 21.2344 55.0464C21.483 55.2965 21.6804 55.5928 21.8154 55.9187C21.9409 56.2041 21.991 56.517 21.9607 56.8273C21.9338 57.1629 21.8605 57.4932 21.7428 57.8086C21.7167 57.8596 21.6863 57.9082 21.652 57.954C21.6371 57.9799 21.6161 58.0018 21.5908 58.0177C21.5654 58.0335 21.5366 58.0429 21.5068 58.0449C21.4353 58.0633 21.3603 58.0633 21.2889 58.0449L20.9439 57.9358L20.5262 57.7541C20.4318 57.7249 20.345 57.6753 20.272 57.6087C20.2398 57.6067 20.2083 57.5974 20.1801 57.5817C20.1518 57.566 20.1274 57.5442 20.1086 57.5179C20.0998 57.4759 20.0998 57.4326 20.1086 57.3907C20.1351 57.2526 20.1351 57.1107 20.1086 56.9727C20.0868 56.7998 20.0177 56.6362 19.9089 56.5002C19.7459 56.2839 19.5568 56.0886 19.346 55.9187C19.0187 55.652 18.6729 55.409 18.311 55.1918C17.8752 54.9252 17.3304 54.6163 16.6768 54.265C16.0231 53.9015 15.2423 53.5199 14.3526 53.0656C14.1863 53.0055 14.0411 52.8981 13.9349 52.7566C13.908 52.6934 13.894 52.6254 13.894 52.5567C13.894 52.488 13.908 52.42 13.9349 52.3568L15.4239 48.1953C15.4452 48.1276 15.4805 48.0652 15.5274 48.012C15.5743 47.9588 15.6318 47.916 15.6962 47.8864C15.7647 47.8552 15.839 47.8391 15.9141 47.8391C15.9893 47.8391 16.0636 47.8552 16.132 47.8864L23.8854 50.6304ZM13.372 61.9338L16.8947 63.8601L17.3304 61.3523L13.372 61.9338ZM20.6352 59.008C20.774 58.9935 20.914 58.9935 21.0528 59.008C21.0528 59.008 21.2162 59.008 21.2525 59.0989C21.2889 59.1898 21.2525 59.2443 21.2525 59.3715C21.2525 59.4987 21.2525 59.6804 21.2525 59.8985C21.2525 60.1166 21.1618 60.3165 21.1436 60.4437C21.1254 60.5709 21.1436 60.6799 21.1436 60.7526L21.0347 60.8616C20.9817 60.8796 20.9242 60.8796 20.8712 60.8616L19.0554 61.1342L18.4744 64.478L20.1086 65.3321H20.2539C20.267 65.3858 20.267 65.4419 20.2539 65.4957C20.272 65.5917 20.272 65.6903 20.2539 65.7864C20.2674 65.9436 20.2674 66.1017 20.2539 66.2589C20.2294 66.4249 20.193 66.5889 20.1449 66.7496C20.1416 66.7957 20.1286 66.8406 20.1067 66.8813C20.0848 66.9221 20.0545 66.9577 20.0178 66.9858C19.9416 67.0136 19.858 67.0136 19.7818 66.9858L19.4186 66.8041L11.7923 62.8424L11.6107 62.7152C11.5946 62.6496 11.5946 62.581 11.6107 62.5153C11.5943 62.4069 11.5943 62.2966 11.6107 62.1882C11.6107 62.0429 11.6107 61.8611 11.6107 61.6249C11.6107 61.3886 11.6107 61.1342 11.7378 60.9707C11.7665 60.8474 11.8029 60.726 11.8468 60.6072C11.8857 60.5449 11.9348 60.4896 11.992 60.4437C12.0693 60.4228 12.1508 60.4228 12.2281 60.4437L20.6352 59.008ZM13.6626 69.4755C13.3938 69.4494 13.1232 69.4998 12.8818 69.6208C12.7013 69.7086 12.5454 69.8397 12.4278 70.0025C12.3197 70.1594 12.2512 70.3403 12.2281 70.5295C12.2084 70.7107 12.2084 70.8935 12.2281 71.0747V71.8561H15.2605V71.0383C15.2357 70.806 15.1744 70.5791 15.0789 70.3659C15.0177 70.1848 14.9115 70.0222 14.7702 69.8934C14.6263 69.7532 14.4524 69.6476 14.2618 69.5845C14.0581 69.5105 13.8429 69.4736 13.6262 69.4755M13.6262 67.5492C14.081 67.5586 14.5302 67.651 14.9518 67.8218C15.3222 67.9901 15.6508 68.2383 15.9141 68.5487C16.1893 68.8762 16.3878 69.2612 16.4952 69.6754C16.6292 70.1787 16.6843 70.6998 16.6586 71.22V72.056H19.5275C19.5628 72.0435 19.6012 72.0435 19.6365 72.056C19.6532 72.1092 19.6532 72.1663 19.6365 72.2195C19.6433 72.3103 19.6433 72.4014 19.6365 72.4921C19.6457 72.6374 19.6457 72.783 19.6365 72.9283C19.6477 73.0795 19.6477 73.2314 19.6365 73.3826C19.6485 73.4731 19.6485 73.5647 19.6365 73.6552C19.6454 73.7032 19.6454 73.7525 19.6365 73.8006H19.5094L11.4291 73.5825C11.3422 73.5862 11.2555 73.5719 11.1742 73.5407C11.093 73.5094 11.0191 73.4618 10.957 73.4008C10.8482 73.2748 10.79 73.1129 10.7936 72.9464V70.8202V70.2205C10.8177 69.9886 10.8541 69.7581 10.9026 69.53C10.9794 69.2514 11.0891 68.983 11.2294 68.7304C11.3712 68.4663 11.5623 68.2319 11.7923 68.0398C12.0177 67.8393 12.2842 67.6904 12.5731 67.6037C12.8979 67.5121 13.2344 67.4692 13.5718 67.4765M19.0191 76.2175H19.3641H19.582C19.6238 76.2075 19.6674 76.2075 19.7091 76.2175C19.7176 76.2376 19.722 76.2593 19.722 76.2811C19.722 76.303 19.7176 76.3246 19.7091 76.3447L20.2357 80.8152C20.248 80.9572 20.2094 81.0989 20.1268 81.215C20.0817 81.2799 20.0221 81.3334 19.9528 81.3712C19.8834 81.4091 19.8062 81.4303 19.7273 81.4331L11.9376 82.3235C11.8589 82.3463 11.7758 82.3482 11.6962 82.3291C11.6166 82.31 11.5433 82.2705 11.4836 82.2145C11.3852 82.1238 11.321 82.0018 11.302 81.8692L10.8844 77.5078C10.8759 77.4719 10.8759 77.4346 10.8844 77.3987C10.9121 77.3594 10.9497 77.328 10.9934 77.3079C11.0654 77.2945 11.1392 77.2945 11.2112 77.3079H11.5562H11.8831H12.101C12.1422 77.294 12.1868 77.294 12.2281 77.3079C12.2405 77.3431 12.2405 77.3816 12.2281 77.4169L12.6094 80.5971L14.7702 80.3427L14.5341 77.6168C14.5203 77.5755 14.5203 77.5309 14.5341 77.4896L14.6431 77.3987C14.7087 77.3826 14.7772 77.3826 14.8428 77.3987H15.1697H15.7144H15.8415V77.5078L16.1502 80.1973L18.7104 79.8702L18.3473 76.6537C18.3385 76.6117 18.3385 76.5684 18.3473 76.5265C18.3749 76.4871 18.4125 76.4557 18.4562 76.4356C18.5283 76.4223 18.6021 76.4223 18.6741 76.4356H19.001M14.1891 88.4114L14.7702 90.4285L16.586 90.1559L18.0023 90.0106H19.0736H19.8725L20.5262 90.0469L20.9983 90.2104L19.9815 86.7031L14.1891 88.4114ZM22.6507 82.9596H22.7596C22.8012 82.9479 22.8452 82.9479 22.8868 82.9596C22.934 83.0263 22.9707 83.0998 22.9957 83.1776L23.1228 83.5411C23.1228 83.7046 23.1228 83.8137 23.2136 83.9227C23.2214 84.0073 23.2214 84.0925 23.2136 84.1771C23.2239 84.225 23.2239 84.2746 23.2136 84.3225H23.1046L21.071 84.904L22.7052 90.6466L24.7207 90.2286H24.8478C24.8985 90.254 24.9421 90.2914 24.9749 90.3377L25.0839 90.5557L25.211 90.9192C25.211 91.0827 25.211 91.2099 25.3018 91.319C25.3095 91.3975 25.3095 91.4767 25.3018 91.5552C25.3149 91.6028 25.3149 91.653 25.3018 91.7006H25.1928L22.0878 92.5911C22.0443 92.6185 21.994 92.6331 21.9425 92.6331C21.8911 92.6331 21.8408 92.6185 21.7973 92.5911C21.7567 92.5677 21.7213 92.5363 21.6932 92.4988C21.6651 92.4614 21.6449 92.4185 21.6339 92.373L21.5068 92.0459C21.3252 91.9723 21.1366 91.9175 20.9439 91.8823C20.7337 91.8069 20.5133 91.764 20.2902 91.7551H19.4368H18.2383C17.7844 91.7551 17.2397 91.8642 16.6041 91.955C15.9686 92.0459 15.2423 92.1549 14.407 92.3003C14.2524 92.342 14.0895 92.342 13.9349 92.3003C13.8715 92.2747 13.8162 92.2325 13.7746 92.1782C13.7331 92.1238 13.7069 92.0593 13.6989 91.9914L12.4278 87.5754C12.396 87.5136 12.3794 87.4451 12.3794 87.3755C12.3794 87.306 12.396 87.2374 12.4278 87.1756C12.5132 87.0487 12.6426 86.9581 12.791 86.9212L19.4549 85.1039L19.237 84.377C19.2132 84.3323 19.2007 84.2824 19.2007 84.2317C19.2007 84.1809 19.2132 84.131 19.237 84.0863C19.237 84.0863 19.3641 83.9772 19.4731 83.9409L22.6507 82.9596ZM23.1046 93.8632L23.4133 93.7359H23.6312H23.7765H23.8673L25.792 97.8248C25.8363 97.9544 25.8363 98.095 25.792 98.2246C25.7686 98.3018 25.7265 98.372 25.6695 98.4291C25.6125 98.4862 25.5423 98.5283 25.4652 98.5517L18.3836 101.895C18.3096 101.93 18.2291 101.947 18.1476 101.947C18.066 101.947 17.9855 101.93 17.9115 101.895C17.7852 101.833 17.683 101.731 17.621 101.605L15.8052 97.534C15.7967 97.4982 15.7967 97.4608 15.8052 97.425C15.7992 97.3828 15.7992 97.34 15.8052 97.2978L15.9868 97.1524L16.2954 96.9888L16.6041 96.8616H16.822H16.8947L18.2747 99.7511L20.2539 98.8243L19.0918 96.371C19.0817 96.3292 19.0817 96.2856 19.0918 96.2438V96.1166L19.2733 95.9712L19.5639 95.8258L19.8725 95.6986H20.0723H20.2175C20.2239 95.7285 20.2239 95.7595 20.2175 95.7895L21.3615 98.2609L23.6494 97.1706L22.2694 94.2448C22.2609 94.2246 22.2565 94.203 22.2565 94.1812C22.2565 94.1593 22.2609 94.1377 22.2694 94.1176C22.2694 94.1176 22.2694 94.1176 22.2694 93.9904L22.451 93.845L23.1046 93.8632ZM24.5391 108.747C24.7423 108.977 24.9814 109.174 25.2473 109.328C25.4608 109.463 25.7038 109.544 25.9554 109.564C26.1772 109.609 26.4055 109.609 26.6273 109.564C26.8546 109.488 27.0689 109.378 27.2628 109.237C27.4929 109.078 27.7005 108.888 27.8802 108.674C28.0377 108.498 28.1499 108.285 28.207 108.056C28.2615 107.817 28.2615 107.568 28.207 107.329C28.1489 107.022 28.0383 106.727 27.8802 106.457L24.5391 108.747ZM24.1578 104.494C23.9347 104.641 23.733 104.819 23.5586 105.021C23.4011 105.197 23.2889 105.41 23.2318 105.639C23.1766 105.878 23.1766 106.127 23.2318 106.366C23.2899 106.673 23.4004 106.968 23.5586 107.238L26.936 104.894C26.7378 104.653 26.4979 104.45 26.2278 104.294C26.0161 104.178 25.7834 104.106 25.5434 104.081C25.3033 104.056 25.0607 104.079 24.8296 104.149C24.596 104.231 24.3757 104.348 24.176 104.494M23.032 102.949C23.4119 102.671 23.8443 102.473 24.3031 102.368C24.7219 102.277 25.1553 102.277 25.5741 102.368C26.0237 102.465 26.4496 102.65 26.827 102.913C27.2843 103.229 27.6939 103.608 28.0436 104.04L28.8789 103.44C28.9256 103.422 28.9774 103.422 29.0241 103.44C29.0711 103.424 29.1224 103.424 29.1694 103.44L29.3691 103.622L29.6233 103.985C29.7141 104.131 29.8049 104.24 29.8594 104.349C29.9038 104.424 29.9403 104.503 29.9683 104.585C29.9837 104.645 29.9837 104.707 29.9683 104.767C29.9499 104.812 29.9182 104.85 29.8775 104.876L29.0241 105.475C29.3258 105.932 29.564 106.427 29.7323 106.947C29.8706 107.375 29.9139 107.828 29.8594 108.274C29.8034 108.698 29.6479 109.103 29.4054 109.455C29.1153 109.858 28.7592 110.208 28.3523 110.491C27.9813 110.754 27.5614 110.939 27.1175 111.036C26.7049 111.127 26.2773 111.127 25.8646 111.036C25.4161 110.946 24.9901 110.767 24.6118 110.509C24.1512 110.198 23.7409 109.818 23.3952 109.383L22.5781 109.946H22.451C22.4029 109.954 22.3538 109.954 22.3057 109.946C22.2367 109.888 22.1757 109.82 22.1241 109.746C22.0197 109.642 21.9282 109.526 21.8518 109.401L21.6157 109.037C21.5673 108.958 21.5306 108.872 21.5068 108.783C21.494 108.758 21.4873 108.73 21.4873 108.701C21.4873 108.673 21.494 108.645 21.5068 108.619L22.342 108.02C22.0716 107.569 21.8581 107.087 21.7065 106.584C21.5682 106.156 21.5248 105.704 21.5794 105.257C21.6203 104.833 21.7704 104.426 22.0152 104.076C22.2869 103.645 22.6309 103.264 23.032 102.949Z" fill="white"/>
<path d="M103.453 115.561L103.181 115.234C102.641 114.71 101.99 114.314 101.277 114.075C100.563 113.836 99.8054 113.76 99.0589 113.853C97.98 113.869 96.907 114.016 95.8631 114.289C94.8281 114.544 93.5389 114.962 91.9955 115.489C91.8331 115.143 91.6187 114.824 91.36 114.544C90.564 113.847 89.6306 113.325 88.6203 113.012C87.61 112.699 86.5452 112.602 85.495 112.726C80.5019 112.993 75.5902 114.105 70.9687 116.016C67.7783 117.336 64.3777 118.075 60.9274 118.196C57.5058 118.117 54.1859 117.016 51.3945 115.034L50.1416 114.289L48.5619 113.344L48.2713 115.162L45.0029 134.352L46.1832 134.861L46.7461 131.535L49.4153 115.361L50.6682 116.107C52.7919 117.513 55.1648 118.5 57.659 119.014C58.7495 119.211 59.8556 119.308 60.9637 119.305C64.5578 119.181 68.1005 118.411 71.4226 117.033C75.9078 115.189 80.6713 114.114 85.5131 113.853C86.3108 113.839 87.1078 113.906 87.8918 114.053C88.8664 114.173 89.7734 114.615 90.4702 115.307C90.8928 115.771 91.1373 116.37 91.1603 116.997C93.0668 116.361 94.7918 115.743 96.1718 115.434C97.1157 115.19 98.0844 115.056 99.0589 115.034H99.9123L100.457 115.125C100.864 115.201 101.257 115.342 101.619 115.543C102 115.743 102.763 115.034 102.763 115.034L99.4402 136.841L100.548 136.369C100.639 135.842 100.711 135.297 100.802 134.715C101.165 132.48 101.456 130.863 101.456 130.845V130.427V129.918C101.71 128.373 101.946 126.847 102.182 125.411C102.854 121.122 103.435 117.633 103.508 117.124V116.706V116.143L103.453 115.561Z" fill="#0066B3"/>
<path d="M75 122.322C61.8935 122.207 49.3524 116.963 40.0597 107.712C30.767 98.461 25.4605 85.9379 25.2754 72.8216C25.0904 59.7052 30.0414 47.0372 39.0695 37.5275C48.0975 28.0177 60.4856 22.4215 73.5836 21.936H75.0544C88.2448 21.9179 100.911 27.1013 110.31 36.3633C119.709 45.6253 125.084 58.2203 125.27 71.4201C125.456 84.6198 120.439 97.3617 111.305 106.886C102.172 116.41 89.6564 121.949 76.4708 122.304H75M75 123.539H76.5071C90.0254 123.18 102.858 117.505 112.224 107.742C121.59 97.9795 126.735 84.9164 126.544 71.3837C126.353 57.8509 120.841 44.9386 111.203 35.4447C101.565 25.9509 88.5775 20.6404 75.0544 20.6639H73.5473C59.9139 20.8567 46.9153 26.4618 37.4113 36.2463C27.9072 46.0308 22.676 59.1931 22.8687 72.8376C23.0613 86.4822 28.6619 99.4913 38.4384 109.003C48.2149 118.515 61.3665 123.75 75 123.558" fill="white"/>
<path d="M85.5132 113.853C86.3878 113.746 87.275 113.818 88.1209 114.065C88.9669 114.312 89.7538 114.728 90.434 115.289C90.8645 115.762 91.1096 116.375 91.124 117.015C93.0487 116.361 94.7556 115.743 96.1719 115.434C97.1157 115.19 98.0845 115.056 99.059 115.034C101.274 115.034 101.801 115.489 101.964 115.652L102.763 115.071L98.2964 143.492L97.0979 142.82C96.4419 142.481 95.7115 142.313 94.9735 142.329C92.05 142.659 89.2022 143.476 86.5482 144.746C84.5965 145.667 82.5509 146.374 80.4471 146.854C79.8823 146.943 79.3119 146.991 78.7403 147C76.1074 147 75.6898 145.582 75.6353 144.874L75.7987 143.402L73.6924 144.201C72.2942 144.746 70.9687 145.255 69.8066 145.655C67.463 146.422 65.009 146.797 62.5435 146.764C56.5089 146.86 50.5773 145.192 45.475 141.966L45.0029 141.621L49.3427 115.361L50.5956 116.106C53.6619 118.199 57.2889 119.313 61 119.305C64.5942 119.181 68.1368 118.411 71.459 117.033C75.9333 115.195 80.6838 114.12 85.5132 113.853Z" fill="white"/>
<path d="M78.0503 134.007L76.6158 144.329C76.2345 146.146 78.4316 146.146 80.2474 145.91C84.9503 145.201 93.1758 139.567 97.4974 141.984C98.1329 136.842 99.3132 130.263 99.3132 130.263C99.3132 130.263 98.2419 128.773 94.1927 129.754C90.1435 130.736 81.1008 134.624 78.0685 134.007" fill="#ED1C24"/>
<path d="M98.8414 133.225C99.2953 130.354 99.7674 127.283 100.203 124.557C99.3815 124.146 98.4858 123.903 97.5689 123.844C96.652 123.785 95.7326 123.91 94.8648 124.212C90.9245 125.175 82.2995 128.846 79.0493 128.5L77.8508 136.187C78.214 137.441 79.6666 137.75 81.5914 137.587C86.2943 137.205 94.5016 130.972 98.8414 133.225Z" fill="#0066B3"/>
<path d="M76.5071 145.001C76.7976 143.038 79.5031 142.966 81.2826 143.056C83.0621 143.147 86.3668 143.056 86.6392 141.657C86.966 139.731 87.1113 137.368 87.1113 137.368L77.7055 137.477L76.5071 145.001Z" fill="#BE1E2D"/>
<path d="M46.0925 141.203L48.2715 128.155C52.0665 130.409 58.0223 133.607 70.1881 128.937C79.9389 125.193 88.9996 124.521 88.5639 128.391L86.5665 141.748C87.2928 137.169 75.6717 142.639 69.5162 144.783C62.8886 147.091 51.9394 145.419 46.0925 141.149" fill="#ED1C24"/>
<path d="M70.6237 126.229C58.8574 130.736 52.6838 126.72 48.8343 124.412L47.418 132.862C50.8231 135.087 54.7174 136.452 58.7659 136.838C62.8145 137.224 66.8962 136.621 70.6601 135.079C76.1074 132.971 86.7661 129.3 87.9464 132.589C88.364 129.827 88.7816 126.901 89.1448 124.357C87.6377 121.867 79.2306 122.903 70.5874 126.174" fill="#0066B3"/>
<path d="M98.0423 80.3427C98.0423 80.2337 97.8244 79.8157 97.5702 79.2524C97.7806 79.3759 97.999 79.4852 98.2239 79.5795L98.6234 80.2882C98.4319 80.3112 98.2433 80.3538 98.0605 80.4154M93.4121 80.4154C93.4121 79.4523 93.176 78.8344 92.8855 76.7809C93.3809 78.0817 93.7993 79.4106 94.1384 80.7607C93.9033 80.657 93.6605 80.5719 93.4121 80.5063M91.3421 92.2276C91.3421 92.2276 91.3421 92.2276 91.3421 92.373V92.2276ZM91.3421 93.6633C91.3494 93.5908 91.3494 93.5177 91.3421 93.4452C91.3319 93.5053 91.3319 93.5668 91.3421 93.6269M97.8426 100.115L96.7894 102.422L95.5729 101.841L96.39 100.024C96.9023 100.09 97.4211 100.09 97.9334 100.024M99.0592 99.6966L98.7686 100.314L98.0968 100.006C98.4287 99.9409 98.7517 99.8372 99.0592 99.6966ZM62.2894 105.694C62.3483 105.467 62.475 105.264 62.6526 105.112C62.6299 105.244 62.6299 105.38 62.6526 105.512L62.2894 105.694ZM58.7305 93.5179C58.7407 93.4577 58.7407 93.3963 58.7305 93.3362C58.7402 93.4085 58.7402 93.4819 58.7305 93.5542M53.7734 84.5951L52.3934 83.9591C52.3201 83.6267 52.1747 83.3145 51.9677 83.0444C51.7606 82.7744 51.4968 82.5531 51.195 82.3962C51.3087 82.1739 51.3555 81.9234 51.3297 81.675C51.3039 81.4266 51.2066 81.1911 51.0497 80.9969C51.776 80.0701 53.0108 77.3624 54.3908 75.1817C54.0821 77.526 50.0873 80.6335 53.2468 82.9051C55.3168 82.5961 56.4245 80.1247 57.2416 76.7264C57.641 77.526 55.1534 81.0333 58.5308 82.1782C60.0197 81.9056 61.1092 79.0161 60.7279 76.8536C60.8938 76.9631 61.0516 77.0846 61.2 77.217C61.6539 76.7264 62.5618 76.7264 62.8887 76.0903L63.1973 76.2902C64.2142 77.9803 64.2868 81.1787 62.8887 82.3417C63.3038 82.363 63.7187 82.2948 64.1052 82.1418C64.1052 82.1418 64.1052 82.1418 63.9237 82.4326L63.7966 82.6325C63.0158 83.3776 62.7979 83.5775 60.5281 83.2503C60.5569 83.5004 60.6373 83.7417 60.7642 83.9591C59.6384 84.4316 57.8045 84.3589 57.296 87.4482C57.2684 87.4088 57.2308 87.3775 57.1871 87.3574H57.0963C57.0963 87.3574 56.951 87.3574 56.9329 87.2302C56.9147 87.1029 56.9329 87.0848 56.8058 87.0484H56.3518L56.0068 87.2847C55.7163 87.4119 55.7526 87.1211 55.2442 87.848C55.2442 87.848 55.2442 87.848 55.2442 88.1388H55.1171L54.645 87.9025C54.4987 87.8598 54.3584 87.7987 54.2273 87.7208L53.6645 87.5573L53.9368 87.6845L54.5723 87.9752L54.9537 88.1388L55.0263 88.4114L53.501 87.7026H53.4102C53.297 87.6323 53.1748 87.5773 53.0471 87.5391L52.4842 87.3755L53.7734 84.5951ZM101.855 78.0711C101.819 78.171 101.819 78.2803 101.855 78.3801L101.692 78.1438C101.725 77.9629 101.793 77.79 101.892 77.635L102.001 77.7622C101.927 77.8514 101.877 77.9576 101.855 78.0711ZM97.0437 78.0711L97.5158 78.2529L97.8063 78.798H97.3887L97.0437 78.0348M87.1839 83.323C86.6676 83.0842 86.2503 82.673 86.0037 82.16C86.3902 82.313 86.8051 82.3811 87.2202 82.3599C85.8221 81.1968 85.8947 77.9985 86.9116 76.3084L87.2202 76.1085C87.5471 76.7445 88.455 76.7445 88.9089 77.2352C89.0573 77.1028 89.2151 76.9813 89.381 76.8718C89.3953 78.1596 89.4801 79.4458 89.6352 80.7243C88.5572 81.3003 87.6964 82.2128 87.1839 83.323ZM92.1592 102.586L89.7623 101.478L91.3421 97.9338C92.0345 98.498 92.7901 98.9798 93.5937 99.3695L92.1592 102.586ZM58.8031 92.9727V93.1726C58.8096 93.1244 58.8096 93.0755 58.8031 93.0272M100.566 76.5083L101.129 76.6719L101.274 76.8536L100.693 76.69C100.662 76.6226 100.619 76.5612 100.566 76.5083ZM96.281 76.5083L96.6079 76.69L96.971 77.3442H96.6623C96.5413 77.0535 96.4142 76.7809 96.281 76.5265M89.6534 93.1544C89.645 93.239 89.645 93.3243 89.6534 93.4089C89.6635 93.3244 89.6635 93.2389 89.6534 93.1544ZM82.9894 104.185L84.0789 104.767C84.0789 104.767 83.7521 105.203 82.6263 105.203C82.618 104.897 82.5816 104.593 82.5173 104.294H82.9168M72.0221 102.005L73.0389 101.496C72.8361 102.377 72.6845 103.269 72.585 104.167C72.2526 104.194 71.9186 104.194 71.5863 104.167C71.6614 103.428 71.8073 102.698 72.0221 101.986M66.1208 104.767L66.7018 104.476C66.6912 104.688 66.6912 104.9 66.7018 105.112C66.5924 105.094 66.4876 105.055 66.394 104.995C66.3003 104.936 66.2197 104.858 66.1571 104.767M72.9481 99.4422L73.4747 99.6784C73.4662 99.7691 73.4662 99.8603 73.4747 99.951L72.6395 100.369C72.7484 100.06 72.8755 99.7511 73.0026 99.4422M83.7158 89.1565C82.044 88.9731 80.3647 89.4273 79.0129 90.4285C79.1919 89.9925 79.4688 89.6035 79.8222 89.2918C80.1756 88.9801 80.5959 88.754 81.0506 88.631C81.5054 88.508 81.9823 88.4914 82.4445 88.5825C82.9066 88.6736 83.3416 88.87 83.7158 89.1565ZM80.8105 96.1893C80.1735 95.903 79.5654 95.5562 78.9947 95.1534H79.0855H79.5031C80.1646 95.1981 80.783 95.4977 81.2281 95.9894L80.8105 96.1893ZM72.4579 96.1893H72.2944C72.476 95.9894 72.6576 95.7895 72.821 95.5714C72.6939 95.7713 72.585 95.9712 72.4579 96.1529M74.1465 96.1529C74.1465 95.953 74.2737 95.7531 74.31 95.5532C74.31 95.7531 74.31 95.953 74.31 96.1529M79.376 98.1883L80.0115 97.8793C80.7581 98.3965 81.4355 99.0073 82.0271 99.6966C81.1804 99.3736 80.3658 98.9721 79.5939 98.4972L79.376 98.2246M78.9221 97.0797V97.1342V97.0797ZM75.8897 95.6804C75.9673 96.0368 76.0643 96.3887 76.1802 96.7345H76.035C76.035 96.4073 75.926 96.0802 75.8897 95.735M81.5187 91.9187C81.9 93.1908 82.6263 94.3538 85.2955 93.1544C85.2926 93.4049 85.3759 93.6488 85.5315 93.845L81.4642 95.8622C81.4642 94.5901 80.4837 94.0449 79.6484 93.4634C79.9389 93.0636 79.6484 92.8818 81.4642 91.8278M81.4642 91.8278C82.1423 91.6467 82.8561 91.6467 83.5342 91.8278C83.2214 92.0152 82.8637 92.1141 82.4992 92.1141C82.1347 92.1141 81.777 92.0152 81.4642 91.8278ZM86.2034 93.0454L86.4576 93.2453H86.5665L85.9492 93.5542C86.0239 93.3974 86.1088 93.2456 86.2034 93.0999M85.8947 99.2059C84.7505 98.3155 83.5359 97.5193 82.2631 96.8253L87.42 94.2448C87.5321 95.1327 87.454 96.0343 87.191 96.8897C86.9281 97.7451 86.4862 98.5347 85.8947 99.2059ZM70.2971 95.4078H70.2063L70.0247 95.317L70.4605 95.1898C70.6421 95.1898 70.6239 95.1898 71.3321 95.0807C71.1186 95.2527 70.8942 95.4105 70.6602 95.5532H70.4787M68.4813 94.6264L68.2271 94.4992C68.2271 94.4992 68.2271 94.4992 68.0637 94.4992C68.0637 94.4992 68.0637 94.4992 67.8821 94.4992L67.646 94.372H67.4826L66.8108 93.8632H66.72H66.5384C67.4826 93.6814 67.9184 93.8632 68.681 92.0459C66.2842 93.2998 64.4866 88.7567 69.2621 88.8657C71.5137 90.0287 72.4397 93.0817 68.9716 95.0626H68.79H68.6266H68.4631H68.2816M65.921 103.822C65.9105 103.756 65.9105 103.688 65.921 103.622L66.0481 103.731L65.921 103.822ZM56.2247 88.7021C56.2206 88.7687 56.2206 88.8355 56.2247 88.902C56.2247 88.902 56.2247 88.902 56.1158 88.902V88.793H56.2066M72.5487 107.511C72.1406 107.215 71.851 106.783 71.7316 106.293H72.4942C72.4564 106.692 72.4564 107.094 72.4942 107.493M77.3423 103.113C77.5727 102.733 77.7789 102.338 77.9597 101.932H78.0505C77.9052 103.204 79.6121 104.385 77.5602 107.384C77.6665 105.92 77.5933 104.45 77.3423 103.004M93.8116 88.7385V88.8475C93.8116 88.8475 93.8116 89.2473 93.8116 89.4836L92.5587 90.1378C92.5398 90.0052 92.5398 89.8706 92.5587 89.738H92.6494C92.7154 89.7512 92.7833 89.7512 92.8492 89.738C93.0489 89.738 92.9581 89.8288 93.6118 89.2291C93.7049 89.1441 93.7631 89.0276 93.7752 88.902M98.2421 73.5098C98.4418 73.6734 99.041 74.3821 99.7673 75.3271L99.3679 75.1817C98.9611 74.6779 98.5852 74.1499 98.2421 73.6007M95.6455 75.4179C95.73 75.5315 95.803 75.6533 95.8634 75.7814C95.8038 75.665 95.7552 75.5433 95.7181 75.4179M48.7437 77.635C48.5747 77.6174 48.4043 77.6174 48.2352 77.635C49.4881 76.1267 51.431 73.7642 51.8668 73.4553C51.7034 73.8006 50.051 75.9813 48.7981 77.7077M45.8747 89.0474H45.2574C45.2345 89.344 45.11 89.6236 44.9048 89.8389C44.6997 90.0541 44.4265 90.1918 44.1316 90.2286L43.9318 90.1196L43.7684 89.9742L43.6231 89.7925C43.5037 89.5569 43.4533 89.2923 43.4779 89.0292C43.4955 88.7643 43.6047 88.5138 43.7866 88.3205C43.6501 88.19 43.5227 88.0504 43.4052 87.9025C43.2979 87.7518 43.2008 87.5939 43.1147 87.4301C42.7076 86.6068 42.6171 85.6625 42.8605 84.7769C43.1544 84.0521 43.6562 83.4307 44.3024 82.9909C44.9487 82.551 45.7106 82.3125 46.4921 82.3054C46.6373 82.0146 46.4921 81.9056 47.8721 81.4149C47.8721 81.6693 48.5802 81.742 48.0173 83.105C48.4299 83.5967 48.7049 84.1891 48.8144 84.8217C48.9239 85.4544 48.864 86.1048 48.6407 86.7068C48.4175 87.3087 48.0389 87.8407 47.5435 88.2487C47.048 88.6567 46.4535 88.926 45.8202 89.0292M73.5473 41.1625C74.5512 41.2218 75.5577 41.2218 76.5616 41.1625C78.3355 42.7039 80.4728 43.7671 82.7715 44.2519C81.3205 44.3462 79.8642 44.1863 78.4681 43.7794C78.4681 44.688 80.4837 45.742 81.7729 46.0146C80.804 46.1396 79.8193 46.0015 78.9221 45.6148C79.3433 46.2931 79.9842 46.8063 80.7379 47.0686C80.1541 47.6653 79.4412 48.1199 78.6542 48.3971C77.8671 48.6744 77.0269 48.767 76.1984 48.6678C76.4354 48.9558 76.7407 49.1799 77.0864 49.3195C77.4321 49.4592 77.8072 49.51 78.1776 49.4674C76.4114 51.9442 75.3166 54.8368 75 57.8632C74.6785 54.8551 73.5975 51.9783 71.8587 49.5038C72.2318 49.5479 72.6101 49.4978 72.9589 49.3581C73.3078 49.2185 73.6162 48.9936 73.856 48.7042C73.03 48.8089 72.1909 48.7189 71.4059 48.4412C70.6208 48.1636 69.9115 47.7059 69.3347 47.105C70.0828 46.8326 70.7208 46.3218 71.1505 45.6511C70.2533 46.0378 69.2686 46.1759 68.2997 46.051C69.5889 45.7784 71.55 44.7243 71.6045 43.8157C70.2024 44.2237 68.7399 44.3836 67.2829 44.2882C69.6072 43.8096 71.7665 42.7322 73.5473 41.1625ZM91.3421 92.6638C91.3272 92.5613 91.3272 92.4573 91.3421 92.3548C91.3244 92.3917 91.3152 92.4321 91.3152 92.473C91.3152 92.5139 91.3244 92.5542 91.3421 92.5911M91.3421 92.7546C91.3182 92.7994 91.3058 92.8493 91.3058 92.9C91.3058 92.9507 91.3182 93.0007 91.3421 93.0454C91.3239 92.9188 91.3239 92.7903 91.3421 92.6638V92.7546ZM113.785 61.5886C112.491 60.9747 111.047 60.7476 109.627 60.9343C110.68 60.6725 111.641 60.1252 112.403 59.3525C113.165 58.5799 113.7 57.6118 113.949 56.5547C112.673 56.2354 111.338 56.2354 110.063 56.5547C110.955 56.0677 111.706 55.3584 112.243 54.4956C112.781 53.6328 113.087 52.6458 113.132 51.63C111.646 51.5937 110.172 51.9048 108.828 52.5386C111.77 50.9212 112.823 47.0868 111.261 44.9061C110.372 45.4331 106.213 49.6673 105.542 50.1398C108.174 46.6143 111.824 42.6345 107.684 38.3094C105.764 42.2198 103.484 45.9431 100.875 49.4311C100.71 49.203 100.483 49.0266 100.221 48.9222C99.5561 50.7264 98.4215 52.3199 96.9347 53.5381C96.8263 53.2417 96.6798 52.9607 96.4989 52.7021C85.8947 59.1898 94.9737 70.2387 86.0037 66.0045C86.431 65.9335 86.8308 65.7471 87.16 65.4653C87.4892 65.1836 87.7353 64.8172 87.8717 64.4058C88.0081 63.9943 88.0297 63.5534 87.9341 63.1306C87.8385 62.7078 87.6293 62.3191 87.3292 62.0065C86.5121 62.4972 85.9673 64.0964 83.0258 61.8793C83.3403 62.0388 83.693 62.1078 84.0444 62.0787C84.3958 62.0496 84.7323 61.9235 85.0164 61.7145C85.3005 61.5055 85.5212 61.2217 85.6538 60.8946C85.7864 60.5676 85.8258 60.2102 85.7676 59.8622C81.5913 61.9884 81.0647 54.7011 84.9142 51.6845C85.3318 52.5204 89.8713 50.0126 90.2526 53.9015C91.9413 52.9384 91.3239 51.3937 89.1631 50.794C90.9789 51.1029 95.7726 55.2281 96.1176 49.9581C95.3186 51.8662 92.1955 50.3579 88.9634 49.9581C89.6837 49.5072 90.5353 49.3139 91.3795 49.4096C92.2237 49.5053 93.0105 49.8844 93.6118 50.4851C94.0714 50.0779 94.3884 49.5339 94.5162 48.9331C94.6441 48.3323 94.576 47.7062 94.322 47.147C94.068 46.5878 93.6415 46.1248 93.1051 45.8261C92.5687 45.5274 91.9508 45.4088 91.3421 45.4876C91.3556 45.3814 91.3413 45.2736 91.3006 45.1746C91.26 45.0757 91.1943 44.989 91.1101 44.923C91.0259 44.8571 90.9261 44.8141 90.8203 44.7984C90.7146 44.7827 90.6065 44.7948 90.5068 44.8334C90.5118 44.7472 90.4963 44.6611 90.4616 44.5822C90.4269 44.5032 90.3739 44.4336 90.3071 44.3791C93.7026 44.688 96.6805 41.4169 95.01 36.8192C95.8927 37.3567 96.8643 37.7321 97.8789 37.9278C99.1137 40.0903 95.6092 42.7072 98.2784 45.8511C98.313 46.1326 98.2763 46.4183 98.1716 46.6819C98.0668 46.9455 97.8975 47.1785 97.6792 47.3594C98.8231 47.0868 100.621 46.3781 98.8776 43.1615C99.1681 45.106 101.819 42.053 101.983 44.9788C105.614 42.053 99.4768 43.0343 100.911 40.999C102.073 39.3634 102.999 37.7642 98.8413 36.8738C97.9152 33.6027 90.3434 33.2392 92.7766 39.2726C93.4665 40.7082 94.2292 43.1797 89.9984 43.9793V43.5613C90.6339 42.4164 92.2136 39.1817 88.8363 38.582C88.6365 38.473 88.8363 38.582 88.0918 38.582V38.8728H87.8739V38.473C87.8739 38.3276 88.346 38.2185 87.8739 37.3281H88.1281C87.9458 37.1511 87.7815 36.9563 87.6379 36.7466C87.8446 36.8873 88.039 37.0454 88.2189 37.219V35.4018C88.0365 35.5783 87.8424 35.7422 87.6379 35.8924C87.7763 35.6788 87.941 35.4834 88.1281 35.3109H86.3123C86.4942 35.4884 86.6584 35.6832 86.8026 35.8924C86.5943 35.7397 86.3943 35.5759 86.2034 35.4018V37.219C86.3844 37.0338 86.5854 36.8693 86.8026 36.7284C86.6526 36.9332 86.4888 37.1275 86.3123 37.3099H86.5665C86.5665 37.4916 86.0944 37.5825 86.5665 38.4548V38.8546H86.3305V38.5638C86.0037 38.473 86.3305 38.5638 85.6042 38.5638C84.0426 39.2907 82.4084 40.0358 84.4239 43.5431V43.8157C82.3131 43.0139 80.395 41.7754 78.795 40.1812V39C80.066 37.3281 82.245 31.9853 77.3605 31.2766C77.2218 31.1798 77.0612 31.1191 76.8931 31.1C76.7251 31.081 76.555 31.1042 76.3981 31.1676V31.6219H75.8897V31.0585H75.6173C75.6173 30.895 76.725 30.5497 75.7989 29.1322H76.1984C75.9058 28.8569 75.6659 28.5305 75.4902 28.1691C75.8498 28.3397 76.1757 28.5736 76.4526 28.8596V26.6244C76.1886 26.917 75.8672 27.1521 75.5084 27.315C75.6753 26.953 75.9095 26.6262 76.1984 26.3518H73.9105C74.1994 26.6262 74.4336 26.953 74.6005 27.315C74.2389 27.1479 73.9123 26.9136 73.6381 26.6244V28.9141C73.922 28.6363 74.2465 28.4035 74.6005 28.2236C74.4381 28.5881 74.2034 28.9158 73.9105 29.1867H74.31C74.31 29.4412 73.2568 29.7864 74.4916 31.113H74.201V31.6764H73.6744V31.2221C73.5176 31.1587 73.3475 31.1355 73.1795 31.1546C73.0114 31.1736 72.8508 31.2343 72.7121 31.3311C69.4255 32.0035 68.5539 34.9656 71.2776 39.0545V40.2539C69.7063 41.8748 67.7878 43.1175 65.6668 43.8884V43.6158C66.3023 42.4709 67.8821 39.2362 64.4866 38.6365C64.305 38.5275 64.4866 38.6365 63.7602 38.6365V38.9273H63.5423V38.5275C63.5423 38.3821 63.9963 38.2731 63.5423 37.3826H63.7966C63.6202 37.2 63.4564 37.0058 63.3063 36.8011C63.5197 36.9471 63.7202 37.1113 63.9055 37.2917V35.4745C63.719 35.6535 63.5186 35.8176 63.3063 35.9651C63.4447 35.7515 63.6094 35.5561 63.7966 35.3836H61.9808C62.1682 35.5558 62.3329 35.7512 62.471 35.9651C62.2587 35.8176 62.0584 35.6535 61.8718 35.4745V37.2917L62.471 36.8192C62.3275 37.029 62.1632 37.2238 61.9808 37.4008H62.2894C62.2894 37.5825 61.8355 37.6734 62.2894 38.5456V38.9454H62.0716V38.6547C61.7266 38.5638 62.0716 38.6547 61.3271 38.6547C59.7655 39.3816 58.1131 40.1448 60.1468 43.634V44.052C53.8642 45.106 61.6721 28.2236 51.3039 36.9465C46.1652 36.5285 50.8318 42.5436 48.435 42.1802C47.6179 42.0711 46.2016 43.3069 48.1626 45.0515C47.6542 43.743 49.2521 44.4518 51.2676 43.2342C50.9952 44.5244 49.0705 46.2327 52.466 47.4321C52.2562 47.2443 52.0928 47.0103 51.9888 46.7486C51.8848 46.4868 51.8431 46.2044 51.8668 45.9237C53.846 43.5613 52.1029 41.5805 52.2663 38.0005C53.2468 37.767 54.1803 37.3675 55.0263 36.8192C55.5892 40.4538 52.2481 43.4523 59.7292 44.3791C59.6623 44.4336 59.6094 44.5032 59.5747 44.5822C59.5399 44.6611 59.5244 44.7472 59.5295 44.8334C59.4297 44.7948 59.3217 44.7827 59.216 44.7984C59.1102 44.8141 59.0103 44.8571 58.9261 44.923C58.8419 44.989 58.7763 45.0757 58.7356 45.1746C58.695 45.2736 58.6807 45.3814 58.6942 45.4876C57.3868 45.5785 53.8279 47.3049 56.4789 50.4306C57.0802 49.8299 57.8671 49.4508 58.7112 49.3551C59.5554 49.2594 60.4071 49.4527 61.1273 49.9035C59.3116 49.0858 56.5516 52.9747 53.9731 49.9035C53.8642 52.2115 56.2792 53.8288 60.9276 50.7395C58.7668 51.3392 58.1495 52.8839 59.8381 53.847C60.1468 51.7026 60.5826 51.7208 65.1584 51.63C66.8834 52.793 70.8781 60.9707 64.3231 59.8076C64.2649 60.1557 64.3043 60.5131 64.437 60.8401C64.5696 61.1671 64.7902 61.4509 65.0743 61.66C65.3584 61.869 65.6949 61.9951 66.0464 62.0242C66.3978 62.0533 66.7504 61.9842 67.065 61.8248C66.9016 61.9702 64.5229 64.1509 62.7616 61.952C62.4614 62.2646 62.2523 62.6533 62.1567 63.0761C62.0611 63.4989 62.0826 63.9398 62.219 64.3513C62.3555 64.7627 62.6015 65.1291 62.9307 65.4108C63.2599 65.6926 63.6598 65.879 64.0871 65.95C57.5321 69.0757 59.4387 65.0232 59.7655 59.3352C58.9121 58.0994 55.6437 55.2281 53.5555 52.6476C53.3746 52.9061 53.2281 53.1872 53.1197 53.4836C51.6277 52.2703 50.4919 50.6752 49.8331 48.8677C49.5743 48.9769 49.3489 49.1524 49.1795 49.3765C46.5702 45.8886 44.2907 42.1653 42.3702 38.2549C38.7387 41.3624 40.7724 45.5239 44.5855 50.0853C43.9318 49.6128 39.7737 45.3786 38.8658 44.8516C37.3224 47.0504 38.3755 50.8667 41.2989 52.4841C39.9616 51.8485 38.4936 51.5372 37.0137 51.5754C37.0404 52.5984 37.3323 53.5968 37.8607 54.4729C38.3891 55.349 39.1359 56.0726 40.0279 56.5729C38.7523 56.2536 37.4177 56.2536 36.1421 56.5729C36.3945 57.6321 36.9354 58.6005 37.7047 59.3704C38.4741 60.1404 39.4417 60.6817 40.5 60.9343C39.0858 60.749 37.6483 60.9762 36.36 61.5886C36.6463 62.5943 37.2395 63.4853 38.0567 64.137C38.8739 64.7886 39.8742 65.1684 40.9176 65.2231C39.4823 65.3196 38.1408 65.9714 37.1771 67.0404C37.6446 67.6782 38.262 68.1909 38.9745 68.5332C39.6871 68.8755 40.4729 69.0368 41.2626 69.003C40.6943 69.1943 40.1718 69.5014 39.7281 69.9049C39.2843 70.3083 38.9289 70.7995 38.6842 71.3473C39.7918 72.2377 41.19 72.8011 44.4039 71.6562C40.7724 73.1827 41.4442 73.9278 40.8813 75.5088C42.2976 76.472 45.1121 75.9995 47.9266 73.3099C47.3455 74.4548 42.8605 75.5815 44.186 78.9979H44.7126C44.6635 79.0499 44.6263 79.1119 44.6037 79.1797C43.8592 78.9979 42.0434 78.8889 40.9721 81.4513C40.6997 81.2695 40.0279 81.4513 39.011 82.9596C39.0058 83.0564 39.0058 83.1535 39.011 83.2503C39.011 83.3594 39.011 83.2503 39.011 83.5411V83.7955L39.1381 84.0499L39.2834 84.2498L39.4831 84.4316C39.3075 84.692 39.1785 84.981 39.1018 85.2857C39.1049 85.322 39.1049 85.3584 39.1018 85.3947C39.0818 85.6063 39.0818 85.8192 39.1018 86.0308C39.1083 86.0729 39.1083 86.1158 39.1018 86.158C39.0857 86.2359 39.0857 86.3163 39.1018 86.3942C39.1018 86.3942 39.1018 86.5396 39.1018 86.7577C39.1054 86.8 39.1054 86.8425 39.1018 86.8849C39.1018 86.9757 39.1926 87.103 39.3197 87.321C39.323 87.3573 39.323 87.3938 39.3197 87.4301V87.5391L39.4831 87.7026C39.624 87.8491 39.7826 87.9773 39.9552 88.0843H40.0642C39.9513 88.3282 39.9074 88.5985 39.9371 88.8657V88.9747C39.9407 89.0171 39.9407 89.0596 39.9371 89.1019V89.211C40.0174 89.3605 40.1285 89.4914 40.2631 89.5947C40.3977 89.6981 40.5527 89.7717 40.7179 89.8107C40.6076 90.0377 40.5457 90.2853 40.5363 90.5376C40.5363 90.5376 40.5363 90.5376 40.5363 90.8102C40.5511 90.9524 40.5816 91.0926 40.6271 91.2281C40.6271 91.2281 40.6271 91.2281 40.6271 91.3735C40.808 91.7025 41.0965 91.9592 41.4442 92.1004H41.535H41.6984H41.8618H43.3326H43.4234H44.1316H44.2768C44.2768 92.1004 44.2768 92.1004 44.5492 91.8823C44.683 91.7666 44.7993 91.6319 44.8942 91.4826H45.221H45.4208H45.5479C45.5479 91.4826 45.5479 91.4826 45.7839 91.4826C45.9842 91.4724 46.1784 91.4097 46.3468 91.3008H46.4376H46.5284H46.6192C46.6715 91.2308 46.72 91.158 46.7645 91.0828C46.8791 91.0951 46.9948 91.0951 47.1095 91.0828H47.2547H47.4908H47.7268C47.9368 91.0644 48.144 91.0217 48.3442 90.9556H48.4713L49.5789 92.0459H50.2508L51.54 89.32C51.8305 89.5017 51.54 89.32 52.3571 89.7016C52.3383 89.7854 52.3383 89.8723 52.3571 89.9561L56.2973 91.7733C56.2888 91.8275 56.2888 91.8827 56.2973 91.9369V92.0459C56.2973 92.0459 56.2973 92.0459 56.2973 92.1549C56.2671 92.2074 56.2511 92.267 56.2511 92.3276C56.2511 92.3882 56.2671 92.4477 56.2973 92.5002C56.2878 92.5168 56.2828 92.5356 56.2828 92.5547C56.2828 92.5739 56.2878 92.5927 56.2973 92.6093C56.4971 92.9727 56.2973 93.3362 57.3505 93.318C57.5321 93.1726 57.5684 93.318 57.8045 92.3003C57.9316 92.6274 57.7137 92.4639 57.6592 93.5361C57.7068 93.6073 57.7684 93.6682 57.8402 93.7151C57.9119 93.7619 57.9924 93.7937 58.0768 93.8087C58.0768 93.8087 58.1858 93.8087 58.5126 93.8087C58.6216 93.8087 58.8213 93.8087 58.785 93.5179C58.785 93.5179 58.6942 93.8087 59.0755 94.1176C59.0755 94.1176 59.1845 94.1176 59.5658 94.1176H59.6566C59.8381 94.1176 59.7655 94.2266 60.0923 93.9177C60.4192 93.6088 60.0923 93.9177 60.2013 93.2816L67.5734 96.7163C66.9197 96.4982 61.5631 102.259 62.6708 97.3887C61.89 97.4977 60.4737 98.479 60.4737 100.587C58.6579 100.86 56.37 106.348 58.0223 106.53C58.244 105.358 58.8907 104.309 59.8381 103.586C59.8381 104.64 59.5839 104.585 60.855 106.457C60.746 106.893 56.7331 107.82 56.715 109.11C57.3142 109.819 59.3297 108.02 60.9639 107.438V107.711C61.5268 107.529 61.3271 107.711 62.126 106.911L62.9794 106.475C63.196 107.034 63.5743 107.516 64.0659 107.859C64.5575 108.203 65.1402 108.391 65.7395 108.401C65.0054 109.258 64.0077 109.846 62.9032 110.073C61.7988 110.3 60.6503 110.153 59.6384 109.655C59.6384 111.727 66.6837 113.29 68.1726 108.365C69.3347 108.874 69.0987 110.691 73.0389 109.237C73.4791 110.195 74.1536 111.026 75 111.654C75.8752 111.069 76.5775 110.259 77.0337 109.31C77.5965 109.601 81.21 110.891 82.3358 107.493C83.3344 108.111 86.1489 109.455 87.2747 106.112L87.9466 106.42C88.2371 106.62 87.5652 106.947 89.2176 107.584C89.114 107.388 89.0638 107.169 89.0723 106.947L94.32 109.401C94.556 109.401 94.32 109.401 95.2279 109.401H95.4639C95.4639 109.401 95.4639 109.401 95.5729 109.401H95.6818C95.6818 109.401 95.6818 109.401 95.8634 109.274L96.0268 109.092L96.1539 108.892C96.146 108.856 96.146 108.819 96.1539 108.783C96.1511 108.747 96.1511 108.71 96.1539 108.674C96.147 108.644 96.147 108.613 96.1539 108.583C96.1539 108.583 96.1539 108.438 96.1539 108.238C96.1539 108.238 96.1539 108.238 96.1539 108.02C96.1332 107.946 96.0959 107.877 96.045 107.82C95.9962 107.712 95.9213 107.618 95.8271 107.547C95.8271 107.547 95.8271 107.547 95.6273 107.42L95.2097 107.22L93.9205 106.584L94.4834 105.385L97.1526 106.584L100.112 100.296V100.006L99.2589 99.6057C101.438 99.1151 103.417 92.482 99.7855 91.6279C99.213 91.7719 98.608 91.7075 98.0787 91.4462C98.0787 92.0641 99.2589 93.1181 99.2589 93.1181C99.495 93.4815 99.5494 94.0267 97.7155 92.7728C103.453 98.9152 93.2123 98.3336 91.0515 94.3538C91.2331 94.1903 91.2513 94.2084 91.3239 93.7541C91.3239 93.9722 91.5055 94.0086 91.6144 94.0449C91.8323 94.0449 91.6144 94.0449 92.0502 94.0449C92.486 94.0449 92.0502 94.0449 92.5223 93.7178C92.6313 93.4815 92.4315 93.5179 92.3589 92.5366V92.2822C92.3589 92.8455 92.1047 92.5729 92.7766 93.4816C92.7766 93.4816 93.8479 93.6451 93.7934 92.6638C93.8237 92.6113 93.8396 92.5517 93.8396 92.4911C93.8396 92.4305 93.8237 92.371 93.7934 92.3185C93.7934 92.3185 93.7934 92.3185 93.7934 91.9369C94.0773 91.6828 94.2742 91.3459 94.3563 90.9737H94.5015C94.5853 90.9919 94.672 90.9919 94.7558 90.9737C94.7558 90.9737 94.7558 90.9737 94.8647 90.8465L95.1915 90.683C95.2855 90.7121 95.3871 90.7038 95.475 90.6598C95.563 90.6158 95.6306 90.5394 95.6637 90.4467L103.127 86.7031L103.235 86.903L105.469 85.74L105.378 85.5946L106.286 85.1403C105.996 84.7319 105.764 84.2855 105.596 83.8137L104.706 84.268L104.615 84.0863L102.346 84.7769L102.473 84.9949L95.2097 88.6294C95.1931 88.6199 95.1744 88.6148 95.1552 88.6148C95.1361 88.6148 95.1173 88.6199 95.1008 88.6294C95.1008 88.6294 95.1008 88.6294 95.1008 88.5204C95.1008 88.3387 95.1008 88.3932 94.9737 87.9934C94.9772 87.945 94.9772 87.8964 94.9737 87.848C94.9737 87.5754 94.9737 87.7026 94.1929 87.3755L93.8479 87.1393C93.8479 87.1393 93.8479 87.1393 93.7389 87.0303C93.63 86.9212 93.7389 87.0303 93.4302 87.0303H93.285C93.176 87.0303 93.176 87.0303 93.1579 87.212C93.1397 87.3937 93.0489 87.212 92.9944 87.3392C92.6858 85.9581 92.5405 84.8495 89.7805 83.9409C90.4523 82.1236 94.1747 81.9601 94.5015 85.8672C94.5923 85.3039 94.8102 82.2327 95.7726 86.3397C95.8772 85.7603 96.1866 85.2378 96.6442 84.8677C96.6442 84.8677 97.2434 84.0681 96.4444 82.5053C96.6481 82.5478 96.8441 82.6213 97.0255 82.7233C97.4613 81.9056 98.4237 81.6148 98.2784 80.5971C99.3655 81.1426 100.551 81.464 101.765 81.5421L101.601 81.3786C101.609 81.3304 101.609 81.2813 101.601 81.2332C101.696 81.3504 101.806 81.4544 101.928 81.5421C102.201 81.5421 100.784 82.1236 102.055 82.9414C102.273 82.8142 101.293 83.741 102.418 83.8864C102.418 83.8864 102.2 84.3225 102.418 84.5951L104.234 83.6501C103.944 83.5048 100.893 81.6148 104.452 79.8884C104.673 79.6446 104.818 79.3414 104.87 79.0161C105.179 78.9389 105.495 78.8903 105.814 78.8707C106.522 77.0535 104.488 74.691 102.073 73.1827C103.889 74.1277 106.141 77.3806 109.119 75.3816C108.556 73.8006 109.264 73.0555 105.596 71.529C108.81 72.6739 110.208 72.1105 111.316 71.2201C111.087 70.6711 110.749 70.1749 110.321 69.7623C109.893 69.3496 109.385 69.0294 108.828 68.8213C109.618 68.8567 110.404 68.6961 111.117 68.3536C111.83 68.0112 112.447 67.4976 112.914 66.8586C111.95 65.7896 110.608 65.1379 109.173 65.0414C110.217 64.9867 111.217 64.6069 112.034 63.9552C112.851 63.3036 113.444 62.4125 113.731 61.4068" fill="#808D9C"/>
<path d="M107.993 79.9066C107.634 80.0865 107.318 80.3421 107.067 80.6558C106.817 80.9695 106.637 81.3339 106.54 81.7239L106.359 81.8511L106.268 82.1055C106.205 82.0785 106.137 82.0646 106.068 82.0646C105.999 82.0646 105.931 82.0785 105.868 82.1055C105.342 82.3417 105.632 82.9414 105.632 82.9414C105.632 82.9414 105.868 83.5956 106.05 83.9773C106.238 84.3366 106.45 84.6827 106.685 85.0131C106.685 85.0131 107.103 85.4674 107.484 85.2675C107.566 85.2226 107.634 85.1569 107.682 85.0771C107.73 84.9973 107.755 84.9063 107.757 84.8132H107.956H108.32C108.75 84.9652 109.211 85.0079 109.662 84.9376C110.113 84.8674 110.54 84.6863 110.904 84.4105C111.268 84.1348 111.558 83.773 111.747 83.3577C111.937 82.9423 112.021 82.4863 111.992 82.0304C111.963 81.5746 111.821 81.1332 111.579 80.7457C111.337 80.3582 111.003 80.0367 110.607 79.8101C110.211 79.5834 109.765 79.4586 109.308 79.447C108.852 79.4353 108.4 79.537 107.993 79.743" fill="#808D9C"/>
<path d="M102.237 84.777C101.928 84.2864 102.128 84.0865 102.128 84.0865C102.036 84.0816 101.948 84.05 101.873 83.9956L100.875 84.5044C100.693 84.6135 100.348 84.8315 100.294 85.0678C100.956 85.1951 101.641 85.0925 102.237 84.777Z" fill="#808D9C"/>
<path d="M101.819 83.9591C101.619 83.7955 101.565 83.6683 101.601 83.4866C101.638 83.3048 101.601 83.1595 101.819 83.0686H101.638C101.638 83.0686 101.093 83.0686 101.002 83.0686C100.395 83.1652 99.8242 83.4224 99.3496 83.8137C99.9125 84.3952 101.165 84.2135 101.819 84.0318" fill="#808D9C"/>
<path d="M101.565 82.9598C101.473 82.892 101.398 82.8047 101.345 82.704C101.291 82.6034 101.261 82.4921 101.256 82.3782C101.246 82.2651 101.264 82.1511 101.308 82.0465C101.353 81.9419 101.422 81.8499 101.51 81.7785C100.409 81.6364 99.2903 81.723 98.2239 82.033C98.5304 82.3423 98.8999 82.5819 99.3072 82.7355C99.7145 82.8892 100.15 82.9533 100.584 82.9234H101.565" fill="#808D9C"/>
<path d="M108.41 87.7028C107.757 87.7028 107.357 88.2298 106.722 88.2298C106.463 88.235 106.208 88.1744 105.979 88.0536C105.75 87.9328 105.556 87.7558 105.414 87.5392C105.113 86.9496 105.048 86.2671 105.233 85.6311L103.417 86.5942C103.417 86.9759 103.962 87.0667 103.962 87.0667C103.903 87.1656 103.871 87.2786 103.871 87.3938C103.871 87.5091 103.903 87.6221 103.962 87.721C104.143 88.0299 104.579 87.9027 104.579 87.9027C104.579 87.9027 104.579 88.5569 104.833 88.8113C104.951 88.8817 105.086 88.9189 105.224 88.9189C105.361 88.9189 105.496 88.8817 105.614 88.8113C105.608 88.984 105.639 89.156 105.705 89.3158C105.771 89.4756 105.87 89.6196 105.995 89.7381C106.113 89.8105 106.248 89.8488 106.386 89.8488C106.524 89.8488 106.659 89.8105 106.776 89.7381C106.776 89.7381 106.921 90.2106 107.158 90.3196C107.298 90.35 107.445 90.3367 107.578 90.2815C107.711 90.2263 107.824 90.1318 107.902 90.0107C107.945 90.2052 108.027 90.389 108.142 90.5513C108.258 90.7136 108.404 90.8511 108.574 90.9557C108.729 91.0149 108.897 91.0342 109.062 91.012C109.227 90.9898 109.384 90.9267 109.518 90.8285C110.026 90.4468 109.718 91.0284 109.663 91.1737C109.445 91.9007 109.191 92.5912 108.955 93.2999C108.834 93.5683 108.771 93.8595 108.771 94.1541C108.771 94.4486 108.834 94.7398 108.955 95.0082C108.955 95.0082 109.246 95.3353 109.482 95.2808C109.681 94.4812 109.954 93.6997 110.172 92.9001C110.49 92.0119 110.674 91.0807 110.716 90.1379C110.719 89.486 110.516 88.8499 110.135 88.3206C109.957 88.0756 109.717 87.8825 109.439 87.7611C109.161 87.6398 108.857 87.5945 108.556 87.6301" fill="#808D9C"/>
<path d="M103.689 87.1577C103.689 87.1577 103.435 87.1577 103.199 86.667C102.592 86.9614 102.105 87.4554 101.819 88.0663C102.094 88.1124 102.377 88.0609 102.618 87.9209C102.96 87.7706 103.294 87.6007 103.617 87.4121C103.604 87.3277 103.604 87.242 103.617 87.1577" fill="#808D9C"/>
<path d="M104.307 88.2298C104.298 88.1696 104.298 88.1083 104.307 88.0481C104.147 88.0995 103.976 88.0995 103.817 88.0481C103.736 88.0038 103.669 87.9378 103.624 87.8574C103.579 87.7771 103.558 87.6857 103.562 87.5938C102.999 88.0481 102.146 88.9022 102.291 89.7018C102.891 89.5591 103.438 89.2505 103.871 88.8113C104.008 88.6496 104.136 88.4796 104.252 88.3025" fill="#808D9C"/>
<path d="M104.615 88.9565C104.444 88.795 104.34 88.5741 104.325 88.3386C104.325 88.3386 103.835 89.1019 103.78 89.1564C103.499 89.4821 103.292 89.866 103.176 90.2806C103.06 90.6953 103.037 91.1305 103.108 91.5552C103.988 90.8835 104.718 90.0355 105.251 89.0655C105.144 89.1022 105.03 89.1114 104.919 89.0923C104.808 89.0732 104.704 89.0265 104.615 88.9565Z" fill="#808D9C"/>
<path d="M106.213 90.047C106.103 90.0486 105.994 90.0229 105.895 89.9722C105.797 89.9215 105.713 89.8473 105.65 89.7562C105.561 89.6655 105.49 89.5575 105.444 89.4388C105.397 89.3202 105.374 89.1932 105.378 89.0657C105.378 89.0657 105.088 89.5382 105.069 89.5382C104.387 90.4699 104.03 91.6 104.053 92.7547C104.407 92.5316 104.72 92.2488 104.979 91.9188C105.088 91.9188 106.177 90.1015 106.177 90.1015" fill="#808D9C"/>
<path d="M106.54 91.7916L107.285 90.5377C107.186 90.548 107.086 90.5334 106.994 90.4953C106.902 90.4573 106.821 90.3969 106.758 90.3196C106.675 90.2176 106.614 90.1003 106.576 89.9744C106.505 89.9886 106.431 89.9886 106.359 89.9744L105.886 90.7376C105.276 91.8559 104.928 93.099 104.87 94.3721C105.093 94.1702 105.294 93.9447 105.469 93.6998C105.778 93.2454 106.54 91.8825 106.54 91.8825" fill="#808D9C"/>
<path d="M108.138 90.9738C107.928 90.7661 107.773 90.5103 107.684 90.2288C107.616 90.3261 107.521 90.4019 107.412 90.4468C107.285 90.6286 106.522 92.0642 106.522 92.0642C105.923 93.1727 105.051 95.5715 105.451 96.2257C106.138 95.4175 106.679 94.4949 107.048 93.4998L108.138 90.9738Z" fill="#808D9C"/>
<path d="M108.41 94.0269L109.554 90.9375C109.386 91.0953 109.172 91.1947 108.943 91.2209C108.714 91.2471 108.482 91.1987 108.283 91.0829C108.283 91.0829 107.539 92.9001 107.121 93.936C106.579 95.13 106.378 96.4509 106.54 97.7522C106.807 97.564 107.024 97.3148 107.176 97.0253C107.3 96.8154 107.409 96.5967 107.502 96.3711L108.41 94.0269Z" fill="#808D9C"/>
<path d="M108.465 94.4265C107.942 95.5874 107.564 96.808 107.339 98.061C107.365 98.828 107.524 99.5846 107.811 100.296L109.264 95.5896C109.264 95.5896 108.556 95.5896 108.465 94.4992" fill="#808D9C"/>
<path d="M74.9999 63.315H65.3762V83.3049C65.3762 85.7764 66.3931 86.9394 68.5175 86.9394H71.6952C72.4588 86.9823 73.1895 87.2654 73.7829 87.7484C74.3763 88.2313 74.8022 88.8895 74.9999 89.6289C75.1534 88.8687 75.5569 88.1818 76.146 87.6778C76.7351 87.1739 77.4759 86.8819 78.2502 86.8485H81.446C83.5523 86.8485 84.5873 85.6855 84.5873 83.214V63.2241L74.9999 63.315Z" fill="white"/>
<path d="M74.9999 63.315H65.3762V83.3049C65.3762 85.7764 66.3931 86.9394 68.5175 86.9394H71.6952C72.4588 86.9823 73.1895 87.2654 73.7829 87.7484C74.3763 88.2313 74.8022 88.8895 74.9999 89.6289C75.1534 88.8687 75.5569 88.1818 76.146 87.6778C76.7351 87.1739 77.4759 86.8819 78.2502 86.8485H81.446C83.5523 86.8485 84.5873 85.6855 84.5873 83.214V63.2241L74.9999 63.315Z" stroke="white" stroke-width="0.03" stroke-miterlimit="10"/>
<path d="M71.0779 82.4508H70.5514C70.5514 82.1964 70.3516 82.1056 70.3335 81.833C70.3335 80.8698 69.9521 81.2514 70.8782 79.4524C71.7498 78.8345 71.1324 78.7981 73.2206 77.6351C73.4748 77.8168 73.4203 78.3983 73.2206 78.6164C73.2677 78.7152 73.3042 78.8188 73.3295 78.9253C73.4827 79.0067 73.6484 79.062 73.8198 79.0889C74.2192 79.4342 74.1103 79.2706 75.2361 81.0879C75.2361 81.0879 75.2361 80.9607 75.2361 80.888L75.4358 81.0697H75.2724C75.2724 81.1969 75.2724 81.3787 75.3813 81.3787C75.4903 81.3787 74.9274 81.3787 74.8185 81.5422C74.6627 81.5537 74.5155 81.6178 74.4008 81.7239C74.2374 81.7239 74.1648 81.7239 74.0377 81.8511C74.8729 81.5059 71.5864 77.6169 71.0235 82.2328C71.0235 82.2328 71.0235 82.2328 70.8419 82.2328C70.6603 82.2328 71.0779 82.3418 71.0779 82.4872M75.7264 80.4337L74.8911 77.4352C75.0109 77.2108 75.0792 76.9625 75.0908 76.7083C75.2906 76.7083 75.5085 76.7083 75.7264 76.7083C75.8718 76.9235 75.9536 77.1755 75.9624 77.4352C76.1258 77.4352 75.7627 77.7078 75.9624 78.1984C76.2892 78.1984 76.0532 78.1984 76.6342 78.0531C77.1245 78.0531 76.9066 78.0531 77.5421 78.8527C77.7145 79.3872 77.972 79.8904 78.3048 80.3428C77.9779 80.3428 78.3048 80.3428 78.0506 80.7971C78.0506 80.7971 78.0506 80.5064 78.3411 80.5972C78.3411 80.5972 78.3411 80.7608 78.3411 80.8335C78.3411 80.9062 78.3411 80.8335 78.1232 81.2151C78.1232 81.2151 78.1232 81.1242 78.1232 81.0697C78.1232 81.0152 78.1232 81.0697 78.3774 81.0697C78.3985 81.1777 78.3985 81.2888 78.3774 81.3968C78.3774 81.3968 78.214 81.4877 78.1777 81.5786C78.0971 81.5579 78.0131 81.5553 77.9314 81.571C77.8498 81.5867 77.7727 81.6203 77.7056 81.6694C77.7056 81.6694 77.7056 81.6694 77.9416 81.6694C78.1777 81.6694 77.9416 81.7603 77.9416 81.8511C77.9416 81.8511 77.76 81.8511 77.6874 81.8511C77.6148 81.8511 77.2698 81.4877 76.9429 81.524C76.6161 81.5604 76.9429 81.524 76.5616 81.524C76.6887 81.524 76.5616 81.524 76.8521 81.524C77.1427 81.524 77.0337 81.3605 77.179 81.3423C77.1921 81.3899 77.1921 81.4401 77.179 81.4877C77.179 81.6694 77.7056 81.2514 77.0519 81.0515C76.6912 81.2042 76.3642 81.4265 76.0895 81.7058C76.0895 81.5604 76.2166 81.3787 76.0895 81.2514C76.3074 81.2514 76.3074 80.888 76.5798 80.8516C76.8521 80.8153 76.5798 80.997 76.5798 81.0334C76.834 81.0334 76.5798 81.0334 76.7432 80.5791C76.6342 80.5791 76.7432 80.4882 76.38 80.5791C76.0169 80.6699 76.1985 80.4518 75.9442 81.0334C75.8535 81.0334 76.1258 80.8335 75.7808 80.47C75.7808 80.47 75.6356 80.47 75.5448 80.5609M71.314 65.4231C71.1324 65.7138 71.205 65.4231 71.4229 66.3499C71.2958 66.5861 71.0961 66.4953 71.1687 67.2767C70.7329 67.5129 68.3361 67.095 68.7356 68.6578C68.7356 68.6578 68.0093 69.4211 68.7356 69.839C68.7356 70.0753 68.445 70.1843 68.9171 70.5296C68.9548 70.5978 69.0101 70.6546 69.0771 70.6941C69.1442 70.7337 69.2206 70.7546 69.2985 70.7546C69.3763 70.7546 69.4527 70.7337 69.5198 70.6941C69.5868 70.6546 69.6421 70.5978 69.6798 70.5296C70.2427 70.2752 70.0429 72.0197 70.86 70.9839C71.0633 71.0299 71.2742 71.0299 71.4774 70.9839L71.7135 71.1475C71.9314 70.9839 71.7135 70.9657 72.3308 71.1475C72.3797 71.0834 72.443 71.0319 72.5156 70.9972C72.5882 70.9624 72.668 70.9454 72.7485 70.9476L72.93 71.6199H72.7848C72.7848 72.1833 73.1116 72.4559 73.1661 72.9829C72.356 72.9658 71.5515 73.1207 70.8056 73.4372C70.1519 72.2015 67.4827 72.1651 67.6461 75.2545C67.61 75.2891 67.5829 75.3321 67.5671 75.3796C67.5513 75.427 67.5472 75.4777 67.5553 75.5271C67.6712 75.4877 67.7812 75.4327 67.8821 75.3635C67.8069 75.9 67.8069 76.4444 67.8821 76.9809C68.12 76.7862 68.2862 76.5176 68.3543 76.2176C68.4505 76.5253 68.4505 76.855 68.3543 77.1626C68.4814 76.7991 69.135 76.9809 69.4256 75.8723C69.4256 76.2358 69.5527 76.6719 69.3166 76.89C69.3983 76.8568 69.4724 76.8073 69.5345 76.7446C70.6603 77.5442 68.8082 72.6921 70.6421 73.9279C69.9158 75.0001 71.9132 77.308 70.1337 79.2706C70.0751 80.1001 69.7788 80.8951 69.2803 81.5604C69.2803 81.5604 69.2803 81.5604 69.3711 81.5604C69.3711 81.5604 69.3711 81.5604 69.4619 81.5604C69.5527 81.5604 69.4619 81.5604 69.3711 82.1237C68.7537 82.5962 69.6435 80.3065 67.9366 80.3065C69.244 80.5972 67.7187 84.4862 71.4592 83.6139V83.8501C71.3173 83.9839 71.1508 84.0888 70.969 84.1591C72.24 83.8683 75.0182 86.576 76.9429 84.577C76.9429 84.2863 77.7419 84.8678 77.5421 83.7774C77.6692 83.7774 77.5421 83.5775 78.0687 83.5412H78.1958C78.1958 83.5412 78.3411 83.5412 78.6135 83.5412C78.8858 83.5412 78.6134 83.7956 79.4306 83.941C79.5016 83.851 79.5624 83.7535 79.6121 83.6502C80.3203 83.3595 81.7184 83.9773 81.8092 82.5962C81.7491 82.7032 81.6824 82.8064 81.6095 82.9052C81.6095 82.9052 81.6095 82.9052 81.7729 82.7416C81.7729 82.887 81.6277 83.0505 81.555 83.0687C81.4824 83.0869 81.7729 82.5962 81.555 82.36C81.5659 82.4926 81.535 82.6253 81.4666 82.7394C81.3982 82.8535 81.2958 82.9432 81.1737 82.996C81.1737 82.996 81.2645 82.6326 81.1737 82.5599C81.1759 82.6122 81.1654 82.6642 81.1433 82.7117C81.1212 82.7591 81.088 82.8005 81.0466 82.8325C81.0466 82.8325 81.0466 82.6326 81.0466 82.6144C81.0298 82.7009 80.9908 82.7815 80.9336 82.8484C80.8763 82.9153 80.8026 82.9662 80.7198 82.996C80.7198 82.996 80.7198 82.996 80.7198 82.8325C80.7198 82.6689 80.7198 82.9415 80.5563 82.9415C80.3929 82.9415 80.5563 82.7779 80.4656 82.7416C80.3748 82.7053 80.4656 82.8688 80.3566 82.9052C80.2477 82.9415 80.3566 82.7598 80.2658 82.7234C80.175 82.6871 80.2658 82.7234 80.2658 82.8325C80.2243 82.6644 80.1434 82.5087 80.0298 82.3781C80.1569 82.3781 80.0298 82.1964 80.1569 82.1419C80.284 82.0874 80.1569 82.1419 80.3203 82.1419C80.4837 82.1419 80.3203 82.0147 80.3203 81.9783C80.3203 81.942 80.3203 81.9783 80.4292 81.9783C80.5382 81.9783 80.4292 81.8693 80.4292 81.8148C80.4292 81.7603 80.52 81.8148 80.5745 81.7058C80.6319 81.7251 80.6836 81.7585 80.7248 81.8029C80.7661 81.8474 80.7955 81.9014 80.8106 81.9602C80.8555 81.7997 80.8555 81.63 80.8106 81.4695C80.8106 81.4695 80.8106 81.4695 80.9377 81.4695C81.0648 81.4695 81.0829 81.7239 81.0648 81.7966C81.0466 81.8693 81.0648 81.5422 81.0648 81.415C81.0648 81.2878 81.1737 81.5786 81.2463 81.6694C81.2463 81.0697 80.5382 81.2333 79.6485 81.942C79.6485 81.7784 79.3942 81.7058 79.3034 81.524C79.3733 81.4061 79.4224 81.277 79.4487 81.1424C79.4487 81.1424 79.2671 81.1424 79.2308 80.9789C79.248 80.9195 79.248 80.8565 79.2308 80.7971C79.2308 80.7971 79.0674 80.7971 78.9948 80.7971C78.7956 79.5655 78.5042 78.3506 78.1232 77.1626C78.1232 77.1626 78.1232 77.3988 78.1232 77.1626L78.559 77.3443C78.8677 77.4352 79.8119 76.2176 81.0829 75.9632C81.3371 76.254 80.7924 76.6901 80.52 77.5624C80.4111 77.5624 80.52 77.7441 80.4111 77.8532C79.9027 77.8532 79.9571 77.308 79.7211 78.6164C80.2295 78.6164 79.7211 78.6164 80.7379 78.4347C81.5187 77.8895 81.555 77.2353 81.9363 75.3635C81.1919 74.473 81.8092 74.8365 79.2308 75.3635C79.485 74.7456 79.1219 74.9637 78.7587 72.7285C79.0129 72.8557 79.0129 72.9284 79.5032 72.3832C79.4124 72.3832 79.7211 72.8739 80.0842 72.5286C80.0842 72.5286 80.0842 72.5286 80.1932 72.5286C80.3021 72.5286 80.1932 72.5286 80.4474 72.5286C81.1192 72.2742 81.3371 72.1651 80.7016 69.8935C80.7016 69.8935 80.8287 69.8935 80.8106 69.8935H81.1192C81.0103 69.6755 81.1192 69.3665 80.974 69.1848L81.1919 68.9667C81.0205 68.8885 80.8354 68.8453 80.6471 68.8395C80.6471 68.8395 80.6471 68.7487 80.175 68.676C80.175 68.5488 80.3748 68.4216 80.4656 68.2762C80.2663 68.2556 80.0656 68.2556 79.8663 68.2762C79.8663 68.2762 79.8663 68.2762 79.3942 68.1671C78.9221 68.0581 78.9584 67.7128 77.5784 68.1671C77.6586 68.1631 77.7384 68.1814 77.8089 68.2199C77.8794 68.2583 77.9379 68.3156 77.9779 68.3852C77.4332 68.3852 77.6148 68.1308 76.7432 68.676C76.6686 68.7005 76.6013 68.7433 76.5474 68.8004C76.4935 68.8575 76.4547 68.9272 76.4345 69.0031H76.6524C76.5435 69.1485 75.9261 69.0031 75.8535 69.312C76.1077 69.312 75.9987 69.312 76.4345 69.312C76.1077 69.4392 76.4345 69.312 75.7082 69.9481C75.6679 69.6722 75.5609 69.4104 75.3963 69.1855C75.2317 68.9606 75.0146 68.7794 74.764 68.6578C74.764 68.6578 74.655 68.6578 74.764 68.2944C74.8729 68.2944 74.9456 68.4034 75.1453 68.1853C76.0895 68.8759 76.3074 65.4231 74.1648 66.6225C74.9637 65.732 76.9792 67.7855 75.1635 68.1671L75.3087 68.0399C75.3087 68.0399 75.3087 67.731 75.5811 67.6765C75.5909 67.5677 75.5909 67.4582 75.5811 67.3494C75.6038 67.301 75.6155 67.2483 75.6155 67.1949C75.6155 67.1415 75.6038 67.0888 75.5811 67.0404C75.5811 67.1313 75.5811 67.2767 75.4721 67.3312C75.3632 67.3857 75.4721 67.0404 75.4721 66.9859C75.5086 67.0794 75.5086 67.1832 75.4721 67.2767C75.4721 67.2767 75.4721 67.1858 75.4721 67.1131C75.4721 67.0404 75.4721 67.204 75.4721 67.2403C75.4721 67.2767 75.3632 67.1131 75.2542 67.1131C74.8366 67.1131 74.5279 67.6583 74.4371 68.0218C74.4371 68.0218 74.074 68.0218 74.2192 67.6401C74.074 67.8037 73.8198 67.8582 74.2192 67.2403C74.0195 67.2403 73.9287 67.5311 73.8198 67.7128C73.8198 67.5675 73.5292 67.4221 74.0558 67.0586C73.8742 67.0586 74.0558 67.0586 73.6927 67.2767C73.4929 67.095 73.8016 66.7679 74.5461 66.5316C74.5461 66.5316 74.5461 66.5316 74.1285 66.677C73.8924 66.677 73.1842 67.4948 73.9106 67.731C73.9106 67.9672 74.1466 67.731 73.8198 68.1853C73.2478 67.7377 72.5845 67.4213 71.8769 67.2585V67.0768C71.9677 66.8769 72.0403 66.8951 71.6953 66.5134C71.6953 66.5134 71.6953 66.5134 71.4411 66.5134C71.1869 66.5134 71.895 65.9501 71.4956 65.2595L71.314 65.4231Z" fill="#808D9C"/>
<path d="M100.04 92.4094C99.8037 92.4094 99.7492 92.9182 100.185 92.7183C100.185 92.573 100.312 92.573 100.04 92.4094ZM100.04 92.9364C100.04 92.9364 99.3134 92.4821 100.04 92.2277C100.058 92.0459 100.766 92.7729 100.04 92.9364ZM95.4639 83.6502C95.6637 83.6502 95.6637 83.8319 95.4639 83.6502C95.2279 84.3953 95.2642 83.4685 95.4639 83.6502ZM95.4639 84.1954C95.1189 84.3953 94.9555 82.9051 95.8271 83.8137C95.8271 84.0136 95.8453 83.8319 95.4639 84.1954ZM109.209 95.4261L107.684 100.169C107.403 99.201 107.317 98.1863 107.433 97.1846C107.548 96.183 107.862 95.2144 108.356 94.3357C108.447 95.4987 109.155 95.4261 109.155 95.4261M107.339 96.2983C107.133 96.8389 106.796 97.3198 106.359 97.6976C105.996 96.2802 106.976 93.5724 108.174 90.9919C108.379 91.1041 108.614 91.1486 108.846 91.1193C109.077 91.0899 109.293 90.9881 109.464 90.8284C109.101 91.9187 108.247 94.2448 107.43 96.2983H107.339ZM106.922 93.4998C106.545 94.4952 105.998 95.4175 105.306 96.2257C105.372 94.1277 106.061 92.0971 107.285 90.3922C107.36 90.4003 107.435 90.3896 107.505 90.361C107.575 90.3325 107.636 90.287 107.684 90.2287C107.787 90.4774 107.935 90.7053 108.12 90.9011L106.922 93.4998ZM105.287 93.5906C105.104 93.8285 104.897 94.0477 104.67 94.2448C104.765 92.6918 105.286 91.1951 106.177 89.9198C106.249 89.934 106.323 89.934 106.395 89.9198C106.395 89.9198 106.304 90.3741 107.121 90.4831C106.613 91.319 106.558 91.4463 105.306 93.6451M104.833 91.8279C104.575 92.1579 104.262 92.4407 103.907 92.6638C103.867 91.5094 104.219 90.3755 104.906 89.4473L105.197 88.9566C105.197 88.7567 105.197 89.9016 106.05 89.9561C106.05 89.9561 104.942 91.7734 104.833 91.7734M105.069 88.9202C104.531 89.897 103.795 90.751 102.909 91.4281C102.833 90.9964 102.856 90.5531 102.975 90.1314C103.095 89.7097 103.308 89.3205 103.599 88.9929L104.143 88.1752C104.143 88.1752 103.98 88.9384 105.069 88.9202ZM102.237 89.52C102.11 88.7204 102.963 87.8481 103.544 87.3937C103.689 87.5573 103.344 87.7754 104.271 87.9208C104.259 87.9869 104.259 88.0546 104.271 88.1207C104.146 88.2911 104.013 88.4549 103.871 88.6113C103.431 89.0547 102.879 89.369 102.273 89.52M103.562 87.2847C103.037 87.6817 102.404 87.9099 101.747 87.9389C102.042 87.322 102.543 86.8272 103.163 86.5396C103.381 87.0848 103.653 87.0303 103.653 87.0303C103.606 87.1079 103.575 87.1945 103.562 87.2847ZM110.027 88.2842C110.517 88.7385 110.499 89.4654 110.626 90.1015C110.444 91.3917 110.916 89.7199 109.355 95.2625C107.085 94.5901 111.316 92.3004 107.775 89.9561C107.775 89.9561 107.103 90.8284 106.631 89.7017C106.776 89.4836 105.505 90.2832 105.469 88.7567C105.632 88.5386 104.307 89.32 104.416 87.8117C104.652 87.8117 103.29 87.9571 103.853 86.9576C103.853 86.9576 103.363 86.9576 103.29 86.4851L105.215 85.522C105.215 85.8491 104.906 89.4291 108.411 87.5936C108.718 87.5645 109.028 87.6143 109.31 87.7384C109.593 87.8624 109.84 88.0565 110.027 88.3024M93.8479 72.9102L98.5689 74.5275C98.5689 74.5275 98.0968 75.0727 98.9866 75.8178C97.0618 74.7819 96.5897 76.3266 93.8479 72.9102ZM98.6053 77.1807C97.3021 76.8968 96.0984 76.2694 95.1189 75.3635C96.9347 75.0545 99.9489 76.3448 102.527 76.9808C101.783 77.2534 101.728 77.5078 101.638 77.9258L98.6053 77.1807ZM95.6818 77.1807C97.7099 77.2031 99.721 77.5528 101.638 78.2166C101.681 78.4771 101.78 78.7252 101.928 78.9435C101.822 78.9061 101.707 78.9061 101.601 78.9435C99.5027 78.8697 97.4608 78.2428 95.6818 77.1262M100.421 80.0338C99.1693 79.8675 97.9679 79.4336 96.8984 78.7617C98.4242 78.7046 99.9519 78.8082 101.456 79.0707C101.456 79.0707 101.202 79.3978 101.456 79.9611L101.293 80.1247L100.421 80.0338ZM100.966 81.4513C99.8037 81.4344 98.6776 81.0459 97.7518 80.3428C98.1443 80.1828 98.5629 80.0965 98.9866 80.0883C99.1318 80.0883 101.22 80.2337 101.22 80.2337C101.22 80.2337 100.766 80.8879 101.529 81.4876L100.966 81.4513ZM100.494 82.7234C100.057 82.7547 99.6178 82.6913 99.2073 82.5377C98.7969 82.384 98.4243 82.1436 98.115 81.8329C99.2001 81.5231 100.337 81.4366 101.456 81.5785C101.329 81.8148 100.893 81.9965 101.456 82.7597C101.456 82.7597 100.548 82.7597 100.457 82.7597M99.2045 83.632C99.5234 83.3534 99.8953 83.1422 100.298 83.011C100.7 82.8798 101.125 82.8315 101.547 82.8688C101.547 82.8688 101.656 82.8688 101.71 82.8688C101.765 82.8688 101.238 83.0868 101.71 83.7592C101.02 83.9591 99.7855 84.1227 99.2045 83.5412M100.185 84.9041C100.439 84.6133 100.003 84.7042 101.783 83.8137C101.86 83.8649 101.947 83.9019 102.037 83.9228C102.037 83.9228 101.856 84.1045 102.164 84.5952C101.56 84.9252 100.861 85.0345 100.185 84.9041ZM98.6053 75.1454C98.6053 75.1454 98.6053 74.7092 98.6053 74.5639C100.305 75.1045 101.957 75.7853 103.544 76.5992C103.453 77.1444 105.36 77.108 104.289 79.8521C104.289 80.47 100.476 81.3241 104.089 83.632C103.435 83.9773 102.273 84.4861 102.164 84.5952C101.892 84.3226 102.164 83.8683 102.164 83.8683C102.164 83.8683 101.02 83.7229 101.819 82.9233C102.164 83.0323 100.548 82.2145 101.674 81.524C102.019 81.6694 100.457 80.7062 101.583 80.0338C101.874 80.0338 100.603 79.2888 102.055 78.9435C101.474 76.3811 103.472 77.6714 98.5689 75.1454M97.6247 99.9692L96.4626 102.386L94.9737 101.677L95.7726 100.024C96.3758 100.094 96.9852 100.094 97.5884 100.024M98.7324 99.6603L98.4237 100.296L97.7337 99.9874C98.0757 99.9085 98.4099 99.799 98.7324 99.6603ZM88.9816 101.278L90.7974 97.6431C91.5891 98.3649 92.4748 98.9762 93.4303 99.4604L91.905 102.695L88.9816 101.278ZM88.346 104.131L84.7145 102.404C85.0776 102.295 84.9687 102.404 86.3668 101.623L89.0542 102.877L88.346 104.131ZM72.9118 103.749C72.2073 104.007 71.4534 104.1 70.7075 104.021C69.9617 103.942 69.2437 103.694 68.6084 103.295L74.4008 100.424L75.3813 100.878C74.9362 102.105 74.0578 103.126 72.9118 103.749ZM73.1842 99.7875L68.4086 102.204C68.5706 101.487 68.8761 100.809 69.3068 100.212C69.7374 99.6159 70.2843 99.1128 70.9144 98.7335L73.1842 99.7875ZM80.5563 92.0459C81.5241 91.6731 82.5782 91.5844 83.5946 91.7905C84.6111 91.9965 85.5476 92.4886 86.2942 93.209L78.341 97.2615C78.5408 95.2625 79.0673 92.7002 80.5563 92.0459ZM78.7405 98.37L87.0568 94.2448C87.3837 97.8794 84.2787 102.459 78.7405 98.37ZM45.802 88.9929H45.2028C45.457 89.9379 42.0615 91.0283 42.9694 88.0661C42.5257 87.5401 42.2403 86.8988 42.1466 86.2168C42.0529 85.5348 42.1546 84.8401 42.4399 84.2137C42.7253 83.5873 43.1826 83.0549 43.7585 82.6785C44.3344 82.3021 45.0053 82.097 45.6931 82.0873C45.8202 81.1242 48.6165 80.7607 47.981 83.214C48.3572 83.7046 48.6022 84.2832 48.6926 84.895C48.783 85.5068 48.716 86.1315 48.4978 86.7101C48.2797 87.2888 47.9176 87.8021 47.4459 88.2016C46.9741 88.601 46.4083 88.8734 45.802 88.9929ZM111.697 80.9606C111.388 80.5057 110.958 80.1461 110.456 79.9219C109.954 79.6978 109.399 79.618 108.854 79.6916C108.31 79.7652 107.796 79.9892 107.371 80.3385C106.946 80.6879 106.627 81.1487 106.449 81.6694C105.596 82.3418 105.396 82.9051 105.451 83.3412L89.1087 91.6825C87.4926 90.3014 90.1437 75.5452 94.1021 85.8309C94.1021 85.5401 94.3745 81.942 95.3913 86.3216C95.5052 85.7413 95.8203 85.2199 96.281 84.8496C96.281 77.0899 83.6613 78.9253 86.3487 90.3014C81.3552 87.1575 76.1621 90.8102 75.8715 96.7163C74.4781 96.2082 72.9782 96.0643 71.5137 96.2983L52.7202 87.5391L51.7578 87.1212L53.0652 84.3953C52.8836 84.3953 52.5205 84.1772 51.667 83.7592C51.5929 83.4247 51.4453 83.1108 51.2348 82.8405C51.0244 82.5702 50.7565 82.3501 50.4505 82.1964C50.632 81.6512 50.7047 81.9601 49.6878 80.3791C50.2144 79.3796 48.8163 76.363 46.5465 78.9071C45.6749 78.471 46.5465 78.7072 44.7307 79.4705C44.0044 79.2888 42.2068 79.1797 41.1899 81.6875C41.1899 81.6875 38.3755 81.6875 39.8281 84.5952C39.0655 85.7764 38.6297 86.5942 40.3547 88.7022C40.1731 89.2292 40.1005 88.9566 41.1355 90.5194C40.6089 91.5008 41.9889 94.4993 44.2768 91.9733C45.1302 92.4094 44.2768 92.1732 46.0926 91.4099C46.4059 91.5536 46.7466 91.6281 47.0913 91.6281C47.4359 91.6281 47.7766 91.5536 48.0899 91.4099L49.4699 92.0641L50.6684 89.5381L68.445 97.7703C67.2916 98.9225 66.5511 100.424 66.3386 102.041C64.2686 98.8425 54.4271 101.296 57.2597 106.675C57.641 104.858 60.3102 100.351 65.4671 103.84C47.1094 112.926 59.9107 108.256 66.0481 104.658C65.7757 106.166 65.6305 112.381 58.8939 109.873C60.1831 113.272 68.681 112.726 67.9729 105.421C73.1842 107.365 74.891 106.112 77.4513 101.968L94.1203 109.692C94.0295 109.692 97.0255 109.855 95.1916 107.438C95.1916 107.438 94.5379 107.111 93.3758 106.584L93.975 105.33L96.7713 106.62L99.8582 100.078L99.0047 99.6785C101.274 99.206 103.29 92.4094 99.5858 91.628C99.0156 91.7792 98.4101 91.7212 97.8789 91.4644C98.1876 92.3185 100.476 94.7355 97.5158 92.791C103.671 100.823 90.4342 96.6618 89.5445 93.0636L106.104 84.8496C106.413 85.1585 106.922 85.2675 108.011 84.9586C109.373 85.213 112.514 84.9586 111.643 81.1424" fill="#FABC42"/>
</g>
<defs>
<clipPath id="clip0_831_576">
<rect width="138" height="144" fill="white" transform="translate(6 3)"/>
</clipPath>
</defs>
</svg>
