<svg width="150" height="150" viewBox="0 0 150 150" fill="none" xmlns="http://www.w3.org/2000/svg">
<rect width="150" height="150" fill="white"/>
<g clip-path="url(#clip0_831_612)">
<mask id="mask0_831_612" style="mask-type:luminance" maskUnits="userSpaceOnUse" x="18" y="3" width="115" height="145">
<path d="M132.067 3H18V148H132.067V3Z" fill="white"/>
</mask>
<g mask="url(#mask0_831_612)">
<path fill-rule="evenodd" clip-rule="evenodd" d="M66.207 30.1575C65.5021 30.1575 64.9285 30.6913 64.9285 31.3476C64.9285 32.0048 65.5021 32.5395 66.207 32.5395C66.9113 32.5395 67.4834 32.0048 67.4834 31.3476C67.4834 30.6913 66.9113 30.1575 66.207 30.1575Z" fill="#194F9E"/>
<path fill-rule="evenodd" clip-rule="evenodd" d="M66.741 29.5117C66.9869 29.5736 67.216 29.6776 67.4155 29.8149L67.8934 29.5175L66.741 29.5117Z" fill="#194F9E"/>
<path fill-rule="evenodd" clip-rule="evenodd" d="M74.7915 26.8569L75.1372 30.9883L75.4809 26.8569H74.7915Z" fill="#194F9E"/>
<path fill-rule="evenodd" clip-rule="evenodd" d="M75.6572 22.3108H74.6473L74.1421 24.2076L74.6473 26.106H75.6572L76.163 24.2076L75.6572 22.3108Z" fill="#194F9E"/>
<path fill-rule="evenodd" clip-rule="evenodd" d="M84.2797 35.2764C85.0735 35.2764 85.7193 34.6736 85.7193 33.9335C85.7193 33.5306 85.523 33.1735 85.2201 32.929C84.8965 33.1314 84.508 33.2489 84.0899 33.2489C83.7714 33.2489 83.4708 33.1789 83.2019 33.0571C82.9796 33.2916 82.8423 33.596 82.8423 33.9335C82.8423 34.6736 83.4874 35.2764 84.2797 35.2764Z" fill="#194F9E"/>
<path fill-rule="evenodd" clip-rule="evenodd" d="M86.035 29.3418C86.035 29.3418 85.7962 29.4441 85.5118 29.4969C85.3127 29.5334 84.754 29.5405 84.6697 29.5251C84.973 29.6111 85.2464 29.7633 85.4728 29.9614C85.6023 29.7128 85.7968 29.5017 86.035 29.3418Z" fill="#194F9E"/>
<path fill-rule="evenodd" clip-rule="evenodd" d="M74.1402 32.9366C73.8624 33.2001 73.689 33.5617 73.689 33.9605C73.689 34.7669 74.3927 35.4231 75.2565 35.4231C76.1199 35.4231 76.8231 34.7669 76.8231 33.9605C76.8231 33.1541 76.1199 32.4985 75.2565 32.4985C74.826 32.4985 74.436 32.6613 74.153 32.9239C74.1489 32.9281 74.1443 32.9324 74.1402 32.9366Z" fill="#194F9E"/>
<path fill-rule="evenodd" clip-rule="evenodd" d="M74.9665 38.855H75.3153C78.0068 38.855 79.9357 38.8508 81.8954 38.5589L83.1739 38.0703C80.5604 37.7314 77.8702 37.5572 75.1759 37.5624C72.5133 37.5562 69.7865 37.7275 67.1941 38.0583L68.5776 38.588C70.4765 38.8531 72.3555 38.855 74.9665 38.855Z" fill="#194F9E"/>
<path fill-rule="evenodd" clip-rule="evenodd" d="M82.4041 29.5175L82.8808 29.8141C83.0821 29.6768 83.3094 29.5732 83.5554 29.5117L82.4041 29.5175Z" fill="#194F9E"/>
<path fill-rule="evenodd" clip-rule="evenodd" d="M79.459 33.9395C79.459 34.5957 80.0322 35.1295 80.7365 35.1295C81.4397 35.1295 82.0123 34.5957 82.0123 33.9395C82.0123 33.282 81.4397 32.7478 80.7365 32.7478C80.0322 32.7478 79.459 33.282 79.459 33.9395Z" fill="#194F9E"/>
<path fill-rule="evenodd" clip-rule="evenodd" d="M64.8103 29.9562C65.0556 29.7422 65.3588 29.5833 65.6952 29.503C65.6952 29.503 65.0342 29.5199 64.7501 29.4713C64.464 29.4224 64.249 29.3418 64.249 29.3418C64.4866 29.5003 64.6802 29.7099 64.8103 29.9562Z" fill="#194F9E"/>
<path fill-rule="evenodd" clip-rule="evenodd" d="M88.4839 40.7686C88.6686 40.5708 88.7598 40.2858 88.7453 40.1039C88.7022 39.9719 88.6728 39.8317 88.6614 39.6882C86.7903 40.0813 84.736 40.3798 82.3976 40.7446C81.2154 41.4795 79.4296 42.4384 76.5891 43.8289L77.8409 43.7217C82.4295 43.5903 87.2137 42.1341 88.4839 40.7686Z" fill="#194F9E"/>
<path fill-rule="evenodd" clip-rule="evenodd" d="M66.169 35.1165C66.9619 35.1411 67.6269 34.5594 67.6538 33.8187C67.6662 33.4837 67.5405 33.1784 67.3307 32.9379C67.0096 33.1343 66.6274 33.2484 66.2168 33.2484C65.8042 33.2484 65.4208 33.1331 65.0989 32.9365C64.909 33.1538 64.7898 33.4286 64.7784 33.7298C64.7526 34.47 65.3761 35.092 66.169 35.1165Z" fill="#194F9E"/>
<path fill-rule="evenodd" clip-rule="evenodd" d="M71.5483 77.2034V77.193C72.682 76.8777 73.8805 76.7054 75.1219 76.7054C76.3463 76.7054 77.5297 76.8723 78.6487 77.1795C78.9656 77.2649 79.2768 77.3614 79.5819 77.4701L77.01 61.492L75.1322 49.823L73.2537 61.4891C73.2589 61.4901 73.2646 61.4916 73.2707 61.492L70.6982 77.4701C70.9766 77.3705 71.2616 77.2837 71.5483 77.2034Z" fill="#194F9E"/>
<path fill-rule="evenodd" clip-rule="evenodd" d="M75.1533 36.9232L75.1595 36.9226H75.1856H75.2171C75.2078 36.9226 75.1976 36.9232 75.1877 36.9232C78.3087 36.9158 81.4248 37.1469 84.4248 37.597L85.0829 37.346C85.0839 36.8242 85.0848 35.8917 85.0844 35.8481C84.8343 35.9401 84.5626 35.9925 84.2786 35.9925C83.4916 35.9925 82.8021 35.6041 82.4126 35.0225C82.0437 35.5169 81.431 35.8428 80.7375 35.8428C79.6108 35.8428 78.6944 34.9883 78.6944 33.9397C78.6944 32.8879 79.6108 32.0346 80.7375 32.0346C81.431 32.0346 82.0433 32.3596 82.4126 32.8539C82.464 32.7762 82.5212 32.7014 82.5839 32.6318C82.3426 32.386 82.1688 32.0844 82.0911 31.7477C80.3049 31.7933 78.8284 32.178 77.3393 32.9873C77.4977 33.2812 77.5899 33.6118 77.5899 33.9627C77.5899 35.1611 76.5439 36.1384 75.2589 36.1384C73.973 36.1384 72.9271 35.1611 72.9271 33.9627C72.9271 33.6464 73.0007 33.3469 73.1314 33.0757C71.5844 32.2031 70.0651 31.7937 68.2113 31.7471C68.1527 32.0015 68.0386 32.2352 67.8838 32.4415C68.0322 32.6033 68.1527 32.7862 68.2422 32.9846C68.5962 32.4172 69.2522 32.0346 70.0039 32.0346C71.13 32.0346 72.0462 32.8879 72.0462 33.9397C72.0462 34.9883 71.13 35.8428 70.0039 35.8428C69.1874 35.8428 68.4825 35.3906 68.1573 34.7416C67.7742 35.4107 67.0085 35.8585 66.1432 35.8318C65.6925 35.8177 65.4306 35.6969 65.216 35.6383L65.2156 37.2984L65.9636 37.584C68.9332 37.144 72.0741 36.9178 75.1533 36.9232Z" fill="#194F9E"/>
<path fill-rule="evenodd" clip-rule="evenodd" d="M71.2725 33.9395C71.2725 33.282 70.7004 32.7478 69.9946 32.7478C69.2918 32.7478 68.7197 33.282 68.7197 33.9395C68.7197 34.5957 69.2918 35.1295 69.9946 35.1295C70.7004 35.1295 71.2725 34.5957 71.2725 33.9395Z" fill="#194F9E"/>
<path fill-rule="evenodd" clip-rule="evenodd" d="M62.9951 22.6307L63.5179 23.7767C63.8558 23.8606 64.1928 23.9571 64.5315 24.0665L65.134 23.5099L64.2531 21.5405L62.9951 22.6307Z" fill="#194F9E"/>
<path fill-rule="evenodd" clip-rule="evenodd" d="M83.5671 22.0273L84.628 23.0176L85.4964 21.0727L84.4062 20.1282L83.5671 22.0273Z" fill="#194F9E"/>
<path fill-rule="evenodd" clip-rule="evenodd" d="M86.7674 23.7777L87.2923 22.6305L86.0333 21.5405L85.1531 23.5094L85.757 24.0685C86.0946 23.959 86.432 23.8632 86.7674 23.7777Z" fill="#194F9E"/>
<path fill-rule="evenodd" clip-rule="evenodd" d="M64.7776 21.0733L65.6466 23.0176L66.7074 22.028L65.8688 20.1282L64.7776 21.0733Z" fill="#194F9E"/>
<path fill-rule="evenodd" clip-rule="evenodd" d="M65.9407 23.6574L66.4756 24.8307C66.6512 24.9109 66.8271 24.9902 67.0025 25.078L67.7845 24.4487L66.9988 22.6694L65.9407 23.6574Z" fill="#194F9E"/>
<path fill-rule="evenodd" clip-rule="evenodd" d="M65.5321 24.4248L65.4066 24.146L65.2307 24.3092C65.3314 24.3461 65.4318 24.3859 65.5321 24.4248Z" fill="#194F9E"/>
<path fill-rule="evenodd" clip-rule="evenodd" d="M84.7603 24.4248C84.8608 24.3859 84.9609 24.3461 85.0609 24.3092H85.0557L84.8797 24.146L84.7603 24.4248Z" fill="#194F9E"/>
<path fill-rule="evenodd" clip-rule="evenodd" d="M80.0176 25.9229L80.7265 26.5849H80.7327C80.7646 26.5623 80.7971 26.5418 80.8305 26.5201L81.6802 24.628L80.7517 23.8701L80.0176 25.9229Z" fill="#194F9E"/>
<path fill-rule="evenodd" clip-rule="evenodd" d="M75.864 31.8635C76.2818 31.9685 76.6528 32.1773 76.9424 32.4605C78.5394 31.5865 80.1589 31.1546 82.064 31.1035C82.1058 30.8023 82.222 30.5204 82.3969 30.2805L80.1409 28.8752C80.1409 28.8752 84.5 29.0076 85.3779 28.8752C86.2551 28.7437 86.4038 28.4682 86.4038 28.4682L82.7072 27.7155L88.8953 24.0403C84.5016 24.4935 79.9331 27.2293 75.864 31.8635Z" fill="#194F9E"/>
<path fill-rule="evenodd" clip-rule="evenodd" d="M87.615 23.5894C87.8367 23.5471 88.0591 23.5034 88.2797 23.4713L87.8367 23.0925L87.615 23.5894Z" fill="#194F9E"/>
<path fill-rule="evenodd" clip-rule="evenodd" d="M79.459 27.5234C79.7003 27.3343 79.9435 27.1543 80.1875 26.9776L79.7805 26.6042L79.459 27.5234Z" fill="#194F9E"/>
<path fill-rule="evenodd" clip-rule="evenodd" d="M84.076 32.5395C84.7803 32.5395 85.3518 32.0048 85.3518 31.3476C85.3518 30.6911 84.7803 30.1575 84.076 30.1575C83.3701 30.1575 82.7969 30.6911 82.7969 31.3476C82.7969 32.0048 83.3701 32.5395 84.076 32.5395Z" fill="#194F9E"/>
<path fill-rule="evenodd" clip-rule="evenodd" d="M81.8906 25.8471C82.1422 25.6963 82.3937 25.5506 82.6464 25.4127L82.2255 25.075L81.8906 25.8471Z" fill="#194F9E"/>
<path fill-rule="evenodd" clip-rule="evenodd" d="M80.9844 23.2108L81.9537 24.0023L82.7588 22.178L81.7042 21.1931L80.9844 23.2108Z" fill="#194F9E"/>
<path fill-rule="evenodd" clip-rule="evenodd" d="M82.5098 24.4487L83.2943 25.0795C83.4681 24.9929 83.6431 24.9138 83.8177 24.8336L84.3536 23.6572L83.2949 22.6694L82.5098 24.4487Z" fill="#194F9E"/>
<path fill-rule="evenodd" clip-rule="evenodd" d="M104.152 86.689L109.053 87.5619C108.384 84.4064 107.46 81.6835 106.655 81.0551C105.542 81.0027 104.52 80.8622 103.78 80.2578L103.761 80.6998C103.372 80.6998 102.976 80.6893 102.583 80.6628C103.28 83.0273 103.825 85.1493 104.152 86.689Z" fill="#194F9E"/>
<path fill-rule="evenodd" clip-rule="evenodd" d="M103.587 97.7967C103.733 97.11 103.991 92.5282 103.973 90.8574L99.7364 91.5813C99.6571 92.8449 99.3965 95.2074 99.3965 95.2074C99.8249 97.1949 101.686 102.207 101.885 102.747C102.639 101.659 103.153 99.8323 103.587 97.7967Z" fill="#194F9E"/>
<path fill-rule="evenodd" clip-rule="evenodd" d="M106.096 106.226C106.124 106.204 106.154 106.18 106.179 106.161C107.006 105.573 107.946 105.118 108.965 104.829C109.136 104.277 109.284 103.7 109.413 103.107C110.233 99.3145 110.189 94.7528 109.564 90.4258C109.554 90.3539 109.505 90.049 109.484 89.917L104.656 90.7425C104.691 92.2728 104.58 94.0746 104.411 96.116C104.344 96.9184 104.133 98.3724 104.196 98.8418C104.576 101.304 105.098 103.193 105.799 105.267C105.892 105.547 105.994 105.877 106.096 106.226Z" fill="#194F9E"/>
<path fill-rule="evenodd" clip-rule="evenodd" d="M101.394 103.341C101.128 102.608 100.409 100.676 100.303 100.392C98.36 99.5249 95.9305 99.0435 93.1282 98.7642C93.2821 98.8224 93.6596 98.9681 93.6941 98.982C96.4632 100.071 99.2172 101.497 101.394 103.341Z" fill="#194F9E"/>
<path fill-rule="evenodd" clip-rule="evenodd" d="M92.7446 92.7793L88.0381 93.5841L90.3018 97.7975C91.7545 97.3074 93.0574 95.6169 92.7446 92.7793Z" fill="#194F9E"/>
<path fill-rule="evenodd" clip-rule="evenodd" d="M114.195 67.5347C114.01 66.0193 108.555 61.4495 108.554 61.4534C108.183 62.0465 106.82 62.0734 105.347 61.7681C105.535 61.9526 106.01 62.491 105.987 62.434C107.964 64.3379 109.754 66.4897 110.112 67.7707C111.783 68.2838 113.364 68.6856 113.904 68.3223C114.024 68.2411 114.231 67.9672 114.195 67.5347Z" fill="#194F9E"/>
<path fill-rule="evenodd" clip-rule="evenodd" d="M96.2586 98.4439C96.8466 98.0506 98.1266 96.4993 98.7569 95.0619C98.8742 94.0689 98.9817 92.7854 99.0459 91.7031L94.125 92.5439C95.0882 94.4581 95.7538 96.5743 96.2586 98.4439Z" fill="#194F9E"/>
<path fill-rule="evenodd" clip-rule="evenodd" d="M103.927 57.4529C104.959 57.9488 106.258 58.8031 107.604 59.8384C108.23 60.0376 110.963 60.4167 111.566 59.8274C109.51 58.4675 107.325 57.4678 105.547 57.2542C104.936 57.2567 104.398 57.3243 103.927 57.4529Z" fill="#194F9E"/>
<path fill-rule="evenodd" clip-rule="evenodd" d="M119.488 80.4917C119.439 80.3596 119.113 79.548 118.961 79.1757C117.19 74.7771 115.646 71.2382 113.41 69.0902C112.63 69.1316 111.542 68.8811 110.053 68.4275C109.968 68.6386 109.815 68.8115 109.598 68.9377C109.162 69.1886 108.495 69.2238 107.673 69.0576C109.547 70.6156 110.125 71.7975 110.793 72.8975C111.932 74.7729 112.809 77.5047 113.185 78.9769C114.818 79.9867 116.438 80.8843 119.488 80.4917Z" fill="#194F9E"/>
<path fill-rule="evenodd" clip-rule="evenodd" d="M109.226 68.3943C109.37 68.3112 109.434 68.1921 109.434 68.0084V67.921C109.138 66.8809 107.586 65.0641 105.867 63.3531C105.578 63.5685 103.075 63.5772 101.843 63.179C102.206 63.6031 105.073 66.7906 105.817 67.7437C107.557 68.5459 108.782 68.6505 109.226 68.3943Z" fill="#194F9E"/>
<path fill-rule="evenodd" clip-rule="evenodd" d="M108.276 79.9558C108.335 80.2327 108.383 81.0752 108.383 81.0752C108.383 81.0752 107.701 81.0766 107.552 81.0752C108.37 82.2136 109.186 84.8487 109.77 87.6888L114.875 88.5986C114.333 86.3519 113.322 82.9484 111.907 81.0031C110.605 80.8629 109.428 80.5246 108.276 79.9558Z" fill="#194F9E"/>
<path fill-rule="evenodd" clip-rule="evenodd" d="M72.1492 49.4436C71.4334 49.1085 70.6972 48.7654 69.9734 48.5051V53.5045C70.2518 53.939 72.288 56.9499 72.9662 57.8383L74.1685 50.3343C73.6869 50.1322 72.6184 49.6618 72.1492 49.4436Z" fill="#194F9E"/>
<path fill-rule="evenodd" clip-rule="evenodd" d="M112.502 79.3347C112.047 77.4363 110.236 71.3618 105.881 68.5635C105.745 69.0458 105.444 69.2987 105.176 69.424C104.728 69.6334 104.168 69.6697 103.469 69.4505C103.248 69.3819 102.479 69.0012 102.145 68.7939C102.369 68.996 102.872 69.377 103.029 69.5311C105.456 71.9108 107.222 75.5345 108.024 78.8507L108.09 79.122C109.605 79.9935 110.927 80.3895 112.767 80.4438C112.724 80.3483 112.607 79.8199 112.502 79.3347Z" fill="#194F9E"/>
<path fill-rule="evenodd" clip-rule="evenodd" d="M115.371 90.9567C115.371 90.9567 115.208 90.0367 114.974 88.9768L110.166 89.7994C110.182 89.894 110.222 90.1066 110.223 90.1173C113.579 93.6632 115.729 93.2893 115.729 93.2893C115.729 92.8421 115.371 90.9567 115.371 90.9567Z" fill="#194F9E"/>
<path fill-rule="evenodd" clip-rule="evenodd" d="M85.2285 74.5224L88.2867 73.0629L85.3068 71.0215L85.2285 74.5224Z" fill="#194F9E"/>
<path fill-rule="evenodd" clip-rule="evenodd" d="M112.12 60.2016C111.333 60.8672 110.178 60.7962 108.67 60.6238C111.202 62.7021 113.709 65.2661 114.791 67.213C116.211 67.8744 117.241 68.3424 117.787 68.1336C118.015 68.0453 118.372 67.7827 118.348 67.4251C117.966 65.2797 115.275 62.3595 112.172 60.1876C112.206 60.1517 112.166 60.1627 112.12 60.2016Z" fill="#194F9E"/>
<path fill-rule="evenodd" clip-rule="evenodd" d="M115.532 98.2685C115.532 97.9963 115.532 97.7237 115.528 97.4573C115.502 95.8315 115.411 95.0452 115.302 93.9251C113.688 93.69 112.678 93.1193 110.355 91.1177C110.689 93.76 111.067 98.1187 110.203 102.723C110.083 103.358 109.942 103.995 109.773 104.635C110.22 104.549 110.681 104.496 111.151 104.475L111.63 102.589L111.793 102.403L112.388 101.724L111.527 102.021L111.277 102.107L111.324 101.863L112.006 98.3381L112.054 98.0928L112.255 98.2569L112.955 98.8251L112.66 97.9986L112.578 97.7716L112.831 97.8147L115.532 98.2685Z" fill="#194F9E"/>
<path fill-rule="evenodd" clip-rule="evenodd" d="M86.8168 84.0353L93.9255 71.3352C93.9255 71.3352 80.2228 77.7059 80.2594 77.7227C83.1336 78.9951 85.633 81.2606 86.8168 84.0353Z" fill="#194F9E"/>
<path fill-rule="evenodd" clip-rule="evenodd" d="M80.333 53.5045V48.5051C79.6092 48.7654 78.8733 49.1085 78.1572 49.4436C77.6397 49.6839 76.6682 50.1067 76.1357 50.3248L77.3377 57.8238C78.0142 56.9397 80.0556 53.9384 80.333 53.5045Z" fill="#194F9E"/>
<path fill-rule="evenodd" clip-rule="evenodd" d="M80.5312 76.7458L83.6613 75.267L81.8925 72.634L80.5312 76.7458Z" fill="#194F9E"/>
<path fill-rule="evenodd" clip-rule="evenodd" d="M111.476 88.802C111.476 88.802 86.8738 84.3233 86.888 84.3589C87.3523 85.5929 87.7264 87.1365 87.7264 88.501C87.7264 90.0429 87.4523 91.5159 86.875 92.8661C86.8682 92.8827 111.476 88.802 111.476 88.802Z" fill="#194F9E"/>
<path fill-rule="evenodd" clip-rule="evenodd" d="M90.4397 79.5011C91.2869 80.0174 92.195 79.8659 92.2526 79.861C92.1565 78.8799 91.8276 77.896 91.6239 77.3618L90.4397 79.5011Z" fill="#194F9E"/>
<path fill-rule="evenodd" clip-rule="evenodd" d="M99.5637 85.8712L103.419 86.5581C103.085 85.0321 102.535 82.9269 101.842 80.588C101.014 80.4801 100.233 80.2765 99.6018 79.8989L99.6733 80.4461C99.6733 80.4461 98.6422 80.5261 98.3994 80.5652C98.9607 82.2396 99.3547 84.2464 99.5637 85.8712Z" fill="#194F9E"/>
<path fill-rule="evenodd" clip-rule="evenodd" d="M92.0859 76.5027C92.3895 77.3385 92.7116 78.4592 92.9163 79.2012C93.4387 79.7959 94.8303 80.0297 95.7604 79.8274C95.2125 77.5573 94.2663 75.595 93.4741 73.9934L92.0859 76.5027Z" fill="#194F9E"/>
<path fill-rule="evenodd" clip-rule="evenodd" d="M88.0381 83.8197L92.1661 84.5556C92.1066 83.3451 91.9506 81.632 91.5705 80.5195C91.2793 80.5046 90.5178 80.2871 90.0878 80.1182L88.0381 83.8197Z" fill="#194F9E"/>
<path fill-rule="evenodd" clip-rule="evenodd" d="M92.864 84.6788L95.2342 85.1006C95.153 84.0591 94.7352 81.1116 94.6013 80.4968C94.057 80.4169 93.6512 80.3566 92.9237 79.8462C92.9367 80.0795 92.9386 80.3811 92.9386 80.3811C92.81 80.4621 92.5734 80.4602 92.2822 80.502C92.6583 81.7105 92.81 83.4729 92.864 84.6788Z" fill="#194F9E"/>
<path fill-rule="evenodd" clip-rule="evenodd" d="M107.655 80.4377C107.605 80.0364 107.557 79.3601 107.404 78.8211C106.009 73.8913 104.183 71.3329 101.871 69.2207C101.346 69.7193 100.103 69.6915 99.1842 69.559C99.1239 69.712 99.0226 69.843 98.7166 69.907C101.337 72.157 102.455 75.3445 103.574 78.9933C104.055 80.3439 105.982 80.4317 107.655 80.4377Z" fill="#194F9E"/>
<path fill-rule="evenodd" clip-rule="evenodd" d="M67.6475 25.4129C67.8994 25.5506 68.1505 25.6965 68.402 25.8471L68.0616 25.075L67.6475 25.4129Z" fill="#194F9E"/>
<path fill-rule="evenodd" clip-rule="evenodd" d="M62.0286 23.4711C62.2499 23.5034 62.4721 23.5471 62.694 23.5892L62.4661 23.0925L62.0286 23.4711Z" fill="#194F9E"/>
<path fill-rule="evenodd" clip-rule="evenodd" d="M46.9536 110.431C47.4269 110.286 48.1919 109.89 48.6078 109.442C50.0112 108.094 50.7136 106.387 51.6843 104.803C52.6005 103.311 53.5436 101.785 54.9184 100.407C51.457 102 48.5717 103.679 46.857 106.595C46.613 106.999 46.078 108.038 45.6649 108.577C45.2657 109.099 43.9187 110.28 43.9187 110.28C43.9187 110.28 44.2876 110.439 44.779 110.546C45.2707 110.653 46.3593 110.614 46.9536 110.431Z" fill="#194F9E"/>
<path fill-rule="evenodd" clip-rule="evenodd" d="M57.1698 98.7642C54.3673 99.0429 51.938 99.5249 49.9948 100.392C49.8895 100.676 49.1691 102.608 48.9031 103.341C50.6945 101.556 53.8354 100.071 56.6037 98.9817C56.6383 98.9681 57.0153 98.8224 57.1698 98.7642Z" fill="#194F9E"/>
<path fill-rule="evenodd" clip-rule="evenodd" d="M46.3218 90.8574C46.2961 92.482 46.5612 97.1019 46.7098 97.7969C47.1441 99.8329 47.6579 101.66 48.4121 102.747C48.6113 102.207 50.4717 97.1955 50.9013 95.2074C50.9013 95.2074 50.6409 92.8383 50.5637 91.5826L46.3218 90.8574Z" fill="#194F9E"/>
<path fill-rule="evenodd" clip-rule="evenodd" d="M62.2651 93.5823L57.5019 92.7678C57.1711 95.6464 58.5355 97.3166 60.0004 97.8105L62.2651 93.5823Z" fill="#194F9E"/>
<path fill-rule="evenodd" clip-rule="evenodd" d="M45.1848 108.15C45.4924 107.687 46.0579 106.609 46.3609 106.119C46.9496 105.151 47.3477 104.677 48.1894 103.876C48.1894 103.876 47.5155 102.917 47.2891 102.17C46.1726 103.162 45.4982 104.403 44.9615 105.977C44.7676 106.544 43.7524 109.532 43.7524 109.532C43.968 109.331 44.798 108.736 45.1848 108.15Z" fill="#194F9E"/>
<path fill-rule="evenodd" clip-rule="evenodd" d="M62.5647 88.5026C62.5647 87.1376 62.9386 85.5931 63.4037 84.3589C63.4167 84.3235 38.8135 88.8036 38.8135 88.8036C38.8135 88.8036 63.4229 92.8843 63.4155 92.8675C62.8384 91.5172 62.5647 90.0442 62.5647 88.5026Z" fill="#194F9E"/>
<path fill-rule="evenodd" clip-rule="evenodd" d="M58.0564 79.8614C58.1134 79.8668 59.0209 80.0178 59.8693 79.5014L58.6849 77.3618C58.4808 77.897 58.1515 78.8808 58.0564 79.8614Z" fill="#194F9E"/>
<path fill-rule="evenodd" clip-rule="evenodd" d="M52.6018 80.6469C52.0508 82.2616 51.6677 84.1733 51.4556 85.7405L54.3594 85.2235C54.4391 84.1234 54.934 81.0674 54.9905 80.5419C54.9905 80.5419 54.5518 80.517 54.1052 80.4209L54.1185 80.0652C53.8069 80.275 53.2197 80.5491 52.6018 80.6469Z" fill="#194F9E"/>
<path fill-rule="evenodd" clip-rule="evenodd" d="M62.2496 83.8197L60.2008 80.1182C59.7703 80.2871 59.0078 80.5046 58.7176 80.5195C58.3369 81.6329 58.1904 83.3464 58.1316 84.5527L62.2496 83.8197Z" fill="#194F9E"/>
<path fill-rule="evenodd" clip-rule="evenodd" d="M54.0378 98.4419C54.5411 96.573 55.2046 94.4538 56.1668 92.5416L51.2441 91.6992C51.3085 92.7821 51.4222 94.0654 51.5394 95.0601C52.1692 96.4976 53.4497 98.0489 54.0378 98.4419Z" fill="#194F9E"/>
<path fill-rule="evenodd" clip-rule="evenodd" d="M37.5298 80.4438C39.3694 80.3895 40.6912 79.9931 42.2063 79.122L42.2717 78.8507C43.0732 75.5345 44.8395 71.9108 47.2674 69.5311C47.4242 69.3764 47.9269 68.996 48.1507 68.7937C47.8172 69.0006 47.0476 69.3819 46.8274 69.4505C46.1283 69.6693 45.5684 69.6334 45.1202 69.4236C44.8523 69.2987 44.5513 69.0458 44.415 68.5635C40.0599 71.3618 38.2494 77.4363 37.7947 79.3347C37.6897 79.8193 37.5708 80.3483 37.5298 80.4438Z" fill="#194F9E"/>
<path fill-rule="evenodd" clip-rule="evenodd" d="M54.5369 79.8274C55.4676 80.0297 56.8588 79.7959 57.382 79.2012C57.5857 78.4596 57.9076 77.3385 58.2114 76.5027L56.8226 73.9934C56.0309 75.595 55.0854 77.5573 54.5369 79.8274Z" fill="#194F9E"/>
<path fill-rule="evenodd" clip-rule="evenodd" d="M48.4422 63.179C47.2111 63.5778 44.7072 63.5685 44.418 63.3531C42.6991 65.0641 41.1474 66.8809 40.8525 67.921V68.0084C40.8525 68.1923 40.9154 68.3112 41.0594 68.3943C41.5039 68.6505 42.7294 68.5459 44.469 67.7443C45.2134 66.7906 48.0801 63.6031 48.4422 63.179Z" fill="#194F9E"/>
<path fill-rule="evenodd" clip-rule="evenodd" d="M48.4468 80.5888C47.7481 82.9488 47.1843 85.0223 46.8489 86.5597L50.7109 85.872C50.918 84.2453 51.3243 82.2495 51.8897 80.5658C51.6459 80.5263 50.6152 80.4463 50.6152 80.4463L50.6863 79.8992C50.0561 80.2773 49.2735 80.4803 48.4468 80.5888Z" fill="#194F9E"/>
<path fill-rule="evenodd" clip-rule="evenodd" d="M94.9674 114.548C94.9674 114.548 96.1867 114.491 97.0324 113.865C97.9493 113.189 98.6187 111.798 98.0367 109.817C97.281 107.243 94.6174 104.101 92.7957 102.473C92.7957 102.473 95.7591 107.363 96.1341 108.642C96.5802 110.163 96.3333 110.965 96.1078 111.816C95.8173 112.917 95.2272 113.974 94.9674 114.548Z" fill="#194F9E"/>
<path fill-rule="evenodd" clip-rule="evenodd" d="M103.363 106.595C101.648 103.679 98.8404 102 95.3784 100.407C96.7536 101.785 97.6973 103.311 98.6115 104.803C99.5832 106.387 100.208 108.095 101.612 109.442C101.971 109.828 102.586 110.173 103.052 110.355C103.064 110.318 103.075 110.279 103.088 110.242C103.282 109.674 103.792 108.774 104.238 108.11C103.899 107.569 103.548 106.901 103.363 106.595Z" fill="#194F9E"/>
<path fill-rule="evenodd" clip-rule="evenodd" d="M108.634 117.531C109.436 117.383 109.489 116.13 108.983 115.146C108.637 114.472 107.574 112.992 107.574 112.992L103.478 112.067C103.457 112.296 103.444 112.526 103.444 112.759C103.444 113.524 103.63 114.453 103.857 115.149C105.539 115.113 107.832 117.68 108.634 117.531Z" fill="#194F9E"/>
<path fill-rule="evenodd" clip-rule="evenodd" d="M113.362 98.4395L113.985 100.272L112.463 99.0539L112.023 101.329L113.904 100.712L112.595 102.286L115.129 102.713L114.499 100.811L116.018 102.022L116.462 99.734L114.582 100.375L115.846 98.858L113.362 98.4395Z" fill="#194F9E"/>
<path fill-rule="evenodd" clip-rule="evenodd" d="M119.997 79.9749C120.124 80.2219 120.264 81.0042 120.264 81.0042C120.264 81.0042 119.154 81.178 118.79 81.2012C122.364 85.7464 123.206 90.7814 123.896 93.2172C124.223 94.3739 125.004 94.9437 125.663 95.5359C125.93 95.7758 127.367 97.1736 130.515 97.9939C130.838 98.0774 131.619 98.1811 131.749 98.182C131.441 94.7627 130.87 91.877 130.153 89.3765C130.085 89.1408 130.021 88.9012 129.951 88.6737C129.246 86.3665 128.416 84.403 127.56 82.6574C127.542 82.6684 126.983 81.646 126.721 81.1524L126.719 81.1492C126.044 81.2909 125.346 81.3931 124.609 81.3931C123.224 81.3931 121.71 81.0436 119.997 79.9749Z" fill="#194F9E"/>
<path fill-rule="evenodd" clip-rule="evenodd" d="M31.9575 67.4249C31.9329 67.7826 32.2904 68.0451 32.5182 68.1335C33.0636 68.3423 34.0947 67.8748 35.5151 67.2128C36.597 65.2661 39.1037 62.702 41.636 60.6238C40.129 60.7961 38.9721 60.8667 38.1842 60.2014C38.139 60.1625 38.0994 60.1515 38.134 60.1871C35.031 62.359 32.3403 65.2795 31.9575 67.4249Z" fill="#194F9E"/>
<path fill-rule="evenodd" clip-rule="evenodd" d="M62.0134 73.0623L65.0716 74.522L64.9923 71.0215L62.0134 73.0623Z" fill="#194F9E"/>
<path fill-rule="evenodd" clip-rule="evenodd" d="M66.6353 75.2676L69.7665 76.7464L68.4489 72.634L66.6353 75.2676Z" fill="#194F9E"/>
<path fill-rule="evenodd" clip-rule="evenodd" d="M40.7995 89.9133C40.78 90.05 40.7429 90.3323 40.7301 90.4233C40.106 94.7503 40.0612 99.312 40.8815 103.105C41.0178 103.694 41.2096 104.594 41.4951 105.36C42.0297 106.794 43.3494 108.925 43.3494 108.925C43.5963 108.122 44.0603 106.329 44.418 105.264C45.118 103.19 45.7185 101.301 46.0982 98.8393C46.1616 98.3699 45.9505 96.9161 45.8832 96.1141C45.7129 94.053 45.5992 92.2873 45.6373 90.7402L40.7995 89.9133Z" fill="#194F9E"/>
<path fill-rule="evenodd" clip-rule="evenodd" d="M63.4881 84.0353C64.6709 81.2625 67.1688 78.9989 70.0406 77.7251C70.0787 77.7079 56.3796 71.3352 56.3796 71.3352L63.4881 84.0353Z" fill="#194F9E"/>
<path fill-rule="evenodd" clip-rule="evenodd" d="M57.4275 102.472C55.6058 104.1 52.9422 107.242 52.187 109.816C51.6047 111.797 52.2739 113.188 53.1908 113.865C54.0367 114.49 55.2554 114.548 55.2554 114.548C54.9962 113.973 54.4065 112.917 54.1148 111.815C53.8905 110.964 53.6436 110.162 54.0891 108.641C54.4641 107.363 57.4275 102.472 57.4275 102.472Z" fill="#194F9E"/>
<path fill-rule="evenodd" clip-rule="evenodd" d="M30.4424 94.4658C30.7505 94.3194 30.7413 93.9749 30.6997 93.7228C30.6286 93.2932 30.4244 92.7128 30.3194 92.4696C29.7818 91.215 28.778 90.4326 28.4426 90.1652C28.209 89.9795 27.7501 89.8412 27.7501 89.8412C27.5402 89.7894 27.3076 89.8014 27.105 89.8781C27.0936 89.8826 27.0818 89.8872 27.07 89.8926C26.9218 89.9555 26.8251 90.0303 26.7407 90.183C26.6558 90.3356 26.5503 90.869 26.4145 90.985C26.379 91.0153 26.3471 91.0354 26.3168 91.0459C25.9751 91.175 25.9715 90.1643 25.9669 90.1455C26.0441 90.0726 26.433 89.9296 26.5992 89.7473C26.6928 89.6243 27.035 89.2077 27.036 88.9668C27.0129 88.6049 26.4855 88.6035 26.1151 88.7435C26.1105 88.7454 26.1053 88.7469 26.1002 88.7489C26.0204 88.6346 25.8753 88.5731 25.7282 88.6058C25.7179 88.6081 25.7076 88.611 25.6968 88.6149C25.4987 88.6907 25.2199 89.0406 25.2199 89.0406C25.5764 88.3667 25.0059 87.5786 24.2269 87.836L23.8905 87.104L23.4187 87.2863L22.9443 87.4621L23.2474 88.205C22.4962 88.526 22.6747 89.4631 23.4331 89.715C23.4331 89.715 22.9716 89.645 22.7735 89.7198C22.7632 89.7237 22.7524 89.7283 22.7442 89.7331C22.6135 89.8047 22.5559 89.9448 22.5837 90.0779C22.5785 90.0792 22.5729 90.0817 22.5688 90.0827C22.1988 90.2229 21.8207 90.5651 22.0733 90.8409C22.2539 91.0138 22.8106 91.0905 22.969 91.118C23.2257 91.1424 23.6116 90.9921 23.7207 90.9933C23.7315 91.0105 24.4826 91.739 24.141 91.8687C24.1117 91.8791 24.0736 91.8855 24.0253 91.8865C23.8416 91.8921 23.3683 91.5777 23.1933 91.5234C23.0189 91.4683 22.8924 91.478 22.7401 91.5284C22.7277 91.5321 22.7159 91.5366 22.7036 91.5412C22.5019 91.6176 22.3254 91.7587 22.2132 91.9341C22.2132 91.9341 21.9869 92.3294 21.9581 92.6156C21.9164 93.0248 21.7785 94.2382 22.328 95.4887C22.435 95.7319 22.7205 96.2806 22.9896 96.6357C23.1481 96.8436 23.3981 97.0966 23.7289 97.0011C23.7392 96.9986 23.7505 96.9947 23.7624 96.9905C24.123 96.8542 25.0738 96.0526 25.1093 96.018C25.1792 96.2152 26.6409 97.2266 26.9053 97.2003C26.8956 97.2372 28.3428 96.6904 28.3073 96.6703C28.5177 96.5191 28.813 94.8416 28.7158 94.6558C28.7688 94.6573 30.0488 94.6156 30.4099 94.4793C30.4218 94.4745 30.4321 94.4702 30.4424 94.4658Z" fill="#194F9E"/>
<path fill-rule="evenodd" clip-rule="evenodd" d="M47.223 57.7942C46.3377 58.1283 45.1197 58.8697 43.8068 59.8327L42.3479 61.1313C42.5022 61.3883 44.2404 61.4828 46.4162 60.6845C47.201 60.0034 47.8981 59.4429 48.395 59.0947C48.2664 58.804 48.1038 58.5463 47.9037 58.3259C47.7139 58.1167 47.4832 57.9429 47.223 57.7942Z" fill="#194F9E"/>
<path fill-rule="evenodd" clip-rule="evenodd" d="M70.2955 99.3974C68.4105 98.6629 66.7352 97.4621 65.444 96.016C64.7221 95.2057 64.114 94.3034 63.6452 93.331C63.6253 93.2873 61.697 96.7849 59.868 100.12L56.3494 106.048L65.9816 101.455L70.2955 99.3974Z" fill="#194F9E"/>
<path fill-rule="evenodd" clip-rule="evenodd" d="M65.7863 93.9423L75.1668 78.5089L84.4634 93.9423H65.7863ZM84.349 95.232C85.8989 93.3731 86.8256 91.0374 86.8256 88.5003C86.8256 83.544 83.2926 79.3468 78.4612 77.999C77.4029 77.7042 76.2854 77.543 75.1268 77.543C73.9805 77.543 72.8739 77.7013 71.8268 77.9909L71.8289 77.999C66.9979 79.3468 63.4634 83.544 63.4634 88.5003C63.4634 91.0374 64.3906 93.3731 65.9402 95.232C68.085 97.7788 71.403 99.4602 75.1268 99.4602C78.8707 99.4602 82.2061 97.8028 84.349 95.232Z" fill="#194F9E"/>
<path fill-rule="evenodd" clip-rule="evenodd" d="M50.8816 111.861C52.1713 106.165 55.9657 102.692 58.353 100.88L58.9007 99.8891L59.583 98.6133C58.7249 98.8903 57.8513 99.1931 56.9772 99.5343C56.9673 99.5382 56.959 99.5421 56.9498 99.5459C54.7309 101.148 53.5378 103.079 52.2846 105.124C51.3044 106.721 50.4787 108.501 48.9369 109.95C48.5485 110.327 48.0642 110.555 47.4078 110.882L46.9092 114.134C46.9092 114.134 50.5914 113.144 50.8816 111.861Z" fill="#194F9E"/>
<path fill-rule="evenodd" clip-rule="evenodd" d="M75.1616 80.2166L67.3301 93.1024H82.922L75.1616 80.2166Z" fill="#194F9E"/>
<path fill-rule="evenodd" clip-rule="evenodd" d="M29.5489 98.351L35.0734 107.889C34.3856 105.153 34.0805 101.812 34.0861 98.5473C34.0877 98.207 34.0954 97.8729 34.1103 97.5514C34.1726 96.2203 34.1983 95.1165 34.3244 93.8632L33.8706 93.7893C33.8938 93.45 33.991 92.7291 33.9863 92.7339C32.9008 93.6938 32.0792 94.3057 31.2514 94.7032C31.1093 94.9023 30.9278 95.0257 30.7852 95.0937C30.7569 95.1063 30.7255 95.1193 30.6917 95.1326C30.4441 95.2264 29.7928 95.2733 29.3956 95.3054C29.3889 95.6676 29.3467 96.1834 29.0864 96.8664L29.1698 97.7453C29.3169 97.9949 29.4342 98.171 29.5489 98.351Z" fill="#194F9E"/>
<path fill-rule="evenodd" clip-rule="evenodd" d="M38.3431 113.016L40.7443 105.32C40.5036 104.515 40.2819 103.633 40.0961 102.724C39.2319 98.1187 39.6108 93.7603 39.9449 91.1177C37.6208 93.1196 36.6114 93.69 34.9964 93.9256C34.8894 95.0454 34.7969 95.8315 34.7706 97.4577C34.766 97.7836 34.765 98.1167 34.766 98.4514C34.7603 102.886 35.3216 107.509 36.6866 110.585L38.3431 113.016Z" fill="#194F9E"/>
<path fill-rule="evenodd" clip-rule="evenodd" d="M70.5092 26.6042L70.1094 26.977C70.3522 27.1543 70.5954 27.3341 70.8375 27.5234L70.5092 26.6042Z" fill="#194F9E"/>
<path fill-rule="evenodd" clip-rule="evenodd" d="M68.5989 24.6276L69.4478 26.5147C69.4822 26.5379 69.5182 26.5594 69.5538 26.5849L70.2633 25.9225L69.529 23.8701L68.5989 24.6276Z" fill="#194F9E"/>
<path fill-rule="evenodd" clip-rule="evenodd" d="M55.6948 80.4971C55.562 81.1125 55.1465 84.0576 55.0657 85.0991L57.4394 84.6762C57.4939 83.4752 57.6416 81.7008 58.014 80.5028C57.7234 80.46 57.4868 80.4625 57.3576 80.3813C57.3576 80.3813 57.3603 80.0799 57.3725 79.8462C56.645 80.357 56.2402 80.4175 55.6948 80.4971Z" fill="#194F9E"/>
<path fill-rule="evenodd" clip-rule="evenodd" d="M28.9271 89.628L28.9461 89.6439C29.349 89.9634 30.419 90.8145 31.0154 92.2073C31.1368 92.4905 31.3601 93.1241 31.4408 93.6157C31.4512 93.6818 31.4522 93.74 31.4573 93.8013C32.1977 93.3814 33.0409 92.7171 34.1172 91.7177C34.7129 87.6668 35.8834 83.8798 37.5505 81.0815C37.4016 81.0869 36.6731 81.0887 36.6731 81.0887C36.6731 81.0887 36.794 80.2065 36.8923 79.8765C35.6699 80.592 34.2989 81.2012 32.2995 81.2207C30.898 83.3476 29.6376 84.8219 28.2253 89.2555C28.4311 89.3347 28.7167 89.461 28.9271 89.628Z" fill="#194F9E"/>
<path fill-rule="evenodd" clip-rule="evenodd" d="M67.8946 40.744C65.5561 40.3794 63.5183 40.0809 61.6476 39.6882C61.6343 39.8495 61.5978 40.003 61.5452 40.1499C61.5463 40.1662 61.551 40.181 61.55 40.1979C61.5355 40.3794 61.6606 40.5704 61.8452 40.768C63.116 42.1337 68.2103 43.4422 72.4596 43.7167L73.7107 43.8285C71.0355 42.6161 69.0979 41.5048 67.8946 40.744Z" fill="#194F9E"/>
<path fill-rule="evenodd" clip-rule="evenodd" d="M67.5976 27.7154L63.9014 28.4676C63.9014 28.4676 64.2452 28.7509 64.9273 28.8752C65.6095 29.0002 70.1647 28.8752 70.1647 28.8752L67.9061 30.2819C68.0811 30.5224 68.1958 30.8027 68.2375 31.1026C70.1993 31.1553 71.8585 31.6072 73.5006 32.5353C73.7609 32.2569 74.0953 32.042 74.4741 31.9151C74.4775 31.9132 74.4828 31.9099 74.4828 31.9099C70.405 27.2461 65.8183 24.4948 61.4092 24.0403L67.5976 27.7154Z" fill="#194F9E"/>
<path fill-rule="evenodd" clip-rule="evenodd" d="M102.41 58.326C102.21 58.5463 102.048 58.8036 101.919 59.0945C102.416 59.4429 103.114 60.004 103.899 60.6851C106.073 61.4828 107.812 61.3883 107.967 61.1315L106.506 59.8327C105.194 58.8703 103.976 58.1283 103.092 57.7942C102.83 57.9429 102.6 58.1167 102.41 58.326Z" fill="#194F9E"/>
<path fill-rule="evenodd" clip-rule="evenodd" d="M34.9266 90.9567C34.9266 90.9567 34.5691 92.8421 34.5691 93.2893C34.5691 93.2893 36.7191 93.6632 40.0746 90.1173C40.0802 90.0807 40.1133 89.8735 40.1255 89.7985L35.3228 88.9768C35.0882 90.0367 34.9266 90.9567 34.9266 90.9567Z" fill="#194F9E"/>
<path fill-rule="evenodd" clip-rule="evenodd" d="M51.5474 79.1415L51.3801 79.9282C52.6627 80.2454 53.5679 79.6633 53.9198 79.3331C54.5742 77.2196 55.4631 75.0718 56.3815 73.2235L55.2541 71.1877C53.9118 73.3463 52.357 76.5073 51.5474 79.1415Z" fill="#194F9E"/>
<path fill-rule="evenodd" clip-rule="evenodd" d="M30.8083 80.4917C33.8583 80.8843 35.4783 79.9867 37.1123 78.9769C37.4874 77.5047 38.364 74.7729 39.5041 72.8975C40.1709 71.7975 40.7497 70.6156 42.6229 69.0576C41.8003 69.2238 41.1351 69.1886 40.6997 68.9377C40.4822 68.8115 40.3279 68.6386 40.2434 68.4275C38.7545 68.8811 37.6665 69.1316 36.8854 69.0902C34.6499 71.2382 33.1071 74.7771 31.3363 79.1757C31.1839 79.548 30.8573 80.3596 30.8083 80.4917Z" fill="#194F9E"/>
<path fill-rule="evenodd" clip-rule="evenodd" d="M51.8936 69.4121C52.0469 69.5355 52.6864 69.6613 53.3944 69.5283C53.3244 69.4918 52.6294 69.0378 52.4318 68.8994C52.333 68.9783 52.0393 69.2892 51.8936 69.4121Z" fill="#194F9E"/>
<path fill-rule="evenodd" clip-rule="evenodd" d="M40.4827 87.6911C41.0692 84.8112 41.9089 82.2246 42.7346 81.0752C42.5863 81.0766 41.9039 81.0752 41.9039 81.0752C41.9039 81.0752 41.9522 80.2329 42.0102 79.9558C40.8583 80.5246 39.6817 80.8629 38.3796 81.0031C36.9657 82.9484 35.9568 86.3463 35.415 88.593L40.4827 87.6911Z" fill="#194F9E"/>
<path fill-rule="evenodd" clip-rule="evenodd" d="M46.5132 80.2578C45.7739 80.8622 44.7506 81.0029 43.6383 81.0551C42.8254 81.6912 41.9018 84.3588 41.23 87.5602L46.148 86.6854C46.4761 85.1345 47.0072 83.0484 47.7099 80.6634C47.3179 80.6899 46.9221 80.7 46.5323 80.7L46.5132 80.2578Z" fill="#194F9E"/>
<path fill-rule="evenodd" clip-rule="evenodd" d="M51.5881 69.9074C51.2813 69.843 51.18 69.7125 51.1204 69.559C50.2019 69.6915 48.9589 69.7193 48.4331 69.2207C46.1206 71.3329 44.2957 73.8916 42.9005 78.8214C42.7481 79.3605 42.6986 80.0367 42.6499 80.4381C44.3218 80.4323 46.2486 80.3445 46.7312 78.9939C47.8492 75.3451 48.9676 72.1576 51.5881 69.9074Z" fill="#194F9E"/>
<path fill-rule="evenodd" clip-rule="evenodd" d="M54.1419 70.0815C53.2924 70.2853 52.4409 70.1651 52.2089 70.1554C49.6278 72.3128 48.5963 75.2432 47.4056 79.1228C47.3516 79.3161 47.19 79.958 47.2138 80.0564C48.6101 80.0438 49.9734 79.7658 50.9165 78.9169C51.8664 75.8307 53.366 72.6507 54.876 70.4769L54.8626 70.4535C54.6276 70.3325 54.3892 70.2095 54.1419 70.0815Z" fill="#194F9E"/>
<path fill-rule="evenodd" clip-rule="evenodd" d="M38.7229 59.8274C39.3244 60.4167 42.0577 60.0376 42.6828 59.8379C44.0303 58.8026 45.3299 57.9482 46.3607 57.4529C45.8896 57.3243 45.3525 57.2561 44.7412 57.2542C42.9627 57.4674 40.7786 58.4675 38.7229 59.8274Z" fill="#194F9E"/>
<path fill-rule="evenodd" clip-rule="evenodd" d="M49.9784 66.7173C49.3544 67.3999 48.9546 67.9908 48.7365 68.4414C48.5292 68.8691 49.4491 69.0779 49.684 69.1138C49.684 69.1138 51.0928 69.2498 51.558 68.8364C51.7157 68.702 51.8439 68.5619 51.9185 68.5043C51.2873 68.0151 50.6652 67.3168 49.9784 66.7173Z" fill="#194F9E"/>
<path fill-rule="evenodd" clip-rule="evenodd" d="M67.5266 22.1781L68.3324 24.0025L69.302 23.211L68.5812 21.1931L67.5266 22.1781Z" fill="#194F9E"/>
<path fill-rule="evenodd" clip-rule="evenodd" d="M36.3903 68.3223C36.9295 68.6856 38.5114 68.2844 40.1826 67.7711C40.5403 66.4897 42.33 64.3379 44.3066 62.434C44.284 62.491 44.7584 61.9529 44.9471 61.7687C43.4731 62.0734 42.1109 62.0465 41.7399 61.4534C41.7384 61.4495 36.2843 66.0197 36.0987 67.5345C36.0637 67.967 36.2705 68.2415 36.3903 68.3223Z" fill="#194F9E"/>
<path fill-rule="evenodd" clip-rule="evenodd" d="M45.1421 62.7175C45.2289 62.9451 47.6373 62.9451 48.6318 62.4397C48.7793 61.3675 48.7702 60.4727 48.5987 59.7466C48.1117 60.0998 45.6759 62.2048 45.1421 62.7175Z" fill="#194F9E"/>
<path fill-rule="evenodd" clip-rule="evenodd" d="M45.0397 68.1809C44.8767 68.6201 45.3469 68.8864 45.5959 68.9349C45.9741 69.0084 46.6248 69.1178 48.209 68.0345C48.5129 67.6169 49.1122 66.9441 49.5517 66.265C48.7753 65.482 48.5922 64.8322 48.4178 64.5308C47.1758 65.5833 45.4497 67.3362 45.0397 68.1809Z" fill="#194F9E"/>
<path fill-rule="evenodd" clip-rule="evenodd" d="M95.9443 85.2239L98.8772 85.7463C98.6634 84.1782 98.2558 82.2568 97.7064 80.6469C97.0889 80.5491 96.5019 80.275 96.1897 80.0652L96.203 80.4215C95.7576 80.517 95.3181 80.5419 95.3181 80.5419C95.3748 81.0717 95.8722 84.1513 95.9443 85.2239Z" fill="#194F9E"/>
<path fill-rule="evenodd" clip-rule="evenodd" d="M71.2898 68.522C70.7054 69.1283 68.5543 71.1157 68.5996 71.0717L70.1538 75.6525L71.2898 68.522Z" fill="#194F9E"/>
<path fill-rule="evenodd" clip-rule="evenodd" d="M30.7131 78.8945C32.4345 74.6194 33.9594 71.1525 36.1341 68.9116C36.0862 68.887 36.0333 68.8689 35.9885 68.8391C35.6515 68.6125 35.508 68.278 35.4483 67.953C34.0103 68.6189 33.0173 69.0204 32.2462 68.7239C31.8973 68.5891 31.6226 68.3192 31.4127 67.9026C31.2959 67.9602 31.1833 68.0197 31.0732 68.077C30.3097 68.4749 29.629 68.8171 28.3634 68.8694C28.3598 68.8751 28.3562 68.8812 28.3526 68.8867C25.7303 73.18 24.3051 76.7936 23.7546 80.5323C25.7292 80.9383 27.9425 80.936 30.7131 78.8945Z" fill="#194F9E"/>
<path fill-rule="evenodd" clip-rule="evenodd" d="M23.4158 97.717C23.2424 97.6965 23.05 97.636 22.8534 97.5107C21.8394 98.0362 20.7219 98.4654 19.6863 98.6779C19.3802 98.7413 18.5086 98.8225 18.4932 98.8239C18.3625 100.462 18.2848 102.207 18.2848 104.098C17.6906 113.016 20.1941 121.381 22.6127 127.865L24.7189 118.545L24.7123 118.546C23.2398 113.501 22.8365 107.027 23.4158 97.717Z" fill="#194F9E"/>
<path fill-rule="evenodd" clip-rule="evenodd" d="M22.3658 97.0475L22.3617 97.0421C22.0535 96.6371 21.7407 96.0376 21.6162 95.7543C21.0065 94.3668 21.1408 93.0618 21.1907 92.5703L21.1933 92.5473C21.2339 92.1421 21.4845 91.6866 21.5339 91.6002L21.5431 91.5834L21.5534 91.5681C21.5827 91.5225 21.6136 91.4793 21.6471 91.437C21.6033 91.4049 21.5606 91.3709 21.5215 91.3334L21.504 91.3162L21.4881 91.2988C21.2576 91.0478 21.1727 90.7228 21.255 90.4069C21.343 90.0672 21.6038 89.8012 21.8925 89.6183C21.9362 89.5168 21.9979 89.4221 22.0751 89.3386C22.0324 89.2114 22.0067 89.0776 21.9995 88.9407C21.983 88.5803 22.1055 88.2462 22.3354 87.9812L22.2259 87.7115L21.9599 87.0611L22.6544 86.8044L23.118 86.6331L23.5897 86.4506L24.2797 86.1841L24.5745 86.8241L24.6964 87.0889C25.0596 87.1301 25.3971 87.291 25.6528 87.5597C25.7511 87.6631 25.8319 87.7759 25.8957 87.894C26.0135 87.9054 26.1287 87.9328 26.2362 87.9765C26.5794 87.9218 26.9658 87.9442 27.2812 88.1291C27.4628 88.2362 27.5945 88.3891 27.6789 88.5664C28.4213 86.2984 29.5557 83.6787 31.5025 81.2012C31.1387 81.1782 30.0295 81.0044 30.0295 81.0044C30.0295 81.0044 30.17 80.2219 30.296 79.9749C28.5823 81.0432 27.0697 81.3931 25.6842 81.3931C24.948 81.3931 24.2493 81.2903 23.5743 81.1488L23.5728 81.1526C23.3104 81.646 22.7517 82.6684 22.7326 82.6574C21.8781 84.403 21.0482 86.3666 20.3418 88.6739C20.2729 88.9012 20.208 89.1408 20.1401 89.3765C19.424 91.8772 18.8524 94.7627 18.5437 98.1822C18.6744 98.1807 19.4554 98.077 19.7774 97.9935C20.8249 97.7213 21.6784 97.3836 22.3658 97.0475Z" fill="#194F9E"/>
<path fill-rule="evenodd" clip-rule="evenodd" d="M48.4212 57.9083C50.1339 59.6853 48.8987 63.37 49.0768 64.3334C49.388 65.6699 51.1644 67.0716 52.607 68.2043C53.066 68.5977 54.9475 69.8117 56.3809 70.4711L61.1444 72.6446L65.8169 69.3844V74.8735L66.0795 75.0002L68.6013 71.0707L68.0946 63.4736C66.7925 65.9961 64.9711 67.779 62.8371 68.775C61.7345 69.2895 59.9653 69.5799 59.9653 69.5799C59.9653 69.5799 63.2311 64.739 63.4066 64.4355C62.0881 65.1618 59.6993 65.9777 58.7088 66.2321C58.1464 66.35 57.3176 66.4322 56.5052 66.1755C56.2543 66.0958 54.8091 65.5025 53.4761 64.0981C52.7625 63.2898 51.9008 61.9757 51.7367 60.8799C51.4347 58.8588 50.6789 57.4451 49.4791 56.3201C48.4069 55.3171 46.8583 55.0843 46.8583 55.0843C45.9765 54.9018 44.9903 54.8863 43.9036 55.0443C43.9973 55.4706 44.4113 56.1421 44.8791 56.6134C46.4714 56.638 47.6366 57.0938 48.4212 57.9083Z" fill="#194F9E"/>
<path fill-rule="evenodd" clip-rule="evenodd" d="M30.7474 67.517C30.9182 67.4273 31.1013 67.3341 31.2933 67.2411C31.71 65.155 34.0097 62.481 36.8177 60.3285C35.5599 60.4901 34.5679 60.2737 34.0041 59.6785C31.2819 61.5729 27.9718 64.5267 27.2891 68.0177C27.3925 68.0997 27.7269 68.2288 28.1328 68.2379C29.3815 68.2221 29.9891 67.911 30.7474 67.517Z" fill="#194F9E"/>
<path fill-rule="evenodd" clip-rule="evenodd" d="M38.0763 59.3986L38.2764 59.3367C40.2187 58.0456 42.2808 57.067 44.0701 56.7155C43.6791 56.2418 43.341 55.6697 43.232 55.1887C41.0778 55.7633 37.7285 57.2013 34.5691 59.3027C35.2694 59.954 36.7856 59.8028 38.0763 59.3986Z" fill="#194F9E"/>
<path fill-rule="evenodd" clip-rule="evenodd" d="M28.6335 102.936L26.7845 97.9096C26.7438 97.9032 26.7042 97.8953 26.6646 97.8827C26.4295 97.828 26.0843 97.671 25.4834 97.2664C25.3249 97.1599 25.1912 97.0644 25.0759 96.9785C24.7672 97.22 24.3937 97.4864 24.1154 97.6125C23.2809 108.367 24.4523 116.293 25.381 118.335C26.3343 120.434 27.9205 123.096 27.9205 123.096L29.4402 116.358L30.0695 113.568C29.0318 110.976 28.6901 107.418 28.6423 104.17C28.6423 104.149 28.6335 102.997 28.6335 102.936Z" fill="#194F9E"/>
<path fill-rule="evenodd" clip-rule="evenodd" d="M43.2418 124.327C43.509 123.94 43.458 123.724 43.458 123.724C42.1754 124.415 39.9101 124.946 37.5565 125.004C37.5565 125.004 37.4689 125.238 37.7713 125.403C38.074 125.571 39.8649 125.545 40.7878 125.403C41.7108 125.261 42.9733 124.714 43.2418 124.327Z" fill="#194F9E"/>
<path fill-rule="evenodd" clip-rule="evenodd" d="M43.6193 122.869C43.7783 122.209 43.4361 122.115 43.4361 122.115C41.0298 122.557 39.6711 122.635 37.8771 122.651C37.5411 122.653 36.9084 122.564 36.5771 122.384C36.5771 122.384 36.0898 123.133 36.2467 123.675C36.4026 124.218 37.2032 124.364 37.2032 124.364C39.9767 124.354 43.4598 123.528 43.6193 122.869Z" fill="#194F9E"/>
<path fill-rule="evenodd" clip-rule="evenodd" d="M40.9734 126.013C40.9734 126.013 41.3475 128.308 41.8706 129.138C42.3938 129.966 44.8741 131.232 45.3265 131.027C45.5482 130.927 45.7416 130.831 45.8858 130.767C46.2727 130.597 46.1959 128.148 45.6979 127.255C45.1995 126.363 43.4399 125.012 43.4399 125.012C42.858 125.454 41.9638 125.737 40.9734 126.013Z" fill="#194F9E"/>
<path fill-rule="evenodd" clip-rule="evenodd" d="M31.9385 111.843L29.3733 104.859C29.4093 106.248 29.5317 107.81 29.7062 109.147L29.7031 109.151C29.9001 110.665 30.2114 112.097 30.7037 113.33L32.6608 116.983C32.6608 116.983 33.038 115.633 33.0128 115.569C32.7416 114.862 31.9385 111.843 31.9385 111.843Z" fill="#194F9E"/>
<path fill-rule="evenodd" clip-rule="evenodd" d="M40.7856 119.428C40.7856 119.428 38.6193 117.758 38.2957 117.781C37.9717 117.804 37.4087 118.849 37.4087 118.849C37.4087 118.849 39.3215 119.778 39.8921 119.771C40.4643 119.765 40.7856 119.428 40.7856 119.428Z" fill="#194F9E"/>
<path fill-rule="evenodd" clip-rule="evenodd" d="M37.6839 115.473C37.9196 115.081 38.173 114.071 38.0213 113.669C37.8681 113.267 36.3102 111.159 35.7736 110.372C35.3357 109.729 30.1651 100.732 28.2966 97.4766C28.1937 97.5187 27.5496 97.7615 27.425 97.8029C28.7298 101.288 32.3817 111.058 32.553 111.67C32.7618 112.417 33.4049 115.114 33.6431 115.465C33.8818 115.814 34.8393 116.327 35.4689 116.38C36.0982 116.433 37.4471 115.863 37.6839 115.473Z" fill="#194F9E"/>
<path fill-rule="evenodd" clip-rule="evenodd" d="M42.8834 121.563C43.4065 121.353 43.138 119.908 42.5309 119.887H41.3543C41.3543 119.887 40.7934 120.471 39.9198 120.471C39.0451 120.471 36.9457 119.366 36.9457 119.366L36.0561 119.838C36.0561 119.838 35.411 120.667 35.6013 121.122C35.7922 121.578 37.2949 122.016 37.5944 122.014C39.27 122.001 42.361 121.774 42.8834 121.563Z" fill="#194F9E"/>
<path fill-rule="evenodd" clip-rule="evenodd" d="M43.6716 120.813C44.1377 120.39 44.2885 120.244 44.7701 119.887H43.3296C43.632 120.194 43.6815 120.532 43.6716 120.813Z" fill="#194F9E"/>
<path fill-rule="evenodd" clip-rule="evenodd" d="M63.2366 31.609C63.787 31.609 64.2356 31.192 64.2356 30.6808C64.2356 30.1671 63.787 29.7495 63.2366 29.7495C62.6876 29.7495 62.24 30.1671 62.24 30.6808C62.24 31.192 62.6876 31.609 63.2366 31.609Z" fill="#194F9E"/>
<path fill-rule="evenodd" clip-rule="evenodd" d="M63.9629 20.9094L62.9172 18.5686C62.6558 18.7616 62.4093 18.9651 62.191 19.1883C62.0068 19.3769 61.8366 19.5761 61.6814 19.7873L62.7001 22.0057L63.9629 20.9094Z" fill="#194F9E"/>
<path fill-rule="evenodd" clip-rule="evenodd" d="M64.2993 31.9927C64.0055 32.198 63.6424 32.3235 63.2466 32.3235C62.9905 32.3235 62.7471 32.2705 62.5269 32.1779C62.9632 32.8739 63.4417 33.5417 63.9395 34.1818C63.9395 34.1746 64.0132 34.2649 64.1238 34.4041C64.0476 34.1857 64.0082 33.9519 64.0169 33.7095C64.0339 33.2238 64.2334 32.7851 64.5499 32.442C64.4465 32.3041 64.3622 32.1535 64.2993 31.9927Z" fill="#194F9E"/>
<path fill-rule="evenodd" clip-rule="evenodd" d="M61.5152 30.3376C61.5812 30.052 61.7258 29.7947 61.9265 29.5853L60.7297 28.0994C60.9138 28.8702 61.1841 29.6166 61.5152 30.3376Z" fill="#194F9E"/>
<path fill-rule="evenodd" clip-rule="evenodd" d="M62.1728 22.4662L61.255 20.468C60.81 21.2825 60.5457 22.2425 60.4426 23.3441C60.6706 23.3503 60.8979 23.3555 61.1268 23.3723L62.1728 22.4662Z" fill="#194F9E"/>
<path fill-rule="evenodd" clip-rule="evenodd" d="M60.173 64.8352C60.973 64.7973 62.3708 64.3662 64.0785 63.3042L65.1515 62.6364C65.1515 62.6364 62.1799 67.6287 61.4926 68.5944C64.3505 67.741 66.6806 65.3584 68.1114 61.7918L68.7823 60.4185L69.2633 69.3801C69.9862 68.6789 70.7837 68.0194 71.4402 67.3234L72.2973 61.9764L72.785 58.9285C71.986 57.8708 70.0134 54.8345 69.9322 54.7053C69.735 57.6625 68.7247 59.7465 66.8586 61.055L66.0843 61.5978C66.0843 61.5978 66.692 59.8563 66.5 57.6444C66.4225 56.7438 66.2751 55.806 66.0901 54.8584C65.5175 57.6813 64.3696 60.0647 62.271 60.6925C62.1078 60.9666 61.8285 61.3506 61.2771 61.9592C61.275 61.9582 59.4234 63.7245 57.2256 64.2612C57.2256 64.2612 58.6624 64.9067 60.173 64.8352Z" fill="#194F9E"/>
<path fill-rule="evenodd" clip-rule="evenodd" d="M61.2856 27.7292L62.4688 29.1997C62.6998 29.0951 62.9581 29.0361 63.2313 29.0361C63.2442 29.0361 62.417 28.1741 62.417 28.1741L65.7802 27.3984L60.3872 24.1987C60.3846 24.3169 60.3812 24.4336 60.3827 24.5558L63.8353 27.131L61.2856 27.7292Z" fill="#194F9E"/>
<path fill-rule="evenodd" clip-rule="evenodd" d="M60.4275 25.4033C60.4383 25.5497 60.4404 25.6898 60.4548 25.8401C60.4548 26.3141 60.4919 26.7812 60.5597 27.2386L62.3316 26.8235L60.4275 25.4033Z" fill="#194F9E"/>
<path fill-rule="evenodd" clip-rule="evenodd" d="M64.2336 51.5371C64.3776 49.9268 63.8061 47.4692 63.8061 47.4692L64.4343 47.7615C66.6332 48.7883 68.2228 50.652 69.2885 52.3338V47.6051L69.7407 47.7449C70.6528 48.0279 71.5702 48.4565 72.4572 48.8697C72.7288 48.9965 73.0034 49.1227 73.2798 49.2476C72.4371 48.3005 69.6867 43.9547 69.6867 43.9547L69.7103 43.9524C66.3718 43.4878 62.5133 42.5759 61.2671 41.2363C61.1729 41.135 61.0989 41.0317 61.0341 40.9268C60.5906 41.3558 59.9557 41.6338 59.2947 41.6933C59.3848 42.7329 59.9068 44.1632 60.4292 45.1318L60.4651 45.2004V46.8327L60.5633 46.9609C60.5813 46.9835 60.5983 47.0069 60.6157 47.0301C61.4693 48.1445 62.1782 49.1233 61.6833 50.2503C62.1104 51.0273 63.0268 52.7025 63.2505 54.5627C63.8015 53.7977 64.123 52.7773 64.2336 51.5371Z" fill="#194F9E"/>
<path fill-rule="evenodd" clip-rule="evenodd" d="M69.2774 53.6684C68.3832 52.0193 66.9042 49.9025 64.7423 48.6599C64.9592 49.8771 65.0062 50.9662 64.9013 51.9286C64.7387 53.4045 64.2128 54.5786 63.3569 55.4376C63.3121 57.0585 63.3975 58.0747 62.6479 59.8754C64.4887 58.9802 65.2255 56.1705 65.704 53.1079C65.71 53.0695 65.8921 51.447 65.8979 51.4087C65.8979 51.4087 66.9869 55.5091 67.153 57.2308C67.2446 58.1793 67.2752 59.0955 67.165 59.9523C68.573 58.5858 69.2656 56.5176 69.2774 53.6684Z" fill="#194F9E"/>
<path fill-rule="evenodd" clip-rule="evenodd" d="M58.9167 41.0761C59.8967 41.0761 60.9514 40.4659 60.9537 39.5435L56.4399 38.3853C57.095 39.9437 58.1158 41.0761 58.9167 41.0761Z" fill="#194F9E"/>
<path fill-rule="evenodd" clip-rule="evenodd" d="M101.674 62.4391C102.669 62.9447 105.077 62.9447 105.165 62.717C104.63 62.2044 102.195 60.0998 101.708 59.7466C101.537 60.4722 101.528 61.3669 101.674 62.4391Z" fill="#194F9E"/>
<path fill-rule="evenodd" clip-rule="evenodd" d="M59.777 45.3506C59.2414 44.3365 58.6873 42.8309 58.6044 41.6797C57.3707 41.4385 56.1585 39.6884 55.5561 38.0944C54.3975 37.7058 53.4153 37.3025 52.6035 36.8826L59.777 45.9617V45.3506Z" fill="#194F9E"/>
<path fill-rule="evenodd" clip-rule="evenodd" d="M57.8907 44.6686L51.7237 36.8637C51.7237 36.8637 50.3006 36.3784 47.777 37.3225C45.3024 38.2484 44.9907 40.9059 45.8889 42.9266C46.0067 42.689 46.1292 42.5235 46.3284 42.3321C46.7754 41.9029 47.4081 41.6572 48.2658 41.6835C49.9271 41.7307 51.0359 42.2326 52.1079 42.7175C52.6251 42.9522 53.1157 43.172 53.6667 43.3481C53.6667 43.3481 56.8397 44.285 57.8907 44.6686Z" fill="#194F9E"/>
<path fill-rule="evenodd" clip-rule="evenodd" d="M56.5894 44.8988C55.7451 44.6676 53.8174 44.0723 53.8174 44.0723C53.3688 44.4731 47.215 44.6842 45.5667 44.4595C43.9181 44.2335 42.6742 43.5631 40.7769 42.7356C42.7657 45.6654 46.1979 47.1647 50.9843 47.2161C51.6515 45.4384 54.0047 44.8454 56.5894 44.8988Z" fill="#194F9E"/>
<path fill-rule="evenodd" clip-rule="evenodd" d="M70.4805 39.9182C70.3864 39.8888 70.2835 39.8553 70.1779 39.8196L70.1739 39.8192C66.3569 38.5611 55.7195 34.1191 54.7965 34.0495C53.8479 33.9774 52.9201 35.3992 52.7849 36.252C55.4663 37.6751 59.376 38.8016 66.4155 39.9301C67.9281 40.1169 69.4299 40.194 70.4805 39.9182Z" fill="#194F9E"/>
<path fill-rule="evenodd" clip-rule="evenodd" d="M84.2172 102.272L80.3451 100.332L79.9476 102.961L79.8364 103.678C85.788 104.682 88.9202 107.469 89.2222 109.888C89.8472 109.904 90.4199 109.956 90.9405 110.051C90.8974 109.007 89.5077 105.774 88.9125 104.646L84.2172 102.272Z" fill="#194F9E"/>
<path fill-rule="evenodd" clip-rule="evenodd" d="M115.482 116.903C115.549 116.144 113.672 114.367 113.672 114.367L111.963 113.982C111.963 113.982 112.695 115.033 112.731 116.148C112.767 117.261 112.347 118.389 112.347 118.389C113.165 118.303 115.415 117.661 115.482 116.903Z" fill="#194F9E"/>
<path fill-rule="evenodd" clip-rule="evenodd" d="M114.169 114.162C114.169 114.162 116.336 116.124 116.161 116.94C115.985 117.754 115.166 118.306 113.78 118.716C112.794 119.006 111.535 119.073 111.535 119.073C111.535 119.073 112.063 117.462 112.108 116.202C112.147 115.156 111.25 113.873 110.847 113.439C110.444 113.004 109.28 112.815 108.292 112.887C108.292 112.887 109.593 114.383 109.836 115.352C110.145 116.593 109.916 117.841 108.955 118.163C107.995 118.486 104.922 115.72 104.062 115.827C103.754 115.867 103.53 116.005 103.368 116.166C103.38 116.166 103.392 116.166 103.405 116.166C103.317 116.237 103.244 116.316 103.18 116.401C103.077 116.561 103.022 116.71 103 116.781C102.996 116.796 102.99 116.808 102.987 116.823C100.959 116.898 98.848 116.901 98.5073 116.621C97.8854 116.113 98.7126 114.94 99.223 114.411C99.67 113.946 100.222 113.584 100.222 113.584C99.5482 113.278 99.2045 112.975 98.7929 112.249C98.7929 112.249 98.6314 113.599 97.2648 114.455C95.6767 115.45 94.5618 115.248 94.5618 115.248C94.5618 115.248 93.8894 117.1 93.8045 117.639C93.7196 118.182 94.1003 118.902 94.7516 118.97C95.402 119.038 100.035 118.056 101.36 118.198C102.549 118.324 110.275 121.416 112.07 121.373C112.91 121.353 115.135 120.632 115.871 120.125C116.605 119.617 118.096 118.339 118.034 117.308C117.971 116.277 116.819 114.956 116.819 114.956C116.492 114.384 114.997 114.092 114.169 114.162Z" fill="#194F9E"/>
<path fill-rule="evenodd" clip-rule="evenodd" d="M95.6822 110.175C95.7064 108.987 95.0688 107.773 94.7668 107.438L89.8958 105.116C90.6128 106.664 91.6348 109.264 91.6348 110.209C91.6348 110.209 92.975 110.537 93.78 111.424C94.273 111.966 94.559 112.654 94.6469 113.47C95.161 112.672 95.6569 111.483 95.6822 110.175Z" fill="#194F9E"/>
<path fill-rule="evenodd" clip-rule="evenodd" d="M90.9626 122.673C89.2257 120.681 87.4801 119.579 85.7765 118.109C83.9162 116.502 82.1536 114.987 80.4959 113.665L80.3801 115.2C85.0681 117.96 89.7668 124.925 89.9238 134.909C91.155 132.864 92.5951 130.647 92.6253 127.88C92.6429 126.3 91.9488 123.774 90.9626 122.673Z" fill="#194F9E"/>
<path fill-rule="evenodd" clip-rule="evenodd" d="M94.892 124.393C93.9243 124.453 93.1031 124.358 92.2491 123.698C94.8216 129.151 92.0042 132.986 90.4397 135.312C91.643 135.136 92.8428 134.645 93.5918 133.88C94.9173 132.526 95.4445 130.35 95.159 127.411L95.1369 127.192L95.3488 127.095C96.6577 126.575 98.3617 125.354 98.412 123.786C98.429 123.263 98.3838 122.784 98.1796 122.1C97.7659 123.698 95.6334 124.349 94.892 124.393Z" fill="#194F9E"/>
<path fill-rule="evenodd" clip-rule="evenodd" d="M80.5464 112.868C82.3243 114.267 84.2238 115.903 86.2335 117.637C88.1755 119.315 90.285 121.049 92.2904 123.047C95.2152 125.435 97.8911 122.298 97.8122 121.567C97.4501 121.884 96.5401 122.28 95.4982 122.159L95.4153 122.149C93.8266 121.78 92.5013 120.494 91.3319 119.36C90.6641 118.711 90.0319 118.099 89.4128 117.702C85.7991 117.702 81.1807 111.597 80.7828 109.741L80.5464 112.868Z" fill="#194F9E"/>
<path fill-rule="evenodd" clip-rule="evenodd" d="M79.7358 104.368L79.4447 106.329L76.6702 124.66C79.6875 130.579 81.286 137.734 75.5618 145.866V146.961H75.566V148.068C75.5989 148.036 75.6348 148 75.6708 147.961C75.7207 147.909 75.7789 147.852 75.8398 147.793C75.9564 147.673 76.0886 147.54 76.2297 147.397C76.7117 146.911 77.2927 146.318 77.6873 145.826C79.1226 144.036 79.4555 143.785 79.8021 143.202C82.12 137.218 83.8378 130.09 79.1947 122.499L79.1431 122.415L80.3914 105.861L80.9732 107.324C81.4644 108.387 82.5227 110.176 83.6881 110.506C83.8322 110.546 83.9756 110.573 84.1187 110.592L84.1212 110.599C84.9583 110.691 85.7908 110.464 86.6612 110.246C87.27 110.094 87.897 109.944 88.5325 109.9C88.1342 106.938 83.9756 105.118 79.7358 104.368Z" fill="#194F9E"/>
<path fill-rule="evenodd" clip-rule="evenodd" d="M131.798 98.8238C131.782 98.8226 130.911 98.7412 130.604 98.6778C129.361 98.4224 127.998 97.8581 126.841 97.186C127.469 106.784 127.079 113.405 125.578 118.546L125.572 118.545L127.678 127.866C130.096 121.382 132.6 113.016 132.005 104.098C132.005 102.207 131.928 100.461 131.798 98.8238Z" fill="#194F9E"/>
<path fill-rule="evenodd" clip-rule="evenodd" d="M72.2307 11.4579H78.0526L75.7991 7.64835L79.7473 9.82985V4.493L75.7944 6.69273L78.0531 2.87549H72.2543L74.4898 6.68793L70.5474 4.493V9.82072L74.497 7.65075L72.2307 11.4579Z" fill="#194F9E"/>
<path fill-rule="evenodd" clip-rule="evenodd" d="M118.549 116.604C118.746 116.318 118.937 115.944 119.089 115.592L117.793 115.3C118.087 115.577 118.549 116.604 118.549 116.604Z" fill="#194F9E"/>
<path fill-rule="evenodd" clip-rule="evenodd" d="M104.831 108.518C104.205 109.38 103.767 110.371 103.565 111.436L107.216 112.278C108.572 112.117 110.073 112.383 110.859 112.76C111.562 113.096 111.627 113.257 111.627 113.257L113.239 113.601C114.806 113.376 116.674 113.921 117.334 114.535L119.319 114.993C119.552 114.287 119.678 113.536 119.678 112.759C119.678 112.446 119.655 112.138 119.615 111.836L104.831 108.518Z" fill="#194F9E"/>
<path fill-rule="evenodd" clip-rule="evenodd" d="M120.893 104.416C120.9 103.976 120.714 96.9683 120.676 95.0309C119.145 94.7397 118.081 94.2947 116.314 92.7339C116.311 92.7291 116.408 93.45 116.431 93.7893L115.978 93.8626C116.103 95.116 116.129 96.2199 116.192 97.5514C116.204 97.8215 116.211 98.101 116.214 98.385L116.607 98.4508L116.86 98.4931L116.697 98.6793L116.112 99.3527L116.971 99.0517L117.222 98.9635L117.174 99.2086L116.491 102.74L116.444 102.985L116.243 102.822L116.025 102.646C115.913 103.93 115.78 104.978 115.709 105.426C118.011 106.561 119.714 108.61 120.261 111.057C120.395 110.443 120.499 109.802 120.584 109.148C120.783 107.617 120.867 106.002 120.893 104.416Z" fill="#194F9E"/>
<path fill-rule="evenodd" clip-rule="evenodd" d="M126.101 96.7127C125.511 96.2837 125.155 96.071 124.12 94.8826C123.679 95.0486 122.387 95.137 121.429 95.0655C121.454 96.4248 121.583 102.457 121.583 102.475C121.596 104.879 121.538 107.479 121.171 109.849C121 110.949 120.764 112.001 120.437 112.959C120.428 113.333 120.391 113.703 120.331 114.062L120.691 115.66L122.366 123.093C122.366 123.093 123.953 120.43 124.906 118.331C125.861 116.235 127.074 107.924 126.101 96.7127Z" fill="#194F9E"/>
<path fill-rule="evenodd" clip-rule="evenodd" d="M79.9459 120.812L79.8364 122.266C83.8266 128.853 83.1867 135.069 81.4637 140.521C86.965 136.819 82.9408 126.224 79.9459 120.812Z" fill="#194F9E"/>
<path fill-rule="evenodd" clip-rule="evenodd" d="M58.0447 123.698C57.1908 124.358 56.3691 124.453 55.4007 124.393C54.66 124.349 52.5274 123.698 52.1138 122.1C51.9095 122.784 51.8652 123.263 51.8818 123.786C51.9321 125.354 53.6362 126.575 54.9444 127.095L55.1559 127.192L55.1343 127.411C54.8487 130.35 55.3762 132.526 56.7024 133.88C57.451 134.645 58.6503 135.137 59.8536 135.312C58.2891 132.986 55.4719 129.151 58.0447 123.698Z" fill="#194F9E"/>
<path fill-rule="evenodd" clip-rule="evenodd" d="M69.9245 115.201L69.8082 113.665C68.1505 114.988 66.3885 116.502 64.5282 118.109C62.8246 119.58 61.0792 120.681 59.3417 122.673C58.3553 123.775 57.6608 126.299 57.6788 127.88C57.7101 130.647 59.1497 132.864 60.3804 134.909C60.5367 124.924 65.2372 117.961 69.9245 115.201Z" fill="#194F9E"/>
<path fill-rule="evenodd" clip-rule="evenodd" d="M70.1477 118.201L69.9769 115.938C65.486 118.779 61.0732 125.83 61.0469 135.568L61.0563 135.589C61.9536 137.819 63.0102 139.676 64.6334 141.001C61.4724 129.512 65.1413 120.903 70.1477 118.201Z" fill="#194F9E"/>
<path fill-rule="evenodd" clip-rule="evenodd" d="M70.3839 103.681L70.2234 102.652L69.8961 100.554L66.6071 102.122L61.3069 104.649C60.712 105.777 59.3235 109.009 59.2798 110.054C59.7993 109.959 60.3735 109.906 60.9981 109.891C61.3007 107.471 64.4317 104.684 70.3839 103.681Z" fill="#194F9E"/>
<path fill-rule="evenodd" clip-rule="evenodd" d="M55.4534 107.438C55.151 107.773 54.5145 108.987 54.5377 110.175C54.5629 111.483 55.0599 112.671 55.5723 113.47C55.6608 112.654 55.9467 111.966 56.4397 111.423C57.2444 110.538 58.585 110.209 58.585 110.209C58.585 109.264 59.6069 106.664 60.3236 105.116L55.4534 107.438Z" fill="#194F9E"/>
<path fill-rule="evenodd" clip-rule="evenodd" d="M70.2565 119.601L70.2051 118.917C65.4456 121.671 62.1431 130.323 65.5299 141.636C66.6561 142.336 68.0169 142.831 69.7204 143.07C69.5215 142.544 69.3264 142.009 69.1406 141.465C61.7906 137.701 67.1686 124.975 70.2565 119.601Z" fill="#194F9E"/>
<path fill-rule="evenodd" clip-rule="evenodd" d="M58.0048 123.047C60.012 121.049 62.1197 119.315 64.0619 117.637C66.0714 115.903 67.9713 114.267 69.7496 112.868L69.5134 109.741C69.1162 111.598 64.4971 117.702 60.8824 117.702C60.2645 118.099 59.6321 118.712 58.9639 119.36C57.7945 120.495 56.4686 121.78 54.8809 122.149L54.7976 122.161C53.7563 122.28 52.8467 121.884 52.4844 121.567C52.4057 122.298 55.081 125.435 58.0048 123.047Z" fill="#194F9E"/>
<path fill-rule="evenodd" clip-rule="evenodd" d="M79.0372 102.931L79.5498 99.5503C78.1755 100.034 76.6882 100.299 75.136 100.299C73.5632 100.299 72.0573 100.026 70.6682 99.5308L71.1529 102.638L71.6987 106.133L75.1762 128.411L78.5902 105.881L79.0372 102.931Z" fill="#194F9E"/>
<path fill-rule="evenodd" clip-rule="evenodd" d="M80.0999 118.913L80.0479 119.597C83.1352 124.973 88.5131 137.699 81.1638 141.462C80.9774 142.006 80.7835 142.541 80.5834 143.067C82.2868 142.828 83.6481 142.333 84.7749 141.633C88.1613 130.322 84.8591 121.669 80.0999 118.913Z" fill="#194F9E"/>
<path fill-rule="evenodd" clip-rule="evenodd" d="M76.4925 125.82L75.5618 131.971V144.659C80.1434 137.549 79.0315 131.172 76.4925 125.82Z" fill="#194F9E"/>
<path fill-rule="evenodd" clip-rule="evenodd" d="M52.9508 114.455C51.584 113.599 51.4229 112.249 51.4229 112.249C51.0104 112.975 50.6672 113.278 49.9928 113.584C49.9928 113.584 50.5446 113.947 50.9924 114.411C51.5026 114.94 52.3299 116.114 51.7085 116.622C51.0865 117.131 44.5706 116.701 43.4197 116.612C42.2694 116.524 38.9725 115.948 38.4435 115.991C37.9147 116.033 36.6439 116.554 36.0127 117.035C35.3798 117.516 35.2604 118.45 35.4164 118.877C35.5712 119.304 35.7694 119.322 36.1032 119.207C36.4382 119.091 36.681 118.781 36.681 118.781C36.681 118.781 37.5261 117.242 38.1359 117.129C38.9133 116.986 41.0289 118.865 41.7033 119.147C42.3778 119.431 45.2786 119.433 45.9839 119.25C46.6897 119.065 47.6667 118.324 48.8551 118.198C50.1806 118.056 54.814 119.038 55.4642 118.969C56.1146 118.902 56.4958 118.182 56.4109 117.641C56.3261 117.099 55.6546 115.249 55.6546 115.249C55.6546 115.249 54.5397 115.45 52.9508 114.455Z" fill="#194F9E"/>
<path fill-rule="evenodd" clip-rule="evenodd" d="M74.7312 144.675V131.586L73.8227 125.771C71.2651 131.137 70.1244 137.538 74.7312 144.675Z" fill="#194F9E"/>
<path fill-rule="evenodd" clip-rule="evenodd" d="M73.6565 124.622L70.8547 106.681L70.4939 104.368C66.253 105.118 62.0949 106.938 61.6963 109.9C62.3316 109.944 62.9588 110.094 63.5679 110.246C64.4668 110.471 65.3253 110.709 66.1903 110.592C66.3338 110.573 66.4774 110.546 66.6215 110.506C67.7876 110.176 68.844 108.387 69.3368 107.324L69.9182 105.861L71.1667 122.415L71.1143 122.499C66.4728 130.089 68.1896 137.218 70.5073 143.202C70.8547 143.785 71.1874 144.036 72.6229 145.826C73.1563 146.492 74.0273 147.337 74.5342 147.858C74.5711 147.894 74.6073 147.929 74.6386 147.961C74.6751 148.001 74.7105 148.036 74.7436 148.068V146.961V145.879C68.9967 137.724 70.6231 130.551 73.6565 124.622Z" fill="#194F9E"/>
<path fill-rule="evenodd" clip-rule="evenodd" d="M80.3088 115.938L80.1384 118.201C85.1434 120.902 88.8131 129.512 85.6517 141.002C87.2749 139.676 88.3327 137.819 89.2294 135.589L89.2375 135.568C89.2125 125.831 84.7997 118.78 80.3088 115.938Z" fill="#194F9E"/>
<path fill-rule="evenodd" clip-rule="evenodd" d="M68.8369 140.521C67.1139 135.069 66.4734 128.853 70.4647 122.266L70.3551 120.812C67.3604 126.224 63.3356 136.819 68.8369 140.521Z" fill="#194F9E"/>
<path fill-rule="evenodd" clip-rule="evenodd" d="M60.0019 47.3353L59.8439 47.1304L58.7387 45.7303C55.7532 45.2845 52.1348 45.5168 51.5695 47.6248C51.1888 49.0498 51.2706 50.4001 51.8222 51.73C52.853 49.5714 54.0621 48.3389 56.577 48.3356H56.5872C58.3328 48.3356 59.957 48.8377 61.1408 49.7257C61.269 49.0661 60.8311 48.4211 60.0614 47.414C60.0413 47.3872 60.0224 47.3626 60.0019 47.3353Z" fill="#194F9E"/>
<path fill-rule="evenodd" clip-rule="evenodd" d="M93.8511 38.3853C92.5428 38.7866 91.0398 39.1719 89.3369 39.5439C89.3394 40.4665 90.3941 41.0761 91.3733 41.0761C92.1743 41.0761 93.1951 39.9437 93.8511 38.3853Z" fill="#194F9E"/>
<path fill-rule="evenodd" clip-rule="evenodd" d="M91.561 45.7301L90.4549 47.13L90.2973 47.3351C90.2769 47.362 90.2587 47.3863 90.2388 47.4119C90.2397 47.4119 90.2413 47.4128 90.2419 47.4144C89.4722 48.4209 89.0353 49.0658 89.1625 49.7259C90.3138 48.8615 91.8835 48.3669 93.5745 48.3406C93.6204 48.3401 93.6658 48.3358 93.7116 48.3358H93.7141H93.7161H93.7265C96.2381 48.3401 97.4462 49.5728 98.4761 51.7298C99.0283 50.4002 99.1101 49.05 98.7288 47.6245C98.1645 45.517 94.5455 45.2846 91.561 45.7301Z" fill="#194F9E"/>
<path fill-rule="evenodd" clip-rule="evenodd" d="M89.5714 47.1724L89.5683 47.1695C89.6207 47.1005 89.6747 47.0309 89.7278 46.9607L89.826 46.8331V45.1998L89.8614 45.1316C90.3842 44.163 90.9058 42.7327 90.9971 41.693C90.3411 41.6336 89.7118 41.361 89.2689 40.938C89.2107 41.037 89.1382 41.1354 89.044 41.2361C87.797 42.5767 83.9331 43.4886 80.5921 43.9542L80.605 43.9546C80.605 43.9546 77.8545 48.3003 77.0117 49.2475C77.288 49.1226 77.5623 48.9959 77.834 48.8691C78.7214 48.4559 79.6384 48.0277 80.5505 47.7441L81.0021 47.6049V52.334C82.0676 50.6518 83.6574 48.7881 85.8567 47.7615L86.4854 47.4692L86.3472 48.1108C86.0651 49.422 86.0502 50.6224 86.062 51.5369C86.1079 52.7887 86.4938 53.7976 87.0457 54.5626C87.2679 52.7023 88.1858 51.0267 88.6119 50.2501C88.1384 49.1715 88.7683 48.2274 89.5714 47.1724Z" fill="#194F9E"/>
<path fill-rule="evenodd" clip-rule="evenodd" d="M85.4339 52.2217C85.4205 52.2294 85.2473 50.5612 85.5502 48.6599C83.3874 49.9021 81.9086 52.0187 81.0146 53.6684C81.0259 56.5172 81.7184 58.5856 83.127 59.9517C83.0155 59.0848 83.1316 57.607 83.2366 56.6687C83.5272 54.6445 84.0807 52.4781 84.3978 51.4081C84.404 51.4466 84.5861 53.0695 84.5923 53.1079C85.0708 56.1699 85.8501 59.2803 87.763 59.9465C87.0561 58.2709 86.9846 57.0585 86.9403 55.4376C86.1285 54.6231 85.5008 53.1696 85.4339 52.2217Z" fill="#194F9E"/>
<path fill-rule="evenodd" clip-rule="evenodd" d="M79.0056 68.522L80.1405 75.6525L81.7395 71.0717C81.0938 70.4634 79.5901 69.1283 79.0056 68.522Z" fill="#194F9E"/>
<path fill-rule="evenodd" clip-rule="evenodd" d="M93.7019 44.8986C96.2872 44.8454 98.6406 45.4382 99.3066 47.216C104.094 47.1646 107.526 45.6651 109.514 42.7354C107.617 43.5628 106.374 44.2335 104.724 44.4595C103.076 44.6842 96.9226 44.4728 96.4735 44.0721C96.4735 44.0721 94.5462 44.6673 93.7019 44.8986Z" fill="#194F9E"/>
<path fill-rule="evenodd" clip-rule="evenodd" d="M84.211 54.8586C84.0258 55.8056 83.8796 56.7001 83.8056 57.6001C83.6229 60.3621 84.211 61.5978 84.211 61.5978L83.4371 61.055C81.5718 59.7465 80.5612 57.6625 80.3642 54.7053C80.2819 54.8345 78.296 57.8837 77.5103 58.9293L77.8896 61.2964L78.8562 67.323C79.5132 68.019 80.355 68.6791 81.0763 69.3803L81.514 60.4185L82.1845 61.7918C83.6147 65.358 85.9446 67.741 88.8036 68.5944C88.1163 67.6283 85.1438 62.636 85.1438 62.636L86.218 63.3042C87.9249 64.3664 89.3233 64.7969 90.1227 64.8352C91.6329 64.9067 93.0709 64.2608 93.0709 64.2608C90.91 63.8417 89.6239 62.694 88.7029 61.5725C88.5645 61.4049 88.2575 60.8899 88.155 60.7526C85.6453 60.2408 84.7827 57.6813 84.211 54.8586Z" fill="#194F9E"/>
<path fill-rule="evenodd" clip-rule="evenodd" d="M90.3307 69.5835C90.3307 69.5835 88.5615 69.2931 87.4595 68.7786C85.3258 67.7826 83.5035 65.9994 82.2023 63.4772L81.7395 71.0743L84.2176 75.0038L84.48 74.8765V69.388L89.1521 72.648L93.9151 70.4747C95.349 69.8147 97.2305 68.6013 97.6893 68.2073C99.1325 67.0752 100.908 65.6735 101.219 64.3368C101.397 63.3736 100.162 59.6887 101.875 57.9119C102.66 57.0974 103.826 56.6413 105.418 56.617C105.885 56.1451 106.299 55.474 106.392 55.0479C105.306 54.8903 104.321 54.9052 103.439 55.0877C103.439 55.0877 101.889 55.3205 100.818 56.3235C99.617 57.4483 98.8625 58.8627 98.5599 60.8835C98.3952 61.9791 97.5344 63.2934 96.8205 64.1017C95.4878 65.5061 94.0427 66.0994 93.7917 66.1789C92.9787 66.4362 92.1495 66.3536 91.5871 66.2355C90.5973 65.9807 88.2084 65.1652 86.8899 64.4391C87.0647 64.7424 90.3307 69.5835 90.3307 69.5835Z" fill="#194F9E"/>
<path fill-rule="evenodd" clip-rule="evenodd" d="M88.7792 30.3278C89.1075 29.6136 89.3745 28.8749 89.557 28.1108L88.3701 29.5842C88.5693 29.793 88.7123 30.0471 88.7792 30.3278Z" fill="#194F9E"/>
<path fill-rule="evenodd" clip-rule="evenodd" d="M87.056 29.7495C86.5059 29.7495 86.0593 30.1671 86.0593 30.6808C86.0593 31.192 86.5059 31.609 87.056 31.609C87.6058 31.609 88.0534 31.192 88.0534 30.6808C88.0534 30.1671 87.6058 29.7495 87.056 29.7495Z" fill="#194F9E"/>
<path fill-rule="evenodd" clip-rule="evenodd" d="M89.7275 27.2406C89.7956 26.7837 89.8331 26.3172 89.8331 25.8434C89.847 25.6945 89.8499 25.5559 89.8604 25.4109L87.9624 26.8269L89.7275 27.2406Z" fill="#194F9E"/>
<path fill-rule="evenodd" clip-rule="evenodd" d="M83.8611 39.918C90.9019 38.7891 94.8206 37.6751 97.5021 36.252C97.3679 35.3992 95.9835 34.0581 95.3814 34.0697C94.7786 34.0814 83.3085 38.8135 79.791 39.918C80.87 40.1682 82.2278 40.1767 83.8611 39.918Z" fill="#194F9E"/>
<path fill-rule="evenodd" clip-rule="evenodd" d="M91.6877 41.6799C91.6048 42.8309 91.0507 44.3365 90.5151 45.3508V45.9617L97.6895 36.8826C96.8768 37.3021 95.8941 37.7058 94.737 38.0944C94.133 39.6884 92.9219 41.4389 91.6877 41.6799Z" fill="#194F9E"/>
<path fill-rule="evenodd" clip-rule="evenodd" d="M85.9965 31.9927C85.9369 32.1481 85.8565 32.295 85.7573 32.4288C86.1952 32.8037 86.4725 33.3385 86.4725 33.9364C86.4725 33.9668 86.4682 33.9979 86.4672 34.0283C86.8763 33.4939 87.2698 32.941 87.6377 32.3695C87.6789 32.3113 87.7206 32.2471 87.7632 32.1814C87.5457 32.2715 87.3053 32.3229 87.0513 32.3229C86.6556 32.3229 86.2901 32.1995 85.9965 31.9927Z" fill="#194F9E"/>
<path fill-rule="evenodd" clip-rule="evenodd" d="M96.6274 43.3485C97.1772 43.1724 97.6687 42.9526 98.1859 42.7179C99.2579 42.2326 100.367 41.7309 102.027 41.6839C102.886 41.6571 103.526 41.8544 104.037 42.2614C104.236 42.4207 104.331 42.5272 104.449 42.7649C105.136 40.3136 104.838 38.0668 102.517 37.3229C100.196 36.5793 98.57 36.8641 98.57 36.8641L92.4031 44.669C93.4546 44.2854 96.6274 43.3485 96.6274 43.3485Z" fill="#194F9E"/>
<path fill-rule="evenodd" clip-rule="evenodd" d="M102.725 113.952C102.714 113.924 102.706 113.895 102.692 113.868L102.764 113.895C102.709 113.524 102.678 113.145 102.678 112.76C102.678 112.338 102.739 111.73 102.862 111.128L102.824 110.882C102.168 110.555 101.684 110.325 101.296 109.95C99.7531 108.5 99.0039 106.72 98.0239 105.123C96.7711 103.079 95.5786 101.148 93.3596 99.5453C93.3499 99.5415 93.341 99.5376 93.3325 99.5337C92.4573 99.1925 91.5842 98.8892 90.7266 98.6133L91.3535 99.9312L91.88 100.88C94.2673 102.691 98.0601 106.164 99.3502 111.861C99.5673 112.819 101.672 113.612 102.725 113.952Z" fill="#194F9E"/>
<path fill-rule="evenodd" clip-rule="evenodd" d="M93.8984 73.2233C94.8168 75.0716 95.7059 77.2195 96.3598 79.3329C96.7128 79.6631 97.6166 80.2454 98.8998 79.9285L98.7325 79.1415C97.9227 76.5073 96.3679 73.3461 95.0252 71.1877L93.8984 73.2233Z" fill="#194F9E"/>
<path fill-rule="evenodd" clip-rule="evenodd" d="M88.0009 28.2389C88.0009 28.2389 87.0423 29.0356 87.0547 29.0356C87.3291 29.0356 87.5868 29.0955 87.8184 29.1997L89.0016 27.729L86.4519 27.1309L89.8985 24.5603V24.5559C89.8994 24.4354 89.8963 24.3192 89.8936 24.2026L84.4583 27.4429L88.0009 28.2389Z" fill="#194F9E"/>
<path fill-rule="evenodd" clip-rule="evenodd" d="M95.4372 70.4535L95.4238 70.4769C96.9338 72.6507 98.4329 75.8301 99.3827 78.9163C100.326 79.7654 101.689 80.0432 103.086 80.0564C103.109 79.958 102.947 79.3161 102.894 79.1222C101.703 75.2426 100.671 72.3124 98.0909 70.1548C97.8592 70.1649 97.0068 70.2849 96.1579 70.0815C95.9104 70.2091 95.6713 70.3319 95.4372 70.4535Z" fill="#194F9E"/>
<path fill-rule="evenodd" clip-rule="evenodd" d="M93.87 106.048L90.3504 100.12C88.522 96.7849 86.6713 93.2878 86.6513 93.331C86.1827 94.3038 85.5739 95.2057 84.8522 96.0164C83.604 97.4188 82.0146 98.5492 80.2141 99.2957L84.864 101.626L93.87 106.048Z" fill="#194F9E"/>
<path fill-rule="evenodd" clip-rule="evenodd" d="M65.596 19.4957L64.7588 17.5984C64.3029 17.7698 63.8765 17.9618 63.4937 18.1859L64.5027 20.4437L65.596 19.4957Z" fill="#194F9E"/>
<path fill-rule="evenodd" clip-rule="evenodd" d="M102.084 68.0342C103.668 69.1178 104.318 69.0084 104.697 68.9345C104.946 68.886 105.417 68.6198 105.253 68.1805C104.843 67.3362 103.118 65.5829 101.875 64.5308C101.701 64.8316 101.518 65.482 100.741 66.265C101.18 66.9441 101.779 67.6169 102.084 68.0342Z" fill="#194F9E"/>
<path fill-rule="evenodd" clip-rule="evenodd" d="M98.3843 68.504C98.4579 68.5616 98.5865 68.7018 98.7439 68.8362C99.209 69.2493 100.618 69.1136 100.618 69.1136C100.854 69.0776 101.774 68.8692 101.566 68.4412C101.348 67.9909 100.948 67.3997 100.325 66.717C99.6371 67.3166 99.0151 68.0149 98.3843 68.504Z" fill="#194F9E"/>
<path fill-rule="evenodd" clip-rule="evenodd" d="M111.558 105.184C109.023 105.184 106.76 106.267 105.272 107.965L119.493 111.156C118.705 107.742 115.452 105.184 111.558 105.184Z" fill="#194F9E"/>
<path fill-rule="evenodd" clip-rule="evenodd" d="M121.924 68.8694C120.658 68.8165 119.978 68.4749 119.214 68.077C119.105 68.0194 118.992 67.9602 118.875 67.9026C118.664 68.3192 118.39 68.5889 118.042 68.7235C117.27 69.0204 116.277 68.6183 114.839 67.953C114.779 68.2775 114.636 68.6125 114.299 68.8391C114.254 68.8689 114.201 68.887 114.153 68.9116C116.328 71.1525 117.853 74.619 119.574 78.8945C122.345 80.936 124.558 80.9379 126.532 80.5323C125.982 76.7936 124.558 73.1794 121.935 68.8867C121.931 68.8812 121.928 68.8751 121.924 68.8694Z" fill="#194F9E"/>
<path fill-rule="evenodd" clip-rule="evenodd" d="M119.814 94.2377C120.056 94.3127 120.764 94.4432 121 94.4677C121.252 94.4931 122.958 94.6645 123.445 94.4072C123.404 94.1783 123.207 93.3642 123.171 93.2163C121.286 85.5195 119.752 83.8833 117.999 81.2209C116 81.2012 114.629 80.5926 113.406 79.8765C113.504 80.2067 113.626 81.0892 113.626 81.0892C113.626 81.0892 112.896 81.0869 112.748 81.0821C114.414 83.8804 115.585 87.6674 116.181 91.7177C117.754 93.1799 118.834 93.9339 119.814 94.2377Z" fill="#194F9E"/>
<path fill-rule="evenodd" clip-rule="evenodd" d="M113.473 60.3288C116.281 62.481 118.58 65.155 118.997 67.2411C119.189 67.3341 119.371 67.4273 119.544 67.5176C120.302 67.9116 120.91 68.2224 122.158 68.2379C122.563 68.2292 122.898 68.0997 123.002 68.0181C122.319 64.5267 119.008 61.5735 116.287 59.6785C115.723 60.2741 114.731 60.4907 113.473 60.3288Z" fill="#194F9E"/>
<path fill-rule="evenodd" clip-rule="evenodd" d="M112.016 59.3369L112.216 59.3988C113.508 59.8029 115.023 59.9537 115.724 59.3029C112.564 57.2016 109.215 55.7636 107.061 55.189C106.952 55.67 106.614 56.2421 106.223 56.7157C108.011 57.067 110.075 58.0457 112.016 59.3369Z" fill="#194F9E"/>
<path fill-rule="evenodd" clip-rule="evenodd" d="M104.716 107.468C104.821 107.349 105.162 107.026 105.511 106.717C105.397 106.383 105.305 106.112 105.259 105.977C104.902 104.388 104.125 103.161 103.009 102.17C102.783 102.917 102.07 103.933 102.07 103.933C102.911 104.733 103.27 105.151 103.859 106.118C104.062 106.447 104.382 107.036 104.664 107.531C104.681 107.509 104.699 107.486 104.716 107.468Z" fill="#194F9E"/>
<path fill-rule="evenodd" clip-rule="evenodd" d="M111.872 104.477C113.008 104.512 114.09 104.745 115.079 105.141C115.146 104.696 115.272 103.778 115.324 103.318L112.238 102.827L111.872 104.477Z" fill="#194F9E"/>
<path fill-rule="evenodd" clip-rule="evenodd" d="M97.8661 68.8994C97.6685 69.0378 96.9729 69.4918 96.9041 69.5279C97.6109 69.6611 98.251 69.5359 98.4037 69.4121C98.2582 69.2892 97.9643 68.9783 97.8661 68.8994Z" fill="#194F9E"/>
<path fill-rule="evenodd" clip-rule="evenodd" d="M72.7375 18.3081L73.02 19.7951L73.3858 18.7746L72.7375 18.3081Z" fill="#194F9E"/>
<path fill-rule="evenodd" clip-rule="evenodd" d="M73.6732 23.2808L74.0014 22.0474L73.2358 20.9741L73.6732 23.2808Z" fill="#194F9E"/>
<path fill-rule="evenodd" clip-rule="evenodd" d="M75.7392 21.669L76.731 20.2785L76.2667 18.9802H74.0321L73.5681 20.2785L74.5605 21.669H75.7392Z" fill="#194F9E"/>
<path fill-rule="evenodd" clip-rule="evenodd" d="M71.8159 13.4409L71.9698 14.2554L72.5508 13.4409H71.8159Z" fill="#194F9E"/>
<path fill-rule="evenodd" clip-rule="evenodd" d="M73.8915 15.573H76.4123L77.8235 14.6955L76.9295 13.4409H73.3758L72.4807 14.6955L73.8915 15.573Z" fill="#194F9E"/>
<path fill-rule="evenodd" clip-rule="evenodd" d="M74.2049 30.6131L73.0899 26.9705L71.7256 28.2405C72.5672 28.9566 73.3956 29.7496 74.2049 30.6131Z" fill="#194F9E"/>
<path fill-rule="evenodd" clip-rule="evenodd" d="M72.1633 15.2646L72.47 16.8856L73.2284 15.9289L72.1633 15.2646Z" fill="#194F9E"/>
<path fill-rule="evenodd" clip-rule="evenodd" d="M68.6899 16.8127C68.372 16.8334 68.0695 16.8679 67.7681 16.9035L67.962 17.4439L68.6899 16.8127Z" fill="#194F9E"/>
<path fill-rule="evenodd" clip-rule="evenodd" d="M67.2368 21.537L68.332 20.5141L67.6451 18.5913L66.4089 19.6627L67.2368 21.537Z" fill="#194F9E"/>
<path fill-rule="evenodd" clip-rule="evenodd" d="M67.4058 17.9261L67.0754 17.0017C66.4771 17.0982 65.9137 17.2192 65.3967 17.3747L66.1283 19.0329L67.4058 17.9261Z" fill="#194F9E"/>
<path fill-rule="evenodd" clip-rule="evenodd" d="M71.5582 27.4923L72.8748 26.2675L72.4313 24.8181L71.0608 26.0966L71.5582 27.4923Z" fill="#194F9E"/>
<path fill-rule="evenodd" clip-rule="evenodd" d="M78.4878 13.4409H77.752L78.3335 14.2554L78.4878 13.4409Z" fill="#194F9E"/>
<path fill-rule="evenodd" clip-rule="evenodd" d="M70.8099 25.4178L72.2067 24.1141L71.613 22.175L70.0938 23.4129L70.8099 25.4178Z" fill="#194F9E"/>
<path fill-rule="evenodd" clip-rule="evenodd" d="M69.8658 22.7563L71.4107 21.4959L70.7116 19.2107L69.1274 20.689L69.8658 22.7563Z" fill="#194F9E"/>
<path fill-rule="evenodd" clip-rule="evenodd" d="M68.8834 20.0069L70.4936 18.5036L69.9606 16.7637C69.8881 16.7642 69.8228 16.7709 69.7508 16.7719L68.2063 18.11L68.8834 20.0069Z" fill="#194F9E"/>
<path fill-rule="evenodd" clip-rule="evenodd" d="M80.1968 23.4126L78.6785 22.1748L78.0842 24.1138L79.4816 25.4174L80.1968 23.4126Z" fill="#194F9E"/>
<path fill-rule="evenodd" clip-rule="evenodd" d="M83.0464 21.537L83.874 19.6627L82.6378 18.5913L81.9509 20.5141L83.0464 21.537Z" fill="#194F9E"/>
<path fill-rule="evenodd" clip-rule="evenodd" d="M82.5098 16.9034C82.2094 16.8684 81.9074 16.8338 81.5884 16.8127L82.3169 17.4439L82.5098 16.9034Z" fill="#194F9E"/>
<path fill-rule="evenodd" clip-rule="evenodd" d="M82.0785 18.11L80.534 16.7719C80.4619 16.7709 80.3967 16.7641 80.3237 16.7637L79.791 18.5032L81.4015 20.0069L82.0785 18.11Z" fill="#194F9E"/>
<path fill-rule="evenodd" clip-rule="evenodd" d="M81.169 20.689L79.585 19.2107L78.8848 21.4953L80.4301 22.7563L81.169 20.689Z" fill="#194F9E"/>
<path fill-rule="evenodd" clip-rule="evenodd" d="M87.5795 22.0057L88.5976 19.7873C88.4412 19.5766 88.2715 19.3769 88.0878 19.1888C87.8686 18.9656 87.6232 18.7621 87.3613 18.5686L86.3159 20.9094L87.5795 22.0057Z" fill="#194F9E"/>
<path fill-rule="evenodd" clip-rule="evenodd" d="M85.7777 20.4437L86.7865 18.1859C86.4047 17.9618 85.9772 17.7702 85.5223 17.5984L84.6848 19.4957L85.7777 20.4437Z" fill="#194F9E"/>
<path fill-rule="evenodd" clip-rule="evenodd" d="M84.8809 17.3747C84.3643 17.2192 83.8009 17.0982 83.2027 17.0017L82.8723 17.9261L84.1487 19.0329L84.8809 17.3747Z" fill="#194F9E"/>
<path fill-rule="evenodd" clip-rule="evenodd" d="M75.1601 16.239H75.1461L73.9129 16.2596L72.813 17.5483L73.9063 18.3388H76.3999L77.4938 17.5483L76.3943 16.2596L75.1601 16.239Z" fill="#194F9E"/>
<path fill-rule="evenodd" clip-rule="evenodd" d="M77.2866 19.7951L77.5691 18.3081L76.9214 18.7746L77.2866 19.7951Z" fill="#194F9E"/>
<path fill-rule="evenodd" clip-rule="evenodd" d="M89.16 23.372H89.1662C89.3926 23.3551 89.619 23.3497 89.8437 23.3435C89.7404 22.2419 89.4769 21.2821 89.0315 20.468L88.1135 22.4656L89.16 23.372Z" fill="#194F9E"/>
<path fill-rule="evenodd" clip-rule="evenodd" d="M76.6157 23.2808L77.053 20.9741L76.2869 22.0474L76.6157 23.2808Z" fill="#194F9E"/>
<path fill-rule="evenodd" clip-rule="evenodd" d="M77.8344 16.8856L78.1422 15.2646L77.0874 15.9294L77.8344 16.8856Z" fill="#194F9E"/>
<path fill-rule="evenodd" clip-rule="evenodd" d="M76.0966 30.6131C76.9064 29.7496 78.6434 28.1771 78.5693 28.2405L77.2069 26.9705L76.0906 30.6131H76.0966Z" fill="#194F9E"/>
<path fill-rule="evenodd" clip-rule="evenodd" d="M79.2341 26.0973L77.8627 24.8186L77.4194 26.268L78.7355 27.493L79.2341 26.0973Z" fill="#194F9E"/>
</g>
</g>
<defs>
<clipPath id="clip0_831_612">
<rect width="114.067" height="145" fill="white" transform="translate(18 3)"/>
</clipPath>
</defs>
</svg>
