<svg width="30" height="31" viewBox="0 0 30 31" fill="none" xmlns="http://www.w3.org/2000/svg">
<path d="M15.0001 21.1251C14.8769 21.1252 14.755 21.101 14.6412 21.0538C14.5275 21.0067 14.4242 20.9376 14.3372 20.8504L4.96225 11.4754C4.59592 11.109 4.59592 10.5158 4.96225 10.1497C5.32857 9.78365 5.92178 9.78342 6.28787 10.1497L15.0001 18.8619L23.7122 10.1497C24.0786 9.78342 24.6718 9.78342 25.0379 10.1497C25.404 10.5161 25.4042 11.1093 25.0379 11.4754L15.6629 20.8504C15.5759 20.9376 15.4726 21.0067 15.3589 21.0538C15.2451 21.101 15.1232 21.1252 15.0001 21.1251Z" fill="#FD4D4D"/>
</svg>
