<svg width="30" height="30" viewBox="0 0 30 30" fill="none" xmlns="http://www.w3.org/2000/svg">
<path d="M15.0001 20.625C14.8769 20.6251 14.755 20.6009 14.6412 20.5538C14.5275 20.5066 14.4242 20.4375 14.3372 20.3503L4.96225 10.9753C4.59592 10.609 4.59592 10.0158 4.96225 9.64969C5.32857 9.28359 5.92178 9.28336 6.28787 9.64969L15.0001 18.3619L23.7122 9.64969C24.0786 9.28336 24.6718 9.28336 25.0379 9.64969C25.404 10.016 25.4042 10.6092 25.0379 10.9753L15.6629 20.3503C15.5759 20.4375 15.4726 20.5066 15.3589 20.5538C15.2451 20.6009 15.1232 20.6251 15.0001 20.625Z" fill="#275AAE"/>
</svg>
