<svg width="30" height="31" viewBox="0 0 30 31" fill="none" xmlns="http://www.w3.org/2000/svg">
<g clip-path="url(#clip0_682_214)">
<path d="M0.7736 30.1806C0.348288 30.1806 0 29.8339 0 29.407C0 28.9801 0.348288 28.6334 0.7736 28.6334H27.3569L0.227438 1.50529C0.0824549 1.36014 0.00101836 1.16338 0.00101836 0.958223C0.00101836 0.753069 0.0824549 0.556305 0.227438 0.411154C0.299312 0.339224 0.384713 0.28223 0.478717 0.243462C0.572722 0.204695 0.673471 0.184917 0.775156 0.185272C0.974845 0.185272 1.17272 0.261 1.32287 0.411154L28.4525 27.5393V0.957575C28.4526 0.752424 28.5341 0.555696 28.6792 0.410635C28.8243 0.265572 29.021 0.184046 29.2261 0.183977C29.4312 0.184319 29.6278 0.265934 29.7728 0.410936C29.9178 0.555941 29.9994 0.752508 29.9997 0.957575V30.1806H0.7736Z" fill="#CDE0FF"/>
</g>
<defs>
<clipPath id="clip0_682_214">
<rect width="30" height="30" fill="white" transform="matrix(1 0 0 -1 0 30.1821)"/>
</clipPath>
</defs>
</svg>
