<svg width="44" height="44" viewBox="0 0 44 44" fill="none" xmlns="http://www.w3.org/2000/svg">
<g clip-path="url(#clip0_3052_3064)">
<path d="M22.5459 1.51723C22.2452 1.21649 21.7537 1.21539 21.4519 1.51723C21.15 1.81907 21.1511 2.31053 21.4519 2.61127L40.2491 21.4085L1.88322 21.4075C1.67806 21.4077 1.48135 21.4892 1.33628 21.6343C1.19121 21.7793 1.10966 21.9761 1.10955 22.1812C1.10951 22.2829 1.12959 22.3836 1.16865 22.4775C1.20771 22.5714 1.26497 22.6566 1.33712 22.7282C1.47832 22.8694 1.67178 22.9558 1.88414 22.9558L40.2502 22.9569L21.4541 41.753C21.3091 41.8981 21.2276 42.0949 21.2276 42.3C21.2276 42.5052 21.3091 42.7019 21.4541 42.847C21.5993 42.9918 21.796 43.0731 22.0011 43.0731C22.2062 43.0731 22.4029 42.9918 22.5481 42.847L43.2119 22.1832L22.5459 1.51723Z" fill="white"/>
</g>
<defs>
<clipPath id="clip0_3052_3064">
<rect width="30" height="30" fill="white" transform="translate(22 0.968994) rotate(45)"/>
</clipPath>
</defs>
</svg>
