<svg width="30" height="30" viewBox="0 0 30 30" fill="none" xmlns="http://www.w3.org/2000/svg">
<g clip-path="url(#clip0_3083_5898)">
<path d="M22.5891 27.0281C22.4085 27.1491 22.1914 27.2036 21.9751 27.1822C21.7587 27.1608 21.5566 27.0649 21.4031 26.9109L15.3469 20.8547C15.171 20.6788 15.0721 20.4402 15.0721 20.1914C15.0721 19.9426 15.171 19.704 15.3469 19.5281C15.5228 19.3522 15.7614 19.2534 16.0102 19.2534C16.2589 19.2534 16.4975 19.3522 16.6734 19.5281L21.1313 23.9859L21.1313 9.62812C21.13 8.31817 20.6091 7.06222 19.6828 6.13595C18.7565 5.20967 17.5006 4.68874 16.1906 4.6875L1.875 4.6875C1.62636 4.6875 1.3879 4.58873 1.21209 4.41291C1.03627 4.2371 0.9375 3.99864 0.9375 3.75C0.9375 3.50136 1.03627 3.2629 1.21209 3.08709C1.3879 2.91127 1.62636 2.8125 1.875 2.8125L16.1906 2.8125C17.9979 2.81374 19.7307 3.53221 21.0086 4.81012C22.2865 6.08803 23.005 7.82089 23.0063 9.62812L23.0063 23.9859L27.4641 19.5281C27.5954 19.3975 27.7626 19.3088 27.9443 19.2731C28.1261 19.2374 28.3144 19.2563 28.4854 19.3275C28.6564 19.3988 28.8025 19.519 28.9052 19.6732C29.0079 19.8274 29.0626 20.0085 29.0625 20.1938C29.0615 20.442 28.962 20.6797 28.7859 20.8547L22.7297 26.9109C22.6884 26.9563 22.6411 26.9957 22.5891 27.0281Z" fill="white"/>
</g>
<defs>
<clipPath id="clip0_3083_5898">
<rect width="30" height="30" fill="white" transform="matrix(4.37114e-08 1 1 -4.37114e-08 0 0)"/>
</clipPath>
</defs>
</svg>
