<svg width="60" height="60" viewBox="0 0 60 60" fill="none" xmlns="http://www.w3.org/2000/svg">
<g clip-path="url(#clip0_834_1759)">
<path d="M30 9.375C18.6272 9.375 9.375 18.6272 9.375 30C9.375 41.3728 18.6272 50.625 30 50.625C33.4294 50.625 36.8259 49.7663 39.8222 48.1416C40.2778 47.895 40.4466 47.3259 40.1991 46.8713C39.9516 46.4166 39.3825 46.2478 38.9287 46.4944C36.2062 47.9709 33.1191 48.7509 30.0009 48.7509C19.6622 48.7509 11.2509 40.3397 11.2509 30.0009C11.2509 19.6622 19.6613 11.25 30 11.25C40.3387 11.25 48.75 19.6613 48.75 30C48.75 35.3278 46.4719 40.4222 42.4997 43.9772C42.1134 44.3222 42.0816 44.9156 42.4266 45.3009C42.7725 45.6853 43.3641 45.7191 43.7503 45.3741C48.1191 41.4628 50.625 35.8603 50.625 30C50.625 18.6272 41.3728 9.375 30 9.375Z" fill="white"/>
<path d="M59.0625 16.875H51.6225C47.0578 9.34781 38.8303 4.6875 30 4.6875C21.1697 4.6875 12.9394 9.34875 8.37656 16.875H0.9375C0.42 16.875 0 17.2941 0 17.8125V42.1875C0 42.7059 0.42 43.125 0.9375 43.125H8.37656C12.9413 50.6522 21.1688 55.3125 30 55.3125C38.8312 55.3125 47.0606 50.6512 51.6234 43.125H59.0625C59.58 43.125 60 42.7059 60 42.1875V17.8125C60 17.2941 59.58 16.875 59.0625 16.875ZM1.875 18.75H7.32937C5.59781 22.2262 4.6875 26.0822 4.6875 30C4.6875 33.9178 5.59875 37.7756 7.32937 41.25H1.875V18.75ZM30 53.4375C21.6525 53.4375 13.8769 48.9478 9.70781 41.7159C7.65 38.1759 6.5625 34.1241 6.5625 30C6.5625 25.8759 7.65 21.8241 9.70875 18.2812C13.8769 11.0522 21.6516 6.5625 30 6.5625C38.3484 6.5625 46.1231 11.0522 50.2913 18.2812V18.2841C52.35 21.8241 53.4375 25.8759 53.4375 30C53.4375 34.1241 52.35 38.1759 50.2913 41.7188C46.1231 48.9478 38.3484 53.4375 30 53.4375ZM58.125 41.25H52.6706C54.4022 37.7738 55.3125 33.9178 55.3125 30C55.3125 26.0822 54.4022 22.2253 52.6706 18.75H58.125V41.25Z" fill="white"/>
<path d="M43.125 27.1875C43.6425 27.1875 44.0625 26.7684 44.0625 26.25V20.625C44.0625 20.1066 43.6425 19.6875 43.125 19.6875H16.875C16.3575 19.6875 15.9375 20.1066 15.9375 20.625V26.25C15.9375 26.7684 16.3575 27.1875 16.875 27.1875H43.125ZM30.9375 21.5625H35.625V25.3125H30.9375V21.5625ZM29.0625 25.3125H24.375V21.5625H29.0625V25.3125ZM42.1875 25.3125H37.5V21.5625H42.1875V25.3125ZM17.8125 21.5625H22.5V25.3125H17.8125V21.5625Z" fill="white"/>
<path d="M29.2387 30.39L24.9197 36.3966C24.2569 37.3106 23.9062 38.3784 23.9062 39.4875C23.9062 40.9613 24.5719 42.36 25.7841 43.4288C26.9466 44.4422 28.4437 45 30 45C33.3028 45 36.0938 42.4762 36.0938 39.4875C36.0938 38.3784 35.7431 37.3106 35.0831 36.3994L30.7613 30.39C30.4088 29.9016 29.5912 29.9016 29.2387 30.39ZM34.2188 39.4875C34.2188 41.4244 32.2472 43.125 30 43.125C28.9125 43.125 27.825 42.72 27.0197 42.0188C26.2209 41.3147 25.7812 40.4156 25.7812 39.4875C25.7812 38.7769 26.0081 38.0888 26.4394 37.4944L30 32.5434L33.5625 37.4972C33.9919 38.0888 34.2188 38.7769 34.2188 39.4875Z" fill="white"/>
<path d="M40.7812 36.5625C42.5906 36.5625 44.0625 35.0906 44.0625 33.2812C44.0625 31.4719 42.5906 30 40.7812 30C38.9719 30 37.5 31.4719 37.5 33.2812C37.5 35.0906 38.9719 36.5625 40.7812 36.5625ZM40.7812 31.875C41.5566 31.875 42.1875 32.5059 42.1875 33.2812C42.1875 34.0566 41.5566 34.6875 40.7812 34.6875C40.0059 34.6875 39.375 34.0566 39.375 33.2812C39.375 32.5059 40.0059 31.875 40.7812 31.875Z" fill="white"/>
<path d="M15.9375 33.2812C15.9375 35.0906 17.4094 36.5625 19.2188 36.5625C21.0281 36.5625 22.5 35.0906 22.5 33.2812C22.5 31.4719 21.0281 30 19.2188 30C17.4094 30 15.9375 31.4719 15.9375 33.2812ZM20.625 33.2812C20.625 34.0566 19.9941 34.6875 19.2188 34.6875C18.4434 34.6875 17.8125 34.0566 17.8125 33.2812C17.8125 32.5059 18.4434 31.875 19.2188 31.875C19.9941 31.875 20.625 32.5059 20.625 33.2812Z" fill="white"/>
<path d="M32.8125 16.875C33.33 16.875 33.75 16.4559 33.75 15.9375C33.75 15.4191 33.33 15 32.8125 15H27.1875C26.67 15 26.25 15.4191 26.25 15.9375C26.25 16.4559 26.67 16.875 27.1875 16.875H32.8125Z" fill="white"/>
<path d="M30 41.25C30.7767 41.25 31.4062 40.6204 31.4062 39.8438C31.4062 39.0671 30.7767 38.4375 30 38.4375C29.2233 38.4375 28.5938 39.0671 28.5938 39.8438C28.5938 40.6204 29.2233 41.25 30 41.25Z" fill="white"/>
</g>
<defs>
<clipPath id="clip0_834_1759">
<rect width="60" height="60" fill="white"/>
</clipPath>
</defs>
</svg>
