<svg width="113" height="114" viewBox="0 0 113 114" fill="none" xmlns="http://www.w3.org/2000/svg">
<path d="M56.5 25.65C39.365 25.65 25.425 39.7133 25.425 57C25.425 74.2867 39.365 88.35 56.5 88.35C61.667 88.35 66.7845 87.0447 71.2988 84.5752C71.9853 84.2004 72.2395 83.3354 71.8666 82.6443C71.4937 81.9532 70.6363 81.6967 69.9527 82.0714C65.8508 84.3158 61.1994 85.5014 56.5015 85.5014C40.9244 85.5014 28.2515 72.7163 28.2515 57.0014C28.2515 41.2865 40.923 28.5 56.5 28.5C72.0771 28.5 84.75 41.2851 84.75 57C84.75 65.0983 81.3177 72.8417 75.3329 78.2453C74.751 78.7697 74.7029 79.6717 75.2227 80.2574C75.7439 80.8417 76.6352 80.893 77.2172 80.3686C83.7994 74.4235 87.5751 65.9077 87.5751 57C87.5751 39.7133 73.6351 25.65 56.5 25.65Z" fill="#275AAE"/>
<path d="M100.288 37.05H89.0779C82.2005 25.6087 69.8044 18.525 56.5 18.525C43.1957 18.525 30.7954 25.6101 23.9207 37.05H12.7125C11.9328 37.05 11.3 37.687 11.3 38.475V75.525C11.3 76.313 11.9328 76.95 12.7125 76.95H23.9207C30.7982 88.3913 43.1943 95.475 56.5 95.475C69.8058 95.475 82.2047 88.3899 89.0794 76.95H100.288C101.067 76.95 101.7 76.313 101.7 75.525V38.475C101.7 37.687 101.067 37.05 100.288 37.05ZM14.125 39.9H22.343C19.7341 45.1839 18.3625 51.0449 18.3625 57C18.3625 62.9551 19.7355 68.8189 22.343 74.1H14.125V39.9ZM56.5 92.625C43.9231 92.625 32.2079 85.8007 25.9265 74.8082C22.826 69.4274 21.1875 63.2686 21.1875 57C21.1875 50.7314 22.826 44.5726 25.9279 39.1875C32.2079 28.1993 43.9217 21.375 56.5 21.375C69.0784 21.375 80.7922 28.1993 87.0722 39.1875V39.1918C90.1741 44.5726 91.8126 50.7314 91.8126 57C91.8126 63.2686 90.1741 69.4274 87.0722 74.8125C80.7922 85.8007 69.0784 92.625 56.5 92.625ZM98.8751 74.1H90.6571C93.266 68.8161 94.6376 62.9551 94.6376 57C94.6376 51.0449 93.266 45.1825 90.6571 39.9H98.8751V74.1Z" fill="#275AAE"/>
<path d="M76.275 52.725C77.0547 52.725 77.6875 52.088 77.6875 51.3V42.75C77.6875 41.962 77.0547 41.325 76.275 41.325H36.725C35.9453 41.325 35.3125 41.962 35.3125 42.75V51.3C35.3125 52.088 35.9453 52.725 36.725 52.725H76.275ZM57.9125 44.175H64.975V49.875H57.9125V44.175ZM55.0875 49.875H48.025V44.175H55.0875V49.875ZM74.8625 49.875H67.8V44.175H74.8625V49.875ZM38.1375 44.175H45.2V49.875H38.1375V44.175Z" fill="#275AAE"/>
<path d="M55.3531 57.5929L48.8458 66.7229C47.8471 68.1122 47.3188 69.7353 47.3188 71.4211C47.3188 73.6612 48.3217 75.7873 50.1481 77.4118C51.8996 78.9522 54.1553 79.8001 56.5001 79.8001C61.4763 79.8001 65.6813 75.964 65.6813 71.4211C65.6813 69.7353 65.1531 68.1122 64.1587 66.7271L57.647 57.5929C57.1159 56.8505 55.8842 56.8505 55.3531 57.5929ZM62.8563 71.4211C62.8563 74.3651 59.8859 76.9501 56.5001 76.9501C54.8616 76.9501 53.2231 76.3345 52.0098 75.2686C50.8063 74.1984 50.1438 72.8318 50.1438 71.4211C50.1438 70.3409 50.4857 69.295 51.1354 68.3915L56.5001 60.8661L61.8676 68.3958C62.5145 69.295 62.8563 70.3409 62.8563 71.4211Z" fill="#275AAE"/>
<path d="M72.7438 66.975C75.4699 66.975 77.6875 64.7378 77.6875 61.9875C77.6875 59.2373 75.4699 57 72.7438 57C70.0177 57 67.8 59.2373 67.8 61.9875C67.8 64.7378 70.0177 66.975 72.7438 66.975ZM72.7438 59.85C73.9119 59.85 74.8625 60.809 74.8625 61.9875C74.8625 63.166 73.9119 64.125 72.7438 64.125C71.5757 64.125 70.625 63.166 70.625 61.9875C70.625 60.809 71.5757 59.85 72.7438 59.85Z" fill="#275AAE"/>
<path d="M35.3125 61.9875C35.3125 64.7378 37.5301 66.975 40.2562 66.975C42.9824 66.975 45.2 64.7378 45.2 61.9875C45.2 59.2373 42.9824 57 40.2562 57C37.5301 57 35.3125 59.2373 35.3125 61.9875ZM42.375 61.9875C42.375 63.166 41.4244 64.125 40.2562 64.125C39.0881 64.125 38.1375 63.166 38.1375 61.9875C38.1375 60.809 39.0881 59.85 40.2562 59.85C41.4244 59.85 42.375 60.809 42.375 61.9875Z" fill="#275AAE"/>
<path d="M60.7376 37.05C61.5173 37.05 62.1501 36.413 62.1501 35.625C62.1501 34.837 61.5173 34.2 60.7376 34.2H52.2626C51.4829 34.2 50.8501 34.837 50.8501 35.625C50.8501 36.413 51.4829 37.05 52.2626 37.05H60.7376Z" fill="#275AAE"/>
<path d="M56.5001 74.1C57.6703 74.1 58.6188 73.143 58.6188 71.9625C58.6188 70.782 57.6703 69.825 56.5001 69.825C55.3299 69.825 54.3813 70.782 54.3813 71.9625C54.3813 73.143 55.3299 74.1 56.5001 74.1Z" fill="#275AAE"/>
</svg>
