<svg width="99" height="99" viewBox="0 0 99 99" fill="none" xmlns="http://www.w3.org/2000/svg">
<g clip-path="url(#clip0_834_1641)">
<path d="M13.2002 88.9515V92.4C13.2002 94.1504 13.8956 95.8292 15.1333 97.0669C16.371 98.3046 18.0498 99 19.8002 99H79.2002C80.9506 99 82.6294 98.3046 83.8671 97.0669C85.1048 95.8292 85.8002 94.1504 85.8002 92.4V88.9515C88.1045 88.56 90.1963 87.3666 91.7059 85.5823C93.2155 83.7979 94.0459 81.5373 94.0502 79.2V9.9C94.0476 7.27516 93.0037 4.75858 91.1477 2.90254C89.2916 1.0465 86.775 0.00262091 84.1502 0L14.8502 0C12.2254 0.00262091 9.70878 1.0465 7.85273 2.90254C5.99669 4.75858 4.95282 7.27516 4.9502 9.9V79.2C4.95453 81.5373 5.78488 83.7979 7.29451 85.5823C8.80415 87.3666 10.8959 88.56 13.2002 88.9515ZM82.5002 92.4C82.5002 93.2752 82.1525 94.1146 81.5337 94.7335C80.9148 95.3523 80.0754 95.7 79.2002 95.7H19.8002C18.925 95.7 18.0856 95.3523 17.4667 94.7335C16.8479 94.1146 16.5002 93.2752 16.5002 92.4V89.1H82.5002V92.4ZM8.2502 9.9C8.2502 8.14957 8.94555 6.47084 10.1833 5.2331C11.421 3.99536 13.0998 3.3 14.8502 3.3H84.1502C85.9006 3.3 87.5794 3.99536 88.8171 5.2331C90.0548 6.47084 90.7502 8.14957 90.7502 9.9V79.2C90.7502 80.9504 90.0548 82.6292 88.8171 83.8669C87.5794 85.1046 85.9006 85.8 84.1502 85.8H14.8502C13.0998 85.8 11.421 85.1046 10.1833 83.8669C8.94555 82.6292 8.2502 80.9504 8.2502 79.2V9.9Z" fill="#275AAE"/>
<path d="M16.5002 80.85H82.5002C83.3754 80.85 84.2148 80.5023 84.8337 79.8835C85.4525 79.2646 85.8002 78.4252 85.8002 77.55V11.55C85.8002 10.6748 85.4525 9.83542 84.8337 9.21655C84.2148 8.59768 83.3754 8.25 82.5002 8.25H16.5002C15.625 8.25 14.7856 8.59768 14.1667 9.21655C13.5479 9.83542 13.2002 10.6748 13.2002 11.55V77.55C13.2002 78.4252 13.5479 79.2646 14.1667 79.8835C14.7856 80.5023 15.625 80.85 16.5002 80.85ZM16.5002 77.55V62.7H82.5002V77.55H16.5002ZM82.5002 11.55V59.4H16.5002V11.55H82.5002Z" fill="#275AAE"/>
<path d="M24.7503 42.9H74.2503C75.5631 42.9 76.8222 42.3785 77.7505 41.4502C78.6788 40.5219 79.2003 39.2628 79.2003 37.95V21.45C79.2003 20.1372 78.6788 18.8781 77.7505 17.9498C76.8222 17.0215 75.5631 16.5 74.2503 16.5H24.7503C23.4375 16.5 22.1784 17.0215 21.2501 17.9498C20.3218 18.8781 19.8003 20.1372 19.8003 21.45V37.95C19.8003 39.2628 20.3218 40.5219 21.2501 41.4502C22.1784 42.3785 23.4375 42.9 24.7503 42.9ZM23.1003 21.45C23.1003 21.0124 23.2741 20.5927 23.5836 20.2833C23.893 19.9738 24.3127 19.8 24.7503 19.8H74.2503C74.6879 19.8 75.1076 19.9738 75.417 20.2833C75.7265 20.5927 75.9003 21.0124 75.9003 21.45V37.95C75.9003 38.3876 75.7265 38.8073 75.417 39.1167C75.1076 39.4262 74.6879 39.6 74.2503 39.6H24.7503C24.3127 39.6 23.893 39.4262 23.5836 39.1167C23.2741 38.8073 23.1003 38.3876 23.1003 37.95V21.45Z" fill="#275AAE"/>
<path d="M33.0003 36.3C34.3131 36.3 35.5722 35.7785 36.5005 34.8502C37.4288 33.9219 37.9503 32.6628 37.9503 31.35V28.05C37.9503 26.7372 37.4288 25.4781 36.5005 24.5498C35.5722 23.6215 34.3131 23.1 33.0003 23.1C31.6875 23.1 30.4284 23.6215 29.5001 24.5498C28.5718 25.4781 28.0503 26.7372 28.0503 28.05V31.35C28.0503 32.6628 28.5718 33.9219 29.5001 34.8502C30.4284 35.7785 31.6875 36.3 33.0003 36.3ZM31.3503 28.05C31.3503 27.6124 31.5241 27.1927 31.8336 26.8833C32.143 26.5738 32.5627 26.4 33.0003 26.4C33.4379 26.4 33.8576 26.5738 34.167 26.8833C34.4765 27.1927 34.6503 27.6124 34.6503 28.05V31.35C34.6503 31.7876 34.4765 32.2073 34.167 32.5167C33.8576 32.8262 33.4379 33 33.0003 33C32.5627 33 32.143 32.8262 31.8336 32.5167C31.5241 32.2073 31.3503 31.7876 31.3503 31.35V28.05ZM42.9003 36.3C43.3379 36.3 43.7576 36.1262 44.067 35.8167C44.3765 35.5073 44.5503 35.0876 44.5503 34.65V24.75C44.5503 24.3124 44.3765 23.8927 44.067 23.5833C43.7576 23.2738 43.3379 23.1 42.9003 23.1C42.4627 23.1 42.043 23.2738 41.7336 23.5833C41.4241 23.8927 41.2503 24.3124 41.2503 24.75V34.65C41.2503 35.0876 41.4241 35.5073 41.7336 35.8167C42.043 36.1262 42.4627 36.3 42.9003 36.3ZM33.0003 66C32.5627 66 32.143 66.1739 31.8336 66.4833C31.5241 66.7927 31.3503 67.2124 31.3503 67.65V72.6C31.3503 73.0376 31.5241 73.4573 31.8336 73.7667C32.143 74.0762 32.5627 74.25 33.0003 74.25C33.4379 74.25 33.8576 74.0762 34.167 73.7667C34.4765 73.4573 34.6503 73.0376 34.6503 72.6V67.65C34.6503 67.2124 34.4765 66.7927 34.167 66.4833C33.8576 66.1739 33.4379 66 33.0003 66ZM39.6003 66C39.1627 66 38.743 66.1739 38.4336 66.4833C38.1241 66.7927 37.9503 67.2124 37.9503 67.65V70.95C37.9503 71.3876 38.1241 71.8073 38.4336 72.1167C38.743 72.4262 39.1627 72.6 39.6003 72.6C40.0379 72.6 40.4576 72.4262 40.767 72.1167C41.0765 71.8073 41.2503 71.3876 41.2503 70.95V67.65C41.2503 67.2124 41.0765 66.7927 40.767 66.4833C40.4576 66.1739 40.0379 66 39.6003 66ZM46.2003 66C45.7627 66 45.343 66.1739 45.0336 66.4833C44.7241 66.7927 44.5503 67.2124 44.5503 67.65V70.95C44.5503 71.3876 44.7241 71.8073 45.0336 72.1167C45.343 72.4262 45.7627 72.6 46.2003 72.6C46.6379 72.6 47.0576 72.4262 47.367 72.1167C47.6765 71.8073 47.8503 71.3876 47.8503 70.95V67.65C47.8503 67.2124 47.6765 66.7927 47.367 66.4833C47.0576 66.1739 46.6379 66 46.2003 66ZM52.8003 66C52.3627 66 51.943 66.1739 51.6336 66.4833C51.3241 66.7927 51.1503 67.2124 51.1503 67.65V70.95C51.1503 71.3876 51.3241 71.8073 51.6336 72.1167C51.943 72.4262 52.3627 72.6 52.8003 72.6C53.2379 72.6 53.6576 72.4262 53.967 72.1167C54.2765 71.8073 54.4503 71.3876 54.4503 70.95V67.65C54.4503 67.2124 54.2765 66.7927 53.967 66.4833C53.6576 66.1739 53.2379 66 52.8003 66ZM59.4003 66C58.9627 66 58.543 66.1739 58.2336 66.4833C57.9241 66.7927 57.7503 67.2124 57.7503 67.65V70.95C57.7503 71.3876 57.9241 71.8073 58.2336 72.1167C58.543 72.4262 58.9627 72.6 59.4003 72.6C59.8379 72.6 60.2576 72.4262 60.567 72.1167C60.8765 71.8073 61.0503 71.3876 61.0503 70.95V67.65C61.0503 67.2124 60.8765 66.7927 60.567 66.4833C60.2576 66.1739 59.8379 66 59.4003 66ZM66.0003 66C65.5627 66 65.143 66.1739 64.8336 66.4833C64.5241 66.7927 64.3503 67.2124 64.3503 67.65V72.6C64.3503 73.0376 64.5241 73.4573 64.8336 73.7667C65.143 74.0762 65.5627 74.25 66.0003 74.25C66.4379 74.25 66.8576 74.0762 67.167 73.7667C67.4765 73.4573 67.6503 73.0376 67.6503 72.6V67.65C67.6503 67.2124 67.4765 66.7927 67.167 66.4833C66.8576 66.1739 66.4379 66 66.0003 66ZM50.9044 31.5002C49.4013 32.2344 47.8503 33 47.8503 34.65C47.8503 35.0876 48.0241 35.5073 48.3336 35.8167C48.643 36.1262 49.0627 36.3 49.5003 36.3H56.1003C56.5379 36.3 56.9576 36.1262 57.267 35.8167C57.5765 35.5073 57.7503 35.0876 57.7503 34.65C57.7503 34.2124 57.5765 33.7927 57.267 33.4833C56.9576 33.1738 56.5379 33 56.1003 33H54.9453C55.7897 32.4755 56.4889 31.7475 56.979 30.8827C57.4691 30.0179 57.7343 29.0439 57.7503 28.05C57.7503 26.7372 57.2288 25.4781 56.3005 24.5498C55.3722 23.6215 54.1131 23.1 52.8003 23.1C51.4875 23.1 50.2284 23.6215 49.3001 24.5498C48.3718 25.4781 47.8503 26.7372 47.8503 28.05C47.8503 28.4876 48.0241 28.9073 48.3336 29.2167C48.643 29.5262 49.0627 29.7 49.5003 29.7C49.9379 29.7 50.3576 29.5262 50.667 29.2167C50.9765 28.9073 51.1503 28.4876 51.1503 28.05C51.1503 27.6124 51.3241 27.1927 51.6336 26.8833C51.943 26.5738 52.3627 26.4 52.8003 26.4C53.2379 26.4 53.6576 26.5738 53.967 26.8833C54.2765 27.1927 54.4503 27.6124 54.4503 28.05C54.4503 29.6406 52.9801 30.4838 50.9044 31.5002ZM64.1045 31.5002C62.6013 32.2344 61.0503 33 61.0503 34.65C61.0503 35.0876 61.2241 35.5073 61.5336 35.8167C61.843 36.1262 62.2627 36.3 62.7003 36.3H69.3003C69.7379 36.3 70.1576 36.1262 70.467 35.8167C70.7765 35.5073 70.9503 35.0876 70.9503 34.65C70.9503 34.2124 70.7765 33.7927 70.467 33.4833C70.1576 33.1738 69.7379 33 69.3003 33H68.1453C68.9897 32.4755 69.6889 31.7475 70.179 30.8827C70.6691 30.0179 70.9343 29.0439 70.9503 28.05C70.9503 26.7372 70.4288 25.4781 69.5005 24.5498C68.5722 23.6215 67.3131 23.1 66.0003 23.1C64.6875 23.1 63.4284 23.6215 62.5001 24.5498C61.5718 25.4781 61.0503 26.7372 61.0503 28.05C61.0503 28.4876 61.2241 28.9073 61.5336 29.2167C61.843 29.5262 62.2627 29.7 62.7003 29.7C63.1379 29.7 63.5576 29.5262 63.867 29.2167C64.1765 28.9073 64.3503 28.4876 64.3503 28.05C64.3503 27.6124 64.5241 27.1927 64.8336 26.8833C65.143 26.5738 65.5627 26.4 66.0003 26.4C66.4379 26.4 66.8576 26.5738 67.167 26.8833C67.4765 27.1927 67.6503 27.6124 67.6503 28.05C67.6503 29.6406 66.1801 30.4838 64.1045 31.5002Z" fill="#275AAE"/>
</g>
<defs>
<clipPath id="clip0_834_1641">
<rect width="99" height="99" fill="white"/>
</clipPath>
</defs>
</svg>
