<svg width="50" height="50" viewBox="0 0 50 50" fill="none" xmlns="http://www.w3.org/2000/svg">
<g clip-path="url(#clip0_877_80)">
<path d="M12.1079 21.3719H15.8997C16.3043 21.3719 16.6321 21.044 16.6321 20.6395C16.6321 20.2349 16.3043 19.907 15.8997 19.907H12.1079C11.7033 19.907 11.3755 20.2349 11.3755 20.6395C11.3755 21.044 11.7034 21.3719 12.1079 21.3719ZM15.8998 27.4906H12.108C11.7034 27.4906 11.3756 27.8185 11.3756 28.223C11.3756 28.6276 11.7034 28.9555 12.108 28.9555H15.8998C16.3044 28.9555 16.6322 28.6276 16.6322 28.223C16.6322 27.8185 16.3043 27.4906 15.8998 27.4906ZM17.7957 23.6988H12.108C11.7034 23.6988 11.3756 24.0267 11.3756 24.4312C11.3756 24.8358 11.7034 25.1637 12.108 25.1637H17.7957C18.2003 25.1637 18.5281 24.8358 18.5281 24.4312C18.5281 24.0267 18.2002 23.6988 17.7957 23.6988ZM12.1079 9.04844H19.6915C20.0961 9.04844 20.4239 8.7206 20.4239 8.31602C20.4239 7.91143 20.0961 7.58359 19.6915 7.58359H12.1079C11.7033 7.58359 11.3755 7.91143 11.3755 8.31602C11.3755 8.7206 11.7034 9.04844 12.1079 9.04844ZM12.1079 16.6321H15.8997C16.3043 16.6321 16.6321 16.3043 16.6321 15.8997C16.6321 15.4951 16.3043 15.1673 15.8997 15.1673H12.1079C11.7033 15.1673 11.3755 15.4951 11.3755 15.8997C11.3755 16.3043 11.7034 16.6321 12.1079 16.6321ZM18.7198 1.46484H43.3903C43.4475 1.46492 43.5022 1.48765 43.5426 1.52806C43.583 1.56846 43.6058 1.62323 43.6059 1.68037V24.526C43.6059 24.9306 43.9337 25.2584 44.3383 25.2584C44.7429 25.2584 45.0707 24.9306 45.0707 24.526V1.68037C45.0707 0.753809 44.3169 0 43.3903 0H18.7198C18.5256 0 18.3393 0.0771656 18.2019 0.214521C18.0646 0.351877 17.9874 0.538172 17.9874 0.732422C17.9874 0.926672 18.0646 1.11297 18.2019 1.25032C18.3393 1.38768 18.5256 1.46484 18.7198 1.46484ZM12.1079 11.8923H24.4312C24.8358 11.8923 25.1637 11.5645 25.1637 11.1599C25.1637 10.7553 24.8358 10.4274 24.4313 10.4274H12.1079C11.7033 10.4274 11.3755 10.7553 11.3755 11.1599C11.3755 11.5645 11.7033 11.8923 12.1079 11.8923ZM24.4313 19.907H22.5354C22.1309 19.907 21.803 20.2349 21.803 20.6395C21.803 21.044 22.1309 21.3719 22.5354 21.3719H24.4313C24.8359 21.3719 25.1638 21.044 25.1638 20.6395C25.1638 20.2349 24.8358 19.907 24.4313 19.907ZM33.9108 25.1637H35.8067C36.2113 25.1637 36.5392 24.8358 36.5392 24.4312C36.5392 24.0267 36.2113 23.6988 35.8067 23.6988H33.9108C33.5062 23.6988 33.1784 24.0267 33.1784 24.4312C33.1784 24.8358 33.5063 25.1637 33.9108 25.1637ZM33.9108 28.9555H35.8067C36.2113 28.9555 36.5392 28.6276 36.5392 28.223C36.5392 27.8185 36.2113 27.4906 35.8067 27.4906H33.9108C33.5062 27.4906 33.1784 27.8185 33.1784 28.223C33.1784 28.6276 33.5063 28.9555 33.9108 28.9555ZM33.9108 21.3719H35.8067C36.2113 21.3719 36.5392 21.044 36.5392 20.6395C36.5392 20.2349 36.2113 19.907 35.8067 19.907H33.9108C33.5062 19.907 33.1784 20.2349 33.1784 20.6395C33.1784 21.044 33.5063 21.3719 33.9108 21.3719ZM24.4313 27.4906H22.5354C22.1309 27.4906 21.803 27.8185 21.803 28.223C21.803 28.6276 22.1309 28.9555 22.5354 28.9555H24.4313C24.8359 28.9555 25.1638 28.6276 25.1638 28.223C25.1638 27.8185 24.8358 27.4906 24.4313 27.4906Z" fill="#FD4D4D"/>
<path d="M33.9106 16.6321H35.8065C36.2111 16.6321 36.539 16.3042 36.539 15.8997C36.539 15.4951 36.2111 15.1672 35.8065 15.1672H33.9106C33.5061 15.1672 33.1782 15.4951 33.1782 15.8997C33.1782 16.3042 33.5062 16.6321 33.9106 16.6321Z" fill="#FD4D4D"/>
<path d="M48.3196 32.2305H45.0706V27.3384C45.0706 26.9338 44.7428 26.606 44.3382 26.606C43.9336 26.606 43.6058 26.9338 43.6058 27.3384V32.2305H41.7165V12.8931C41.7165 12.4442 41.5417 12.0223 41.2243 11.7048L32.8556 3.33613C32.6999 3.17956 32.5147 3.05542 32.3108 2.97092C32.1068 2.88642 31.8881 2.84323 31.6673 2.84385H10.9807V1.68037C10.9807 1.62323 11.0035 1.56846 11.0439 1.52806C11.0843 1.48765 11.1391 1.46492 11.1962 1.46484H16.0892C16.4938 1.46484 16.8216 1.13691 16.8216 0.732422C16.8216 0.32793 16.4938 0 16.0892 0H11.1962C10.2696 0 9.51582 0.753809 9.51592 1.68037V2.84385H7.78662C6.89062 2.84385 6.16172 3.57275 6.16172 4.46865V17.004C2.74111 17.1402 0 19.9642 0 23.4176V36.7546C0 40.208 2.74111 43.0319 6.16162 43.1682V48.3751C6.16162 49.2711 6.89053 50 7.78652 50H12.2659C12.6705 50 12.9983 49.6722 12.9983 49.2676C12.9983 48.863 12.6705 48.5352 12.2659 48.5352H7.78662C7.74419 48.5351 7.70351 48.5182 7.6735 48.4882C7.64349 48.4582 7.62661 48.4175 7.62656 48.3751V43.1747H40.2517V48.3751C40.2517 48.4634 40.1798 48.5352 40.0916 48.5352H14.9832C14.5786 48.5352 14.2508 48.863 14.2508 49.2676C14.2508 49.6722 14.5786 50 14.9832 50H40.0916C40.9876 50 41.7165 49.2711 41.7165 48.3751V47.1562H43.3902C44.3168 47.1562 45.0706 46.4023 45.0706 45.4758V43.1747H48.3196C49.2462 43.1747 50 42.4209 50 41.4943V33.9107C50 32.9842 49.2462 32.2304 48.3196 32.2305ZM32.7925 5.34463L39.2158 11.768H33.008C32.9509 11.7679 32.8961 11.7452 32.8557 11.7048C32.8153 11.6644 32.7926 11.6096 32.7925 11.5524V5.34463ZM1.46484 23.4176C1.46484 20.7719 3.54902 18.6039 6.16172 18.469V26.4827C5.10098 26.5253 4.06641 26.8289 3.15469 27.3684C3.01639 27.4501 2.90881 27.5751 2.84853 27.724C2.78825 27.873 2.77861 28.0376 2.8211 28.1925C2.86359 28.3475 2.95585 28.4841 3.08366 28.5815C3.21148 28.6788 3.36775 28.7315 3.52842 28.7313C3.65943 28.7313 3.78803 28.696 3.90068 28.6291C4.58842 28.2233 5.36421 27.99 6.16172 27.9492V32.2236C3.54902 32.0888 1.46484 29.9208 1.46484 27.2751V23.4176ZM3.7918 40.9525C2.39551 40.0752 1.46484 38.522 1.46484 36.7547V31.3529C2.0942 32.1156 2.89032 32.7234 3.7918 33.1297V40.9525ZM13.2713 41.7099H9.99639V37.1338C9.99639 36.7292 9.66855 36.4014 9.26396 36.4014C9.16778 36.4014 9.07253 36.4203 8.98366 36.4571C8.8948 36.4939 8.81405 36.5478 8.74604 36.6159C8.67802 36.6839 8.62407 36.7646 8.58727 36.8535C8.55047 36.9424 8.53153 37.0376 8.53154 37.1338V41.7099H6.42012C6.01934 41.7099 5.63008 41.6608 5.25664 41.5706V33.588C5.64041 33.659 6.02984 33.6949 6.42012 33.6952H13.2713V41.7099ZM22.7509 41.7099H19.476V37.1338C19.476 36.7292 19.1481 36.4014 18.7436 36.4014C18.339 36.4014 18.0111 36.7292 18.0111 37.1338V41.7099H14.7362V33.6952H22.7509V41.7099ZM32.2304 41.7099H28.9555V37.1338C28.9555 36.7292 28.6276 36.4014 28.223 36.4014C27.8185 36.4014 27.4906 36.7292 27.4906 37.1338V41.7099H24.2157V33.6952H32.2304V41.7099ZM39.8751 41.7099H37.4871V37.1338C37.4871 36.7292 37.1593 36.4014 36.7547 36.4014C36.3501 36.4014 36.0223 36.7292 36.0223 37.1338V41.7099H33.6953V33.6952H39.8751C39.3377 34.9474 39.0557 36.3208 39.0557 37.7025C39.0557 39.0843 39.3377 40.4577 39.8751 41.7099ZM40.2517 32.2304H7.62646V4.46865C7.62646 4.38047 7.69834 4.30869 7.78652 4.30869H31.3276V11.5524C31.3276 12.479 32.0814 13.2328 33.008 13.2328H40.2517V32.2304ZM43.6058 45.4758C43.6057 45.5329 43.583 45.5877 43.5425 45.6281C43.5021 45.6685 43.4474 45.6912 43.3902 45.6913H41.7165V43.1747H43.6058V45.4758ZM48.5352 41.4943C48.5351 41.5515 48.5123 41.6062 48.4719 41.6467C48.4315 41.6871 48.3768 41.7098 48.3196 41.7099H41.628C41.5879 41.71 41.5486 41.699 41.5144 41.6781C41.4802 41.6571 41.4526 41.627 41.4346 41.5911C40.8366 40.4027 40.5205 39.0581 40.5205 37.7025C40.5205 36.347 40.8366 35.0023 41.4347 33.814C41.4526 33.7781 41.4802 33.748 41.5144 33.727C41.5486 33.706 41.5879 33.695 41.628 33.6952H48.3196C48.3768 33.6953 48.4315 33.718 48.4719 33.7584C48.5123 33.7988 48.5351 33.8536 48.5352 33.9107V41.4943Z" fill="#FD4D4D"/>
<path d="M44.5278 35.5481C43.3398 35.5481 42.3734 36.5145 42.3734 37.7025C42.3734 38.8905 43.3398 39.8569 44.5278 39.8569C45.7158 39.8569 46.6822 38.8904 46.6822 37.7025C46.6822 36.5146 45.7158 35.5481 44.5278 35.5481ZM44.5278 38.392C44.345 38.3919 44.1697 38.3192 44.0404 38.1899C43.9111 38.0606 43.8384 37.8853 43.8382 37.7025C43.8384 37.5197 43.9111 37.3444 44.0404 37.2151C44.1697 37.0858 44.345 37.0131 44.5278 37.0129C44.9081 37.0129 45.2173 37.3222 45.2173 37.7025C45.2173 38.0828 44.9081 38.392 44.5278 38.392ZM24.4313 15.1672H22.5354C22.1308 15.1672 21.803 15.4951 21.803 15.8997C21.803 16.3042 22.1308 16.6321 22.5354 16.6321H24.4313C24.8359 16.6321 25.1637 16.3042 25.1637 15.8997C25.1637 15.4951 24.8358 15.1672 24.4313 15.1672ZM30.119 27.4906H28.2231C27.8185 27.4906 27.4907 27.8184 27.4907 28.223C27.4907 28.6276 27.8185 28.9554 28.2231 28.9554H30.119C30.5236 28.9554 30.8514 28.6276 30.8514 28.223C30.8514 27.8184 30.5236 27.4906 30.119 27.4906ZM24.4313 23.6988H22.5354C22.1308 23.6988 21.803 24.0266 21.803 24.4312C21.803 24.8358 22.1308 25.1636 22.5354 25.1636H24.4313C24.8359 25.1636 25.1637 24.8358 25.1637 24.4312C25.1637 24.0266 24.8358 23.6988 24.4313 23.6988ZM30.119 23.6988H28.2231C27.8185 23.6988 27.4907 24.0266 27.4907 24.4312C27.4907 24.8358 27.8185 25.1636 28.2231 25.1636H30.119C30.5236 25.1636 30.8514 24.8358 30.8514 24.4312C30.8514 24.0266 30.5236 23.6988 30.119 23.6988ZM30.119 15.1672H28.2231C27.8185 15.1672 27.4907 15.4951 27.4907 15.8997C27.4907 16.3042 27.8185 16.6321 28.2231 16.6321H30.119C30.5236 16.6321 30.8514 16.3042 30.8514 15.8997C30.8514 15.4951 30.5236 15.1672 30.119 15.1672ZM30.119 19.907H28.2231C27.8185 19.907 27.4907 20.2348 27.4907 20.6394C27.4907 21.044 27.8185 21.3718 28.2231 21.3718H30.119C30.5236 21.3718 30.8514 21.044 30.8514 20.6394C30.8514 20.2348 30.5236 19.907 30.119 19.907Z" fill="#FD4D4D"/>
</g>
<defs>
<clipPath id="clip0_877_80">
<rect width="50" height="50" fill="white"/>
</clipPath>
</defs>
</svg>
