<svg width="60" height="60" viewBox="0 0 60 60" fill="none" xmlns="http://www.w3.org/2000/svg">
<g clip-path="url(#clip0_834_1774)">
<path d="M53.42 13.004C53.4179 12.9823 53.4142 12.9612 53.4105 12.94C53.4092 12.933 53.4087 12.9257 53.4072 12.9187C53.4021 12.8937 53.3959 12.8689 53.3886 12.8445C53.3878 12.8415 53.3872 12.8384 53.3862 12.8354C53.3786 12.8106 53.3698 12.7861 53.3599 12.762L53.3572 12.7545C53.3476 12.7318 53.3371 12.7095 53.3256 12.6876C53.3238 12.684 53.3222 12.6802 53.3204 12.6766C53.3093 12.6564 53.2975 12.6367 53.285 12.6174C53.2818 12.6124 53.2793 12.6073 53.276 12.6025C53.2637 12.5845 53.2508 12.5671 53.2372 12.5501C53.2329 12.5445 53.229 12.5386 53.2244 12.5331C53.2076 12.5128 53.19 12.4933 53.1715 12.4746L53.1665 12.4692L40.9552 0.257847C40.9531 0.255734 40.9507 0.253973 40.9485 0.251859C40.9302 0.233815 40.9112 0.216577 40.8914 0.200196C40.885 0.194912 40.8782 0.19045 40.8716 0.185401C40.8554 0.172838 40.8393 0.160274 40.8223 0.148885C40.8163 0.144892 40.81 0.141605 40.804 0.13773C40.7858 0.125918 40.7672 0.114795 40.7482 0.104384C40.744 0.102153 40.7395 0.100274 40.7352 0.0981605C40.7139 0.0870568 40.6922 0.0767945 40.6701 0.0673973C40.6673 0.0662231 40.6644 0.0654012 40.6614 0.064227C40.6377 0.0545478 40.6136 0.0458901 40.5891 0.0382779L40.5796 0.0358121C40.5553 0.028595 40.5307 0.0224056 40.5058 0.0172603C40.4984 0.0157339 40.4908 0.0151468 40.4833 0.0138552C40.4624 0.00993571 40.4414 0.00680238 40.4204 0.00446184C40.3912 0.00149962 40.3619 1.04458e-05 40.3325 0L11.2132 0C8.65582 0 6.5752 2.08063 6.5752 4.63796V55.362C6.5752 57.9194 8.65582 60 11.2132 60H48.7865C51.3439 60 53.4245 57.9194 53.4245 55.362V13.092C53.4245 13.0625 53.423 13.0332 53.42 13.004ZM41.2132 3.00658L50.4179 12.2114H44.0899C42.5037 12.2114 41.2132 10.9209 41.2132 9.33464V3.00658ZM48.7865 58.2387H11.2132C9.62698 58.2387 8.33645 56.9483 8.33645 55.362V4.63796C8.33645 3.05166 9.62698 1.76125 11.2132 1.76125H39.4519V9.33464C39.4519 11.892 41.5325 13.9726 44.0899 13.9726H51.6633V55.362C51.6633 56.9483 50.3727 58.2387 48.7865 58.2387Z" fill="white"/>
<path d="M45.9684 29.1194H40.3321C39.8458 29.1194 39.4515 29.5135 39.4515 30C39.4515 30.4865 39.8458 30.8806 40.3321 30.8806H45.9684C46.4547 30.8806 46.849 30.4865 46.849 30C46.849 29.5135 46.4547 29.1194 45.9684 29.1194ZM14.031 30.8806H36.5752C37.0615 30.8806 37.4558 30.4865 37.4558 30C37.4558 29.5135 37.0615 29.1194 36.5752 29.1194H14.031C13.5447 29.1194 13.1504 29.5135 13.1504 30C13.1504 30.4865 13.5447 30.8806 14.031 30.8806ZM45.9684 17.8474H22.485C21.9987 17.8474 21.6044 18.2415 21.6044 18.728C21.6044 19.2144 21.9987 19.6086 22.485 19.6086H45.9684C46.4547 19.6086 46.849 19.2144 46.849 18.728C46.849 18.2415 46.4547 17.8474 45.9684 17.8474ZM14.031 19.6086H18.728C19.2144 19.6086 19.6087 19.2144 19.6087 18.728C19.6087 18.2415 19.2144 17.8474 18.728 17.8474H14.031C13.5447 17.8474 13.1504 18.2415 13.1504 18.728C13.1504 19.2144 13.5447 19.6086 14.031 19.6086ZM45.9684 40.3914H28.121C27.6347 40.3914 27.2404 40.7856 27.2404 41.272C27.2404 41.7585 27.6347 42.1526 28.121 42.1526H45.9684C46.4547 42.1526 46.849 41.7585 46.849 41.272C46.849 40.7856 46.4547 40.3914 45.9684 40.3914ZM24.3637 40.3914H14.031C13.5447 40.3914 13.1504 40.7856 13.1504 41.272C13.1504 41.7585 13.5447 42.1526 14.031 42.1526H24.3637C24.85 42.1526 25.2443 41.7585 25.2443 41.272C25.2443 40.7856 24.85 40.3914 24.3637 40.3914ZM45.9684 23.4834H14.031C13.5447 23.4834 13.1504 23.8775 13.1504 24.364C13.1504 24.8505 13.5447 25.2446 14.031 25.2446H45.9684C46.4547 25.2446 46.849 24.8505 46.849 24.364C46.849 23.8775 46.4547 23.4834 45.9684 23.4834ZM45.9684 34.7554H14.031C13.5447 34.7554 13.1504 35.1496 13.1504 35.636C13.1504 36.1225 13.5447 36.5166 14.031 36.5166H45.9684C46.4547 36.5166 46.849 36.1225 46.849 35.636C46.849 35.1496 46.4547 34.7554 45.9684 34.7554Z" fill="white"/>
</g>
<defs>
<clipPath id="clip0_834_1774">
<rect width="60" height="60" fill="white"/>
</clipPath>
</defs>
</svg>
