<svg width="60" height="60" viewBox="0 0 60 60" fill="none" xmlns="http://www.w3.org/2000/svg">
<path d="M44.6133 25.6289C44.6133 17.5664 38.0508 11.0156 30 11.0156C21.9492 11.0156 15.3867 17.5664 15.3867 25.6289C15.3867 33.6797 21.9375 40.2422 30 40.2422C38.0625 40.2422 44.6133 33.6797 44.6133 25.6289ZM30 38.3555C22.9805 38.3555 17.2617 32.6484 17.2617 25.6172C17.2617 18.5859 22.9805 12.8906 30 12.8906C37.0195 12.8906 42.7383 18.5977 42.7383 25.6289C42.7383 32.6602 37.0195 38.3555 30 38.3555Z" fill="white"/>
<path d="M47.9062 40.7462C48.4336 40.4766 48.9023 40.1251 49.2656 39.6329C50.2148 38.3321 49.9922 36.6329 49.7812 34.9805C49.6406 33.9141 49.5 32.8008 49.7461 32.0508C49.9688 31.3477 50.7187 30.5626 51.4336 29.8126C52.5469 28.6407 53.8008 27.3165 53.8008 25.6407C53.8008 23.9649 52.5586 22.6172 51.4453 21.4454C50.7305 20.6837 49.9805 19.9102 49.7578 19.2071C49.5117 18.4571 49.6523 17.3438 49.793 16.2774C50.0039 14.6251 50.2148 12.9258 49.2773 11.6251C48.3281 10.3126 46.6289 9.99615 44.9883 9.67975C43.9336 9.48053 42.8437 9.28131 42.2227 8.82428C41.6016 8.37897 41.0859 7.41803 40.582 6.48053C39.8203 5.07428 38.9414 3.48053 37.3828 2.9649C35.8828 2.47271 34.3477 3.19928 32.8594 3.9024C31.8633 4.37115 30.8438 4.85162 30.0234 4.85162C29.2031 4.85162 28.1836 4.37115 27.1875 3.9024C25.6992 3.19928 24.1641 2.47271 22.6641 2.9649C21.0938 3.46881 20.2734 5.00396 19.4648 6.48053C18.9609 7.40631 18.4336 8.37897 17.8242 8.82428C17.1914 9.28131 16.1133 9.49225 15.0586 9.67975C13.418 9.98443 11.7188 10.3126 10.7695 11.6251C9.82031 12.9258 10.043 14.6251 10.2539 16.2774C10.3945 17.3438 10.5352 18.4571 10.2891 19.2071C10.0664 19.9102 9.31641 20.6954 8.60156 21.4454C7.48828 22.6172 6.23438 23.9415 6.23438 25.6172C6.23438 27.293 7.5 28.6172 8.60156 29.7891C9.31641 30.5508 10.0664 31.3243 10.2891 32.0274C10.5352 32.7774 10.3945 33.8907 10.2539 34.9571C10.043 36.6094 9.83203 38.3087 10.7695 39.6094C11.1328 40.1016 11.6016 40.4649 12.1289 40.7227L7.01953 49.5704C6.83203 49.8985 6.85547 50.3087 7.08984 50.6133C7.32422 50.918 7.71094 51.0469 8.07422 50.9532L15.6211 48.9258L17.6484 56.4727C17.7422 56.836 18.0586 57.1055 18.4336 57.1641C18.4805 57.1641 18.5156 57.1758 18.5508 57.1758C18.8789 57.1758 19.1953 57.0001 19.3594 56.7071L24.1523 48.3985C25.1719 48.2813 26.2031 47.8008 27.1992 47.3321C28.1953 46.8633 29.2148 46.3829 30.0352 46.3829C30.8555 46.3829 31.875 46.8633 32.8711 47.3321C33.8672 47.8008 34.8984 48.293 35.918 48.3985L40.7109 56.7071C40.875 57.0001 41.1914 57.1758 41.5195 57.1758C41.5547 57.1758 41.6016 57.1758 41.6367 57.1641C42.0117 57.1172 42.3164 56.8477 42.4219 56.4727L44.4492 48.9258L51.9961 50.9532C52.3594 51.0469 52.7461 50.918 52.9805 50.6133C53.2148 50.3087 53.2383 49.8985 53.0508 49.5704L47.9062 40.7462ZM18.832 53.8243L17.1562 47.5547C17.0273 47.0508 16.5117 46.7579 16.0078 46.8868L9.73828 48.5626L13.9102 41.3321C14.2734 41.4141 14.6484 41.4844 15.0234 41.5547C16.0781 41.754 17.168 41.9532 17.7891 42.4102C18.4102 42.8555 18.9258 43.8165 19.4297 44.754C20.1094 46.0079 20.8711 47.4024 22.1367 48.0587L18.832 53.8243ZM30 44.5196C28.7578 44.5196 27.5391 45.0938 26.3672 45.6446C25.207 46.1954 24.0117 46.7579 23.2266 46.5001C22.3711 46.2188 21.7266 45.0235 21.0938 43.8751C20.4844 42.7618 19.8633 41.6133 18.9023 40.9102C17.9297 40.2071 16.6289 39.961 15.375 39.7266C14.0977 39.4805 12.7734 39.2344 12.2461 38.5313C11.7422 37.8399 11.9062 36.504 12.0703 35.2266C12.2344 33.9493 12.3984 32.6368 12.0234 31.4766C11.6602 30.3751 10.7695 29.4258 9.91406 28.5235C9 27.5626 8.05078 26.5665 8.05078 25.6407C8.05078 24.7149 9 23.7188 9.91406 22.7579C10.7812 21.8438 11.6719 20.9063 12.0234 19.8047C12.3984 18.6446 12.2344 17.3321 12.0703 16.0547C11.9062 14.7657 11.7422 13.4415 12.2461 12.7501C12.7617 12.0352 14.0859 11.7891 15.375 11.5547C16.6289 11.3204 17.9297 11.0743 18.9023 10.3712C19.8633 9.67975 20.4844 8.51959 21.0938 7.40631C21.7266 6.24615 22.3711 5.06256 23.2266 4.78131C24.0234 4.5235 25.2188 5.086 26.3672 5.63678C27.5391 6.18756 28.7578 6.76178 30 6.76178C31.2422 6.76178 32.4609 6.18756 33.6328 5.63678C34.793 5.086 35.9883 4.5235 36.7734 4.78131C37.6289 5.06256 38.2734 6.25787 38.9062 7.40631C39.5156 8.51959 40.1367 9.66803 41.0977 10.3712C42.0703 11.0743 43.3711 11.3204 44.625 11.5547C45.9023 11.8008 47.2266 12.0469 47.7539 12.7501C48.2578 13.4415 48.0938 14.7774 47.9297 16.0547C47.7656 17.3321 47.6016 18.6446 47.9766 19.8047C48.3398 20.9063 49.2305 21.8555 50.0859 22.7579C51 23.7188 51.9492 24.7149 51.9492 25.6407C51.9492 26.5665 51 27.5626 50.0859 28.5235C49.2187 29.4376 48.3281 30.3751 47.9766 31.4766C47.6016 32.6368 47.7656 33.9493 47.9297 35.2266C48.0938 36.5157 48.2578 37.8399 47.7539 38.5313C47.2383 39.2462 45.9141 39.4922 44.625 39.7266C43.3711 39.961 42.0703 40.2071 41.0977 40.9102C40.1367 41.6016 39.5156 42.7618 38.9062 43.8751C38.2734 45.0352 37.6289 46.2188 36.7734 46.5001C35.9766 46.7579 34.7812 46.1954 33.6328 45.6446C32.4609 45.0938 31.2422 44.5196 30 44.5196ZM43.9922 46.8868C43.4883 46.7579 42.9727 47.0508 42.8438 47.5547L41.168 53.8243L37.8516 48.0821C39.1055 47.4376 39.8438 46.0899 40.5586 44.7774C41.0625 43.8516 41.5898 42.879 42.1992 42.4337C42.832 41.9766 43.9102 41.7657 44.9648 41.5782C45.3398 41.5079 45.7148 41.4376 46.0781 41.3555L50.25 48.586L43.9922 46.8868Z" fill="white"/>
<path d="M38.7891 19.8867C38.4258 19.5234 37.8281 19.5234 37.4648 19.8867L27.9727 29.3789L22.5469 23.9531C22.1836 23.5898 21.5859 23.5898 21.2227 23.9531C20.8594 24.3164 20.8594 24.9141 21.2227 25.2773L27.3164 31.3711C27.4922 31.5469 27.7266 31.6406 27.9844 31.6406C28.2422 31.6406 28.4766 31.5469 28.6523 31.3711L38.7891 21.2109C39.1523 20.8477 39.1523 20.25 38.7891 19.8867Z" fill="white"/>
</svg>
