<svg width="41" height="40" viewBox="0 0 41 40" fill="none" xmlns="http://www.w3.org/2000/svg" fill-opacity="0.5" >
<path d="M32.8761 20.3685H31.6672C31.6476 20.3698 31.6292 20.3782 31.6153 20.3921C31.6014 20.406 31.593 20.4244 31.5917 20.444V24.2796C31.3277 24.3551 31.0628 24.3929 30.761 24.3929C29.9677 24.3929 29.7788 24.1476 29.7788 23.0894V20.444C29.7774 20.4244 29.769 20.406 29.7551 20.3921C29.7413 20.3782 29.7228 20.3698 29.7032 20.3685H28.4952C28.4756 20.3698 28.4572 20.3782 28.4433 20.3921C28.4294 20.406 28.421 20.4244 28.4197 20.444V23.2218C28.4197 24.9596 29.005 25.6214 30.4966 25.6214C31.3463 25.6214 32.3094 25.3947 32.8761 25.1867C32.8948 25.1676 32.9134 25.1489 32.9134 25.1298V20.4445C32.9512 20.4067 32.9134 20.3689 32.8761 20.3689V20.3685ZM7.27033 20.3876H6.04277C6.005 20.3876 5.98633 20.4062 5.98633 20.444C5.79744 21.1996 5.401 22.4845 4.87211 23.8262L3.645 20.4254C3.62589 20.4062 3.60722 20.3876 3.58811 20.3876H2.34189C2.32277 20.3876 2.30411 20.4062 2.285 20.4254C2.26633 20.444 2.26633 20.4631 2.285 20.4818L4.13566 25.5458C3.97131 25.8919 3.79491 26.2321 3.60677 26.5658C3.47477 26.7925 3.36144 27.0191 3.24811 27.2649C3.22944 27.284 3.22944 27.3027 3.24811 27.3218C3.26722 27.3405 3.28589 27.3596 3.305 27.3596H4.64544C4.66455 27.3596 4.70233 27.3405 4.70233 27.3218C4.98107 26.7774 5.23932 26.2228 5.47655 25.6591C6.26944 23.8071 6.89255 22.0689 7.365 20.4818C7.365 20.4631 7.365 20.444 7.34588 20.4254C7.30811 20.3876 7.28944 20.3876 7.27033 20.3876ZM11.6703 24.2796C11.6697 24.2698 11.6655 24.2605 11.6586 24.2536C11.6516 24.2466 11.6424 24.2424 11.6326 24.2418H11.5757C11.2734 24.3551 10.7259 24.4307 10.3481 24.4307C9.49877 24.4307 9.10188 24.204 9.10188 22.9196C9.10188 21.88 9.23433 21.4076 10.3481 21.4076C10.6694 21.4076 10.9526 21.4454 11.3303 21.5587C11.3681 21.5587 11.3868 21.5587 11.4059 21.5209L11.8966 20.5387V20.4818C11.8959 20.472 11.8917 20.4627 11.8848 20.4558C11.8778 20.4488 11.8686 20.4446 11.8588 20.444C11.3383 20.2859 10.7978 20.2031 10.2539 20.1982C8.49789 20.1982 7.70455 21.0298 7.70455 22.9005C7.70455 24.7898 8.49789 25.64 10.2539 25.64C10.6881 25.64 11.5757 25.5458 11.9912 25.3756C12.029 25.3565 12.0477 25.3187 12.029 25.2809L11.6703 24.2796ZM23.1699 20.3876H21.9428C21.905 20.3876 21.8859 20.4062 21.8859 20.444C21.697 21.2187 21.3006 22.4845 20.7717 23.8262L19.5446 20.4254C19.5254 20.4062 19.5068 20.3876 19.4877 20.3876H18.2414C18.2228 20.3876 18.2037 20.4062 18.185 20.4254C18.1659 20.444 18.1659 20.4631 18.185 20.4818L20.0352 25.5458C19.8709 25.8919 19.6945 26.2321 19.5063 26.5658C19.3743 26.7925 19.261 27.0191 19.1477 27.2649C19.129 27.284 19.129 27.3027 19.1477 27.3218C19.1668 27.3405 19.1854 27.3596 19.2046 27.3596H20.545C20.5641 27.3596 20.6019 27.3405 20.6019 27.3218C20.8806 26.7774 21.1389 26.2228 21.3761 25.6591C22.1503 23.8071 22.7921 22.0689 23.2646 20.4818C23.2646 20.4631 23.2646 20.444 23.2454 20.4254C23.2077 20.3876 23.189 20.3876 23.1699 20.3876ZM27.7019 20.3685H24.133C24.1134 20.3698 24.095 20.3782 24.0811 20.3921C24.0672 20.406 24.0588 20.4244 24.0574 20.444V25.4134C24.0574 25.4511 24.0952 25.4889 24.133 25.4889H25.3419C25.3792 25.4889 25.4174 25.4511 25.4174 25.4134V21.5587H27.2863C27.3054 21.5587 27.3432 21.54 27.3432 21.5209C27.4943 21.1809 27.6263 20.8218 27.7774 20.4631V20.4062C27.7397 20.3876 27.721 20.3685 27.7019 20.3685Z" fill="white"/>
<path d="M8.70522 12.7351C6.96789 12.7351 6.28834 13.4906 6.28834 15.3991C6.28834 17.3453 6.96834 18.1013 8.70522 18.1013C10.4612 18.1013 11.1408 17.3453 11.1408 15.3991C11.1408 13.4906 10.4612 12.7351 8.70522 12.7351ZM8.70522 17.0053C7.91234 17.0053 7.66656 16.7973 7.66656 15.4368C7.66656 14.0013 7.931 13.8688 8.70522 13.8688C9.49856 13.8688 9.763 14.0008 9.763 15.4368C9.763 16.7786 9.51722 17.0053 8.70522 17.0053ZM15.9754 16.7973C15.9748 16.7875 15.9706 16.7782 15.9637 16.7713C15.9567 16.7643 15.9475 16.7601 15.9377 16.7595H15.8808C15.5786 16.8728 15.031 16.9484 14.6537 16.9484C13.8039 16.9484 13.407 16.7217 13.407 15.4373C13.407 14.3973 13.5203 13.9253 14.6537 13.9253C14.9746 13.9253 15.2581 13.9631 15.6354 14.0764C15.6732 14.0764 15.6919 14.0764 15.711 14.0386L16.2017 13.0564V12.9995C16.201 12.9897 16.1969 12.9804 16.1899 12.9735C16.183 12.9665 16.1737 12.9623 16.1639 12.9617C15.6436 12.8036 15.1033 12.7208 14.5594 12.7159C12.803 12.7159 12.0097 13.5471 12.0097 15.4182C12.0097 17.3071 12.803 18.1577 14.559 18.1577C14.9932 18.1577 15.8808 18.0631 16.2963 17.8933C16.3341 17.8742 16.3528 17.8364 16.3341 17.7986L15.9754 16.7973ZM2.34167 12.8862C2.32208 12.8875 2.30363 12.8959 2.28974 12.9098C2.27586 12.9237 2.26746 12.9421 2.26611 12.9617V17.9306C2.26611 17.9688 2.30389 18.0062 2.34167 18.0062H3.55056C3.58789 18.0062 3.62611 17.9688 3.62611 17.9306V14.0764H5.495C5.51411 14.0764 5.55189 14.0577 5.55189 14.0386C5.703 13.6986 5.835 13.3395 5.98611 12.9808V12.9239C5.967 12.9048 5.94834 12.8862 5.92922 12.8862H2.34167Z" fill="white"/>
<path fill-rule="evenodd" clip-rule="evenodd" d="M38.5219 24.96V24.8844C38.5219 24.8467 38.5219 24.7898 38.541 24.752C38.5974 24.0529 38.6352 23.2027 38.673 22.22V22.1444L38.7107 20.0284C38.7107 19.2916 38.6921 18.5733 38.673 17.912V17.8364L38.541 15.3049C38.541 15.2667 38.541 15.2102 38.5219 15.1724V15.0969C38.5219 15.0213 38.5032 14.9644 38.5032 14.8889V14.8133C38.4463 14.0764 38.4085 13.6231 38.3899 13.5853C38.3899 13.5098 38.3707 13.4342 38.3707 13.3773V13.3209C38.3547 13.1933 38.3294 13.0671 38.2952 12.9431C38.2952 12.924 38.2952 12.9049 38.2765 12.8862C37.9556 11.3556 37.1059 9.67422 36.0481 8.408C35.633 7.91689 35.1983 7.48222 34.7454 7.14222C33.0394 5.8843 31.268 4.71749 29.4387 3.64667C26.6632 2.00267 24.1707 0.868889 23.8499 0.717778C23.8307 0.717778 23.8307 0.699111 23.8307 0.699111C23.0943 0.377778 22.2067 0.151111 21.2441 0.0568889C21.0552 0.0377778 20.8663 0.0191111 20.6774 0.0191111C20.5072 0.0191111 20.3374 0 20.1676 0H19.9032C18.6001 0.0191111 17.4107 0.264444 16.4663 0.699111C16.3152 0.756 13.8041 1.908 10.9525 3.57111L10.8392 3.62756C9.01715 4.71659 7.24652 5.8894 5.53297 7.14222C4.81564 7.67111 4.17341 8.35111 3.58808 9.22044C3.45608 9.42844 3.45608 9.91956 4.0223 9.91956H5.47652C6.09964 9.91956 6.25075 9.54178 6.94941 9.03156C7.72364 8.46489 9.25297 7.33111 12.0476 5.66844C14.0681 4.47822 15.9565 3.552 16.8627 3.11733C16.8819 3.11733 16.9005 3.09867 16.9196 3.09867C16.9196 3.09867 16.9383 3.09867 16.9383 3.08C16.9383 3.08 16.9574 3.08 16.9574 3.06089C16.9761 3.06089 16.9952 3.04222 16.9952 3.04222C17.0139 3.04222 17.033 3.02311 17.0516 3.02311C17.2783 2.90978 17.4294 2.85289 17.4294 2.85289C18.0716 2.56978 18.9779 2.38089 19.9405 2.36178H20.3183C20.6019 2.36178 20.885 2.38089 21.1494 2.41867C21.7347 2.49422 22.2636 2.60756 22.6979 2.79644C22.7356 2.81511 22.7921 2.83422 22.8299 2.85289C24.6743 3.71103 26.4766 4.65685 28.2307 5.68711C29.9853 6.72238 31.6868 7.84498 33.329 9.05067C33.6876 9.31511 34.0467 9.69289 34.3867 10.1084C35.2361 11.2044 35.9347 12.6973 36.0481 13.8498C36.0481 13.8689 36.105 14.3222 36.1614 15.0969C36.1614 15.1533 36.1614 15.1911 36.1805 15.248V15.3613C36.1805 15.4369 36.1992 15.4938 36.1992 15.5693V15.6449C36.1992 15.6827 36.1992 15.7391 36.2183 15.7769C36.2183 15.8716 36.237 15.9658 36.237 16.0604C36.237 16.1173 36.237 16.1738 36.2561 16.2307V16.2684C36.2561 16.344 36.2561 16.4004 36.2747 16.476V16.6271C36.4023 18.8804 36.4023 21.1382 36.2747 23.3916V23.5427C36.2747 23.6182 36.2747 23.6751 36.2561 23.7507V23.7884C36.2561 23.8449 36.2561 23.9018 36.237 23.9582C36.237 24.0529 36.2183 24.1476 36.2183 24.2418C36.2183 24.2987 36.2183 24.3364 36.1992 24.3742V24.4498C36.1992 24.5253 36.1805 24.5818 36.1805 24.6573V24.7711C36.1805 24.8276 36.1805 24.8844 36.1614 24.9222C36.105 25.6969 36.0481 26.1689 36.0481 26.1689C35.9347 27.3218 35.2361 28.8142 34.3863 29.9102C34.0467 30.3449 33.6876 30.704 33.329 30.968C33.3103 30.968 32.8192 31.3462 32.0072 31.9129C29.129 33.9099 26.0837 35.6548 22.9054 37.128L22.8299 37.1658C22.7921 37.1849 22.7356 37.2036 22.6979 37.2227C22.2636 37.3924 21.7347 37.5249 21.1494 37.6004C20.885 37.6382 20.6019 37.6569 20.3183 37.6569H19.9405C18.9779 37.6382 18.0716 37.468 17.4294 37.1658C17.4294 37.1658 17.2974 37.1093 17.0516 36.9956C17.033 36.9769 16.9952 36.9769 16.9761 36.9578C16.9574 36.9391 16.9383 36.9391 16.9196 36.92C16.9005 36.92 16.9005 36.9013 16.8819 36.9013C16.8627 36.9013 16.8441 36.8822 16.8254 36.8822C16.8063 36.8636 16.7876 36.8636 16.7499 36.8444H16.7307C15.128 36.0815 13.5592 35.2495 12.0285 34.3507C9.21519 32.7067 7.70452 31.5542 6.93075 30.9871C6.23164 30.4769 6.08052 30.0991 5.45741 30.0991H4.0223C3.45608 30.0991 3.45608 30.5907 3.58808 30.7791C4.17341 31.6489 4.81564 32.3289 5.53297 32.8578C5.62764 32.9333 7.93119 34.6338 10.8396 36.3533C10.9903 36.448 11.1414 36.5422 11.3112 36.6178C14.0116 38.1671 16.3343 39.2253 16.4667 39.3009C17.3916 39.7164 18.6001 39.9622 19.8845 40H20.1485C20.3187 40 20.4885 40 20.6583 39.9809C20.8472 39.9809 21.0361 39.9622 21.225 39.9431C22.1881 39.8489 23.0943 39.6222 23.8116 39.3009C23.8116 39.3009 23.8307 39.3009 23.8307 39.2822C24.1516 39.1311 26.6441 37.9782 29.4201 36.3533C30.7504 35.5657 32.0541 34.7338 33.329 33.8591L34.7263 32.8578C35.1796 32.5178 35.6139 32.0831 36.0294 31.592C37.0872 30.3258 37.9365 28.6444 38.2574 27.1138C38.2574 27.0951 38.2574 27.076 38.2765 27.0573C38.2952 26.9249 38.333 26.7924 38.3521 26.6796V26.6222C38.3707 26.5467 38.3707 26.4711 38.3707 26.4142C38.3707 26.3764 38.4276 25.9231 38.4841 25.1862V25.1107C38.5219 25.0916 38.5219 25.0164 38.5219 24.96Z" fill="white"/>
<path d="M17.2215 20.3684H13.5202C13.4824 20.3684 13.4637 20.3875 13.4446 20.4253C13.3504 22.1066 13.0295 23.9017 12.5762 25.3755C12.5762 25.3942 12.5762 25.4133 12.5948 25.432C12.6139 25.4511 12.6326 25.4511 12.6517 25.4511H13.9171C13.9544 25.4511 13.9735 25.432 13.9735 25.4133C14.3322 24.28 14.6157 22.8057 14.7291 21.5586H15.9375V25.3942C15.9375 25.432 15.9753 25.4697 16.0131 25.4697H17.2215C17.2593 25.4697 17.2971 25.432 17.2971 25.3942V20.4253C17.2971 20.4062 17.2593 20.3684 17.2215 20.3684Z" fill="white"/>
</svg>
