<svg width="60" height="60" viewBox="0 0 60 60" fill="none" xmlns="http://www.w3.org/2000/svg">
<path d="M57.6155 49.9241C57.7757 49.924 57.9332 49.8829 58.0731 49.8046C58.2129 49.7264 58.3303 49.6136 58.4142 49.4771C58.498 49.3405 58.5454 49.1848 58.552 49.0247C58.5585 48.8646 58.5239 48.7055 58.4515 48.5626C57.4697 46.6264 55.512 45.4235 53.3425 45.4235C51.2453 45.4235 49.3451 46.5568 48.3415 48.3583H31.8509C30.8474 46.5568 28.9471 45.4235 26.85 45.4235C24.6805 45.4235 22.7228 46.6264 21.741 48.5626C21.6685 48.7055 21.6339 48.8646 21.6404 49.0247C21.6469 49.1848 21.6944 49.3406 21.7782 49.4771C21.8621 49.6137 21.9795 49.7265 22.1194 49.8047C22.2592 49.8829 22.4168 49.924 22.577 49.9241H26.8498L27.5571 51.149L26.8499 52.3739L22.577 52.374C22.4168 52.374 22.2592 52.4151 22.1194 52.4933C21.9795 52.5716 21.8621 52.6844 21.7782 52.8209C21.6944 52.9575 21.6469 53.1132 21.6404 53.2733C21.6339 53.4334 21.6685 53.5926 21.741 53.7355C22.7228 55.6715 24.6805 56.8745 26.85 56.8746C28.9471 56.8746 30.8473 55.7413 31.8509 53.9397H48.3415C49.3451 55.7413 51.2453 56.8746 53.3425 56.8745C55.512 56.8745 57.4697 55.6715 58.4515 53.7354C58.524 53.5924 58.5586 53.4333 58.5521 53.2732C58.5455 53.1131 58.4981 52.9574 58.4142 52.8208C58.3304 52.6842 58.2129 52.5715 58.0731 52.4932C57.9333 52.415 57.7757 52.3739 57.6155 52.3739H53.3426L52.6354 51.149L53.3427 49.9241H57.6155ZM51.9896 48.5178L50.7411 50.6803C50.6588 50.8228 50.6154 50.9844 50.6154 51.149C50.6154 51.3136 50.6588 51.4753 50.7411 51.6178L51.9896 53.7801C52.0719 53.9227 52.1902 54.041 52.3328 54.1233C52.4753 54.2056 52.637 54.2489 52.8015 54.2489H55.6317C54.9825 54.729 54.1863 54.9995 53.3427 54.9995C52.5838 55.0006 51.8415 54.777 51.2094 54.357C50.5773 53.9369 50.0837 53.3392 49.7907 52.6391C49.7193 52.4689 49.5991 52.3236 49.4454 52.2214C49.2916 52.1192 49.1111 52.0647 48.9265 52.0647H31.2663C31.0817 52.0647 30.9012 52.1192 30.7475 52.2214C30.5937 52.3236 30.4736 52.4689 30.4021 52.6391C30.1091 53.3392 29.6155 53.9369 28.9835 54.357C28.3514 54.777 27.6092 55.0006 26.8502 54.9996C26.0066 54.9996 25.2104 54.7289 24.5612 54.249L27.3914 54.2489C27.556 54.2489 27.7176 54.2056 27.8602 54.1233C28.0027 54.041 28.121 53.9226 28.2033 53.7801L29.4518 51.6178C29.5341 51.4753 29.5775 51.3136 29.5775 51.149C29.5775 50.9844 29.5341 50.8228 29.4518 50.6803L28.2033 48.5178C28.121 48.3753 28.0027 48.2569 27.8602 48.1746C27.7176 48.0923 27.556 48.049 27.3914 48.0491H24.5612C25.2104 47.5689 26.0066 47.2985 26.8502 47.2985C27.6092 47.2974 28.3514 47.521 28.9835 47.941C29.6156 48.3611 30.1092 48.9589 30.4021 49.659C30.4736 49.8292 30.5937 49.9745 30.7475 50.0767C30.9012 50.1788 31.0817 50.2333 31.2663 50.2333H48.9265C49.1111 50.2333 49.2916 50.1788 49.4453 50.0766C49.5991 49.9745 49.7192 49.8292 49.7907 49.659C50.0837 48.9589 50.5773 48.3611 51.2094 47.9411C51.8415 47.521 52.5838 47.2974 53.3427 47.2985C54.1863 47.2985 54.9825 47.5691 55.6317 48.0491H52.8015C52.637 48.049 52.4753 48.0923 52.3328 48.1746C52.1902 48.2569 52.0719 48.3753 51.9896 48.5178ZM58.3354 38.3053L53.6509 37.2268C53.4489 37.1803 53.2372 37.202 53.0489 37.2886L50.8895 38.2814L36.872 38.2815C36.6956 37.4166 35.9292 36.7639 35.0131 36.7639H22.0678C21.8192 36.7639 21.5807 36.8627 21.4049 37.0385C21.2291 37.2143 21.1303 37.4528 21.1303 37.7014V43.8794C21.1303 44.1281 21.2291 44.3665 21.4049 44.5423C21.5807 44.7181 21.8192 44.8169 22.0678 44.8169H35.0133C35.9295 44.8169 36.6959 44.1641 36.8722 43.2992L50.8896 43.2993L53.049 44.2923C53.2374 44.3787 53.449 44.4004 53.651 44.354L58.3354 43.2754C58.542 43.2278 58.7265 43.1116 58.8585 42.9457C58.9906 42.7797 59.0625 42.5739 59.0625 42.3618V39.2188C59.0625 39.0067 58.9906 38.8009 58.8585 38.635C58.7264 38.4691 58.542 38.3528 58.3354 38.3053ZM35.0354 42.9196C35.0354 42.9296 35.0232 42.9418 35.0133 42.9418H23.0053V38.6388H35.0133C35.0235 38.6388 35.0354 38.6509 35.0354 38.6609V42.9196ZM57.1874 41.6156L53.5418 42.455L51.4864 41.51C51.3636 41.4536 51.23 41.4244 51.0948 41.4243L36.9104 41.4242V40.1566L51.0948 40.1565C51.2299 40.1565 51.3636 40.1272 51.4864 40.0708L53.5418 39.1259L57.1875 39.9652L57.1874 41.6156ZM18.582 11.0971H16.3211C16.1316 11.0971 15.9466 11.1545 15.7904 11.2618C15.6342 11.369 15.5142 11.521 15.4461 11.6978L14.5542 14.0149C13.3183 14.3522 12.1302 14.8448 11.0182 15.4809L8.74758 14.4725C8.57445 14.3955 8.38205 14.3728 8.19577 14.4074C8.00948 14.442 7.83807 14.5323 7.70414 14.6663L4.50656 17.8639C4.37261 17.9979 4.28239 18.1693 4.24778 18.3556C4.21318 18.5418 4.23583 18.7342 4.31273 18.9073L5.32102 21.1777C4.68481 22.2898 4.19217 23.4781 3.85488 24.7141L1.53809 25.6058C1.36132 25.6739 1.20933 25.7939 1.10212 25.9501C0.994915 26.1063 0.937522 26.2913 0.9375 26.4807V31.0027C0.937498 31.1922 0.994896 31.3772 1.10213 31.5334C1.20936 31.6896 1.3614 31.8096 1.5382 31.8777L3.85465 32.7692C4.19195 34.0055 4.68463 35.194 5.3209 36.3064L4.31273 38.5761C4.23583 38.7492 4.21318 38.9416 4.24778 39.1279C4.28239 39.3141 4.37261 39.4856 4.50656 39.6195L7.70414 42.8171C7.83815 42.951 8.00956 43.0412 8.19581 43.0758C8.38206 43.1104 8.57442 43.0878 8.74758 43.0109L11.0183 42.0025C12.1303 42.6387 13.3185 43.1313 14.5543 43.4686L15.4461 45.7855C15.5142 45.9623 15.6342 46.1143 15.7904 46.2215C15.9466 46.3288 16.1316 46.3862 16.3211 46.3862H18.582C18.8306 46.3862 19.069 46.2874 19.2449 46.1116C19.4207 45.9358 19.5195 45.6973 19.5195 45.4487V38.1273C19.5195 37.8786 19.4207 37.6402 19.2449 37.4644C19.069 37.2885 18.8306 37.1898 18.582 37.1898C13.9236 37.1898 10.1338 33.3999 10.1338 28.7417C10.1338 24.0833 13.9236 20.2934 18.582 20.2934C18.8306 20.2934 19.069 20.1947 19.2449 20.0188C19.4207 19.843 19.5195 19.6046 19.5195 19.3559V12.0344C19.5194 11.7858 19.4206 11.5474 19.2448 11.3717C19.069 11.1959 18.8306 11.0971 18.582 11.0971ZM17.6445 18.4609C12.3896 18.9358 8.25879 23.3655 8.25879 28.7418C8.25879 34.1182 12.3896 38.5477 17.6445 39.0226V44.5112H16.9648L16.1303 42.3433C16.0756 42.2012 15.9871 42.0746 15.8725 41.9744C15.7578 41.8741 15.6205 41.8034 15.4724 41.7682C14.0944 41.4402 12.7776 40.8943 11.5718 40.1509C11.4421 40.071 11.295 40.024 11.143 40.0138C10.9911 40.0036 10.839 40.0306 10.6998 40.0924L8.57484 41.0361L6.28758 38.7488L7.23094 36.6249C7.29273 36.4857 7.31969 36.3336 7.30948 36.1816C7.29927 36.0297 7.2522 35.8825 7.17234 35.7528C6.42887 34.5467 5.88285 33.2296 5.55492 31.8512C5.51972 31.703 5.44895 31.5657 5.34873 31.4511C5.24851 31.3364 5.12187 31.248 4.97977 31.1933L2.8125 30.359V27.1244L4.98012 26.29C5.12219 26.2353 5.24881 26.1469 5.34902 26.0323C5.44924 25.9177 5.52003 25.7804 5.55527 25.6323C5.88315 24.2541 6.42914 22.9372 7.17258 21.7313C7.25244 21.6016 7.29951 21.4545 7.30972 21.3025C7.31993 21.1506 7.29297 20.9984 7.23117 20.8592L6.28758 18.7346L8.57484 16.4473L10.6997 17.3911C10.8388 17.4529 10.991 17.4799 11.1429 17.4697C11.2949 17.4595 11.442 17.4124 11.5717 17.3326C12.7775 16.5892 14.0942 16.0432 15.4723 15.7153C15.6204 15.6801 15.7577 15.6093 15.8724 15.5091C15.987 15.4089 16.0755 15.2822 16.1302 15.1401L16.9646 12.9721H17.6445V18.4609ZM18.582 22.9569C15.3922 22.9569 12.7972 25.5521 12.7972 28.7418C12.7972 31.9316 15.3923 34.5266 18.582 34.5266C18.8306 34.5266 19.069 34.4278 19.2449 34.252C19.4207 34.0762 19.5195 33.8377 19.5195 33.5891V23.8943C19.5194 23.6456 19.4206 23.4072 19.2448 23.2314C19.069 23.0556 18.8306 22.9569 18.582 22.9569ZM17.6445 32.538C15.9398 32.117 14.6722 30.5746 14.6722 28.7418C14.6722 26.9089 15.9398 25.3665 17.6445 24.9454V32.538ZM34.6575 11.2153C38.6917 13.5446 40.0788 18.7217 37.7497 22.7558C36.6213 24.7102 34.7995 26.1082 32.6201 26.6922C30.4405 27.2763 28.164 26.9764 26.2093 25.848C25.994 25.7237 25.7382 25.6901 25.498 25.7544C25.2579 25.8188 25.0532 25.9758 24.9288 26.1911L21.2682 32.5317C21.2066 32.6383 21.1666 32.756 21.1505 32.8781C21.1344 33.0001 21.1425 33.1242 21.1744 33.2431C21.2062 33.3621 21.2612 33.4735 21.3362 33.5712C21.4112 33.6689 21.5047 33.7508 21.6114 33.8123L23.5695 34.9427C23.7335 35.0374 23.9225 35.0802 24.1113 35.0654C24.3002 35.0506 24.4802 34.979 24.6275 34.8598L26.5583 33.2993C27.7973 33.625 29.0725 33.7925 30.3536 33.7977L31.8158 35.8064C31.9273 35.9596 32.0826 36.0754 32.2612 36.1386C32.4398 36.2018 32.6334 36.2093 32.8164 36.1603L37.1844 34.9899C37.3674 34.9409 37.5313 34.8375 37.6544 34.6935C37.7775 34.5495 37.8541 34.3715 37.8741 34.1831L38.1357 31.7136C39.2429 31.0683 40.2639 30.2853 41.1743 29.3834L43.6261 29.7695C43.8132 29.7988 44.0049 29.7709 44.1758 29.6893C44.3467 29.6076 44.489 29.4762 44.5837 29.3122L46.8448 25.3959C46.9395 25.2318 46.9823 25.0429 46.9675 24.854C46.9528 24.6651 46.8811 24.4852 46.762 24.3378L45.2016 22.4073C45.5275 21.1682 45.695 19.8928 45.7001 18.6116L47.7086 17.1495C47.8617 17.038 47.9775 16.8828 48.0407 16.7042C48.1039 16.5255 48.1115 16.332 48.0625 16.149L46.8921 11.7811C46.8431 11.598 46.7397 11.4342 46.5957 11.3111C46.4517 11.188 46.2738 11.1114 46.0854 11.0914L43.6146 10.8294C42.9697 9.72252 42.1871 8.70186 41.2855 7.79175L41.6715 5.33926C41.701 5.15212 41.6731 4.96043 41.5915 4.78947C41.5099 4.6185 41.3783 4.4763 41.2143 4.3816L39.2562 3.25109C39.1496 3.18945 39.0319 3.14942 38.9098 3.1333C38.7878 3.11719 38.6637 3.12529 38.5448 3.15716C38.4258 3.18903 38.3144 3.24404 38.2167 3.31903C38.1191 3.39402 38.0371 3.48754 37.9757 3.59422L34.3151 9.93465C34.2534 10.0412 34.2133 10.1589 34.1971 10.2809C34.1809 10.403 34.1889 10.527 34.2207 10.646C34.2525 10.7649 34.3075 10.8764 34.3824 10.9741C34.4574 11.0718 34.5508 11.1537 34.6575 11.2153ZM39.13 5.34359L39.7187 5.68343L39.3575 7.97808C39.3339 8.12849 39.3472 8.2824 39.3963 8.42651C39.4455 8.57062 39.529 8.7006 39.6396 8.80519C40.669 9.77823 41.5364 10.9094 42.2089 12.1561C42.2813 12.29 42.3853 12.4044 42.5117 12.4892C42.6382 12.574 42.7835 12.6267 42.9349 12.6427L45.2469 12.888L46.0841 16.0125L44.2048 17.3806C44.0817 17.4703 43.9822 17.5885 43.9151 17.7252C43.8479 17.8619 43.8151 18.0129 43.8193 18.1651C43.8603 19.5811 43.6747 20.9946 43.2695 22.3521C43.226 22.498 43.2186 22.6523 43.2481 22.8017C43.2776 22.951 43.343 23.091 43.4387 23.2094L44.8988 25.0156L43.2814 27.817L40.9875 27.4558C40.8371 27.4319 40.6831 27.4452 40.539 27.4943C40.3948 27.5435 40.2649 27.6271 40.1604 27.7379C39.1871 28.7676 38.0556 29.6353 36.8086 30.3082C36.6746 30.3805 36.5602 30.4845 36.4754 30.611C36.3906 30.7375 36.3379 30.8828 36.3219 31.0343L36.077 33.3452L32.9524 34.1824L31.5841 32.3028C31.4945 32.1797 31.3762 32.0802 31.2395 32.0131C31.1028 31.9459 30.9518 31.9131 30.7996 31.9174C29.3836 31.9587 27.9701 31.7731 26.6128 31.3677C26.4669 31.3241 26.3126 31.3167 26.1632 31.3462C26.0138 31.3757 25.8739 31.4411 25.7555 31.5369L23.949 32.997L23.3604 32.6572L26.1045 27.9044C28.2935 28.9201 30.746 29.1355 33.105 28.5032C35.7684 27.7896 37.9944 26.0813 39.3731 23.6932C42.0614 19.0372 40.6988 13.1355 36.3854 10.0967L39.13 5.34359ZM27.5411 23.5414C28.4325 24.0562 29.4218 24.3191 30.4243 24.3191C30.9267 24.3191 31.4325 24.2531 31.9307 24.1195C33.423 23.7196 34.6705 22.7625 35.4431 21.4242C37.038 18.6618 36.0882 15.1168 33.3259 13.5219C33.2193 13.4602 33.1016 13.4202 32.9796 13.4041C32.8575 13.388 32.7334 13.3961 32.6145 13.4279C32.4956 13.4598 32.3841 13.5148 32.2864 13.5898C32.1888 13.6648 32.1069 13.7583 32.0454 13.865L27.1982 22.2609C27.1365 22.3675 27.0965 22.4852 27.0804 22.6072C27.0643 22.7293 27.0724 22.8533 27.1042 22.9722C27.1361 23.0911 27.191 23.2026 27.266 23.3003C27.341 23.3979 27.4344 23.4799 27.5411 23.5414ZM33.1439 15.7118C33.6541 16.2003 34.0226 16.8202 34.2101 17.5197C34.4804 18.5285 34.3416 19.5822 33.8194 20.4867C33.2971 21.3912 32.454 22.0381 31.4453 22.3085C30.7458 22.4959 30.0247 22.4866 29.3467 22.289L33.1439 15.7118ZM25.3132 10.2254L26.1716 17.8951C26.1972 18.1243 26.3064 18.336 26.4783 18.4897C26.6502 18.6434 26.8727 18.7284 27.1034 18.7283C27.2631 18.7283 27.4202 18.6874 27.5597 18.6097C27.6992 18.5319 27.8166 18.4198 27.9006 18.2839L31.673 12.1851C31.7471 12.0652 31.7932 11.93 31.8079 11.7898C31.8226 11.6495 31.8055 11.5078 31.7578 11.3751C31.7102 11.2424 31.6332 11.1221 31.5326 11.0233C31.432 10.9244 31.3104 10.8495 31.1769 10.8042L26.546 9.23328C26.3966 9.18259 26.2368 9.17045 26.0814 9.19797C25.926 9.22549 25.7801 9.2918 25.6571 9.39073C25.5342 9.48967 25.4382 9.61804 25.3781 9.76394C25.318 9.90984 25.2956 10.0686 25.3132 10.2254ZM29.4584 12.2013L27.7331 14.9905L27.3405 11.4829L29.4584 12.2013ZM21.6015 13.7813C21.79 13.7813 21.9741 13.7244 22.1298 13.6181C22.2855 13.5119 22.4055 13.3612 22.4742 13.1857L25.2886 5.99949C25.3461 5.85256 25.3657 5.69348 25.3454 5.53699C25.3251 5.38051 25.2656 5.23168 25.1725 5.10429C25.0792 4.97708 24.9553 4.87538 24.8124 4.80858C24.6695 4.74177 24.5121 4.71201 24.3546 4.72203L19.4748 5.0409C19.3341 5.05013 19.1972 5.09098 19.0745 5.16041C18.9517 5.22985 18.8462 5.32607 18.7658 5.44193C18.6854 5.55779 18.6322 5.69029 18.61 5.82957C18.5879 5.96886 18.5975 6.11134 18.6381 6.2464L20.7035 13.1138C20.7615 13.3069 20.8802 13.476 21.042 13.5963C21.2037 13.7165 21.4 13.7814 21.6015 13.7813ZM20.7731 6.83515L23.0048 6.68937L21.7178 9.9759L20.7731 6.83515Z" fill="white"/>
</svg>
