<svg width="60" height="60" viewBox="0 0 60 60" fill="none" xmlns="http://www.w3.org/2000/svg">
<path d="M55.3636 14.0908H4.6364C2.07996 14.0908 0 16.1707 0 18.7272V41.2726C0 43.8291 2.07996 45.909 4.6364 45.909H55.3634C57.92 45.909 59.9999 43.829 59.9999 41.2726V18.7272C60 16.1707 57.92 14.0908 55.3636 14.0908ZM58.2422 41.2727C58.2422 42.86 56.9508 44.1513 55.3636 44.1513H4.6364C3.04922 44.1513 1.75781 42.86 1.75781 41.2727V18.7272C1.75781 17.1399 3.04922 15.8486 4.6364 15.8486H55.3634C56.9508 15.8486 58.242 17.14 58.242 18.7272V41.2727H58.2422Z" fill="white"/>
<path d="M55.3637 17.8483H45.0304C44.7973 17.8483 44.5738 17.9409 44.4089 18.1057C44.2441 18.2705 44.1515 18.4941 44.1515 18.7272C44.1515 18.9603 44.2441 19.1838 44.4089 19.3487C44.5738 19.5135 44.7973 19.6061 45.0304 19.6061H46.923C45.6096 21.4422 44.7567 22.5592 44.2594 23.2104C43.4901 24.2178 43.2834 24.4885 43.4437 25.0097C43.5339 25.303 43.758 25.5286 44.0585 25.6288C44.1807 25.6696 44.3469 25.7251 46.7042 25.7251C47.6521 25.7251 48.9549 25.7161 50.7509 25.6936C51.2363 25.6875 51.6248 25.2891 51.6187 24.8037C51.6126 24.3183 51.2144 23.9318 50.7288 23.9359C49.2164 23.9549 47.2252 23.9694 45.8961 23.9632C46.522 23.1413 47.545 21.7808 49.0789 19.6061H54.4848V40.3936H51.1671C50.9767 39.3897 50.4229 38.5136 49.6477 37.9068C50.6162 37.1488 51.2403 35.9703 51.2403 34.648C51.2403 32.3665 49.3842 30.5104 47.1026 30.5104C45.1299 30.5104 43.4224 31.9136 43.0427 33.8469C42.9978 34.0757 43.0455 34.3129 43.1755 34.5064C43.3055 34.6999 43.507 34.8338 43.7357 34.8788C43.9645 34.9237 44.2017 34.8759 44.3952 34.746C44.5887 34.616 44.7226 34.4145 44.7676 34.1857C44.9858 33.0747 45.9679 32.2682 47.1026 32.2682C48.4149 32.2682 49.4825 33.3358 49.4825 34.648C49.4825 35.9603 48.4149 37.0279 47.1026 37.0279C46.8695 37.0279 46.646 37.1205 46.4812 37.2853C46.3163 37.4501 46.2237 37.6737 46.2237 37.9068C46.2237 38.1399 46.3163 38.3634 46.4812 38.5283C46.646 38.6931 46.8695 38.7857 47.1026 38.7857C48.1444 38.7857 49.0299 39.4596 49.3515 40.3936H39.3334V19.6061H41.2726C41.5057 19.6061 41.7292 19.5135 41.8941 19.3487C42.0589 19.1838 42.1515 18.9603 42.1515 18.7272C42.1515 18.4941 42.0589 18.2705 41.8941 18.1057C41.7292 17.9409 41.5057 17.8483 41.2726 17.8483H4.63647C4.40337 17.8483 4.17982 17.9409 4.01499 18.1057C3.85017 18.2705 3.75757 18.4941 3.75757 18.7272V41.2725C3.75757 41.5056 3.85017 41.7292 4.01499 41.894C4.17982 42.0588 4.40337 42.1514 4.63647 42.1514H7.4546C7.6877 42.1514 7.91125 42.0588 8.07608 41.894C8.24091 41.7292 8.33351 41.5056 8.33351 41.2725C8.33351 41.0394 8.24091 40.8159 8.07608 40.651C7.91125 40.4862 7.6877 40.3936 7.4546 40.3936H5.51538V19.6061H20.6667V40.3936H11.2122C10.9791 40.3936 10.7556 40.4862 10.5907 40.651C10.4259 40.8159 10.3333 41.0394 10.3333 41.2725C10.3333 41.5056 10.4259 41.7292 10.5907 41.894C10.7556 42.0588 10.9791 42.1514 11.2122 42.1514H55.3635C55.5966 42.1514 55.8202 42.0588 55.985 41.894C56.1499 41.7292 56.2425 41.5056 56.2425 41.2725V18.7272C56.2425 18.6118 56.2197 18.4975 56.1756 18.3908C56.1314 18.2842 56.0667 18.1873 55.9851 18.1057C55.9035 18.0241 55.8066 17.9593 55.7 17.9152C55.5934 17.871 55.4791 17.8483 55.3637 17.8483ZM22.4245 19.6061H37.5757V40.3936H22.4245V19.6061Z" fill="white"/>
<path d="M31.0558 22.8542H28.3699C28.1368 22.8542 27.9133 22.9468 27.7485 23.1116C27.5836 23.2764 27.491 23.5 27.491 23.7331C27.491 23.9662 27.5836 24.1897 27.7485 24.3546C27.9133 24.5194 28.1368 24.612 28.3699 24.612H30.1768V36.299C30.1768 36.5321 30.2694 36.7556 30.4343 36.9205C30.5991 37.0853 30.8227 37.1779 31.0558 37.1779C31.2889 37.1779 31.5124 37.0853 31.6772 36.9205C31.8421 36.7556 31.9347 36.5321 31.9347 36.299V23.7331C31.9347 23.5 31.8421 23.2764 31.6772 23.1116C31.5124 22.9468 31.2889 22.8542 31.0558 22.8542ZM17.5744 32.9216V27.1104C17.5744 24.6222 15.5501 22.5978 13.0617 22.5978C10.5734 22.5978 8.54907 24.6222 8.54907 27.1104V32.9216C8.54907 35.4099 10.5734 37.4343 13.0617 37.4343C15.5501 37.4343 17.5744 35.4099 17.5744 32.9216ZM10.3069 32.9216V27.1104C10.3069 25.5914 11.5426 24.3556 13.0617 24.3556C14.5808 24.3556 15.8166 25.5914 15.8166 27.1104V32.9216C15.8166 34.4406 14.5808 35.6765 13.0617 35.6765C11.5426 35.6765 10.3069 34.4406 10.3069 32.9216Z" fill="white"/>
</svg>
