<svg width="60" height="60" viewBox="0 0 60 60" fill="none" xmlns="http://www.w3.org/2000/svg">
<g clip-path="url(#clip0_831_1550)">
<path d="M2.23404 39.6267C2.43194 39.6266 2.62476 39.5641 2.78498 39.4479C2.94521 39.3318 3.06463 39.168 3.12621 38.9799C3.18778 38.7918 3.18836 38.5891 3.12785 38.4007C3.06735 38.2123 2.94886 38.0478 2.7893 37.9307C2.62974 37.8137 2.43727 37.75 2.23938 37.7489C2.04149 37.7477 1.84829 37.8091 1.68738 37.9243C1.52647 38.0395 1.40607 38.2026 1.34337 38.3903C1.28067 38.578 1.27888 38.7807 1.33826 38.9695C1.39757 39.1605 1.5166 39.3274 1.67785 39.4457C1.8391 39.564 2.03405 39.6274 2.23404 39.6267ZM7.57123 49.4521C7.78889 49.4527 7.99974 49.3763 8.16654 49.2365C8.33606 49.0958 8.4505 48.8999 8.48972 48.6831C8.52895 48.4663 8.49043 48.2427 8.38096 48.0515C8.27149 47.8604 8.09808 47.714 7.89128 47.6381C7.68447 47.5623 7.45753 47.5618 7.25042 47.6368C7.04331 47.7118 6.8693 47.8575 6.75905 48.0482C6.6488 48.2389 6.60937 48.4624 6.6477 48.6793C6.68604 48.8962 6.79968 49.0927 6.96862 49.234C7.13755 49.3754 7.35095 49.4526 7.57123 49.4521ZM6.74061 14.1013C6.84443 13.9481 6.9005 13.7675 6.90176 13.5824C6.90301 13.3973 6.84939 13.216 6.74765 13.0613C6.64592 12.9067 6.50064 12.7857 6.33016 12.7135C6.15968 12.6414 5.97166 12.6214 5.78982 12.6561C5.60799 12.6907 5.44051 12.7785 5.30853 12.9083C5.17655 13.0381 5.08599 13.2041 5.04829 13.3853C5.01058 13.5665 5.02743 13.7549 5.0967 13.9265C5.16597 14.0982 5.28456 14.2455 5.43748 14.3498C5.59415 14.4552 5.77834 14.5123 5.96717 14.5138C6.12009 14.5141 6.27072 14.4766 6.40565 14.4047C6.54059 14.3327 6.65565 14.2285 6.74061 14.1013ZM3.58498 43.1268C3.7212 43.1266 3.85567 43.0962 3.97873 43.0378C4.2043 42.9322 4.37883 42.7416 4.46407 42.5076C4.5493 42.2736 4.53828 42.0154 4.43342 41.7895V41.7942C4.38196 41.6824 4.30898 41.5818 4.21866 41.4982C4.12833 41.4146 4.02243 41.3497 3.907 41.307C3.79156 41.2644 3.66885 41.2449 3.54588 41.2496C3.42291 41.2544 3.30208 41.2833 3.19029 41.3348C3.07851 41.3862 2.97795 41.4592 2.89436 41.5495C2.81078 41.6399 2.7458 41.7458 2.70315 41.8612C2.66049 41.9766 2.64099 42.0993 2.64575 42.2223C2.65052 42.3453 2.67946 42.4661 2.73092 42.5779C2.8062 42.7413 2.92658 42.8797 3.07788 42.9769C3.22919 43.0742 3.40512 43.1262 3.58498 43.1268ZM5.37139 46.416C5.54902 46.4165 5.72307 46.3661 5.87295 46.2707C6.06375 46.15 6.20456 45.9644 6.2695 45.7482C6.33444 45.5319 6.31914 45.2995 6.22643 45.0936C6.13372 44.8877 5.96981 44.7222 5.76484 44.6275C5.55987 44.5328 5.3276 44.5152 5.11072 44.5781C4.89384 44.6409 4.70693 44.7799 4.58433 44.9695C4.46173 45.1591 4.41169 45.3866 4.44339 45.6102C4.4751 45.8337 4.58643 46.0383 4.75691 46.1864C4.9274 46.3344 5.14559 46.416 5.37139 46.416ZM8.90295 9.92057C8.78955 9.81975 8.65336 9.74799 8.5061 9.71144C8.35883 9.67489 8.20489 9.67465 8.05752 9.71074C7.91014 9.74683 7.77373 9.81816 7.66001 9.91862C7.5463 10.0191 7.45867 10.1456 7.40468 10.2874C7.35069 10.4292 7.33194 10.582 7.35005 10.7327C7.36815 10.8833 7.42257 11.0273 7.50862 11.1523C7.59468 11.2773 7.70979 11.3795 7.84407 11.4501C7.97835 11.5208 8.12778 11.5578 8.27951 11.5579C8.41167 11.5589 8.54248 11.5313 8.66301 11.4771C8.78355 11.4229 8.89097 11.3434 8.97795 11.2438C9.06005 11.1521 9.12324 11.0451 9.16392 10.9289C9.20459 10.8127 9.22194 10.6896 9.21497 10.5666C9.208 10.4437 9.17686 10.3234 9.12332 10.2125C9.06977 10.1017 8.99489 10.0024 8.90295 9.92057ZM10.9481 8.92588C11.1279 8.92561 11.3038 8.8737 11.4549 8.77633C11.6061 8.67896 11.726 8.54023 11.8006 8.37664C11.8752 8.21305 11.9012 8.03149 11.8755 7.85355C11.8499 7.67561 11.7736 7.50878 11.6559 7.37291C11.4929 7.18506 11.262 7.06965 11.0139 7.05207C10.7659 7.03449 10.521 7.11618 10.3331 7.27916C10.1453 7.44214 10.0298 7.67307 10.0123 7.92115C9.99469 8.16923 10.0764 8.41412 10.2394 8.60197C10.3268 8.70422 10.4356 8.78614 10.558 8.842C10.6804 8.89787 10.8135 8.9268 10.9481 8.92588ZM18.7519 56.8373C18.664 57.07 18.6719 57.328 18.7738 57.5549C18.8757 57.7818 19.0633 57.9591 19.2956 58.0481C19.4019 58.0891 19.515 58.1097 19.6289 58.109C19.8 58.1091 19.968 58.0624 20.1145 57.974C20.261 57.8856 20.3806 57.7588 20.4602 57.6073C20.5399 57.4558 20.5766 57.2854 20.5663 57.1145C20.5561 56.9437 20.4994 56.7789 20.4023 56.638C20.3051 56.4971 20.1713 56.3854 20.0153 56.315C19.8593 56.2447 19.687 56.2184 19.517 56.2389C19.3471 56.2594 19.1861 56.326 19.0513 56.4315C18.9165 56.537 18.8126 56.6773 18.7519 56.8373ZM9.45654 50.6015C9.33111 50.735 9.24747 50.9022 9.21596 51.0827C9.18444 51.2631 9.20642 51.4488 9.27918 51.6169C9.35194 51.785 9.4723 51.9282 9.62543 52.0287C9.77855 52.1292 9.95775 52.1827 10.1409 52.1826C10.2697 52.1832 10.3972 52.1569 10.5151 52.1052C10.6331 52.0535 10.7389 51.9777 10.8258 51.8826C10.9956 51.701 11.0864 51.4594 11.0782 51.2109C11.0699 50.9624 10.9633 50.7273 10.7817 50.5574C10.6001 50.3876 10.3585 50.2968 10.11 50.305C9.86148 50.3133 9.62643 50.4199 9.45654 50.6015ZM15.3937 55.1671C15.3351 55.2755 15.2985 55.3944 15.2859 55.517C15.2732 55.6396 15.2849 55.7635 15.3202 55.8816C15.3555 55.9996 15.4138 56.1096 15.4916 56.2051C15.5695 56.3007 15.6654 56.3799 15.7739 56.4384C15.9109 56.5117 16.0638 56.5504 16.2192 56.5509C16.3851 56.551 16.5481 56.5072 16.6915 56.4238C16.835 56.3405 16.9537 56.2206 17.0357 56.0764C17.1178 55.9321 17.1601 55.7688 17.1584 55.6029C17.1567 55.437 17.1111 55.2745 17.0261 55.132C16.9412 54.9895 16.82 54.872 16.6749 54.7916C16.5298 54.7112 16.3659 54.6707 16.2001 54.6742C16.0342 54.6777 15.8722 54.7252 15.7307 54.8117C15.5891 54.8982 15.473 55.0207 15.3942 55.1667L15.3937 55.1671ZM13.5886 52.8632C13.4889 52.7893 13.3755 52.7359 13.255 52.7061C13.1345 52.6763 13.0092 52.6708 12.8866 52.6898C12.7639 52.7088 12.6462 52.7519 12.5404 52.8168C12.4345 52.8816 12.3426 52.9668 12.2699 53.0675C12.1973 53.1681 12.1453 53.2822 12.1171 53.4031C12.0889 53.524 12.085 53.6493 12.1056 53.7717C12.1262 53.8941 12.1708 54.0112 12.237 54.1162C12.3033 54.2212 12.3897 54.312 12.4912 54.3834C12.6503 54.4999 12.8425 54.5624 13.0397 54.5615C13.2379 54.5613 13.431 54.4983 13.5912 54.3816C13.7514 54.2649 13.8705 54.1004 13.9314 53.9118C13.9923 53.7231 13.9919 53.5201 13.9302 53.3317C13.8686 53.1433 13.7493 52.9793 13.5886 52.8632ZM13.9308 6.65947C14.1397 6.65952 14.3427 6.58981 14.5076 6.4614C14.6725 6.33298 14.7898 6.15322 14.8409 5.95059C14.892 5.74797 14.874 5.53408 14.7898 5.34283C14.7056 5.15158 14.5599 4.99391 14.376 4.89482C14.192 4.79572 13.9802 4.76087 13.7741 4.79579C13.5681 4.83071 13.3796 4.9334 13.2386 5.08759C13.0975 5.24177 13.0119 5.43862 12.9954 5.64694C12.9789 5.85526 13.0325 6.06313 13.1475 6.2376C13.2336 6.36646 13.35 6.47228 13.4865 6.54582C13.6229 6.61936 13.7758 6.65838 13.9308 6.65947ZM17.1811 4.79197C17.3244 4.79173 17.4656 4.75802 17.5936 4.69354C17.7986 4.59111 17.9588 4.41688 18.0436 4.204C18.1285 3.99113 18.1321 3.75448 18.0538 3.53911C17.9754 3.32374 17.8207 3.1447 17.6189 3.03607C17.4171 2.92743 17.1824 2.8968 16.9595 2.94999C16.7366 3.00318 16.541 3.13649 16.4101 3.32454C16.2791 3.51258 16.2218 3.74222 16.2492 3.96975C16.2765 4.19728 16.3866 4.40679 16.5585 4.55841C16.7303 4.71003 16.9519 4.79316 17.1811 4.79197ZM56.984 19.1217C56.7768 19.1975 56.6029 19.3439 56.4929 19.5352C56.3828 19.7264 56.3437 19.9503 56.3823 20.1676C56.4209 20.3849 56.5348 20.5816 56.704 20.7233C56.8731 20.8649 57.0868 20.9425 57.3075 20.9423C57.4581 20.9421 57.6064 20.9057 57.74 20.8362C57.8735 20.7666 57.9884 20.666 58.0749 20.5427C58.1614 20.4194 58.217 20.2772 58.237 20.1279C58.2569 19.9786 58.2407 19.8268 58.1897 19.6851C58.1037 19.4511 57.9288 19.2605 57.7029 19.155C57.4771 19.0495 57.2187 19.0375 56.984 19.1217ZM57.4439 23.8092C57.4913 24.0173 57.6081 24.2031 57.775 24.3362C57.942 24.4692 58.1492 24.5416 58.3626 24.5413C58.4303 24.5422 58.4978 24.5359 58.5642 24.5226C58.7458 24.4824 58.9113 24.3893 59.0399 24.2551C59.1686 24.1208 59.2545 23.9514 59.2868 23.7683C59.3191 23.5852 59.2964 23.3966 59.2215 23.2264C59.1466 23.0562 59.0229 22.9121 58.8661 22.8122C58.7093 22.7123 58.5263 22.6612 58.3404 22.6653C58.1545 22.6694 57.974 22.7286 57.8218 22.8353C57.6695 22.9421 57.5524 23.0916 57.4851 23.2649C57.4178 23.4383 57.4035 23.6277 57.4439 23.8092ZM59.062 29.0413C58.8764 29.0413 58.6949 29.0962 58.5405 29.1993C58.3861 29.3023 58.2658 29.4489 58.1947 29.6203C58.1236 29.7918 58.1049 29.9805 58.1411 30.1626C58.1772 30.3446 58.2666 30.5119 58.3978 30.6432C58.529 30.7745 58.6962 30.8639 58.8783 30.9002C59.0603 30.9364 59.2491 30.9178 59.4206 30.8468C59.5921 30.7758 59.7387 30.6555 59.8418 30.5012C59.9449 30.3469 60 30.1654 60 29.9798C59.9994 29.7312 59.9004 29.4929 59.7246 29.3171C59.5488 29.1412 59.3106 29.0421 59.062 29.0413ZM1.34295 35.9812C1.39795 35.981 1.45283 35.9761 1.50701 35.9667C1.6284 35.9461 1.74451 35.9017 1.84858 35.8359C1.95266 35.7702 2.04263 35.6844 2.11328 35.5835C2.18392 35.4827 2.23384 35.3689 2.26012 35.2486C2.28641 35.1283 2.28854 35.004 2.26639 34.8829H2.27154C2.25093 34.761 2.20643 34.6444 2.14058 34.5397C2.07474 34.4351 1.98886 34.3445 1.88788 34.2732C1.7869 34.2018 1.67282 34.1512 1.55218 34.1241C1.43155 34.097 1.30676 34.094 1.18498 34.1153C1.06319 34.1367 0.946827 34.1818 0.842568 34.2483C0.73831 34.3147 0.648217 34.4011 0.57747 34.5025C0.506724 34.6039 0.456721 34.7183 0.430337 34.8391C0.403952 34.9599 0.401707 35.0847 0.423731 35.2063C0.461331 35.4229 0.574059 35.6192 0.742096 35.7608C0.910132 35.9025 1.12272 35.9803 1.34248 35.9807L1.34295 35.9812ZM55.3612 15.7387C55.1747 15.8362 55.0262 15.9934 54.9396 16.1852C54.853 16.3771 54.8333 16.5924 54.8835 16.7968C54.9338 17.0012 55.0512 17.1828 55.217 17.3125C55.3827 17.4423 55.5872 17.5127 55.7976 17.5124C55.9482 17.5135 56.0965 17.4764 56.2289 17.4046C56.4498 17.2896 56.616 17.0916 56.6909 16.8541C56.7658 16.6165 56.7433 16.359 56.6283 16.1381C56.5133 15.9172 56.3152 15.751 56.0777 15.6761C55.8402 15.6012 55.5826 15.6237 55.3617 15.7387H55.3612ZM58.9406 28.2482C58.9687 28.249 58.9967 28.2475 59.0245 28.2435C59.2722 28.2205 59.5009 28.1007 59.6607 27.91C59.8206 27.7194 59.8987 27.4734 59.8781 27.2254H59.8734C59.8568 27.0445 59.7879 26.8723 59.6752 26.7298C59.5625 26.5873 59.4108 26.4807 59.2385 26.4229C59.0663 26.3651 58.881 26.3586 58.7051 26.4042C58.5292 26.4498 58.3704 26.5455 58.248 26.6798C58.1256 26.814 58.0448 26.9809 58.0155 27.1603C57.9863 27.3396 58.0098 27.5235 58.0831 27.6897C58.1565 27.8559 58.2767 27.9972 58.4289 28.0964C58.5811 28.1955 58.7589 28.2483 58.9406 28.2482ZM0.934668 32.2551H0.976856C1.22858 32.2495 1.46796 32.1449 1.64303 31.964C1.8181 31.783 1.91473 31.5403 1.91195 31.2885C1.90918 31.0368 1.80721 30.7962 1.62819 30.6192C1.44917 30.4421 1.20755 30.3428 0.955762 30.3428C0.703976 30.3428 0.462349 30.4421 0.28333 30.6192C0.104311 30.7962 0.00234719 31.0368 -0.000430034 31.2885C-0.00320726 31.5403 0.0934267 31.783 0.268496 31.964C0.443566 32.1449 0.682943 32.2495 0.934668 32.2551ZM54.6253 12.8296C54.5332 12.6969 54.4085 12.5902 54.2631 12.5198C54.1177 12.4494 53.9567 12.4178 53.7955 12.4279C53.6343 12.438 53.4784 12.4895 53.343 12.5775C53.2075 12.6655 53.0971 12.787 53.0223 12.9301C52.9476 13.0733 52.911 13.2334 52.9162 13.3948C52.9215 13.5562 52.9683 13.7136 53.0521 13.8516C53.1359 13.9897 53.254 14.1038 53.3948 14.1828C53.5357 14.2619 53.6946 14.3032 53.8561 14.3029C54.0469 14.3049 54.2336 14.2476 54.3904 14.1388C54.4922 14.0686 54.579 13.9789 54.6459 13.8749C54.7128 13.7709 54.7584 13.6548 54.7803 13.5331C54.8021 13.4114 54.7996 13.2866 54.773 13.1659C54.7464 13.0452 54.6962 12.9309 54.6253 12.8296ZM0.0716993 27.4926C0.0608683 27.6154 0.0745624 27.7391 0.111985 27.8565C0.149407 27.9739 0.209811 28.0828 0.28968 28.1766C0.36955 28.2705 0.467291 28.3476 0.577216 28.4033C0.687141 28.459 0.807055 28.4924 0.929981 28.5013C0.954775 28.5053 0.979888 28.5069 1.00498 28.506C1.18723 28.5063 1.36562 28.4535 1.51833 28.354C1.67103 28.2546 1.79143 28.1127 1.86479 27.9459C1.93815 27.7791 1.96129 27.5945 1.93137 27.4147C1.90146 27.2349 1.8198 27.0677 1.69637 26.9336C1.57294 26.7995 1.41311 26.7043 1.23641 26.6596C1.05972 26.615 0.873841 26.6228 0.701509 26.6821C0.529176 26.7414 0.377868 26.8496 0.266094 26.9936C0.154321 27.1375 0.0869308 27.3109 0.072168 27.4926H0.0716993ZM0.634668 23.6638C0.608891 23.7843 0.607139 23.9086 0.629512 24.0298C0.651886 24.1509 0.697946 24.2664 0.765052 24.3697C0.832157 24.473 0.918989 24.562 1.02057 24.6317C1.12215 24.7014 1.23648 24.7503 1.35701 24.7757C1.42178 24.789 1.48778 24.7953 1.55389 24.7945C1.73084 24.7941 1.90406 24.7436 2.05353 24.6489C2.20299 24.5542 2.32258 24.4191 2.39846 24.2593C2.47434 24.0994 2.5034 23.9213 2.48229 23.7456C2.46118 23.57 2.39075 23.4038 2.27916 23.2665C2.16757 23.1292 2.01937 23.0263 1.85172 22.9697C1.68407 22.913 1.50382 22.9051 1.33182 22.9466C1.15983 22.9882 1.00311 23.0776 0.879822 23.2045C0.756529 23.3315 0.671695 23.4907 0.635137 23.6638H0.634668ZM3.63139 17.6343C3.76169 17.7025 3.90666 17.7379 4.05373 17.7374C4.28468 17.7391 4.50819 17.6559 4.68181 17.5036C4.85544 17.3513 4.96707 17.1405 4.99551 16.9113C5.02395 16.6821 4.96722 16.4505 4.83609 16.2603C4.70496 16.0702 4.50857 15.9349 4.28422 15.88C4.05987 15.8252 3.82319 15.8547 3.61915 15.9629C3.4151 16.071 3.25789 16.2504 3.17739 16.4669C3.09689 16.6833 3.09871 16.9218 3.18249 17.1371C3.26627 17.3523 3.42572 17.5292 3.63139 17.6343ZM1.68982 19.9335C1.64837 20.0496 1.63029 20.1727 1.63663 20.2958C1.64297 20.4189 1.67359 20.5395 1.72675 20.6507C1.77991 20.7619 1.85454 20.8615 1.94635 20.9437C2.03817 21.0259 2.14534 21.0892 2.2617 21.1298C2.36238 21.167 2.46888 21.1861 2.57623 21.186C2.74829 21.1859 2.917 21.1384 3.06392 21.0489C3.21085 20.9593 3.33034 20.8311 3.40935 20.6783C3.48836 20.5254 3.52385 20.3538 3.51193 20.1821C3.50002 20.0105 3.44117 19.8454 3.34181 19.7049C3.24245 19.5645 3.1064 19.454 2.94851 19.3856C2.79063 19.3172 2.61698 19.2935 2.44655 19.3171C2.27611 19.3407 2.11543 19.4107 1.98206 19.5194C1.84869 19.6281 1.74729 19.7714 1.68982 19.9335ZM47.407 52.0888C47.2546 52.2104 47.1438 52.3764 47.0899 52.5637C47.0359 52.751 47.0416 52.9505 47.106 53.1345C47.1704 53.3185 47.2904 53.4779 47.4494 53.5907C47.6084 53.7035 47.7985 53.7641 47.9934 53.7642C48.2031 53.7647 48.4067 53.6936 48.5704 53.5626C48.7659 53.4083 48.892 53.1827 48.9211 52.9354C48.9502 52.6881 48.8799 52.4394 48.7256 52.244C48.5713 52.0486 48.3457 51.9224 48.0984 51.8933C47.8512 51.8642 47.6024 51.9346 47.407 52.0888ZM52.214 9.80338C52.1316 9.71063 52.0316 9.63516 51.9198 9.58134C51.808 9.52752 51.6866 9.49642 51.5627 9.48985C51.4387 9.48328 51.3148 9.50136 51.1979 9.54305C51.081 9.58473 50.9735 9.6492 50.8818 9.73271C50.79 9.81621 50.7157 9.91711 50.6631 10.0295C50.6106 10.142 50.5809 10.2637 50.5758 10.3877C50.5707 10.5117 50.5902 10.6354 50.6332 10.7518C50.6763 10.8682 50.742 10.9749 50.8265 11.0657C50.9948 11.2464 51.2275 11.3535 51.4742 11.3637C51.7208 11.3739 51.9616 11.2864 52.1442 11.1203C52.3268 10.9542 52.4365 10.7227 52.4496 10.4762C52.4627 10.2297 52.3781 9.98791 52.214 9.80338ZM50.775 51.2535C50.8998 51.2539 51.0235 51.2292 51.1386 51.1809C51.2538 51.1325 51.3581 51.0616 51.4453 50.9723H51.45C51.5805 50.8395 51.6686 50.6711 51.7033 50.4882C51.7379 50.3053 51.7175 50.1162 51.6447 49.945C51.5718 49.7737 51.4497 49.6279 51.2939 49.526C51.1381 49.4242 50.9556 49.3709 50.7694 49.3728C50.5833 49.3748 50.402 49.432 50.2483 49.5371C50.0947 49.6422 49.9758 49.7906 49.9065 49.9634C49.8373 50.1362 49.8209 50.3256 49.8594 50.5077C49.898 50.6898 49.9897 50.8564 50.1229 50.9863C50.2963 51.158 50.531 51.254 50.775 51.2535ZM49.5417 8.43275C49.6623 8.29145 49.7382 8.11753 49.7598 7.93305C49.7814 7.74856 49.7477 7.56181 49.6631 7.39647C49.5784 7.23113 49.4466 7.09465 49.2843 7.00433C49.122 6.914 48.9365 6.8739 48.7514 6.88911C48.5663 6.90432 48.3898 6.97415 48.2444 7.08975C48.099 7.20535 47.9912 7.36152 47.9347 7.53845C47.8782 7.71539 47.8754 7.90513 47.9269 8.08362C47.9783 8.2621 48.0816 8.4213 48.2236 8.54104C48.392 8.68501 48.6067 8.76326 48.8283 8.76135C48.9639 8.76193 49.098 8.73287 49.2213 8.67619C49.3445 8.61951 49.4539 8.53612 49.5417 8.43275ZM45.7097 54.4724C45.6257 54.3314 45.5061 54.2148 45.3629 54.1344C45.2198 54.0541 45.058 54.0127 44.8938 54.0145C44.7297 54.0163 44.5688 54.0612 44.4274 54.1447C44.2861 54.2282 44.1691 54.3473 44.0882 54.4902C44.0073 54.6331 43.9654 54.7947 43.9666 54.9589C43.9678 55.1231 44.0121 55.284 44.0951 55.4257C44.1781 55.5674 44.2968 55.6848 44.4394 55.7662C44.582 55.8476 44.7435 55.8901 44.9076 55.8895C45.0773 55.8891 45.2439 55.8439 45.3904 55.7582H45.3858C45.4916 55.6952 45.5839 55.6118 45.6574 55.5131C45.731 55.4143 45.7843 55.3019 45.8144 55.1825C45.8445 55.0631 45.8507 54.9389 45.8328 54.817C45.8148 54.6952 45.773 54.5781 45.7097 54.4724ZM45.8222 6.51885C45.9788 6.51951 46.1331 6.48073 46.2708 6.40611C46.4085 6.33148 46.5252 6.2234 46.6101 6.09182C46.7113 5.93626 46.7639 5.75419 46.7615 5.56867C46.7591 5.38315 46.7017 5.20252 46.5966 5.04964C46.4914 4.89677 46.3433 4.77853 46.1709 4.70989C45.9986 4.64125 45.8097 4.6253 45.6283 4.66405C45.4468 4.70281 45.281 4.79454 45.1517 4.92762C45.0224 5.06069 44.9355 5.22914 44.902 5.41163C44.8685 5.59411 44.8899 5.78244 44.9635 5.95275C45.0371 6.12307 45.1596 6.26771 45.3154 6.36838C45.4657 6.46727 45.6418 6.51946 45.8217 6.51838L45.8222 6.51885ZM20.6465 3.36088C20.7487 3.35982 20.8499 3.34241 20.9465 3.30932C21.0633 3.26992 21.1712 3.20791 21.264 3.12682C21.3568 3.04574 21.4327 2.94717 21.4874 2.83674C21.5422 2.72631 21.5746 2.60619 21.5829 2.48322C21.5912 2.36026 21.5752 2.23687 21.5358 2.1201C21.4964 2.00332 21.4344 1.89545 21.3533 1.80265C21.2722 1.70984 21.1736 1.63391 21.0632 1.57919C20.9528 1.52448 20.8326 1.49205 20.7097 1.48376C20.5867 1.47547 20.4633 1.49148 20.3465 1.53088H20.3419C20.1312 1.60296 19.9529 1.74746 19.8388 1.93866C19.7247 2.12986 19.6821 2.35536 19.7187 2.575C19.7553 2.79464 19.8686 2.99418 20.0385 3.1381C20.2084 3.28201 20.4239 3.36095 20.6465 3.36088ZM59.7515 33.8413C59.7748 33.6576 59.743 33.4712 59.6602 33.3056C59.5774 33.1399 59.4474 33.0026 59.2866 32.9109C59.1257 32.8191 58.9413 32.7772 58.7566 32.7903C58.5719 32.8034 58.3953 32.8709 58.249 32.9844C58.1027 33.0979 57.9934 33.2523 57.9348 33.4279C57.8762 33.6035 57.8711 33.7926 57.92 33.9712C57.9689 34.1498 58.0696 34.3098 58.2095 34.4312C58.3494 34.5525 58.5221 34.6296 58.7058 34.6528C58.7446 34.6582 58.7837 34.6613 58.8229 34.6621C59.0511 34.6618 59.2712 34.5783 59.4421 34.4271C59.613 34.276 59.7233 34.0677 59.7515 33.8413ZM58.1053 38.3409C58.3447 38.3428 58.5759 38.2535 58.7518 38.0911C58.9278 37.9287 59.0353 37.7055 59.0526 37.4667C59.0698 37.2279 58.9955 36.9915 58.8448 36.8055C58.694 36.6195 58.4781 36.4978 58.2409 36.4653C58.0037 36.4327 57.7631 36.4917 57.5678 36.6302C57.3725 36.7687 57.2372 36.9764 57.1895 37.211C57.1418 37.4456 57.1852 37.6896 57.3109 37.8933C57.4366 38.0971 57.6352 38.2454 57.8662 38.3081C57.9441 38.3298 58.0245 38.3409 58.1053 38.3409ZM52.6556 48.2226C52.8039 48.3344 52.9821 48.3998 53.1675 48.4105C53.353 48.4211 53.5374 48.3766 53.6976 48.2825C53.8577 48.1884 53.9864 48.0489 54.0674 47.8817C54.1483 47.7145 54.1779 47.5271 54.1524 47.3431C54.1269 47.1591 54.0474 46.9868 53.924 46.8479C53.8007 46.7091 53.6389 46.6099 53.4592 46.5629C53.2794 46.5159 53.0898 46.5232 52.9143 46.5839C52.7387 46.6447 52.5851 46.756 52.4728 46.904C52.3972 47.0022 52.3419 47.1144 52.3101 47.2342C52.2783 47.354 52.2708 47.4789 52.2878 47.6016C52.3048 47.7244 52.3461 47.8425 52.4092 47.9491C52.4724 48.0557 52.5561 48.1487 52.6556 48.2226ZM56.5622 41.8317C56.6754 41.8775 56.7963 41.9014 56.9184 41.902C57.1514 41.902 57.376 41.8153 57.5486 41.6588C57.7212 41.5023 57.8293 41.2871 57.852 41.0553C57.8747 40.8234 57.8102 40.5914 57.6712 40.4044C57.5323 40.2175 57.3287 40.0889 57.1001 40.0438C56.8715 39.9987 56.6344 40.0402 56.4348 40.1604C56.2352 40.2805 56.0874 40.4707 56.0203 40.6938C55.9532 40.9168 55.9715 41.1569 56.0716 41.3673C56.1718 41.5776 56.3467 41.7432 56.5622 41.8317ZM54.8175 45.1537C54.958 45.2321 55.1159 45.274 55.2769 45.2756C55.5047 45.2763 55.7251 45.1939 55.8967 45.044C56.0683 44.894 56.1794 44.6866 56.2092 44.4607C56.239 44.2348 56.1855 44.0057 56.0587 43.8164C55.9318 43.627 55.7404 43.4904 55.5201 43.4319C55.2999 43.3735 55.0658 43.3973 54.8618 43.4989C54.6578 43.6004 54.4978 43.7728 54.4117 43.9838C54.3256 44.1948 54.3193 44.43 54.394 44.6453C54.4687 44.8606 54.6192 45.0413 54.8175 45.1537ZM42.5578 4.67947C42.7252 4.67872 42.8893 4.6332 43.0331 4.54764C43.1769 4.46208 43.2953 4.3396 43.3758 4.19289C43.4563 4.04618 43.4961 3.8806 43.4911 3.71332C43.4861 3.54603 43.4364 3.38314 43.3472 3.24154C43.258 3.09994 43.1325 2.98478 42.9838 2.90802C42.8351 2.83126 42.6685 2.79569 42.5014 2.805C42.3343 2.8143 42.1727 2.86815 42.0335 2.96095C41.8942 3.05375 41.7823 3.18212 41.7094 3.33275C41.6033 3.55759 41.5901 3.81514 41.6726 4.04964C41.7551 4.28414 41.9266 4.47673 42.15 4.58572C42.2768 4.64825 42.4164 4.68035 42.5578 4.67947ZM28.0476 1.89229C28.2836 1.86685 28.5001 1.74981 28.6507 1.56635C28.8012 1.38289 28.8737 1.14767 28.8526 0.911295C28.8315 0.674919 28.7184 0.456277 28.5377 0.302406C28.3571 0.148536 28.1232 0.0717335 27.8865 0.0885224C27.6498 0.105311 27.4291 0.21435 27.2719 0.392179C27.1148 0.570009 27.0337 0.802419 27.0462 1.03941C27.0586 1.2764 27.1636 1.49903 27.3386 1.65941C27.5135 1.81979 27.7444 1.90509 27.9815 1.89697C28.005 1.89697 28.0242 1.89229 28.0476 1.89229ZM25.9748 58.8126C25.9492 59.06 26.0226 59.3076 26.1789 59.5011C26.3353 59.6946 26.5619 59.8183 26.8092 59.8452C26.842 59.8452 26.8748 59.8499 26.9076 59.8499C27.089 59.85 27.2666 59.7975 27.4188 59.6988C27.571 59.6001 27.6913 59.4593 27.7651 59.2937C27.839 59.128 27.8633 58.9444 27.835 58.7652C27.8067 58.5861 27.7271 58.4189 27.6058 58.284C27.4845 58.1491 27.3267 58.0523 27.1516 58.0052C26.9764 57.9581 26.7913 57.9628 26.6187 58.0188C26.4462 58.0747 26.2935 58.1794 26.1792 58.3203C26.0649 58.4612 25.9939 58.6322 25.9748 58.8126ZM24.2672 2.38963C24.3286 2.39037 24.39 2.38408 24.45 2.37088C24.6847 2.32309 24.8921 2.18687 25.0292 1.99041C25.1663 1.79395 25.2226 1.5523 25.1864 1.31549C25.1502 1.07868 25.0244 0.864834 24.8349 0.718234C24.6455 0.571633 24.4069 0.503502 24.1686 0.527943C23.9303 0.552385 23.7105 0.667529 23.5547 0.849537C23.399 1.03154 23.3192 1.26648 23.3318 1.5057C23.3445 1.74492 23.4487 1.97012 23.6228 2.13466C23.7969 2.2992 24.0276 2.39049 24.2672 2.38963ZM41.2031 55.8051C41.0044 55.8908 40.8414 56.0425 40.7417 56.2345C40.6419 56.4266 40.6115 56.6471 40.6556 56.859C40.6997 57.0708 40.8156 57.261 40.9837 57.3973C41.1517 57.5335 41.3617 57.6076 41.5781 57.607C41.7056 57.6053 41.8315 57.5782 41.9484 57.5273C42.1722 57.4254 42.347 57.2398 42.4354 57.0104C42.5237 56.781 42.5185 56.5261 42.4209 56.3005C42.3232 56.0748 42.1409 55.8965 41.9132 55.8039C41.6855 55.7113 41.4305 55.7117 41.2031 55.8051ZM22.3022 58.0621C22.273 58.1816 22.2679 58.3057 22.287 58.4273C22.3062 58.5488 22.3493 58.6653 22.4139 58.77C22.4784 58.8747 22.5631 58.9656 22.663 59.0374C22.7629 59.1091 22.8761 59.1604 22.9959 59.1881C23.0679 59.2066 23.1419 59.2161 23.2162 59.2162C23.3923 59.2158 23.5647 59.1659 23.7136 59.0721C23.8626 58.9784 23.9822 58.8446 24.0587 58.686C24.1352 58.5274 24.1655 58.3505 24.1461 58.1756C24.1268 58.0006 24.0585 57.8346 23.9492 57.6966C23.8399 57.5586 23.694 57.4542 23.5281 57.3953C23.3622 57.3363 23.1831 57.3253 23.0112 57.3635C22.8393 57.4016 22.6817 57.4874 22.5563 57.6109C22.4309 57.7345 22.3428 57.8908 22.3022 58.0621ZM29.7169 59.0849C29.7215 59.3293 29.8219 59.5621 29.9965 59.7332C30.171 59.9043 30.4057 60.0001 30.6501 59.9999H30.6736C30.8594 59.9964 31.0399 59.9377 31.1923 59.8314C31.3447 59.7251 31.4622 59.5759 31.5297 59.4028C31.5973 59.2297 31.6119 59.0404 31.5718 58.859C31.5316 58.6775 31.4385 58.5121 31.3043 58.3836C31.17 58.2552 31.0006 58.1694 30.8176 58.1373C30.6346 58.1052 30.4461 58.1282 30.2761 58.2033C30.1062 58.2784 29.9623 58.4023 29.8629 58.5593C29.7634 58.7162 29.7122 58.8992 29.7169 59.0849ZM37.7883 57.0342C37.5704 57.096 37.3824 57.2345 37.2588 57.4242C37.1352 57.6139 37.0844 57.8419 37.1158 58.0662C37.1472 58.2904 37.2588 58.4957 37.4297 58.6441C37.6007 58.7925 37.8197 58.874 38.0461 58.8735C38.1348 58.8743 38.2232 58.8632 38.309 58.8407C38.5486 58.7717 38.7509 58.6103 38.8715 58.392C38.9921 58.1738 39.021 57.9166 38.9519 57.677C38.8829 57.4375 38.7215 57.2352 38.5032 57.1146C38.285 56.994 38.0278 56.9651 37.7883 57.0342ZM38.7872 3.22963C38.8807 3.26155 38.979 3.2774 39.0778 3.2765C39.3141 3.27711 39.542 3.1886 39.716 3.02862C39.89 2.86864 39.9973 2.64895 40.0165 2.41337C40.0357 2.17779 39.9653 1.94364 39.8195 1.75762C39.6737 1.5716 39.4631 1.44738 39.2298 1.40974C38.9964 1.37211 38.7575 1.42382 38.5606 1.55456C38.3637 1.68531 38.2233 1.88547 38.1674 2.11513C38.1116 2.3448 38.1444 2.58708 38.2592 2.79365C38.3741 3.00022 38.5626 3.1559 38.7872 3.22963ZM35.4478 2.33807C35.6858 2.33492 35.9134 2.24025 36.0834 2.07371C36.2534 1.90717 36.3528 1.68155 36.3608 1.44369C36.3689 1.20584 36.285 0.974016 36.1266 0.796356C35.9683 0.618696 35.7476 0.508847 35.5104 0.489614C35.2732 0.47038 35.0377 0.54324 34.8527 0.693066C34.6678 0.842893 34.5477 1.05818 34.5173 1.29422C34.487 1.53027 34.5487 1.76895 34.6896 1.9607C34.8306 2.15246 35.04 2.28256 35.2744 2.324C35.3317 2.33325 35.3897 2.33795 35.4478 2.33807ZM34.2473 57.8132C34.0134 57.8482 33.8014 57.9704 33.6538 58.1553C33.5063 58.3402 33.4342 58.5741 33.452 58.81C33.4698 59.0458 33.5762 59.2662 33.7498 59.4269C33.9234 59.5875 34.1514 59.6765 34.3879 59.676C34.435 59.6774 34.4821 59.6743 34.5286 59.6667C34.7706 59.6252 34.9866 59.4904 35.1303 59.2913C35.274 59.0922 35.3339 58.8447 35.2971 58.602C35.2602 58.3592 35.1296 58.1406 34.9333 57.9931C34.7371 57.8456 34.4907 57.781 34.2473 57.8132ZM31.7287 1.87822C31.9678 1.87742 32.1976 1.78587 32.3717 1.62211C32.5458 1.45834 32.6513 1.23457 32.6667 0.996036C32.6773 0.811099 32.6328 0.627174 32.539 0.467476C32.4451 0.307777 32.306 0.179463 32.1393 0.09873C31.9726 0.0179968 31.7857 -0.0115371 31.6022 0.0138561C31.4187 0.0392493 31.2469 0.118431 31.1083 0.241408C30.9698 0.364385 30.8708 0.525644 30.8239 0.704831C30.7769 0.884017 30.7841 1.0731 30.8445 1.24821C30.9049 1.42333 31.0158 1.57662 31.1633 1.68875C31.3107 1.80087 31.4881 1.86681 31.6729 1.87822H31.7287ZM50.8594 31.8079V28.192C50.8594 27.2337 50.486 26.3132 49.8184 25.6259C49.1508 24.9385 48.2415 24.5383 47.2837 24.5104C46.973 23.5278 46.5787 22.5735 46.1053 21.6581C46.7619 20.9609 47.1212 20.0353 47.1068 19.0777C47.0925 18.1201 46.7057 17.2057 46.0284 16.5285L43.4714 13.9715C42.7942 13.2943 41.8798 12.9074 40.9222 12.8931C39.9646 12.8787 39.039 13.238 38.3419 13.8946C37.4264 13.4212 36.4721 13.027 35.4895 12.7162C35.4603 11.7588 35.0598 10.8503 34.3727 10.183C33.6856 9.51567 32.7658 9.14182 31.8079 9.14057H28.192C27.2341 9.14159 26.3142 9.51536 25.627 10.1827C24.9399 10.8501 24.5394 11.7587 24.5105 12.7162C23.5278 13.027 22.5735 13.4212 21.6581 13.8946C20.9609 13.238 20.0354 12.8787 19.0778 12.8931C18.1201 12.9074 17.2058 13.2943 16.5286 13.9715L13.9715 16.5285C13.2943 17.2057 12.9075 18.1201 12.8931 19.0777C12.8788 20.0353 13.238 20.9609 13.8947 21.6581C13.4213 22.5735 13.027 23.5278 12.7162 24.5104C11.7588 24.5396 10.8504 24.9402 10.183 25.6273C9.51571 26.3144 9.14186 27.2341 9.1406 28.192V31.8079C9.14056 32.7661 9.51398 33.6866 10.1816 34.374C10.8492 35.0614 11.7584 35.4615 12.7162 35.4895C13.027 36.4721 13.4213 37.4264 13.8947 38.3418C13.238 39.039 12.8788 39.9645 12.8931 40.9222C12.9075 41.8798 13.2943 42.7942 13.9715 43.4713L16.5286 46.0284C17.2058 46.7056 18.1201 47.0924 19.0778 47.1068C20.0354 47.1211 20.9609 46.7619 21.6581 46.1053C22.5735 46.5787 23.5278 46.9729 24.5105 47.2837C24.5397 48.2411 24.9402 49.1495 25.6273 49.8169C26.3144 50.4842 27.2342 50.8581 28.192 50.8593H31.8079C32.7658 50.8582 33.6857 50.4844 34.3728 49.817C35.0599 49.1497 35.4604 48.2411 35.4895 47.2837C36.4722 46.9729 37.4264 46.5787 38.3419 46.1053C39.039 46.7619 39.9646 47.1211 40.9222 47.1068C41.8798 47.0924 42.7942 46.7056 43.4714 46.0284L46.0284 43.4713C46.7057 42.7942 47.0925 41.8798 47.1068 40.9222C47.1212 39.9645 46.7619 39.039 46.1053 38.3418C46.5787 37.4264 46.9729 36.4721 47.2837 35.4895C48.2411 35.4603 49.1496 35.0597 49.8169 34.3726C50.4843 33.6855 50.8581 32.7657 50.8594 31.8079ZM48.9844 31.8079C48.9844 32.2874 48.7939 32.7473 48.4548 33.0863C48.1158 33.4254 47.6559 33.6159 47.1764 33.6159H47.1731C46.805 33.6154 46.4464 33.7328 46.1499 33.9511C45.8535 34.1693 45.6348 34.4769 45.5259 34.8285C45.2333 35.7754 44.854 36.6934 44.3929 37.5707C44.2224 37.8961 44.1605 38.2674 44.2162 38.6305C44.2718 38.9936 44.4422 39.3294 44.7023 39.5887C45.0413 39.9277 45.2317 40.3875 45.2317 40.867C45.2317 41.3464 45.0413 41.8062 44.7023 42.1453L42.1453 44.7023C41.8062 45.0413 41.3464 45.2317 40.867 45.2317C40.3876 45.2317 39.9278 45.0413 39.5887 44.7023C39.3296 44.442 38.9939 44.2716 38.6308 44.216C38.2678 44.1603 37.8965 44.2223 37.5712 44.3929C36.6937 44.854 35.7756 45.2332 34.8286 45.5259C34.477 45.6347 34.1695 45.8533 33.9513 46.1497C33.733 46.446 33.6155 46.8045 33.6159 47.1726V47.1763C33.6159 47.6558 33.4254 48.1157 33.0864 48.4548C32.7473 48.7938 32.2875 48.9843 31.8079 48.9843H28.192C27.7125 48.9843 27.2526 48.7938 26.9136 48.4548C26.5745 48.1157 26.384 47.6558 26.384 47.1763V47.1731C26.3846 46.8049 26.2671 46.4463 26.0488 46.1499C25.8306 45.8534 25.5231 45.6347 25.1714 45.5259C24.2245 45.2332 23.3065 44.854 22.4292 44.3929C22.1039 44.2222 21.7325 44.1601 21.3693 44.2158C21.0062 44.2715 20.6704 44.4419 20.4112 44.7023C20.0722 45.0413 19.6124 45.2317 19.1329 45.2317C18.6535 45.2317 18.1937 45.0413 17.8547 44.7023L15.2976 42.1453C14.9587 41.8062 14.7682 41.3464 14.7682 40.867C14.7682 40.3875 14.9587 39.9277 15.2976 39.5887C15.5577 39.3294 15.728 38.9937 15.7836 38.6307C15.8393 38.2678 15.7774 37.8965 15.607 37.5712C15.146 36.6937 14.7667 35.7756 14.474 34.8285C14.3652 34.4769 14.1465 34.1693 13.85 33.9511C13.5536 33.7328 13.195 33.6154 12.8269 33.6159H12.8236C12.3441 33.6159 11.8842 33.4254 11.5451 33.0863C11.2061 32.7473 11.0156 32.2874 11.0156 31.8079V28.192C11.0156 27.7125 11.2061 27.2526 11.5451 26.9135C11.8842 26.5745 12.3441 26.384 12.8236 26.384H12.8269C13.195 26.3845 13.5536 26.267 13.85 26.0488C14.1465 25.8305 14.3652 25.523 14.474 25.1713C14.7667 24.2244 15.146 23.3065 15.607 22.4292C15.7775 22.1038 15.8395 21.7324 15.7838 21.3694C15.7281 21.0063 15.5578 20.6705 15.2976 20.4112C14.9587 20.0721 14.7682 19.6123 14.7682 19.1329C14.7682 18.6535 14.9587 18.1937 15.2976 17.8546L17.8547 15.2976C18.1937 14.9586 18.6535 14.7682 19.1329 14.7682C19.6124 14.7682 20.0722 14.9586 20.4112 15.2976C20.6704 15.5578 21.0061 15.7283 21.3691 15.7839C21.7322 15.8396 22.1035 15.7776 22.4287 15.607C23.3062 15.1459 24.2243 14.7666 25.1714 14.474C25.5231 14.3652 25.8306 14.1465 26.0488 13.85C26.2671 13.5535 26.3846 13.1949 26.384 12.8268V12.8235C26.384 12.344 26.5745 11.8842 26.9136 11.5451C27.2526 11.206 27.7125 11.0156 28.192 11.0156H31.8079C32.2875 11.0156 32.7473 11.206 33.0864 11.5451C33.4254 11.8842 33.6159 12.344 33.6159 12.8235V12.8268C33.6154 13.1949 33.7329 13.5535 33.9511 13.85C34.1694 14.1465 34.4769 14.3652 34.8286 14.474C35.7755 14.7667 36.6934 15.1459 37.5708 15.607C37.8164 15.7364 38.09 15.8039 38.3676 15.8038C38.5945 15.8038 38.819 15.7591 39.0286 15.6723C39.2381 15.5854 39.4284 15.4581 39.5887 15.2976C39.9278 14.9586 40.3876 14.7682 40.867 14.7682C41.3464 14.7682 41.8062 14.9586 42.1453 15.2976L44.7023 17.8546C45.0413 18.1937 45.2317 18.6535 45.2317 19.1329C45.2317 19.6123 45.0413 20.0721 44.7023 20.4112C44.4423 20.6705 44.272 21.0062 44.2163 21.3691C44.1607 21.7321 44.2226 22.1034 44.3929 22.4287C44.854 23.3062 45.2333 24.2243 45.5259 25.1713C45.6348 25.523 45.8535 25.8305 46.1499 26.0488C46.4464 26.267 46.805 26.3845 47.1731 26.384H47.1764C47.6559 26.384 48.1158 26.5745 48.4548 26.9135C48.7939 27.2526 48.9844 27.7125 48.9844 28.192V31.8079Z" fill="white"/>
<path d="M25.6874 39.8845C23.5396 38.9471 21.7556 37.3355 20.6056 35.2936C19.4555 33.2517 19.002 30.8907 19.3136 28.5681C19.6253 26.2454 20.6851 24.0875 22.3328 22.421C23.9804 20.7545 26.1261 19.6702 28.4451 19.3321C28.3833 19.5317 28.3902 19.7463 28.4646 19.9416C28.539 20.1368 28.6766 20.3016 28.8556 20.4095C29.0345 20.5173 29.2444 20.5622 29.4519 20.5369C29.6593 20.5115 29.8522 20.4174 29.9999 20.2696L31.3256 18.944C31.5013 18.7682 31.6 18.5298 31.6 18.2812C31.6 18.0326 31.5013 17.7942 31.3256 17.6184L29.9999 16.2923C29.8389 16.1306 29.6242 16.0333 29.3965 16.0189C29.1687 16.0044 28.9435 16.0736 28.7632 16.2136C28.5829 16.3536 28.4601 16.5547 28.4177 16.779C28.3754 17.0032 28.4164 17.2352 28.5332 17.4313C25.7703 17.7538 23.1906 18.9775 21.1929 20.9132C19.1953 22.8489 17.8909 25.3888 17.4816 28.1401C17.0722 30.8915 17.5807 33.7011 18.9283 36.1345C20.2759 38.5679 22.3876 40.4896 24.937 41.6024C25.05 41.6531 25.1719 41.6808 25.2957 41.6841C25.4195 41.6874 25.5427 41.6661 25.6583 41.6214C25.7738 41.5768 25.8793 41.5097 25.9688 41.4241C26.0582 41.3384 26.1298 41.2359 26.1794 41.1224C26.229 41.0089 26.2556 40.8868 26.2578 40.7629C26.2599 40.6391 26.2374 40.5161 26.1917 40.401C26.146 40.2859 26.078 40.181 25.9915 40.0923C25.905 40.0037 25.8014 39.933 25.6874 39.8845ZM35.0624 18.3974C34.9491 18.345 34.8265 18.3157 34.7017 18.3112C34.577 18.3068 34.4526 18.3274 34.3358 18.3717C34.2191 18.416 34.1124 18.4831 34.022 18.5692C33.9316 18.6553 33.8593 18.7586 33.8093 18.8731C33.7593 18.9875 33.7328 19.1107 33.7311 19.2356C33.7294 19.3604 33.7527 19.4843 33.7995 19.6001C33.8464 19.7158 33.9159 19.821 34.004 19.9095C34.0921 19.998 34.1969 20.068 34.3124 20.1154C36.4566 21.0517 38.2381 22.6599 39.3881 24.6975C40.5381 26.735 40.9942 29.0913 40.6877 31.4108C40.3811 33.7303 39.3285 35.8871 37.6887 37.556C36.0488 39.2248 33.9107 40.315 31.597 40.6621C31.6575 40.4646 31.651 40.2526 31.5783 40.0592C31.5056 39.8659 31.3709 39.702 31.1952 39.5933C31.0196 39.4846 30.8129 39.4371 30.6074 39.4583C30.4019 39.4796 30.2092 39.5683 30.0595 39.7106L28.6532 41.0367C28.5603 41.1243 28.4863 41.23 28.4357 41.3473C28.385 41.4646 28.3589 41.591 28.3589 41.7187C28.3589 41.8464 28.385 41.9728 28.4357 42.0901C28.4863 42.2074 28.5603 42.3131 28.6532 42.4007L30.0595 43.7268C30.2237 43.8829 30.439 43.9741 30.6655 43.9834C30.8919 43.9927 31.1139 43.9194 31.2904 43.7773C31.4669 43.6351 31.5857 43.4338 31.6249 43.2106C31.664 42.9874 31.6208 42.7576 31.5032 42.5638C34.2621 42.2339 36.8358 41.0053 38.8271 39.0675C40.8184 37.1297 42.1167 34.5904 42.5216 31.8415C42.9265 29.0926 42.4156 26.2868 41.0676 23.8571C39.7196 21.4274 37.609 19.5088 35.0624 18.3974Z" fill="white"/>
<path d="M38.4375 29.9999C38.4375 28.3311 37.9427 26.6998 37.0155 25.3123C36.0884 23.9247 34.7706 22.8433 33.2289 22.2046C31.6871 21.566 29.9906 21.3989 28.3539 21.7245C26.7172 22.0501 25.2138 22.8537 24.0338 24.0337C22.8538 25.2137 22.0502 26.7171 21.7246 28.3538C21.3991 29.9905 21.5662 31.687 22.2048 33.2288C22.8434 34.7705 23.9248 36.0883 25.3124 37.0154C26.6999 37.9425 28.3312 38.4374 30 38.4374C32.237 38.4349 34.3817 37.5452 35.9635 35.9634C37.5453 34.3816 38.435 32.2369 38.4375 29.9999ZM23.4375 29.9999C23.4375 28.7019 23.8224 27.4331 24.5435 26.354C25.2646 25.2748 26.2895 24.4336 27.4886 23.9369C28.6878 23.4402 30.0073 23.3103 31.2803 23.5635C32.5533 23.8167 33.7226 24.4417 34.6404 25.3595C35.5582 26.2773 36.1832 27.4466 36.4364 28.7196C36.6896 29.9926 36.5597 31.3121 36.063 32.5112C35.5663 33.7104 34.7251 34.7353 33.6459 35.4564C32.5667 36.1775 31.2979 36.5624 30 36.5624C28.2601 36.5604 26.5921 35.8684 25.3618 34.6381C24.1315 33.4078 23.4395 31.7398 23.4375 29.9999Z" fill="white"/>
<path d="M33.75 30.9375C33.9986 30.9375 34.2371 30.8387 34.4129 30.6629C34.5887 30.4871 34.6875 30.2486 34.6875 30C34.6875 29.7514 34.5887 29.5129 34.4129 29.3371C34.2371 29.1613 33.9986 29.0625 33.75 29.0625H30.9375V26.25C30.9375 26.0014 30.8387 25.7629 30.6629 25.5871C30.4871 25.4113 30.2486 25.3125 30 25.3125C29.7514 25.3125 29.5129 25.4113 29.3371 25.5871C29.1613 25.7629 29.0625 26.0014 29.0625 26.25V30C29.0625 30.2486 29.1613 30.4871 29.3371 30.6629C29.5129 30.8387 29.7514 30.9375 30 30.9375H33.75Z" fill="white"/>
</g>
<defs>
<clipPath id="clip0_831_1550">
<rect width="60" height="60" fill="white"/>
</clipPath>
</defs>
</svg>
