<svg width="60" height="61" viewBox="0 0 60 61" fill="none" xmlns="http://www.w3.org/2000/svg">
<g clip-path="url(#clip0_877_195)">
<path d="M53.0004 15.5015V5.50179C53.0004 5.23658 52.8951 4.98223 52.7075 4.7947C52.52 4.60717 52.2657 4.50182 52.0005 4.50182H48.0006V6.50175H51.0005V15.5015H53.0004ZM7.00195 30.501V55.5001C7.00195 55.7653 7.10731 56.0197 7.29484 56.2072C7.48237 56.3947 7.73671 56.5001 8.00192 56.5001H48.0006C48.2658 56.5001 48.5201 56.3947 48.7077 56.2072C48.8952 56.0197 49.0006 55.7653 49.0006 55.5001V48.5004H47.0006V54.5002H9.00189V30.501H7.00195ZM39.4149 0.602075C39.3836 0.587825 39.3539 0.580076 39.3216 0.568826C39.2381 0.540154 39.1511 0.522752 39.0629 0.517078C39.0409 0.513203 39.0219 0.501953 39.0009 0.501953H8.00192C7.73671 0.501953 7.48237 0.607306 7.29484 0.794837C7.10731 0.982367 7.00195 1.23671 7.00195 1.50192V3.50185H9.00189V2.50189H38.0009V10.5016C38.0009 10.7668 38.1063 11.0212 38.2938 11.2087C38.4813 11.3962 38.7357 11.5016 39.0009 11.5016H47.0006V16.5014H49.0006V10.5016C49.0006 10.4806 48.9898 10.4616 48.9883 10.4396C48.9829 10.3514 48.9655 10.2644 48.9366 10.1809C48.9253 10.1486 48.9176 10.1188 48.9033 10.0875C48.8549 9.97871 48.7872 9.87951 48.7037 9.79464L39.704 0.794943C39.6196 0.714297 39.5217 0.649025 39.4149 0.602075ZM45.5865 9.50165H40.0009V3.91584L45.5865 9.50165Z" fill="white"/>
<path d="M23.0015 42.5006V50.5003C23.0015 50.7655 23.1068 51.0199 23.2943 51.2074C23.4819 51.3949 23.7362 51.5003 24.0014 51.5003H37.001V49.5003H25.0014V43.5005H30.0012V41.5006H24.0014C23.7362 41.5006 23.4819 41.606 23.2943 41.7935C23.1068 41.981 23.0015 42.2354 23.0015 42.5006Z" fill="white"/>
<path d="M27.0015 45.5005H33.0013V47.5004H27.0015V45.5005Z" fill="white"/>
<path d="M53.0006 17.5013C49.137 17.5062 46.0057 20.6375 46.0008 24.5011V24.6011L40.9009 29.9847L37.7081 26.792C37.6153 26.6991 37.505 26.6255 37.3837 26.5752C37.2624 26.5249 37.1324 26.499 37.0011 26.499C36.8697 26.499 36.7397 26.5249 36.6184 26.5752C36.4971 26.6255 36.3869 26.6991 36.294 26.792L27.2943 35.7917C27.107 35.9793 27.0017 36.2336 27.0017 36.4987C27.0017 36.7638 27.107 37.0181 27.2943 37.2057L41.2939 51.2052C41.4814 51.3926 41.7357 51.4979 42.0009 51.4979C42.266 51.4979 42.5203 51.3926 42.7079 51.2052L45.7078 48.2053L51.0007 42.9145V58.5H12.002V60.4999H52.0006C52.2658 60.4999 52.5202 60.3946 52.7077 60.207C52.8952 60.0195 53.0006 59.7651 53.0006 59.4999V35.5007H51.0007V40.0865L47.5149 36.6008L52.9005 31.5009H53.0005C56.8666 31.5009 60.0002 28.3672 60.0002 24.5011C60.0002 20.635 56.8667 17.5013 53.0006 17.5013ZM42.001 49.0862L29.4154 36.5007L31.0013 34.9148L43.5868 47.5003L42.001 49.0862ZM49.5866 41.5005L45.0009 46.0863L32.4153 33.5008L37.0011 28.915L39.5249 31.4389L37.275 33.8128C37.0943 34.0022 36.9951 34.2549 36.9986 34.5167C37.0022 34.7784 37.1082 35.0283 37.294 35.2128L42.2938 40.2126C42.478 40.3967 42.7267 40.5016 42.987 40.5051C43.2474 40.5087 43.4988 40.4105 43.6879 40.2315L46.0628 37.9815L49.5866 41.5005ZM53.0006 29.5009H52.5006C52.2447 29.501 51.9986 29.599 51.8126 29.7748L43.0199 38.1008L39.4009 34.4817L47.7306 25.6891C47.9052 25.5026 48.0018 25.2565 48.0006 25.0011V24.5011C48.0006 21.74 50.2393 19.5013 53.0005 19.5013C55.7616 19.5013 58.0003 21.74 58.0003 24.5011C58.0003 27.2623 55.7617 29.5009 53.0006 29.5009ZM19.0017 29.5009H29.0014V31.5009H19.0017V29.5009ZM13.0019 33.5008H25.0015V35.5007H13.0019V33.5008ZM22.0016 25.5011H34.0012V27.501H22.0016V25.5011ZM13.0019 37.5007H19.0017V39.5006H13.0019V37.5007ZM13.0019 41.5005H21.0017V43.5005H13.0019V41.5005Z" fill="white"/>
<path d="M13.002 45.5005H21.0017V47.5004H13.002V45.5005ZM13.002 49.5004H21.0017V51.5003H13.002V49.5004ZM13.002 29.501H17.0018V31.501H13.002V29.501ZM21.0017 37.5008H25.0016V39.5007H21.0017V37.5008ZM25.0016 20.5013H35.0012V22.5013H25.0016V20.5013Z" fill="white"/>
<path d="M12.0018 28.501C18.4601 28.4937 23.7543 23.3757 23.9804 16.9214C24.2476 17.1453 24.5565 17.314 24.8893 17.418C25.222 17.522 25.572 17.5591 25.9192 17.5273C26.1737 17.8322 26.4921 18.0775 26.8519 18.2458C27.2117 18.4141 27.604 18.5014 28.0012 18.5014C28.3984 18.5014 28.7907 18.4141 29.1505 18.2458C29.5103 18.0775 29.8287 17.8322 30.0832 17.5273C30.4786 17.5628 30.8771 17.511 31.2503 17.3756C31.6236 17.2402 31.9626 17.0245 32.2433 16.7437C32.5241 16.463 32.7398 16.124 32.8751 15.7508C33.0105 15.3775 33.0623 14.9791 33.0268 14.5836C33.3319 14.3292 33.5772 14.0108 33.7456 13.651C33.9139 13.2912 34.0012 12.8988 34.001 12.5016C34.0012 12.1044 33.914 11.712 33.7456 11.3522C33.5773 10.9925 33.332 10.6741 33.027 10.4196C33.0625 10.0241 33.0107 9.62568 32.8753 9.25238C32.74 8.87909 32.5243 8.54007 32.2435 8.25929C31.9627 7.9785 31.6237 7.76279 31.2504 7.6274C30.8771 7.492 30.4787 7.44023 30.0832 7.47573C29.8287 7.17081 29.5103 6.92553 29.1505 6.7572C28.7907 6.58888 28.3984 6.50164 28.0012 6.50164C27.604 6.50164 27.2117 6.58888 26.8519 6.7572C26.4921 6.92553 26.1737 7.17081 25.9192 7.47573C25.5237 7.44026 25.1253 7.49204 24.7521 7.62743C24.3788 7.76281 24.0398 7.9785 23.7591 8.25926C23.4783 8.54001 23.2626 8.87899 23.1272 9.25224C22.9918 9.6255 22.9401 10.0239 22.9755 10.4194C22.8274 10.5415 22.6932 10.6798 22.5756 10.8315C19.8013 5.65692 13.6906 3.24975 8.13266 5.14169C2.57497 7.0345 -0.798039 12.6701 0.161429 18.4624C1.1209 24.2547 6.13098 28.502 12.0019 28.5012L12.0018 28.501ZM24.4671 11.8415C24.5989 11.7946 24.7194 11.7207 24.8209 11.6244C24.9223 11.5281 25.0024 11.4116 25.056 11.2824C25.1094 11.1532 25.1351 11.0142 25.1316 10.8745C25.1281 10.7347 25.0953 10.5972 25.0355 10.4709C24.9721 10.34 24.951 10.1926 24.9752 10.0492C24.9993 9.90581 25.0675 9.77347 25.1702 9.67054C25.2732 9.5678 25.4055 9.49964 25.5489 9.47549C25.6923 9.45135 25.8397 9.47242 25.9706 9.53579C26.0969 9.59564 26.2344 9.62838 26.3741 9.63191C26.5139 9.63544 26.6528 9.60968 26.782 9.55629C26.9112 9.5027 27.0277 9.42261 27.124 9.3212C27.2202 9.21979 27.2942 9.09932 27.341 8.96756C27.3893 8.83105 27.4787 8.71286 27.5969 8.62926C27.7152 8.54567 27.8564 8.50078 28.0012 8.50078C28.146 8.50078 28.2872 8.54567 28.4054 8.62926C28.5237 8.71286 28.6131 8.83105 28.6614 8.96756C28.7082 9.09933 28.7822 9.21981 28.8785 9.32122C28.9748 9.42263 29.0913 9.50271 29.2205 9.55629C29.4817 9.66429 29.7766 9.65691 30.0324 9.53579C30.1632 9.47247 30.3105 9.45143 30.4538 9.47557C30.5971 9.49972 30.7293 9.56786 30.8322 9.67054C30.9349 9.77347 31.0031 9.90581 31.0272 10.0492C31.0513 10.1926 31.0303 10.34 30.9669 10.4709C30.9071 10.5972 30.8743 10.7347 30.8708 10.8745C30.8673 11.0142 30.893 11.1532 30.9464 11.2824C31 11.4116 31.0801 11.5281 31.1815 11.6244C31.283 11.7207 31.4035 11.7946 31.5353 11.8415C31.6717 11.8898 31.7899 11.9792 31.8734 12.0974C31.957 12.2156 32.0019 12.3568 32.0019 12.5016C32.0019 12.6463 31.957 12.7875 31.8734 12.9057C31.7899 13.024 31.6717 13.1134 31.5353 13.1617C31.4035 13.2085 31.283 13.2825 31.1816 13.3788C31.0802 13.4751 31.0001 13.5916 30.9465 13.7208C30.8931 13.8501 30.8673 13.9891 30.8708 14.1289C30.8744 14.2688 30.9071 14.4063 30.9669 14.5327C31.0341 14.6629 31.0571 14.8114 31.0322 14.9557C31.0074 15.1 30.9361 15.2323 30.8293 15.3325C30.7284 15.4384 30.5961 15.5091 30.452 15.534C30.3078 15.5589 30.1595 15.5367 30.0289 15.4707C29.9027 15.4106 29.7652 15.3778 29.6254 15.3742C29.4856 15.3707 29.3466 15.3966 29.2175 15.4502C29.0882 15.5036 28.9717 15.5836 28.8754 15.685C28.7791 15.7863 28.7051 15.9068 28.6584 16.0386C28.6101 16.1751 28.5207 16.2933 28.4024 16.3769C28.2842 16.4605 28.143 16.5054 27.9982 16.5054C27.8534 16.5054 27.7122 16.4605 27.5939 16.3769C27.4757 16.2933 27.3863 16.1751 27.338 16.0386C27.2912 15.9066 27.2172 15.786 27.1207 15.6845C27.0242 15.5831 26.9075 15.5031 26.778 15.4497C26.6566 15.3999 26.5266 15.374 26.3953 15.3735C26.2468 15.3739 26.1004 15.4082 25.9671 15.4736C25.8362 15.5367 25.6889 15.5576 25.5457 15.5334C25.4024 15.5092 25.2702 15.441 25.1673 15.3383C25.0647 15.2355 24.9965 15.1033 24.9724 14.96C24.9482 14.8167 24.9693 14.6694 25.0326 14.5386C25.0925 14.4123 25.1252 14.2748 25.1287 14.135C25.1323 13.9952 25.1065 13.8562 25.0531 13.727C24.9996 13.5977 24.9195 13.4811 24.8181 13.3848C24.7166 13.2884 24.5961 13.2144 24.4642 13.1675C24.3277 13.1194 24.2094 13.0301 24.1258 12.9119C24.0421 12.7937 23.9972 12.6524 23.9972 12.5076C23.9972 12.3628 24.0421 12.2216 24.1258 12.1034C24.2094 11.9852 24.3277 11.8959 24.4642 11.8477L24.4671 11.8415ZM12.0018 6.50164C17.5245 6.50164 22.0015 10.9786 22.0015 16.5013C22.0015 22.0241 17.5245 26.501 12.0018 26.501C6.47909 26.501 2.00212 22.0241 2.00212 16.5013C2.00799 10.9811 6.48147 6.50764 12.0018 6.50164Z" fill="white"/>
<path d="M7.29495 22.2082C7.48253 22.3955 7.73681 22.5007 8.00192 22.5007C8.26704 22.5007 8.52131 22.3955 8.7089 22.2082L18.7086 12.2085L17.2945 10.7946L8.00192 20.0871L5.709 17.7943L4.29492 19.2083L7.29495 22.2082Z" fill="white"/>
</g>
<defs>
<clipPath id="clip0_877_195">
<rect width="60" height="60" fill="white" transform="translate(0 0.5)"/>
</clipPath>
</defs>
</svg>
