<svg width="60" height="60" viewBox="0 0 60 60" fill="none" xmlns="http://www.w3.org/2000/svg">
<g clip-path="url(#clip0_877_172)">
<path d="M9.99996 40C8.62184 40 7.5 41.1218 7.5 42.4999C7.5 43.878 8.62184 45 9.99996 45C11.3781 45 12.4999 43.8782 12.4999 42.5C12.4999 41.1219 11.3782 40 9.99996 40ZM22.5 7.5C21.1219 7.5 20 8.62184 20 9.99996C20 11.3781 21.1219 12.4999 22.5 12.4999C23.8781 12.4999 25 11.3781 25 9.99996C25 8.62184 23.8781 7.5 22.5 7.5ZM50 12.5C44.4861 12.5 40.0001 16.9861 40.0001 22.5C40.0001 26.2261 44.2941 32.9121 46.9799 36.7325C46.8189 36.8546 46.6763 37.0022 46.587 37.1986C46.3159 37.7931 46.5503 38.4888 47.1082 38.8038C46.5626 39.1396 46.3537 39.8427 46.6455 40.4273C46.719 40.5742 46.8206 40.7051 46.9446 40.8127C47.0686 40.9203 47.2126 41.0024 47.3683 41.0543C47.5241 41.1062 47.6885 41.1269 47.8523 41.1153C48.016 41.1036 48.1759 41.0599 48.3227 40.9864L50.5532 39.8712L50.5537 39.8711L50.5591 39.8684C50.5663 39.8647 50.5691 39.8563 50.5763 39.8525C50.7354 39.7693 50.8802 39.6572 50.9925 39.5107C51.9141 38.3068 60 27.6087 60 22.5C60 16.9861 55.5139 12.5 50 12.5ZM50 36.6578C47.2522 32.8773 42.5 25.6825 42.5 22.5C42.5 18.3642 45.8643 15 50 15C54.1358 15 57.5 18.3642 57.5 22.5C57.5 25.6823 52.7479 32.8772 50 36.6578Z" fill="white"/>
<path d="M50 20C48.6219 20 47.5001 21.1218 47.5001 22.5C47.5001 23.8781 48.6219 24.9999 50 24.9999C51.3782 24.9999 52.5 23.8781 52.5 22.5C52.5 21.1218 51.3782 20 50 20ZM13.0527 56.6858C15.7405 52.858 20 46.2112 20 42.5C20 36.9861 15.514 32.5 10.0001 32.5C4.48605 32.4999 0 36.9861 0 42.5C0 47.6087 8.08594 58.3068 9.00762 59.5105C9.07418 59.5973 9.1698 59.6478 9.25453 59.7132C9.30551 59.7525 9.34336 59.8011 9.39914 59.8319C9.58254 59.934 9.78422 60 10.0001 60L10.0007 59.9998L10.0013 60C10.03 60 10.0575 59.9818 10.0862 59.9798C10.25 59.9679 10.412 59.9404 10.5561 59.8688C10.5571 59.8684 10.5581 59.8685 10.5591 59.868L12.7954 58.7498C13.413 58.441 13.6632 57.6902 13.3545 57.0725C13.2805 56.9249 13.1779 56.7934 13.0527 56.6858ZM9.99996 56.6577C7.25215 52.8772 2.49996 45.6823 2.49996 42.4999C2.49996 38.3641 5.86418 34.9999 9.99996 34.9999C14.1357 34.9999 17.5 38.3641 17.5 42.4999C17.5 45.6823 12.7478 52.8772 9.99996 56.6577ZM43.258 40.7226L39.3102 42.6965C38.6925 43.0053 38.4423 43.7561 38.7511 44.3738C38.8245 44.5207 38.9261 44.6516 39.0501 44.7592C39.1741 44.8668 39.3181 44.9488 39.4739 45.0008C39.6296 45.0527 39.7941 45.0734 39.9578 45.0618C40.1216 45.0501 40.2814 45.0064 40.4283 44.9329L44.3761 42.959C44.9938 42.6502 45.244 41.8994 44.9352 41.2817C44.6265 40.6652 43.8745 40.4175 43.258 40.7226Z" fill="white"/>
<path d="M19.5727 52.566L15.6249 54.5399C15.0072 54.8487 14.757 55.5995 15.0658 56.2172C15.1392 56.364 15.2408 56.495 15.3649 56.6025C15.4889 56.7101 15.6329 56.7922 15.7886 56.8441C15.9444 56.896 16.1088 56.9168 16.2726 56.9051C16.4363 56.8935 16.5962 56.8497 16.743 56.7763L20.6908 54.8024C21.3085 54.4936 21.5587 53.7428 21.2499 53.1251C20.94 52.5074 20.1891 52.2607 19.5727 52.566ZM35.3625 44.6705L31.4146 46.6444C30.797 46.9532 30.5468 47.704 30.8555 48.3217C30.929 48.4685 31.0306 48.5995 31.1546 48.707C31.2786 48.8146 31.4226 48.8967 31.5783 48.9486C31.7341 49.0005 31.8985 49.0213 32.0623 49.0096C32.226 48.998 32.3859 48.9542 32.5327 48.8808L36.4805 46.9069C37.0982 46.5981 37.3484 45.8473 37.0396 45.2296C36.8912 44.9332 36.6312 44.7079 36.3167 44.6031C36.0023 44.4983 35.6591 44.5225 35.3625 44.6705ZM27.467 48.6182L23.5204 50.5921C22.9027 50.9009 22.6525 51.6517 22.9613 52.2694C23.0347 52.4162 23.1363 52.5472 23.2604 52.6547C23.3844 52.7623 23.5284 52.8444 23.6841 52.8963C23.8399 52.9482 24.0043 52.969 24.1681 52.9573C24.3318 52.9457 24.4917 52.9019 24.6385 52.8285L28.585 50.8546C29.2027 50.5458 29.4529 49.795 29.1441 49.1773C28.8342 48.5596 28.0822 48.3117 27.467 48.6182ZM28.2287 28.8538C27.943 29.4825 28.2201 30.2235 28.8488 30.5091L33.4374 32.5952C33.6059 32.6721 33.7817 32.7075 33.9538 32.7075C34.4299 32.7075 34.884 32.4353 35.0927 31.9751C35.3784 31.3464 35.1012 30.6054 34.4725 30.3198L29.8839 28.2336C29.2517 27.9443 28.5119 28.2275 28.2287 28.8538ZM43.1335 36.8798C43.6096 36.8798 44.0637 36.6076 44.2725 36.1474C44.5582 35.5187 44.281 34.7777 43.6523 34.4921L39.0624 32.406C38.9131 32.3376 38.7517 32.2994 38.5875 32.2936C38.4234 32.2878 38.2597 32.3144 38.1059 32.3721C37.9521 32.4297 37.8112 32.5171 37.6913 32.6294C37.5714 32.7416 37.4748 32.8765 37.4072 33.0261C37.1214 33.6548 37.3986 34.3958 38.0273 34.6814L42.6172 36.7676C42.7792 36.8417 42.9553 36.88 43.1335 36.8798ZM24.7741 28.534C25.2502 28.534 25.7043 28.2618 25.913 27.8016C26.1987 27.1729 25.9204 26.4319 25.2929 26.1463L24.4296 25.7539C26.7975 22.5217 32.4999 14.2954 32.4999 9.99996C32.4999 4.48605 28.0139 0 22.5 0C16.9861 0 12.5 4.48605 12.5 9.99996C12.5 15.1086 20.5859 25.8068 21.5076 27.0104C21.5184 27.0246 21.5364 27.03 21.5479 27.0436C21.6309 27.1437 21.7368 27.2212 21.8514 27.293C21.8919 27.3182 21.9226 27.3551 21.9656 27.3755C21.9721 27.3785 21.976 27.3846 21.9826 27.3877L24.2578 28.4216C24.4263 28.4986 24.6021 28.534 24.7741 28.534ZM15 9.99996C15 5.86418 18.3642 2.49996 22.5 2.49996C26.6357 2.49996 30 5.86418 30 9.99996C30 13.1823 25.2478 20.3771 22.5 24.1577C19.7521 20.3771 15 13.1824 15 9.99996Z" fill="white"/>
</g>
<defs>
<clipPath id="clip0_877_172">
<rect width="60" height="60" fill="white"/>
</clipPath>
</defs>
</svg>
