<svg width="60" height="60" viewBox="0 0 60 60" fill="none" xmlns="http://www.w3.org/2000/svg">
<path d="M23.9062 28.1363V28.125H14.5312V28.1363C11.1572 28.1964 7.94141 29.5777 5.57486 31.9834C3.2083 34.389 1.87987 37.627 1.875 41.0016V57.1875C1.875 57.4361 1.97377 57.6746 2.14959 57.8504C2.3254 58.0262 2.56386 58.125 2.8125 58.125H35.625C35.8736 58.125 36.1121 58.0262 36.2879 57.8504C36.4637 57.6746 36.5625 57.4361 36.5625 57.1875V41.0016C36.5576 37.627 35.2292 34.389 32.8626 31.9834C30.4961 29.5777 27.2803 28.1964 23.9062 28.1363ZM16.4062 30H22.0312V34.2188C22.0312 34.9647 21.7349 35.68 21.2075 36.2075C20.68 36.7349 19.9647 37.0312 19.2187 37.0312C18.4728 37.0312 17.7575 36.7349 17.23 36.2075C16.7026 35.68 16.4062 34.9647 16.4062 34.2188V30ZM9.375 56.25H3.75V45.7566H9.375V56.25ZM9.375 43.8816H3.75V41.0016C3.75198 39.0478 4.27408 37.1298 5.26265 35.4447C6.25122 33.7595 7.67061 32.3679 9.375 31.4128V43.8816ZM22.9687 56.25H15.4687V45.7566H22.9687V56.25ZM27.1875 43.8816V56.25H24.8437V44.8191C24.8437 44.5704 24.745 44.332 24.5692 44.1561C24.3933 43.9803 24.1549 43.8816 23.9062 43.8816H14.5312C14.2826 43.8816 14.0442 43.9803 13.8683 44.1561C13.6925 44.332 13.5937 44.5704 13.5937 44.8191V56.25H11.25V30.5812C12.3082 30.2248 13.4148 30.0326 14.5312 30.0113V34.2188C14.5312 35.462 15.0251 36.6542 15.9042 37.5333C16.7833 38.4124 17.9755 38.9062 19.2187 38.9062C20.462 38.9062 21.6542 38.4124 22.5333 37.5333C23.4124 36.6542 23.9062 35.462 23.9062 34.2188V30.0113C25.0227 30.0327 26.1293 30.2249 27.1875 30.5812V43.8816ZM34.6875 56.25H29.0625V45.7566H34.6875V56.25ZM34.6875 43.8816H29.0625V31.4128C30.7668 32.3678 32.1861 33.7593 33.1746 35.4443C34.1632 37.1293 34.6853 39.047 34.6875 41.0006V43.8816ZM51.99 26.2837C51.832 26.2135 51.6576 26.1884 51.4861 26.2111C51.3147 26.2338 51.1528 26.3035 51.0186 26.4125C50.8843 26.5214 50.7827 26.6654 50.7252 26.8285C50.6676 26.9916 50.6563 27.1674 50.6925 27.3366C50.7046 27.3895 50.7109 27.4435 50.7112 27.4978V34.3153C50.7111 34.4161 50.6911 34.516 50.6524 34.6091C50.6137 34.7022 50.5571 34.7868 50.4857 34.858C50.4143 34.9292 50.3296 34.9856 50.2364 35.0241C50.1432 35.0626 50.0433 35.0823 49.9425 35.0822H45.6825C45.479 35.0822 45.2839 35.0014 45.1399 34.8576C44.9959 34.7138 44.9149 34.5188 44.9147 34.3153V27.4978C44.9151 27.4435 44.9214 27.3895 44.9334 27.3366C44.9696 27.1674 44.9583 26.9916 44.9008 26.8285C44.8432 26.6654 44.7417 26.5214 44.6074 26.4125C44.4731 26.3035 44.3113 26.2338 44.1398 26.2111C43.9684 26.1884 43.794 26.2135 43.6359 26.2837C42.0203 26.9976 40.6154 28.115 39.5564 29.5286C38.4974 30.9422 37.8199 32.6045 37.5889 34.3556C37.3579 36.1068 37.5813 37.8879 38.2376 39.5277C38.8938 41.1676 39.9609 42.6111 41.3362 43.7194V57.1875C41.3362 57.4361 41.435 57.6746 41.6108 57.8504C41.7866 58.0262 42.0251 58.125 42.2737 58.125H53.3522C53.6008 58.125 53.8393 58.0262 54.0151 57.8504C54.1909 57.6746 54.2897 57.4361 54.2897 57.1875V43.7194C55.6648 42.6109 56.7316 41.1674 57.3877 39.5276C58.0438 37.8878 58.2671 36.1068 58.0362 34.3558C57.8052 32.6047 57.1278 30.9425 56.0689 29.5289C55.0101 28.1153 53.6054 26.9978 51.99 26.2837ZM52.7962 42.5025C52.6777 42.5898 52.5814 42.7038 52.5151 42.8352C52.4488 42.9667 52.4144 43.1119 52.4147 43.2591V56.25H43.2103V43.2591C43.2104 43.112 43.176 42.967 43.1097 42.8357C43.0434 42.7045 42.9472 42.5906 42.8287 42.5034C41.7408 41.7091 40.8594 40.6653 40.2585 39.4597C39.6577 38.2541 39.3548 36.922 39.3755 35.5751C39.3962 34.2282 39.7397 32.906 40.3773 31.7194C41.0149 30.5328 41.9279 29.5165 43.0397 28.7559V34.3153C43.0404 35.0158 43.319 35.6873 43.8143 36.1826C44.3096 36.6779 44.9811 36.9564 45.6816 36.9572H49.9434C50.6439 36.9564 51.3154 36.6779 51.8107 36.1826C52.306 35.6873 52.5846 35.0158 52.5853 34.3153V28.7559C53.7139 29.5308 54.6372 30.5684 55.2756 31.7794C55.914 32.9904 56.2484 34.3385 56.25 35.7075C56.2545 37.0329 55.9437 38.3403 55.3434 39.522C54.743 40.7036 53.8703 41.7255 52.7972 42.5034L52.7962 42.5025ZM47.8125 23.7497C49.6767 23.7477 51.464 23.0063 52.7821 21.6881C54.1003 20.3699 54.8418 18.5826 54.8437 16.7184C54.8437 13.0988 49.1587 6.65906 48.51 5.93625C48.4197 5.84234 48.3114 5.76762 48.1916 5.71658C48.0717 5.66554 47.9428 5.63924 47.8125 5.63924C47.6822 5.63924 47.5533 5.66554 47.4334 5.71658C47.3136 5.76762 47.2053 5.84234 47.115 5.93625C46.4672 6.65813 40.7812 13.0988 40.7812 16.7184C40.7832 18.5826 41.5247 20.3699 42.8428 21.6881C44.161 23.0063 45.9483 23.7477 47.8125 23.7497ZM47.8125 7.99031C50.0466 10.6284 52.9687 14.7422 52.9687 16.7184C52.9687 18.086 52.4255 19.3975 51.4585 20.3645C50.4915 21.3314 49.18 21.8747 47.8125 21.8747C46.445 21.8747 45.1335 21.3314 44.1665 20.3645C43.1995 19.3975 42.6562 18.086 42.6562 16.7184C42.6562 14.745 45.5794 10.6294 47.8125 7.99031ZM7.54688 13.5938H8.90625V16.875C8.90625 19.61 9.99274 22.2331 11.9267 24.167C13.8607 26.101 16.4837 27.1875 19.2187 27.1875C21.9538 27.1875 24.5768 26.101 26.5108 24.167C28.4448 22.2331 29.5312 19.61 29.5312 16.875V13.5938H34.7344C34.983 13.5938 35.2215 13.495 35.3973 13.3192C35.5731 13.1433 35.6719 12.9049 35.6719 12.6563C35.6719 12.4076 35.5731 12.1692 35.3973 11.9933C35.2215 11.8175 34.983 11.7188 34.7344 11.7188H30.7706C30.3288 8.97322 28.9236 6.47482 26.8068 4.67141C24.69 2.868 22.0001 1.87752 19.2192 1.87752C16.4384 1.87752 13.7484 2.868 11.6316 4.67141C9.51485 6.47482 8.1096 8.97322 7.66781 11.7188H7.54688C7.29823 11.7188 7.05978 11.8175 6.88396 11.9933C6.70815 12.1692 6.60938 12.4076 6.60938 12.6563C6.60938 12.9049 6.70815 13.1433 6.88396 13.3192C7.05978 13.495 7.29823 13.5938 7.54688 13.5938ZM27.6562 16.875C27.6562 19.1128 26.7673 21.2589 25.185 22.8412C23.6026 24.4236 21.4565 25.3125 19.2187 25.3125C16.981 25.3125 14.8349 24.4236 13.2525 22.8412C11.6702 21.2589 10.7812 19.1128 10.7812 16.875V13.5938H27.6562V16.875ZM19.2187 3.75C21.4997 3.76389 23.706 4.56424 25.4653 6.01598C27.2246 7.46771 28.4293 9.48195 28.8759 11.7188H9.5625C10.0091 9.4821 11.2136 7.46799 12.9728 6.01627C14.7319 4.56455 16.938 3.76411 19.2187 3.75Z" fill="white"/>
</svg>
