<svg width="50" height="50" viewBox="0 0 50 50" fill="none" xmlns="http://www.w3.org/2000/svg">
<path d="M25 11.25C17.4181 11.25 11.25 17.4181 11.25 25C11.25 32.5819 17.4181 38.75 25 38.75C27.2862 38.75 29.5506 38.1775 31.5481 37.0944C31.8519 36.93 31.9644 36.5506 31.7994 36.2475C31.6344 35.9444 31.255 35.8319 30.9525 35.9963C29.1375 36.9806 27.0794 37.5006 25.0006 37.5006C18.1081 37.5006 12.5006 31.8931 12.5006 25.0006C12.5006 18.1081 18.1075 12.5 25 12.5C31.8925 12.5 37.5 18.1075 37.5 25C37.5 28.5519 35.9813 31.9481 33.3331 34.3181C33.0756 34.5481 33.0544 34.9438 33.2844 35.2006C33.515 35.4569 33.9094 35.4794 34.1669 35.2494C37.0794 32.6419 38.75 28.9069 38.75 25C38.75 17.4181 32.5819 11.25 25 11.25Z" fill="#CDE0FF"/>
<path d="M44.375 16.25H39.415C36.3719 11.2319 30.8869 8.125 25 8.125C19.1131 8.125 13.6263 11.2325 10.5844 16.25H5.625C5.28 16.25 5 16.5294 5 16.875V33.125C5 33.4706 5.28 33.75 5.625 33.75H10.5844C13.6275 38.7681 19.1125 41.875 25 41.875C30.8875 41.875 36.3737 38.7675 39.4156 33.75H44.375C44.72 33.75 45 33.4706 45 33.125V16.875C45 16.5294 44.72 16.25 44.375 16.25ZM6.25 17.5H9.88625C8.73187 19.8175 8.125 22.3881 8.125 25C8.125 27.6119 8.7325 30.1838 9.88625 32.5H6.25V17.5ZM25 40.625C19.435 40.625 14.2512 37.6319 11.4719 32.8106C10.1 30.4506 9.375 27.7494 9.375 25C9.375 22.2506 10.1 19.5494 11.4725 17.1875C14.2513 12.3681 19.4344 9.375 25 9.375C30.5656 9.375 35.7488 12.3681 38.5275 17.1875V17.1894C39.9 19.5494 40.625 22.2506 40.625 25C40.625 27.7494 39.9 30.4506 38.5275 32.8125C35.7488 37.6319 30.5656 40.625 25 40.625ZM43.75 32.5H40.1138C41.2681 30.1825 41.875 27.6119 41.875 25C41.875 22.3881 41.2681 19.8169 40.1138 17.5H43.75V32.5Z" fill="#CDE0FF"/>
<path d="M33.75 23.125C34.095 23.125 34.375 22.8456 34.375 22.5V18.75C34.375 18.4044 34.095 18.125 33.75 18.125H16.25C15.905 18.125 15.625 18.4044 15.625 18.75V22.5C15.625 22.8456 15.905 23.125 16.25 23.125H33.75ZM25.625 19.375H28.75V21.875H25.625V19.375ZM24.375 21.875H21.25V19.375H24.375V21.875ZM33.125 21.875H30V19.375H33.125V21.875ZM16.875 19.375H20V21.875H16.875V19.375Z" fill="#CDE0FF"/>
<path d="M24.4925 25.2601L21.6131 29.2645C21.1712 29.8738 20.9375 30.5857 20.9375 31.3251C20.9375 32.3076 21.3813 33.2401 22.1894 33.9526C22.9644 34.6282 23.9625 35.0001 25 35.0001C27.2019 35.0001 29.0625 33.3176 29.0625 31.3251C29.0625 30.5857 28.8288 29.8738 28.3888 29.2663L25.5075 25.2601C25.2725 24.9345 24.7275 24.9345 24.4925 25.2601ZM27.8125 31.3251C27.8125 32.6163 26.4981 33.7501 25 33.7501C24.275 33.7501 23.55 33.4801 23.0131 33.0126C22.4806 32.5432 22.1875 31.9438 22.1875 31.3251C22.1875 30.8513 22.3387 30.3926 22.6262 29.9963L25 26.6957L27.375 29.9982C27.6612 30.3926 27.8125 30.8513 27.8125 31.3251Z" fill="#CDE0FF"/>
<path d="M32.1875 29.375C33.3937 29.375 34.375 28.3937 34.375 27.1875C34.375 25.9813 33.3937 25 32.1875 25C30.9813 25 30 25.9813 30 27.1875C30 28.3937 30.9813 29.375 32.1875 29.375ZM32.1875 26.25C32.7044 26.25 33.125 26.6706 33.125 27.1875C33.125 27.7044 32.7044 28.125 32.1875 28.125C31.6706 28.125 31.25 27.7044 31.25 27.1875C31.25 26.6706 31.6706 26.25 32.1875 26.25Z" fill="#CDE0FF"/>
<path d="M15.625 27.1875C15.625 28.3937 16.6063 29.375 17.8125 29.375C19.0187 29.375 20 28.3937 20 27.1875C20 25.9813 19.0187 25 17.8125 25C16.6063 25 15.625 25.9813 15.625 27.1875ZM18.75 27.1875C18.75 27.7044 18.3294 28.125 17.8125 28.125C17.2956 28.125 16.875 27.7044 16.875 27.1875C16.875 26.6706 17.2956 26.25 17.8125 26.25C18.3294 26.25 18.75 26.6706 18.75 27.1875Z" fill="#CDE0FF"/>
<path d="M26.875 16.25C27.22 16.25 27.5 15.9706 27.5 15.625C27.5 15.2794 27.22 15 26.875 15H23.125C22.78 15 22.5 15.2794 22.5 15.625C22.5 15.9706 22.78 16.25 23.125 16.25H26.875Z" fill="#CDE0FF"/>
<path d="M25 32.5C25.5178 32.5 25.9375 32.0803 25.9375 31.5625C25.9375 31.0447 25.5178 30.625 25 30.625C24.4822 30.625 24.0625 31.0447 24.0625 31.5625C24.0625 32.0803 24.4822 32.5 25 32.5Z" fill="#CDE0FF"/>
</svg>
