<svg width="50" height="50" viewBox="0 0 50 50" fill="none" xmlns="http://www.w3.org/2000/svg">
<g clip-path="url(#clip0_831_1450)">
<path d="M25 3.125C17.4181 3.125 11.25 9.29313 11.25 16.875C11.25 24.4569 17.4181 30.625 25 30.625C27.2862 30.625 29.5506 30.0525 31.5481 28.9694C31.8519 28.805 31.9644 28.4256 31.7994 28.1225C31.6344 27.8194 31.255 27.7069 30.9525 27.8713C29.1375 28.8556 27.0794 29.3756 25.0006 29.3756C18.1081 29.3756 12.5006 23.7681 12.5006 16.8756C12.5006 9.98312 18.1075 4.375 25 4.375C31.8925 4.375 37.5 9.9825 37.5 16.875C37.5 20.4269 35.9813 23.8231 33.3331 26.1931C33.0756 26.4231 33.0544 26.8188 33.2844 27.0756C33.515 27.3319 33.9094 27.3544 34.1669 27.1244C37.0794 24.5169 38.75 20.7819 38.75 16.875C38.75 9.29313 32.5819 3.125 25 3.125Z" fill="#CDE0FF"/>
<path d="M44.375 8.125H39.415C36.3719 3.10687 30.8869 0 25 0C19.1131 0 13.6263 3.1075 10.5844 8.125H5.625C5.28 8.125 5 8.40438 5 8.75V25C5 25.3456 5.28 25.625 5.625 25.625H10.5844C13.6275 30.6431 19.1125 33.75 25 33.75C30.8875 33.75 36.3737 30.6425 39.4156 25.625H44.375C44.72 25.625 45 25.3456 45 25V8.75C45 8.40438 44.72 8.125 44.375 8.125ZM6.25 9.375H9.88625C8.73187 11.6925 8.125 14.2631 8.125 16.875C8.125 19.4869 8.7325 22.0588 9.88625 24.375H6.25V9.375ZM25 32.5C19.435 32.5 14.2512 29.5069 11.4719 24.6856C10.1 22.3256 9.375 19.6244 9.375 16.875C9.375 14.1256 10.1 11.4244 11.4725 9.0625C14.2513 4.24312 19.4344 1.25 25 1.25C30.5656 1.25 35.7488 4.24312 38.5275 9.0625V9.06437C39.9 11.4244 40.625 14.1256 40.625 16.875C40.625 19.6244 39.9 22.3256 38.5275 24.6875C35.7488 29.5069 30.5656 32.5 25 32.5ZM43.75 24.375H40.1138C41.2681 22.0575 41.875 19.4869 41.875 16.875C41.875 14.2631 41.2681 11.6919 40.1138 9.375H43.75V24.375Z" fill="#CDE0FF"/>
<path d="M33.75 15C34.095 15 34.375 14.7206 34.375 14.375V10.625C34.375 10.2794 34.095 10 33.75 10H16.25C15.905 10 15.625 10.2794 15.625 10.625V14.375C15.625 14.7206 15.905 15 16.25 15H33.75ZM25.625 11.25H28.75V13.75H25.625V11.25ZM24.375 13.75H21.25V11.25H24.375V13.75ZM33.125 13.75H30V11.25H33.125V13.75ZM16.875 11.25H20V13.75H16.875V11.25Z" fill="#CDE0FF"/>
<path d="M24.4925 17.1351L21.6131 21.1395C21.1712 21.7488 20.9375 22.4607 20.9375 23.2001C20.9375 24.1826 21.3813 25.1151 22.1894 25.8276C22.9644 26.5032 23.9625 26.8751 25 26.8751C27.2019 26.8751 29.0625 25.1926 29.0625 23.2001C29.0625 22.4607 28.8288 21.7488 28.3888 21.1413L25.5075 17.1351C25.2725 16.8095 24.7275 16.8095 24.4925 17.1351ZM27.8125 23.2001C27.8125 24.4913 26.4981 25.6251 25 25.6251C24.275 25.6251 23.55 25.3551 23.0131 24.8876C22.4806 24.4182 22.1875 23.8188 22.1875 23.2001C22.1875 22.7263 22.3387 22.2676 22.6262 21.8713L25 18.5707L27.375 21.8732C27.6612 22.2676 27.8125 22.7263 27.8125 23.2001Z" fill="#CDE0FF"/>
<path d="M32.1875 21.25C33.3937 21.25 34.375 20.2687 34.375 19.0625C34.375 17.8563 33.3937 16.875 32.1875 16.875C30.9813 16.875 30 17.8563 30 19.0625C30 20.2687 30.9813 21.25 32.1875 21.25ZM32.1875 18.125C32.7044 18.125 33.125 18.5456 33.125 19.0625C33.125 19.5794 32.7044 20 32.1875 20C31.6706 20 31.25 19.5794 31.25 19.0625C31.25 18.5456 31.6706 18.125 32.1875 18.125Z" fill="#CDE0FF"/>
<path d="M15.625 19.0625C15.625 20.2687 16.6063 21.25 17.8125 21.25C19.0187 21.25 20 20.2687 20 19.0625C20 17.8563 19.0187 16.875 17.8125 16.875C16.6063 16.875 15.625 17.8563 15.625 19.0625ZM18.75 19.0625C18.75 19.5794 18.3294 20 17.8125 20C17.2956 20 16.875 19.5794 16.875 19.0625C16.875 18.5456 17.2956 18.125 17.8125 18.125C18.3294 18.125 18.75 18.5456 18.75 19.0625Z" fill="#CDE0FF"/>
<path d="M26.875 8.125C27.22 8.125 27.5 7.84562 27.5 7.5C27.5 7.15438 27.22 6.875 26.875 6.875H23.125C22.78 6.875 22.5 7.15438 22.5 7.5C22.5 7.84562 22.78 8.125 23.125 8.125H26.875Z" fill="#CDE0FF"/>
<path d="M25 24.375C25.5178 24.375 25.9375 23.9553 25.9375 23.4375C25.9375 22.9197 25.5178 22.5 25 22.5C24.4822 22.5 24.0625 22.9197 24.0625 23.4375C24.0625 23.9553 24.4822 24.375 25 24.375Z" fill="#CDE0FF"/>
<mask id="path-9-outside-1_831_1450" maskUnits="userSpaceOnUse" x="21.5381" y="21.085" width="29" height="29" fill="black">
<rect fill="white" x="21.5381" y="21.085" width="29" height="29"/>
<path d="M46.8043 32.7715L45.0832 32.4796C44.9039 31.9007 44.6734 31.3424 44.3916 30.8096L45.4059 29.3907C45.8362 28.7863 45.7696 27.9615 45.242 27.4391L43.7155 25.9126C43.4286 25.6257 43.0496 25.4669 42.6449 25.4669C42.3273 25.4669 42.0251 25.5642 41.7689 25.7486L40.3449 26.7629C39.7917 26.4709 39.2128 26.2302 38.6135 26.0509L38.3266 24.3502C38.2678 23.9962 38.0851 23.6746 37.8112 23.4428C37.5372 23.2111 37.1897 23.0842 36.8309 23.085H34.6743C33.9316 23.085 33.3015 23.6177 33.1786 24.3502L32.8815 26.0919C32.3077 26.2711 31.7494 26.5068 31.2167 26.7936L29.808 25.7794C29.5519 25.595 29.2445 25.4976 28.9269 25.4976C28.5222 25.4976 28.1381 25.6564 27.8563 25.9433L26.3247 27.4698C25.8022 27.9923 25.7305 28.817 26.1608 29.4215L27.1853 30.8609C26.9035 31.3987 26.6782 31.9571 26.504 32.5359L24.8033 32.8228C24.4493 32.8816 24.1277 33.0643 23.896 33.3382C23.6642 33.6122 23.5374 33.9597 23.5381 34.3185V36.4751C23.5381 37.2178 24.0708 37.8479 24.8033 37.9708L26.545 38.2679C26.7243 38.8417 26.9599 39.4 27.2468 39.9327L26.2376 41.3363C25.8073 41.9408 25.8739 42.7655 26.4015 43.288L27.928 44.8145C28.2149 45.1013 28.594 45.2601 28.9986 45.2601C29.3162 45.2601 29.6185 45.1628 29.8746 44.9784L31.314 43.9539C31.8314 44.2254 32.3743 44.4456 32.9327 44.6198L33.2195 46.341C33.2783 46.695 33.461 47.0166 33.735 47.2483C34.009 47.4801 34.3564 47.6069 34.7153 47.6062H36.877C37.6197 47.6062 38.2498 47.0735 38.3727 46.341L38.6647 44.6198C39.2436 44.4405 39.8019 44.21 40.3346 43.9283L41.7536 44.9425C42.0097 45.1269 42.317 45.2243 42.6346 45.2243C43.0393 45.2243 43.4184 45.0655 43.7052 44.7786L45.2317 43.2521C45.7542 42.7296 45.8259 41.9049 45.3956 41.3004L44.3814 39.8764C44.6631 39.3385 44.8988 38.7802 45.0729 38.2065L46.7941 37.9196C47.1481 37.8608 47.4697 37.6781 47.7014 37.4041C47.9332 37.1302 48.06 36.7827 48.0593 36.4239V34.2673C48.0696 33.5245 47.5368 32.8945 46.8043 32.7715ZM46.6865 36.4239C46.6865 36.4905 46.6404 36.5468 46.5738 36.557L44.4224 36.9156C44.1509 36.9617 43.9357 37.1615 43.8691 37.4227C43.6745 38.1757 43.3774 38.898 42.9778 39.5691C42.8395 39.8047 42.8498 40.0967 43.0086 40.3221L44.2738 42.1047C44.3097 42.1559 44.3046 42.2327 44.2585 42.2788L42.732 43.8053C42.6961 43.8412 42.6602 43.8463 42.6346 43.8463C42.6039 43.8463 42.5783 43.8361 42.5578 43.8207L40.7803 42.5554C40.56 42.3967 40.2629 42.3864 40.0273 42.5247C39.3563 42.9243 38.634 43.2214 37.881 43.416C37.6146 43.4826 37.4148 43.7029 37.3739 43.9692L37.0102 46.1207C36.9999 46.1873 36.9436 46.2334 36.877 46.2334H34.7204C34.6538 46.2334 34.5975 46.1873 34.5872 46.1207L34.2287 43.9692C34.1826 43.6978 33.9828 43.4826 33.7215 43.416C32.989 43.2265 32.2821 42.9345 31.6213 42.5554C31.5138 42.494 31.3908 42.4632 31.273 42.4632C31.1347 42.4632 30.9913 42.5042 30.8735 42.5913L29.0806 43.8668C29.055 43.8822 29.0294 43.8924 29.0038 43.8924C28.9833 43.8924 28.9423 43.8873 28.9064 43.8514L27.3799 42.3249C27.3338 42.2788 27.3287 42.2071 27.3646 42.1508L28.6247 40.3835C28.7835 40.1581 28.7937 39.861 28.6554 39.6254C28.2559 38.9595 27.9485 38.2372 27.7539 37.4842C27.6822 37.223 27.467 37.0232 27.2007 36.9771L25.0338 36.6083C24.9673 36.598 24.9212 36.5417 24.9212 36.4751V34.3185C24.9212 34.2519 24.9673 34.1956 25.0338 34.1853L27.1699 33.8268C27.4414 33.7807 27.6617 33.5809 27.7283 33.3145C27.9178 32.5615 28.2098 31.8341 28.6042 31.1631C28.7425 30.9275 28.7271 30.6355 28.5683 30.4152L27.2929 28.6223C27.257 28.5711 27.2621 28.4943 27.3082 28.4482L28.8347 26.9217C28.8706 26.8858 28.9064 26.8807 28.932 26.8807C28.9628 26.8807 28.9884 26.891 29.0089 26.9063L30.7761 28.1664C31.0015 28.3252 31.2986 28.3355 31.5343 28.1972C32.2002 27.7976 32.9224 27.4903 33.6754 27.2956C33.9367 27.2239 34.1365 27.0088 34.1826 26.7424L34.5514 24.5756C34.5616 24.509 34.618 24.4629 34.6846 24.4629H36.8411C36.9077 24.4629 36.9641 24.509 36.9743 24.5756L37.3329 26.7117C37.379 26.9832 37.5788 27.2034 37.8451 27.27C38.6186 27.4647 39.3563 27.7669 40.0427 28.1716C40.2783 28.3099 40.5703 28.2996 40.7957 28.1408L42.5629 26.8705C42.5885 26.8551 42.6141 26.8449 42.6398 26.8449C42.6602 26.8449 42.7012 26.85 42.7371 26.8858L44.2636 28.4123C44.3097 28.4584 44.3148 28.5301 44.2789 28.5865L43.0137 30.364C42.8549 30.5843 42.8447 30.8814 42.983 31.117C43.3825 31.788 43.6796 32.5103 43.8743 33.2633C43.9409 33.5297 44.1611 33.7294 44.4275 33.7704L46.5789 34.1341C46.6455 34.1444 46.6916 34.2007 46.6916 34.2673V36.4239H46.6865Z"/>
</mask>
<path d="M46.8043 32.7715L45.0832 32.4796C44.9039 31.9007 44.6734 31.3424 44.3916 30.8096L45.4059 29.3907C45.8362 28.7863 45.7696 27.9615 45.242 27.4391L43.7155 25.9126C43.4286 25.6257 43.0496 25.4669 42.6449 25.4669C42.3273 25.4669 42.0251 25.5642 41.7689 25.7486L40.3449 26.7629C39.7917 26.4709 39.2128 26.2302 38.6135 26.0509L38.3266 24.3502C38.2678 23.9962 38.0851 23.6746 37.8112 23.4428C37.5372 23.2111 37.1897 23.0842 36.8309 23.085H34.6743C33.9316 23.085 33.3015 23.6177 33.1786 24.3502L32.8815 26.0919C32.3077 26.2711 31.7494 26.5068 31.2167 26.7936L29.808 25.7794C29.5519 25.595 29.2445 25.4976 28.9269 25.4976C28.5222 25.4976 28.1381 25.6564 27.8563 25.9433L26.3247 27.4698C25.8022 27.9923 25.7305 28.817 26.1608 29.4215L27.1853 30.8609C26.9035 31.3987 26.6782 31.9571 26.504 32.5359L24.8033 32.8228C24.4493 32.8816 24.1277 33.0643 23.896 33.3382C23.6642 33.6122 23.5374 33.9597 23.5381 34.3185V36.4751C23.5381 37.2178 24.0708 37.8479 24.8033 37.9708L26.545 38.2679C26.7243 38.8417 26.9599 39.4 27.2468 39.9327L26.2376 41.3363C25.8073 41.9408 25.8739 42.7655 26.4015 43.288L27.928 44.8145C28.2149 45.1013 28.594 45.2601 28.9986 45.2601C29.3162 45.2601 29.6185 45.1628 29.8746 44.9784L31.314 43.9539C31.8314 44.2254 32.3743 44.4456 32.9327 44.6198L33.2195 46.341C33.2783 46.695 33.461 47.0166 33.735 47.2483C34.009 47.4801 34.3564 47.6069 34.7153 47.6062H36.877C37.6197 47.6062 38.2498 47.0735 38.3727 46.341L38.6647 44.6198C39.2436 44.4405 39.8019 44.21 40.3346 43.9283L41.7536 44.9425C42.0097 45.1269 42.317 45.2243 42.6346 45.2243C43.0393 45.2243 43.4184 45.0655 43.7052 44.7786L45.2317 43.2521C45.7542 42.7296 45.8259 41.9049 45.3956 41.3004L44.3814 39.8764C44.6631 39.3385 44.8988 38.7802 45.0729 38.2065L46.7941 37.9196C47.1481 37.8608 47.4697 37.6781 47.7014 37.4041C47.9332 37.1302 48.06 36.7827 48.0593 36.4239V34.2673C48.0696 33.5245 47.5368 32.8945 46.8043 32.7715ZM46.6865 36.4239C46.6865 36.4905 46.6404 36.5468 46.5738 36.557L44.4224 36.9156C44.1509 36.9617 43.9357 37.1615 43.8691 37.4227C43.6745 38.1757 43.3774 38.898 42.9778 39.5691C42.8395 39.8047 42.8498 40.0967 43.0086 40.3221L44.2738 42.1047C44.3097 42.1559 44.3046 42.2327 44.2585 42.2788L42.732 43.8053C42.6961 43.8412 42.6602 43.8463 42.6346 43.8463C42.6039 43.8463 42.5783 43.8361 42.5578 43.8207L40.7803 42.5554C40.56 42.3967 40.2629 42.3864 40.0273 42.5247C39.3563 42.9243 38.634 43.2214 37.881 43.416C37.6146 43.4826 37.4148 43.7029 37.3739 43.9692L37.0102 46.1207C36.9999 46.1873 36.9436 46.2334 36.877 46.2334H34.7204C34.6538 46.2334 34.5975 46.1873 34.5872 46.1207L34.2287 43.9692C34.1826 43.6978 33.9828 43.4826 33.7215 43.416C32.989 43.2265 32.2821 42.9345 31.6213 42.5554C31.5138 42.494 31.3908 42.4632 31.273 42.4632C31.1347 42.4632 30.9913 42.5042 30.8735 42.5913L29.0806 43.8668C29.055 43.8822 29.0294 43.8924 29.0038 43.8924C28.9833 43.8924 28.9423 43.8873 28.9064 43.8514L27.3799 42.3249C27.3338 42.2788 27.3287 42.2071 27.3646 42.1508L28.6247 40.3835C28.7835 40.1581 28.7937 39.861 28.6554 39.6254C28.2559 38.9595 27.9485 38.2372 27.7539 37.4842C27.6822 37.223 27.467 37.0232 27.2007 36.9771L25.0338 36.6083C24.9673 36.598 24.9212 36.5417 24.9212 36.4751V34.3185C24.9212 34.2519 24.9673 34.1956 25.0338 34.1853L27.1699 33.8268C27.4414 33.7807 27.6617 33.5809 27.7283 33.3145C27.9178 32.5615 28.2098 31.8341 28.6042 31.1631C28.7425 30.9275 28.7271 30.6355 28.5683 30.4152L27.2929 28.6223C27.257 28.5711 27.2621 28.4943 27.3082 28.4482L28.8347 26.9217C28.8706 26.8858 28.9064 26.8807 28.932 26.8807C28.9628 26.8807 28.9884 26.891 29.0089 26.9063L30.7761 28.1664C31.0015 28.3252 31.2986 28.3355 31.5343 28.1972C32.2002 27.7976 32.9224 27.4903 33.6754 27.2956C33.9367 27.2239 34.1365 27.0088 34.1826 26.7424L34.5514 24.5756C34.5616 24.509 34.618 24.4629 34.6846 24.4629H36.8411C36.9077 24.4629 36.9641 24.509 36.9743 24.5756L37.3329 26.7117C37.379 26.9832 37.5788 27.2034 37.8451 27.27C38.6186 27.4647 39.3563 27.7669 40.0427 28.1716C40.2783 28.3099 40.5703 28.2996 40.7957 28.1408L42.5629 26.8705C42.5885 26.8551 42.6141 26.8449 42.6398 26.8449C42.6602 26.8449 42.7012 26.85 42.7371 26.8858L44.2636 28.4123C44.3097 28.4584 44.3148 28.5301 44.2789 28.5865L43.0137 30.364C42.8549 30.5843 42.8447 30.8814 42.983 31.117C43.3825 31.788 43.6796 32.5103 43.8743 33.2633C43.9409 33.5297 44.1611 33.7294 44.4275 33.7704L46.5789 34.1341C46.6455 34.1444 46.6916 34.2007 46.6916 34.2673V36.4239H46.6865Z" fill="#CDE0FF"/>
<path d="M46.8043 32.7715L45.0832 32.4796C44.9039 31.9007 44.6734 31.3424 44.3916 30.8096L45.4059 29.3907C45.8362 28.7863 45.7696 27.9615 45.242 27.4391L43.7155 25.9126C43.4286 25.6257 43.0496 25.4669 42.6449 25.4669C42.3273 25.4669 42.0251 25.5642 41.7689 25.7486L40.3449 26.7629C39.7917 26.4709 39.2128 26.2302 38.6135 26.0509L38.3266 24.3502C38.2678 23.9962 38.0851 23.6746 37.8112 23.4428C37.5372 23.2111 37.1897 23.0842 36.8309 23.085H34.6743C33.9316 23.085 33.3015 23.6177 33.1786 24.3502L32.8815 26.0919C32.3077 26.2711 31.7494 26.5068 31.2167 26.7936L29.808 25.7794C29.5519 25.595 29.2445 25.4976 28.9269 25.4976C28.5222 25.4976 28.1381 25.6564 27.8563 25.9433L26.3247 27.4698C25.8022 27.9923 25.7305 28.817 26.1608 29.4215L27.1853 30.8609C26.9035 31.3987 26.6782 31.9571 26.504 32.5359L24.8033 32.8228C24.4493 32.8816 24.1277 33.0643 23.896 33.3382C23.6642 33.6122 23.5374 33.9597 23.5381 34.3185V36.4751C23.5381 37.2178 24.0708 37.8479 24.8033 37.9708L26.545 38.2679C26.7243 38.8417 26.9599 39.4 27.2468 39.9327L26.2376 41.3363C25.8073 41.9408 25.8739 42.7655 26.4015 43.288L27.928 44.8145C28.2149 45.1013 28.594 45.2601 28.9986 45.2601C29.3162 45.2601 29.6185 45.1628 29.8746 44.9784L31.314 43.9539C31.8314 44.2254 32.3743 44.4456 32.9327 44.6198L33.2195 46.341C33.2783 46.695 33.461 47.0166 33.735 47.2483C34.009 47.4801 34.3564 47.6069 34.7153 47.6062H36.877C37.6197 47.6062 38.2498 47.0735 38.3727 46.341L38.6647 44.6198C39.2436 44.4405 39.8019 44.21 40.3346 43.9283L41.7536 44.9425C42.0097 45.1269 42.317 45.2243 42.6346 45.2243C43.0393 45.2243 43.4184 45.0655 43.7052 44.7786L45.2317 43.2521C45.7542 42.7296 45.8259 41.9049 45.3956 41.3004L44.3814 39.8764C44.6631 39.3385 44.8988 38.7802 45.0729 38.2065L46.7941 37.9196C47.1481 37.8608 47.4697 37.6781 47.7014 37.4041C47.9332 37.1302 48.06 36.7827 48.0593 36.4239V34.2673C48.0696 33.5245 47.5368 32.8945 46.8043 32.7715ZM46.6865 36.4239C46.6865 36.4905 46.6404 36.5468 46.5738 36.557L44.4224 36.9156C44.1509 36.9617 43.9357 37.1615 43.8691 37.4227C43.6745 38.1757 43.3774 38.898 42.9778 39.5691C42.8395 39.8047 42.8498 40.0967 43.0086 40.3221L44.2738 42.1047C44.3097 42.1559 44.3046 42.2327 44.2585 42.2788L42.732 43.8053C42.6961 43.8412 42.6602 43.8463 42.6346 43.8463C42.6039 43.8463 42.5783 43.8361 42.5578 43.8207L40.7803 42.5554C40.56 42.3967 40.2629 42.3864 40.0273 42.5247C39.3563 42.9243 38.634 43.2214 37.881 43.416C37.6146 43.4826 37.4148 43.7029 37.3739 43.9692L37.0102 46.1207C36.9999 46.1873 36.9436 46.2334 36.877 46.2334H34.7204C34.6538 46.2334 34.5975 46.1873 34.5872 46.1207L34.2287 43.9692C34.1826 43.6978 33.9828 43.4826 33.7215 43.416C32.989 43.2265 32.2821 42.9345 31.6213 42.5554C31.5138 42.494 31.3908 42.4632 31.273 42.4632C31.1347 42.4632 30.9913 42.5042 30.8735 42.5913L29.0806 43.8668C29.055 43.8822 29.0294 43.8924 29.0038 43.8924C28.9833 43.8924 28.9423 43.8873 28.9064 43.8514L27.3799 42.3249C27.3338 42.2788 27.3287 42.2071 27.3646 42.1508L28.6247 40.3835C28.7835 40.1581 28.7937 39.861 28.6554 39.6254C28.2559 38.9595 27.9485 38.2372 27.7539 37.4842C27.6822 37.223 27.467 37.0232 27.2007 36.9771L25.0338 36.6083C24.9673 36.598 24.9212 36.5417 24.9212 36.4751V34.3185C24.9212 34.2519 24.9673 34.1956 25.0338 34.1853L27.1699 33.8268C27.4414 33.7807 27.6617 33.5809 27.7283 33.3145C27.9178 32.5615 28.2098 31.8341 28.6042 31.1631C28.7425 30.9275 28.7271 30.6355 28.5683 30.4152L27.2929 28.6223C27.257 28.5711 27.2621 28.4943 27.3082 28.4482L28.8347 26.9217C28.8706 26.8858 28.9064 26.8807 28.932 26.8807C28.9628 26.8807 28.9884 26.891 29.0089 26.9063L30.7761 28.1664C31.0015 28.3252 31.2986 28.3355 31.5343 28.1972C32.2002 27.7976 32.9224 27.4903 33.6754 27.2956C33.9367 27.2239 34.1365 27.0088 34.1826 26.7424L34.5514 24.5756C34.5616 24.509 34.618 24.4629 34.6846 24.4629H36.8411C36.9077 24.4629 36.9641 24.509 36.9743 24.5756L37.3329 26.7117C37.379 26.9832 37.5788 27.2034 37.8451 27.27C38.6186 27.4647 39.3563 27.7669 40.0427 28.1716C40.2783 28.3099 40.5703 28.2996 40.7957 28.1408L42.5629 26.8705C42.5885 26.8551 42.6141 26.8449 42.6398 26.8449C42.6602 26.8449 42.7012 26.85 42.7371 26.8858L44.2636 28.4123C44.3097 28.4584 44.3148 28.5301 44.2789 28.5865L43.0137 30.364C42.8549 30.5843 42.8447 30.8814 42.983 31.117C43.3825 31.788 43.6796 32.5103 43.8743 33.2633C43.9409 33.5297 44.1611 33.7294 44.4275 33.7704L46.5789 34.1341C46.6455 34.1444 46.6916 34.2007 46.6916 34.2673V36.4239H46.6865Z" stroke="#275AAE" stroke-width="4" mask="url(#path-9-outside-1_831_1450)"/>
<path d="M35.8013 29.0515C32.3292 29.0515 29.5098 31.8709 29.5098 35.343C29.5098 38.8151 32.3292 41.6345 35.8013 41.6345C39.2734 41.6345 42.0928 38.8151 42.0928 35.343C42.0928 31.8709 39.2734 29.0515 35.8013 29.0515ZM35.8013 38.2515C34.197 38.2515 32.8928 36.9473 32.8928 35.343C32.8928 33.7387 34.197 32.4346 35.8013 32.4346C37.4055 32.4346 38.7097 33.7387 38.7097 35.343C38.7097 36.9473 37.4055 38.2515 35.8013 38.2515Z" fill="#CDE0FF" stroke="#275AAE" stroke-width="2"/>
</g>
<defs>
<clipPath id="clip0_831_1450">
<rect width="50" height="50" fill="white"/>
</clipPath>
</defs>
</svg>
