<svg width="51" height="50" viewBox="0 0 51 50" fill="none" xmlns="http://www.w3.org/2000/svg">
<g clip-path="url(#clip0_619_2948)">
<path d="M25.8282 11.2498C18.2463 11.2498 12.0782 17.4179 12.0782 24.9998C12.0782 32.5816 18.2463 38.7498 25.8282 38.7498C28.1144 38.7498 30.3788 38.1773 32.3763 37.0941C32.6801 36.9298 32.7926 36.5504 32.6276 36.2473C32.4626 35.9441 32.0832 35.8316 31.7807 35.996C29.9657 36.9804 27.9076 37.5004 25.8288 37.5004C18.9363 37.5004 13.3288 31.8929 13.3288 25.0004C13.3288 18.1079 18.9357 12.4998 25.8282 12.4998C32.7207 12.4998 38.3282 18.1073 38.3282 24.9998C38.3282 28.5516 36.8094 31.9479 34.1613 34.3179C33.9038 34.5479 33.8826 34.9435 34.1126 35.2004C34.3432 35.4566 34.7376 35.4791 34.9951 35.2491C37.9076 32.6416 39.5782 28.9066 39.5782 24.9998C39.5782 17.4179 33.4101 11.2498 25.8282 11.2498Z" fill="#CDE0FF"/>
<path d="M45.2031 16.25H40.2431C37.2 11.2319 31.715 8.125 25.8281 8.125C19.9412 8.125 14.4544 11.2325 11.4125 16.25H6.45312C6.10813 16.25 5.82812 16.5294 5.82812 16.875V33.125C5.82812 33.4706 6.10813 33.75 6.45312 33.75H11.4125C14.4556 38.7681 19.9406 41.875 25.8281 41.875C31.7156 41.875 37.2019 38.7675 40.2437 33.75H45.2031C45.5481 33.75 45.8281 33.4706 45.8281 33.125V16.875C45.8281 16.5294 45.5481 16.25 45.2031 16.25ZM7.07812 17.5H10.7144C9.56 19.8175 8.95312 22.3881 8.95312 25C8.95312 27.6119 9.56062 30.1837 10.7144 32.5H7.07812V17.5ZM25.8281 40.625C20.2631 40.625 15.0794 37.6319 12.3 32.8106C10.9281 30.4506 10.2031 27.7494 10.2031 25C10.2031 22.2506 10.9281 19.5494 12.3006 17.1875C15.0794 12.3681 20.2625 9.375 25.8281 9.375C31.3937 9.375 36.5769 12.3681 39.3556 17.1875V17.1894C40.7281 19.5494 41.4531 22.2506 41.4531 25C41.4531 27.7494 40.7281 30.4506 39.3556 32.8125C36.5769 37.6319 31.3937 40.625 25.8281 40.625ZM44.5781 32.5H40.9419C42.0962 30.1825 42.7031 27.6119 42.7031 25C42.7031 22.3881 42.0962 19.8169 40.9419 17.5H44.5781V32.5Z" fill="#CDE0FF"/>
<path d="M34.5781 23.125C34.9231 23.125 35.2031 22.8456 35.2031 22.5V18.75C35.2031 18.4044 34.9231 18.125 34.5781 18.125H17.0781C16.7331 18.125 16.4531 18.4044 16.4531 18.75V22.5C16.4531 22.8456 16.7331 23.125 17.0781 23.125H34.5781ZM26.4531 19.375H29.5781V21.875H26.4531V19.375ZM25.2031 21.875H22.0781V19.375H25.2031V21.875ZM33.9531 21.875H30.8281V19.375H33.9531V21.875ZM17.7031 19.375H20.8281V21.875H17.7031V19.375Z" fill="#CDE0FF"/>
<path d="M25.3206 25.2596L22.4412 29.264C21.9993 29.8734 21.7656 30.5852 21.7656 31.3246C21.7656 32.3071 22.2093 33.2396 23.0174 33.9521C23.7924 34.6277 24.7906 34.9996 25.8281 34.9996C28.0299 34.9996 29.8906 33.3171 29.8906 31.3246C29.8906 30.5852 29.6568 29.8733 29.2168 29.2658L26.3356 25.2596C26.1006 24.934 25.5556 24.934 25.3206 25.2596ZM28.6406 31.3246C28.6406 32.6158 27.3262 33.7496 25.8281 33.7496C25.1031 33.7496 24.3781 33.4796 23.8412 33.0121C23.3087 32.5427 23.0156 31.9433 23.0156 31.3246C23.0156 30.8508 23.1668 30.3921 23.4543 29.9958L25.8281 26.6952L28.2031 29.9977C28.4893 30.3921 28.6406 30.8508 28.6406 31.3246Z" fill="#CDE0FF"/>
<path d="M33.0157 29.375C34.2219 29.375 35.2032 28.3937 35.2032 27.1875C35.2032 25.9812 34.2219 25 33.0157 25C31.8094 25 30.8282 25.9812 30.8282 27.1875C30.8282 28.3937 31.8094 29.375 33.0157 29.375ZM33.0157 26.25C33.5326 26.25 33.9532 26.6706 33.9532 27.1875C33.9532 27.7044 33.5326 28.125 33.0157 28.125C32.4988 28.125 32.0782 27.7044 32.0782 27.1875C32.0782 26.6706 32.4988 26.25 33.0157 26.25Z" fill="#CDE0FF"/>
<path d="M16.4531 27.1875C16.4531 28.3937 17.4344 29.375 18.6406 29.375C19.8469 29.375 20.8281 28.3937 20.8281 27.1875C20.8281 25.9812 19.8469 25 18.6406 25C17.4344 25 16.4531 25.9812 16.4531 27.1875ZM19.5781 27.1875C19.5781 27.7044 19.1575 28.125 18.6406 28.125C18.1237 28.125 17.7031 27.7044 17.7031 27.1875C17.7031 26.6706 18.1237 26.25 18.6406 26.25C19.1575 26.25 19.5781 26.6706 19.5781 27.1875Z" fill="#CDE0FF"/>
<path d="M27.7031 16.25C28.0481 16.25 28.3281 15.9706 28.3281 15.625C28.3281 15.2794 28.0481 15 27.7031 15H23.9531C23.6081 15 23.3281 15.2794 23.3281 15.625C23.3281 15.9706 23.6081 16.25 23.9531 16.25H27.7031Z" fill="#CDE0FF"/>
<path d="M25.8281 32.5C26.3459 32.5 26.7656 32.0803 26.7656 31.5625C26.7656 31.0447 26.3459 30.625 25.8281 30.625C25.3104 30.625 24.8906 31.0447 24.8906 31.5625C24.8906 32.0803 25.3104 32.5 25.8281 32.5Z" fill="#CDE0FF"/>
<path d="M19.9442 3.49146C19.9449 3.44454 19.9344 3.39814 19.9136 3.35606C19.8929 3.31398 19.8624 3.27742 19.8248 3.24937L16.4793 0.763506C16.4481 0.740308 16.4126 0.72349 16.3749 0.714012C16.3371 0.704535 16.2979 0.702583 16.2594 0.708269C16.2209 0.713955 16.1839 0.727167 16.1505 0.747151C16.1171 0.767135 16.088 0.793499 16.0648 0.824739C16.0416 0.855978 16.0248 0.89148 16.0153 0.929219C16.0058 0.966958 16.0039 1.00619 16.0096 1.04469C16.0152 1.08318 16.0285 1.12018 16.0484 1.15356C16.0684 1.18695 16.0948 1.21608 16.126 1.23927L18.5934 3.07281C16.2905 2.86956 7.73608 2.94607 1.71681 13.8366C1.69737 13.8706 1.68488 13.9083 1.68009 13.9472C1.6753 13.9861 1.67829 14.0257 1.68889 14.0634C1.69949 14.1012 1.71749 14.1365 1.74185 14.1673C1.7662 14.1981 1.79643 14.2237 1.83076 14.2427C1.8651 14.2617 1.90287 14.2737 1.94188 14.2779C1.98089 14.2822 2.02036 14.2787 2.05799 14.2676C2.09563 14.2565 2.13069 14.238 2.16113 14.2133C2.19158 14.1885 2.2168 14.1579 2.23533 14.1234C8.4134 2.94496 17.2842 3.50321 18.833 3.69547L16.0618 5.63207C16.0138 5.66545 15.9767 5.71231 15.9552 5.76675C15.9338 5.82118 15.929 5.88075 15.9414 5.93793C15.9538 5.9951 15.9829 6.04732 16.0249 6.08799C16.067 6.12866 16.1201 6.15595 16.1777 6.16642C16.2529 6.18034 16.3337 6.16518 16.4012 6.11802L19.8177 3.73049C19.8959 3.67568 19.9428 3.58673 19.9442 3.49146Z" fill="#CDE0FF"/>
<path d="M31.7121 46.4748C31.7115 46.5218 31.7219 46.5682 31.7427 46.6102C31.7634 46.6523 31.7939 46.6889 31.8315 46.7169L35.177 49.2028C35.2082 49.226 35.2437 49.2428 35.2815 49.2523C35.3192 49.2618 35.3584 49.2637 35.3969 49.258C35.4354 49.2524 35.4724 49.2391 35.5058 49.2192C35.5392 49.1992 35.5683 49.1728 35.5915 49.1416C35.6147 49.1103 35.6315 49.0748 35.641 49.0371C35.6505 48.9993 35.6524 48.9601 35.6468 48.9216C35.6411 48.8831 35.6279 48.8461 35.6079 48.8127C35.5879 48.7794 35.5615 48.7502 35.5303 48.727L33.0629 46.8935C35.3658 47.0967 43.9202 47.0202 49.9395 36.1297C49.9589 36.0957 49.9714 36.0581 49.9762 36.0191C49.981 35.9802 49.978 35.9406 49.9674 35.9029C49.9568 35.8651 49.9388 35.8298 49.9145 35.799C49.8901 35.7682 49.8599 35.7426 49.8255 35.7236C49.7912 35.7046 49.7534 35.6927 49.7144 35.6884C49.6754 35.6841 49.636 35.6876 49.5983 35.6987C49.5607 35.7098 49.5256 35.7283 49.4952 35.753C49.4647 35.7778 49.4395 35.8084 49.421 35.843C43.2429 47.0213 34.3721 46.4631 32.8233 46.2708L35.5945 44.3342C35.6425 44.3009 35.6796 44.254 35.7011 44.1996C35.7225 44.1451 35.7273 44.0856 35.7149 44.0284C35.7025 43.9712 35.6735 43.919 35.6314 43.8783C35.5893 43.8377 35.5362 43.8104 35.4786 43.7999C35.4034 43.786 35.3226 43.8011 35.2551 43.8483L31.8386 46.2358C31.7604 46.2906 31.7135 46.3796 31.7121 46.4748Z" fill="#CDE0FF"/>
</g>
<defs>
<clipPath id="clip0_619_2948">
<rect width="50" height="50" fill="white" transform="translate(0.828125)"/>
</clipPath>
</defs>
</svg>
