<svg width="50" height="50" viewBox="0 0 50 50" fill="none" xmlns="http://www.w3.org/2000/svg">
<path d="M20.6668 23.6737V23.6657H14.0001V23.6737C11.6007 23.7165 9.31392 24.6988 7.63103 26.4095C5.94813 28.1202 5.00346 30.4228 5 32.8225V44.3325C5 44.5094 5.07024 44.6789 5.19526 44.804C5.32029 44.929 5.48986 44.9992 5.66667 44.9992H29.0002C29.177 44.9992 29.3465 44.929 29.4716 44.804C29.5966 44.6789 29.6668 44.5094 29.6668 44.3325V32.8225C29.6634 30.4228 28.7187 28.1202 27.0358 26.4095C25.3529 24.6988 23.0661 23.7165 20.6668 23.6737ZM15.3334 24.9991H19.3334V27.9991C19.3334 28.5295 19.1227 29.0382 18.7476 29.4133C18.3726 29.7884 17.8639 29.9991 17.3334 29.9991C16.803 29.9991 16.2943 29.7884 15.9192 29.4133C15.5441 29.0382 15.3334 28.5295 15.3334 27.9991V24.9991ZM10.3334 43.6659H6.33334V36.2038H10.3334V43.6659ZM10.3334 34.8705H6.33334V32.8225C6.33475 31.4331 6.70603 30.0692 7.40901 28.8709C8.112 27.6725 9.12135 26.6829 10.3334 26.0038V34.8705ZM20.0001 43.6659H14.6667V36.2038H20.0001V43.6659ZM23.0001 34.8705V43.6659H21.3334V35.5371C21.3334 35.3603 21.2632 35.1908 21.1382 35.0657C21.0132 34.9407 20.8436 34.8705 20.6668 34.8705H14.0001C13.8232 34.8705 13.6537 34.9407 13.5287 35.0657C13.4036 35.1908 13.3334 35.3603 13.3334 35.5371V43.6659H11.6667V25.4124C12.4192 25.159 13.2061 25.0223 14.0001 25.0071V27.9991C14.0001 28.8832 14.3513 29.731 14.9764 30.3561C15.6015 30.9813 16.4494 31.3325 17.3334 31.3325C18.2175 31.3325 19.0653 30.9813 19.6905 30.3561C20.3156 29.731 20.6668 28.8832 20.6668 27.9991V25.0071C21.4607 25.0223 22.2476 25.159 23.0001 25.4124V34.8705ZM28.3335 43.6659H24.3335V36.2038H28.3335V43.6659ZM28.3335 34.8705H24.3335V26.0038C25.5454 26.6829 26.5547 27.6723 27.2577 28.8706C27.9606 30.0688 28.332 31.4326 28.3335 32.8218V34.8705ZM40.6376 22.3564C40.5252 22.3064 40.4012 22.2886 40.2793 22.3047C40.1573 22.3209 40.0423 22.3704 39.9468 22.4479C39.8513 22.5254 39.7791 22.6278 39.7381 22.7438C39.6972 22.8598 39.6892 22.9848 39.7149 23.1051C39.7235 23.1427 39.728 23.1811 39.7282 23.2197V28.0678C39.7281 28.1395 39.7139 28.2104 39.6864 28.2767C39.6589 28.3429 39.6186 28.403 39.5678 28.4537C39.5171 28.5043 39.4568 28.5444 39.3906 28.5718C39.3243 28.5992 39.2533 28.6132 39.1816 28.6131H36.1522C36.0075 28.6131 35.8687 28.5557 35.7664 28.4534C35.664 28.3512 35.6064 28.2125 35.6062 28.0678V23.2197C35.6065 23.1811 35.611 23.1427 35.6195 23.1051C35.6453 22.9848 35.6372 22.8598 35.5963 22.7438C35.5554 22.6278 35.4832 22.5254 35.3877 22.4479C35.2922 22.3704 35.1771 22.3209 35.0552 22.3047C34.9333 22.2886 34.8093 22.3064 34.6969 22.3564C33.548 22.864 32.5489 23.6586 31.7959 24.6639C31.0428 25.6691 30.561 26.8512 30.3967 28.0964C30.2325 29.3417 30.3913 30.6083 30.858 31.7744C31.3247 32.9405 32.0835 33.967 33.0615 34.7551V44.3325C33.0615 44.5094 33.1318 44.6789 33.2568 44.804C33.3818 44.929 33.5514 44.9992 33.7282 44.9992H41.6063C41.7831 44.9992 41.9526 44.929 42.0777 44.804C42.2027 44.6789 42.2729 44.5094 42.2729 44.3325V34.7551C43.2508 33.9669 44.0094 32.9404 44.476 31.7743C44.9426 30.6082 45.1014 29.3417 44.9371 28.0965C44.7729 26.8513 44.2911 25.6693 43.5382 24.6641C42.7852 23.6588 41.7863 22.8641 40.6376 22.3564ZM41.2109 33.8898C41.1266 33.9519 41.0581 34.0329 41.011 34.1264C40.9639 34.2199 40.9394 34.3231 40.9396 34.4278V43.6659H34.3942V34.4278C34.3943 34.3232 34.3698 34.2201 34.3226 34.1268C34.2755 34.0334 34.2071 33.9525 34.1229 33.8905C33.3492 33.3256 32.7225 32.5833 32.2952 31.726C31.8679 30.8687 31.6525 29.9214 31.6672 28.9636C31.6819 28.0058 31.9262 27.0655 32.3796 26.2218C32.833 25.378 33.4823 24.6553 34.2729 24.1144V28.0678C34.2734 28.5659 34.4715 29.0434 34.8237 29.3956C35.1759 29.7478 35.6535 29.9459 36.1515 29.9464H39.1822C39.6803 29.9459 40.1579 29.7478 40.5101 29.3956C40.8623 29.0434 41.0604 28.5659 41.0609 28.0678V24.1144C41.8635 24.6654 42.52 25.4033 42.974 26.2645C43.428 27.1256 43.6658 28.0843 43.6669 29.0578C43.6701 30.0003 43.4491 30.93 43.0222 31.7703C42.5953 32.6106 41.9747 33.3373 41.2116 33.8905L41.2109 33.8898ZM37.6669 20.5544C38.9925 20.553 40.2635 20.0257 41.2009 19.0883C42.1383 18.151 42.6655 16.88 42.6669 15.5543C42.6669 12.9803 38.6242 8.40097 38.1629 7.88696C38.0987 7.82018 38.0217 7.76705 37.9364 7.73075C37.8512 7.69446 37.7595 7.67575 37.6669 7.67575C37.5743 7.67575 37.4826 7.69446 37.3973 7.73075C37.3121 7.76705 37.2351 7.82018 37.1709 7.88696C36.7102 8.4003 32.6669 12.9803 32.6669 15.5543C32.6683 16.88 33.1955 18.151 34.1329 19.0883C35.0703 20.0257 36.3412 20.553 37.6669 20.5544ZM37.6669 9.34764C39.2556 11.2237 41.3336 14.149 41.3336 15.5543C41.3336 16.5268 40.9473 17.4595 40.2596 18.1471C39.572 18.8347 38.6394 19.221 37.6669 19.221C36.6944 19.221 35.7618 18.8347 35.0741 18.1471C34.3865 17.4595 34.0002 16.5268 34.0002 15.5543C34.0002 14.151 36.0789 11.2243 37.6669 9.34764ZM9.03336 13.3323H10V15.6657C10 17.6106 10.7727 19.4759 12.1479 20.8512C13.5232 22.2264 15.3885 22.9991 17.3334 22.9991C19.2784 22.9991 21.1436 22.2264 22.5189 20.8512C23.8942 19.4759 24.6668 17.6106 24.6668 15.6657V13.3323H28.3668C28.5436 13.3323 28.7132 13.2621 28.8382 13.1371C28.9633 13.012 29.0335 12.8425 29.0335 12.6657C29.0335 12.4888 28.9633 12.3193 28.8382 12.1943C28.7132 12.0692 28.5436 11.999 28.3668 11.999H25.5481C25.234 10.0466 24.2347 8.26994 22.7294 6.98751C21.2241 5.70508 19.3113 5.00073 17.3338 5.00073C15.3562 5.00073 13.4434 5.70508 11.9381 6.98751C10.4328 8.26994 9.43353 10.0466 9.11936 11.999H9.03336C8.85655 11.999 8.68698 12.0692 8.56195 12.1943C8.43693 12.3193 8.36669 12.4888 8.36669 12.6657C8.36669 12.8425 8.43693 13.012 8.56195 13.1371C8.68698 13.2621 8.85655 13.3323 9.03336 13.3323ZM23.3335 15.6657C23.3335 17.257 22.7013 18.7831 21.5761 19.9084C20.4509 21.0336 18.9247 21.6657 17.3334 21.6657C15.7421 21.6657 14.216 21.0336 13.0907 19.9084C11.9655 18.7831 11.3334 17.257 11.3334 15.6657V13.3323H23.3335V15.6657ZM17.3334 6.33229C18.9554 6.34216 20.5244 6.9113 21.7754 7.94366C23.0265 8.97601 23.8832 10.4084 24.2008 11.999H10.4667C10.7843 10.4085 11.6408 8.97621 12.8918 7.94387C14.1428 6.91152 15.7115 6.34232 17.3334 6.33229Z" fill="#CDE0FF"/>
</svg>
