<svg width="51" height="50" viewBox="0 0 51 50" fill="none" xmlns="http://www.w3.org/2000/svg">
<g clip-path="url(#clip0_831_1470)">
<path d="M25.8281 11.2498C18.2462 11.2498 12.0781 17.4179 12.0781 24.9998C12.0781 32.5816 18.2462 38.7498 25.8281 38.7498C28.1144 38.7498 30.3787 38.1773 32.3762 37.0941C32.68 36.9298 32.7925 36.5504 32.6275 36.2473C32.4625 35.9441 32.0831 35.8316 31.7806 35.996C29.9656 36.9804 27.9075 37.5004 25.8287 37.5004C18.9362 37.5004 13.3288 31.8929 13.3288 25.0004C13.3288 18.1079 18.9356 12.4998 25.8281 12.4998C32.7206 12.4998 38.3281 18.1073 38.3281 24.9998C38.3281 28.5516 36.8094 31.9479 34.1612 34.3179C33.9037 34.5479 33.8825 34.9435 34.1125 35.2004C34.3431 35.4566 34.7375 35.4791 34.995 35.2491C37.9075 32.6416 39.5781 28.9066 39.5781 24.9998C39.5781 17.4179 33.41 11.2498 25.8281 11.2498Z" fill="white"/>
<path d="M45.2031 16.25H40.2431C37.2 11.2319 31.715 8.125 25.8281 8.125C19.9412 8.125 14.4544 11.2325 11.4125 16.25H6.45312C6.10813 16.25 5.82812 16.5294 5.82812 16.875V33.125C5.82812 33.4706 6.10813 33.75 6.45312 33.75H11.4125C14.4556 38.7681 19.9406 41.875 25.8281 41.875C31.7156 41.875 37.2019 38.7675 40.2437 33.75H45.2031C45.5481 33.75 45.8281 33.4706 45.8281 33.125V16.875C45.8281 16.5294 45.5481 16.25 45.2031 16.25ZM7.07812 17.5H10.7144C9.56 19.8175 8.95312 22.3881 8.95312 25C8.95312 27.6119 9.56062 30.1837 10.7144 32.5H7.07812V17.5ZM25.8281 40.625C20.2631 40.625 15.0794 37.6319 12.3 32.8106C10.9281 30.4506 10.2031 27.7494 10.2031 25C10.2031 22.2506 10.9281 19.5494 12.3006 17.1875C15.0794 12.3681 20.2625 9.375 25.8281 9.375C31.3937 9.375 36.5769 12.3681 39.3556 17.1875V17.1894C40.7281 19.5494 41.4531 22.2506 41.4531 25C41.4531 27.7494 40.7281 30.4506 39.3556 32.8125C36.5769 37.6319 31.3937 40.625 25.8281 40.625ZM44.5781 32.5H40.9419C42.0962 30.1825 42.7031 27.6119 42.7031 25C42.7031 22.3881 42.0962 19.8169 40.9419 17.5H44.5781V32.5Z" fill="white"/>
<path d="M34.5781 23.125C34.9231 23.125 35.2031 22.8456 35.2031 22.5V18.75C35.2031 18.4044 34.9231 18.125 34.5781 18.125H17.0781C16.7331 18.125 16.4531 18.4044 16.4531 18.75V22.5C16.4531 22.8456 16.7331 23.125 17.0781 23.125H34.5781ZM26.4531 19.375H29.5781V21.875H26.4531V19.375ZM25.2031 21.875H22.0781V19.375H25.2031V21.875ZM33.9531 21.875H30.8281V19.375H33.9531V21.875ZM17.7031 19.375H20.8281V21.875H17.7031V19.375Z" fill="white"/>
<path d="M25.3206 25.2596L22.4412 29.264C21.9994 29.8734 21.7656 30.5852 21.7656 31.3246C21.7656 32.3071 22.2094 33.2396 23.0175 33.9521C23.7925 34.6277 24.7906 34.9996 25.8281 34.9996C28.03 34.9996 29.8906 33.3171 29.8906 31.3246C29.8906 30.5852 29.6569 29.8733 29.2169 29.2658L26.3356 25.2596C26.1006 24.934 25.5556 24.934 25.3206 25.2596ZM28.6406 31.3246C28.6406 32.6158 27.3263 33.7496 25.8281 33.7496C25.1031 33.7496 24.3781 33.4796 23.8412 33.0121C23.3087 32.5427 23.0156 31.9433 23.0156 31.3246C23.0156 30.8508 23.1669 30.3921 23.4544 29.9958L25.8281 26.6952L28.2031 29.9977C28.4894 30.3921 28.6406 30.8508 28.6406 31.3246Z" fill="white"/>
<path d="M33.0156 29.375C34.2219 29.375 35.2031 28.3937 35.2031 27.1875C35.2031 25.9812 34.2219 25 33.0156 25C31.8094 25 30.8281 25.9812 30.8281 27.1875C30.8281 28.3937 31.8094 29.375 33.0156 29.375ZM33.0156 26.25C33.5325 26.25 33.9531 26.6706 33.9531 27.1875C33.9531 27.7044 33.5325 28.125 33.0156 28.125C32.4987 28.125 32.0781 27.7044 32.0781 27.1875C32.0781 26.6706 32.4987 26.25 33.0156 26.25Z" fill="white"/>
<path d="M16.4531 27.1875C16.4531 28.3937 17.4344 29.375 18.6406 29.375C19.8469 29.375 20.8281 28.3937 20.8281 27.1875C20.8281 25.9812 19.8469 25 18.6406 25C17.4344 25 16.4531 25.9812 16.4531 27.1875ZM19.5781 27.1875C19.5781 27.7044 19.1575 28.125 18.6406 28.125C18.1237 28.125 17.7031 27.7044 17.7031 27.1875C17.7031 26.6706 18.1237 26.25 18.6406 26.25C19.1575 26.25 19.5781 26.6706 19.5781 27.1875Z" fill="white"/>
<path d="M27.7031 16.25C28.0481 16.25 28.3281 15.9706 28.3281 15.625C28.3281 15.2794 28.0481 15 27.7031 15H23.9531C23.6081 15 23.3281 15.2794 23.3281 15.625C23.3281 15.9706 23.6081 16.25 23.9531 16.25H27.7031Z" fill="white"/>
<path d="M25.8281 32.5C26.3459 32.5 26.7656 32.0803 26.7656 31.5625C26.7656 31.0447 26.3459 30.625 25.8281 30.625C25.3104 30.625 24.8906 31.0447 24.8906 31.5625C24.8906 32.0803 25.3104 32.5 25.8281 32.5Z" fill="white"/>
<path d="M20.0944 3.49352L20.0944 3.49362C20.0924 3.63691 20.0218 3.77082 19.904 3.85335L19.9038 3.85344L16.4874 6.24097L16.4874 6.24098C16.3857 6.31205 16.2638 6.33483 16.1508 6.31394M20.0944 3.49352L15.9761 5.50912C15.9039 5.55939 15.8482 5.6299 15.8159 5.71179C15.7836 5.79382 15.7764 5.88357 15.795 5.96972C15.8137 6.05587 15.8575 6.13455 15.9209 6.19582C15.9842 6.25703 16.0642 6.29812 16.1508 6.31394M20.0944 3.49352C20.0954 3.4229 20.0796 3.35306 20.0484 3.28972C20.0172 3.22637 19.9713 3.17134 19.9147 3.12912L19.9145 3.12897M20.0944 3.49352L19.9145 3.12897M16.1508 6.31394C16.1507 6.31393 16.1507 6.31392 16.1506 6.31391L16.1779 6.16642L16.1511 6.314C16.151 6.31398 16.1509 6.31396 16.1508 6.31394ZM18.4146 3.80507C17.3545 3.72537 15.0552 3.72711 12.3246 4.78528C9.17466 6.00596 5.43959 8.6366 2.36728 14.1952C2.33941 14.2469 2.3016 14.2926 2.25603 14.3296C2.21017 14.3669 2.15737 14.3947 2.10067 14.4115C2.04398 14.4282 1.98453 14.4335 1.92577 14.427C1.86702 14.4206 1.81013 14.4025 1.75841 14.3739C1.70668 14.3453 1.66116 14.3067 1.62448 14.2604C1.58779 14.214 1.56068 14.1609 1.54471 14.104C1.52874 14.0471 1.52424 13.9875 1.53146 13.9289C1.53864 13.8706 1.55726 13.8142 1.58626 13.7631C1.58643 13.7628 1.5866 13.7625 1.58677 13.7622L1.71706 13.8366L18.4146 3.80507ZM18.4146 3.80507L15.9765 5.50887L18.4146 3.80507ZM19.9145 3.12897L16.569 0.643106L16.569 0.643079M19.9145 3.12897L16.569 0.643079M16.569 0.643079C16.5219 0.608137 16.4685 0.582805 16.4116 0.56853C16.3548 0.554254 16.2957 0.551315 16.2377 0.559879C16.1797 0.568444 16.124 0.588344 16.0737 0.618444L16.0737 0.618445M16.569 0.643079L16.0737 0.618445M16.0737 0.618445C16.0234 0.648546 15.9796 0.688257 15.9446 0.735311C15.9097 0.782363 15.8843 0.835838 15.8701 0.892686C15.8558 0.94953 15.8529 1.00863 15.8614 1.06661C15.87 1.12459 15.8899 1.18031 15.92 1.2306C15.9501 1.28088 15.9898 1.32473 16.0368 1.35967C16.0368 1.35968 16.0368 1.35969 16.0368 1.3597L18.0971 2.89069L16.0737 0.618445Z" fill="white" stroke="white" stroke-width="0.3"/>
<path d="M31.5623 46.4728L31.5623 46.4727C31.5644 46.3294 31.6349 46.1955 31.7528 46.113L31.7529 46.1129L35.1694 43.7253L35.1694 43.7253C35.2711 43.6543 35.3929 43.6315 35.506 43.6524M31.5623 46.4728L35.6806 44.4572C35.7528 44.4069 35.8086 44.3364 35.8408 44.2545C35.8731 44.1725 35.8804 44.0827 35.8617 43.9966C35.843 43.9104 35.7992 43.8318 35.7358 43.7705C35.6726 43.7093 35.5926 43.6682 35.506 43.6524M31.5623 46.4728C31.5613 46.5434 31.5771 46.6132 31.6083 46.6766C31.6396 46.7399 31.6854 46.795 31.742 46.8372L31.7422 46.8373M31.5623 46.4728L31.7422 46.8373M35.506 43.6524C35.506 43.6524 35.5061 43.6524 35.5061 43.6524L35.4788 43.7999L35.5056 43.6523C35.5057 43.6523 35.5058 43.6524 35.506 43.6524ZM33.2421 46.1612C34.3022 46.2409 36.6015 46.2392 39.3321 45.181C42.4821 43.9604 46.2172 41.3297 49.2895 35.7712C49.3173 35.7194 49.3551 35.6737 49.4007 35.6367C49.4466 35.5994 49.4994 35.5716 49.5561 35.5548C49.6128 35.5381 49.6722 35.5328 49.731 35.5393C49.7897 35.5457 49.8466 35.5638 49.8983 35.5924C49.9501 35.621 49.9956 35.6596 50.0323 35.7059C50.0689 35.7523 50.0961 35.8054 50.112 35.8623C50.128 35.9193 50.1325 35.9788 50.1253 36.0374C50.1181 36.0958 50.0995 36.1521 50.0705 36.2032C50.0703 36.2035 50.0701 36.2038 50.07 36.2041L49.9397 36.1297L33.2421 46.1612ZM33.2421 46.1612L35.6802 44.4574L33.2421 46.1612ZM31.7422 46.8373L35.0877 49.3232L35.0877 49.3232M31.7422 46.8373L35.0877 49.3232M35.0877 49.3232C35.1348 49.3582 35.1883 49.3835 35.2451 49.3978C35.302 49.4121 35.3611 49.415 35.419 49.4064C35.477 49.3979 35.5327 49.378 35.583 49.3479L35.583 49.3479M35.0877 49.3232L35.583 49.3479M35.583 49.3479C35.6333 49.3178 35.6772 49.2781 35.7121 49.231C35.7471 49.1839 35.7724 49.1305 35.7867 49.0736C35.801 49.0168 35.8039 48.9577 35.7953 48.8997C35.7868 48.8417 35.7669 48.786 35.7368 48.7357C35.7067 48.6854 35.667 48.6416 35.6199 48.6066C35.6199 48.6066 35.6199 48.6066 35.6199 48.6066L33.5597 47.0756L35.583 49.3479Z" fill="white" stroke="white" stroke-width="0.3"/>
</g>
<defs>
<clipPath id="clip0_831_1470">
<rect width="50" height="50" fill="white" transform="translate(0.828125)"/>
</clipPath>
</defs>
</svg>
