<svg width="20" height="21" viewBox="0 0 20 21" fill="none" xmlns="http://www.w3.org/2000/svg">
<path d="M10.0002 3.20428C4.47744 3.20428 0.00012207 7.72415 0.00012207 13.2997C0.00012207 16.323 1.3048 18.2947 1.3048 18.2947L18.6915 18.2955C18.6915 18.2955 19.9999 16.1407 19.9999 13.2995C19.9999 7.72415 15.5226 3.20428 10.0002 3.20428ZM17.958 17.0656L2.07407 17.0587C2.07407 17.0587 1.22769 15.4558 1.22769 13.2679C1.22769 8.3811 5.17023 4.41928 10.0338 4.41928C14.8971 4.41928 18.8398 8.38089 18.8398 13.2679C18.84 15.4806 17.958 17.0656 17.958 17.0656Z" fill="#FD4D4D"/>
<path d="M12.8262 5.8851L12.7007 5.88489L10.0333 11.1118L7.26993 5.84026L3.48644 15.3634H2.50867V16.1283H7.86527V15.3634H6.80242L7.86527 12.3871L10.0333 16.1283L12.1165 12.3871L13.1791 15.3634H12.1165V16.1283H17.4303V15.3634H16.5098L12.8262 5.8851Z" fill="#FD4D4D"/>
</svg>
