<svg width="117" height="28" viewBox="0 0 117 28" fill="none" xmlns="http://www.w3.org/2000/svg" fill-opacity="0.5" >
<g clip-path="url(#clip0_831_1438)">
<path d="M35.8589 7.64541H38.4297V9.91382C38.581 9.57776 38.7826 9.2585 39.0347 8.95605C39.2867 8.63679 39.5724 8.35954 39.8916 8.1243C40.2277 7.88905 40.5889 7.70422 40.9754 7.5698C41.3619 7.43537 41.7735 7.36816 42.2104 7.36816C43.3194 7.36816 44.1848 7.6034 44.8065 8.07389C45.4282 8.54437 45.8567 9.15768 46.0919 9.91382C46.4784 9.15768 47.0161 8.54437 47.705 8.07389C48.4107 7.6034 49.2257 7.36816 50.1499 7.36816C51.5445 7.36816 52.6199 7.77983 53.376 8.60318C54.1322 9.42653 54.5102 10.7035 54.5102 12.4342V21.0038H51.7377V13.0644C51.7377 11.8713 51.5109 11.0312 51.0572 10.5439C50.6203 10.0398 50.0238 9.7878 49.2677 9.7878C48.3603 9.7878 47.6798 10.0986 47.2261 10.7203C46.7893 11.3252 46.5708 12.1066 46.5708 13.0644V21.0038H43.7983V13.0644C43.7983 11.8713 43.5715 11.0312 43.1178 10.5439C42.6809 10.0398 42.0844 9.7878 41.3283 9.7878C40.4209 9.7878 39.7404 10.0986 39.2867 10.7203C38.8498 11.3252 38.6314 12.1066 38.6314 13.0644V21.0038H35.8589V7.64541Z" fill="white"/>
<path d="M63.7094 21.281C62.7852 21.281 61.92 21.1382 61.1133 20.8526C60.3236 20.5501 59.6347 20.1132 59.0466 19.5419C58.4585 18.9706 57.9964 18.2649 57.6603 17.4247C57.3243 16.5678 57.1562 15.5764 57.1562 14.4506V13.9465C57.1562 12.8879 57.3243 11.9554 57.6603 11.1488C57.9964 10.3255 58.4585 9.63657 59.0466 9.08207C59.6347 8.51077 60.3236 8.08229 61.1133 7.79664C61.92 7.51099 62.7852 7.36816 63.7094 7.36816C64.6336 7.36816 65.4905 7.51099 66.2803 7.79664C67.0868 8.08229 67.7841 8.51077 68.3722 9.08207C68.9604 9.63657 69.4224 10.3255 69.7585 11.1488C70.0946 11.9554 70.2626 12.8879 70.2626 13.9465V14.4506C70.2626 15.5764 70.0946 16.5678 69.7585 17.4247C69.4224 18.2649 68.9604 18.9706 68.3722 19.5419C67.7841 20.1132 67.0868 20.5501 66.2803 20.8526C65.4905 21.1382 64.6336 21.281 63.7094 21.281ZM63.7094 18.8614C64.1967 18.8614 64.6588 18.7774 65.0957 18.6094C65.5493 18.4413 65.9442 18.1809 66.2803 17.828C66.6331 17.4752 66.9104 17.0215 67.112 16.467C67.3305 15.9125 67.4397 15.2403 67.4397 14.4506V13.9465C67.4397 13.224 67.3305 12.6023 67.112 12.0814C66.9104 11.5605 66.6331 11.132 66.2803 10.7959C65.9442 10.4599 65.5493 10.2078 65.0957 10.0398C64.6588 9.87181 64.1967 9.7878 63.7094 9.7878C63.2221 9.7878 62.7516 9.87181 62.2979 10.0398C61.8611 10.2078 61.4662 10.4599 61.1133 10.7959C60.7773 11.132 60.5 11.5605 60.2816 12.0814C60.0799 12.6023 59.9791 13.224 59.9791 13.9465V14.4506C59.9791 15.2403 60.0799 15.9125 60.2816 16.467C60.5 17.0215 60.7773 17.4752 61.1133 17.828C61.4662 18.1809 61.8611 18.4413 62.2979 18.6094C62.7516 18.7774 63.2221 18.8614 63.7094 18.8614Z" fill="white"/>
<path d="M78.0665 21.281C77.0752 21.281 76.2266 21.1718 75.5209 20.9534C74.832 20.7349 74.2523 20.4409 73.7818 20.0712C73.3281 19.7016 72.9752 19.2731 72.7232 18.7858C72.4879 18.2817 72.3367 17.7608 72.2695 17.2231H75.042C75.1596 17.6936 75.4453 18.0885 75.899 18.4077C76.3526 18.7102 77.0752 18.8614 78.0665 18.8614C79.1755 18.8614 79.9569 18.7102 80.4106 18.4077C80.8643 18.1053 81.0911 17.7104 81.0911 17.2231C81.0911 17.0047 81.0323 16.803 80.9147 16.6182C80.797 16.4166 80.6038 16.2401 80.335 16.0889C80.0829 15.9209 79.7385 15.7696 79.3016 15.6352C78.8647 15.5008 78.3186 15.3916 77.6633 15.3076C76.9071 15.2067 76.2182 15.0639 75.5965 14.8791C74.9748 14.6774 74.4455 14.417 74.0086 14.0977C73.5717 13.7785 73.2357 13.392 73.0004 12.9383C72.7652 12.4847 72.6476 11.9386 72.6476 11.3C72.6476 10.7623 72.7568 10.2583 72.9752 9.7878C73.1937 9.30051 73.5297 8.88043 73.9834 8.52757C74.4371 8.17471 75 7.89746 75.6721 7.69582C76.361 7.47738 77.1592 7.36816 78.0665 7.36816C78.9403 7.36816 79.6964 7.47738 80.335 7.69582C80.9735 7.91426 81.5028 8.20831 81.9228 8.57798C82.3597 8.94764 82.6874 9.38452 82.9058 9.88862C83.1411 10.3759 83.2923 10.8884 83.3595 11.4261H80.587C80.4526 10.9052 80.1753 10.5019 79.7553 10.2162C79.352 9.93062 78.7891 9.7878 78.0665 9.7878C77.0752 9.7878 76.3863 9.93902 75.9998 10.2414C75.6133 10.5439 75.4201 10.8968 75.4201 11.3C75.4201 11.5353 75.4705 11.7453 75.5713 11.9302C75.6721 12.115 75.8401 12.283 76.0754 12.4342C76.3106 12.5687 76.6299 12.6947 77.0332 12.8123C77.4532 12.9299 77.9825 13.0224 78.6211 13.0896C79.394 13.1904 80.0997 13.3416 80.7382 13.5432C81.3935 13.7449 81.948 14.0137 82.4017 14.3498C82.8722 14.669 83.2335 15.0723 83.4855 15.5596C83.7376 16.0301 83.8636 16.5846 83.8636 17.2231C83.8636 17.7944 83.7376 18.3321 83.4855 18.8362C83.2503 19.3235 82.889 19.752 82.4017 20.1216C81.9312 20.4745 81.3263 20.7601 80.587 20.9786C79.8645 21.1802 79.0243 21.281 78.0665 21.281Z" fill="white"/>
<path d="M88.7796 21.281C88.2083 21.281 87.7294 21.0878 87.3429 20.7013C86.9564 20.3149 86.7632 19.836 86.7632 19.2647C86.7632 18.6766 86.9564 18.1977 87.3429 17.828C87.7294 17.4415 88.2083 17.2483 88.7796 17.2483C89.3509 17.2483 89.8298 17.4415 90.2162 17.828C90.6027 18.1977 90.7959 18.6766 90.7959 19.2647C90.7959 19.836 90.6027 20.3149 90.2162 20.7013C89.8298 21.0878 89.3509 21.281 88.7796 21.281Z" fill="white"/>
<path d="M94.4395 7.64541H97.0103V9.91382C97.2792 9.22489 97.716 8.62839 98.321 8.1243C98.9427 7.62021 99.7072 7.36816 100.614 7.36816C101.034 7.36816 101.345 7.38496 101.547 7.41857C101.765 7.45218 101.917 7.48578 102.001 7.51939V10.0398C101.715 9.95583 101.455 9.89702 101.219 9.86341C100.984 9.813 100.698 9.7878 100.362 9.7878C99.8079 9.7878 99.3291 9.88862 98.9258 10.0902C98.5394 10.2751 98.22 10.5271 97.968 10.8464C97.716 11.1488 97.5228 11.5101 97.3884 11.9302C97.2708 12.3334 97.212 12.7535 97.212 13.1904V21.0038H94.4395V7.64541Z" fill="white"/>
<path d="M108.923 21.281C107.344 21.281 106.151 20.8274 105.344 19.92C104.537 18.9958 104.134 17.5928 104.134 15.7108V7.64539H106.907V15.4588C106.907 16.5846 107.133 17.4331 107.587 18.0044C108.058 18.5758 108.797 18.8614 109.805 18.8614C110.36 18.8614 110.83 18.769 111.217 18.5842C111.62 18.3993 111.948 18.1473 112.2 17.828C112.452 17.5088 112.636 17.1475 112.754 16.7442C112.889 16.3241 112.956 15.8957 112.956 15.4588V7.64539H115.728V21.0038H113.157V18.7354C112.838 19.4243 112.317 20.0208 111.595 20.5249C110.889 21.029 109.998 21.281 108.923 21.281Z" fill="white"/>
<path fill-rule="evenodd" clip-rule="evenodd" d="M3.98891 23.8043H8.8898V26.9364C8.88986 27.241 8.93913 27.5223 9.16644 27.725C9.60682 28.1178 10.3174 28.0879 10.7101 27.6475C10.7101 27.6475 11.697 26.4356 12.2504 25.9047C13.9377 24.191 15.2498 23.8043 17.2913 23.8043H19.3917C21.2997 23.8043 22.8923 22.6185 22.8923 20.7237V0.560101C22.8923 0.245873 22.6465 0 22.3322 0H1.04838C0.734137 0 0.488281 0.245873 0.488281 0.560101V20.7237C0.488281 22.6185 2.08091 23.8043 3.98891 23.8043ZM3.28879 20.1636V2.80051H20.0918V20.1636C20.0918 20.6723 19.796 21.0038 19.2517 21.0038H17.2913C14.8943 21.0038 13.1006 21.7595 11.2702 23.3842V21.0038H4.12894C3.58464 21.0038 3.28879 20.6723 3.28879 20.1636Z" fill="white"/>
</g>
<defs>
<clipPath id="clip0_831_1438">
<rect width="116" height="28" fill="white" transform="translate(0.488281)"/>
</clipPath>
</defs>
</svg>
