<svg width="20" height="20" viewBox="0 0 20 20" fill="none" xmlns="http://www.w3.org/2000/svg">
<path d="M7.53125 18.3503V19.4141C7.53125 19.7376 7.79359 20 8.11719 20H11.8828C12.2064 20 12.4688 19.7376 12.4688 19.4141V18.3503C11.6792 18.5534 10.852 18.6615 10 18.6615C9.14801 18.6614 8.32078 18.5534 7.53125 18.3503Z" fill="#275AAE"/>
<path d="M10.0001 0C5.17826 0 1.25537 3.92289 1.25537 8.74477C1.25537 13.5666 5.17826 17.4896 10.0001 17.4896C14.822 17.4896 18.7449 13.5666 18.7449 8.74477C18.7449 3.92289 14.8221 0 10.0001 0ZM10.0001 14.9792C6.56248 14.9792 3.76576 12.1824 3.76576 8.74477C3.76576 5.30711 6.56248 2.51039 10.0001 2.51039C13.4378 2.51039 16.2345 5.30711 16.2345 8.74477C16.2345 12.1824 13.4378 14.9792 10.0001 14.9792Z" fill="#275AAE"/>
<path d="M14.1212 8.74467C14.1212 8.42107 14.3835 8.15873 14.7071 8.15873H15.0285C14.9176 7.20131 14.5388 6.32443 13.9689 5.60541L13.7439 5.83041C13.5152 6.05924 13.1442 6.05936 12.9153 5.83061C12.6864 5.60186 12.6863 5.23084 12.9151 5.00193L13.1403 4.77662C12.4211 4.20631 11.5439 3.82721 10.586 3.71631V4.03768C10.586 4.36127 10.3237 4.62361 10.0001 4.62361C9.67648 4.62361 9.41414 4.36127 9.41414 4.03768V3.71631C8.45629 3.82721 7.5791 4.20631 6.85988 4.7767L7.08508 5.00201C7.31383 5.23088 7.31375 5.60189 7.08488 5.83068C6.85598 6.05939 6.48504 6.05936 6.25625 5.83049L6.03133 5.60549C5.46137 6.32451 5.08254 7.20139 4.97168 8.15881H5.29305C5.61664 8.15881 5.87898 8.42115 5.87898 8.74475C5.87898 9.06834 5.61664 9.33068 5.29305 9.33068H4.97168C5.08254 10.2881 5.46137 11.165 6.03133 11.884L6.25621 11.659C6.48496 11.4302 6.85598 11.4301 7.08484 11.6588C7.31371 11.8876 7.31383 12.2586 7.08504 12.4875L6.85984 12.7128C7.72344 13.3977 8.81476 13.8073 10 13.8073C11.1853 13.8073 12.2766 13.3977 13.1402 12.7128L12.915 12.4876C12.6863 12.2587 12.6864 11.8877 12.9152 11.6589C13.1441 11.4302 13.5151 11.4302 13.7439 11.6591L13.9688 11.8841C14.5387 11.1651 14.9175 10.2882 15.0284 9.33076H14.7071C14.3835 9.33061 14.1212 9.06826 14.1212 8.74467ZM11.042 8.53139L8.84539 10.728C8.61648 10.9569 8.24555 10.9568 8.01676 10.728C7.78793 10.4992 7.78793 10.1282 8.01676 9.89939L10.2134 7.70279C10.4421 7.474 10.8132 7.474 11.042 7.70279C11.2708 7.93158 11.2708 8.3026 11.042 8.53139Z" fill="#275AAE"/>
</svg>
