<svg width="50" height="51" viewBox="0 0 50 51" fill="none" xmlns="http://www.w3.org/2000/svg">
<g clip-path="url(#clip0_666_493)">
<path d="M12.5 0.707764C10.7812 0.707764 9.375 2.11401 9.375 3.83276V47.5828C9.375 49.3015 10.7812 50.7078 12.5 50.7078H43.75C45.4688 50.7078 46.875 49.3015 46.875 47.5828V13.2078L34.375 0.707764H12.5Z" fill="#E2E5E7"/>
<path d="M37.5 13.2078H46.875L34.375 0.707764V10.0828C34.375 11.8015 35.7812 13.2078 37.5 13.2078Z" fill="#B0B7BD"/>
<path d="M46.875 22.5828L37.5 13.2078H46.875V22.5828Z" fill="#CAD1D8"/>
<path d="M40.625 41.3328C40.625 42.1921 39.9219 42.8953 39.0625 42.8953H4.6875C3.82812 42.8953 3.125 42.1921 3.125 41.3328V25.7078C3.125 24.8484 3.82812 24.1453 4.6875 24.1453H39.0625C39.9219 24.1453 40.625 24.8484 40.625 25.7078V41.3328Z" fill="#FD4D4D"/>
<path d="M9.93591 30.3125C9.93591 29.9 10.2609 29.45 10.7844 29.45H13.6703C15.2953 29.45 16.7578 30.5374 16.7578 32.6218C16.7578 34.5968 15.2953 35.6968 13.6703 35.6968H11.5844V37.3468C11.5844 37.8968 11.2344 38.2078 10.7844 38.2078C10.3719 38.2078 9.93591 37.8968 9.93591 37.3468V30.3125ZM11.5844 31.0234V34.1359H13.6703C14.5078 34.1359 15.1703 33.3968 15.1703 32.6218C15.1703 31.7484 14.5078 31.0234 13.6703 31.0234H11.5844ZM19.2047 38.2078C18.7922 38.2078 18.3422 37.9828 18.3422 37.4343V30.3374C18.3422 29.889 18.7922 29.5624 19.2047 29.5624H22.0656C27.775 29.5624 27.65 38.2078 22.1781 38.2078H19.2047ZM19.9922 31.0875V36.6843H22.0656C25.439 36.6843 25.589 31.0875 22.0656 31.0875H19.9922ZM29.675 31.1875V33.1734H32.8609C33.3109 33.1734 33.7609 33.6234 33.7609 34.0593C33.7609 34.4718 33.3109 34.8093 32.8609 34.8093H29.675V37.4328C29.675 37.8703 29.364 38.2062 28.9265 38.2062C28.3765 38.2062 28.0406 37.8703 28.0406 37.4328V30.3359C28.0406 29.8875 28.3781 29.5609 28.9265 29.5609H33.3125C33.8625 29.5609 34.1875 29.8875 34.1875 30.3359C34.1875 30.7359 33.8625 31.1859 33.3125 31.1859H29.675V31.1875Z" fill="white"/>
<path d="M39.0625 42.8953H9.375V44.4578H39.0625C39.9219 44.4578 40.625 43.7546 40.625 42.8953V41.3328C40.625 42.1921 39.9219 42.8953 39.0625 42.8953Z" fill="#CAD1D8"/>
</g>
<defs>
<clipPath id="clip0_666_493">
<rect width="50" height="50" fill="white" transform="translate(0 0.707764)"/>
</clipPath>
</defs>
</svg>
