<svg width="18" height="18" viewBox="0 0 18 18" fill="none" xmlns="http://www.w3.org/2000/svg">
<g clip-path="url(#clip0_612_1573)">
<path fill-rule="evenodd" clip-rule="evenodd" d="M17.189 15.4534C17.0761 15.5659 16.9399 15.7098 16.7956 15.862C16.4354 16.2443 15.9854 16.7195 15.7034 16.9122C14.2196 17.9261 12.2344 17.441 10.8302 16.8559C8.97786 16.0841 6.96113 14.6615 5.15033 12.8504C3.33784 11.0393 1.91535 9.02192 1.14355 7.17062C0.55917 5.76613 0.0729767 3.78058 1.0871 2.2964C1.27968 2.01417 1.75598 1.5649 2.13775 1.20402C2.29048 1.06012 2.43325 0.924148 2.54614 0.811623C2.74657 0.612197 3.0178 0.500244 3.30054 0.500244C3.58327 0.500244 3.85451 0.612197 4.05493 0.811623L6.78515 3.54105C6.98447 3.74147 7.09635 4.01263 7.09635 4.29528C7.09635 4.57793 6.98447 4.84909 6.78515 5.0495L6.0414 5.79176C5.79302 6.03833 5.63089 6.35851 5.57914 6.70466C5.5274 7.0508 5.58881 7.4044 5.75423 7.71283C6.77721 9.6436 8.35651 11.2226 10.2875 12.2453C10.5958 12.4106 10.9493 12.472 11.2954 12.4202C11.6414 12.3683 11.9615 12.2061 12.2079 11.9576L12.9498 11.2154C13.1502 11.0159 13.4214 10.904 13.7042 10.904C13.9869 10.904 14.2581 11.0159 14.4586 11.2154L17.189 13.9453C17.3883 14.1456 17.5002 14.4167 17.5002 14.6993C17.5002 14.9819 17.3883 15.253 17.189 15.4534Z" fill="#FD4D4D"/>
</g>
<defs>
<clipPath id="clip0_612_1573">
<rect width="17" height="17" fill="white" transform="translate(0.5 0.5)"/>
</clipPath>
</defs>
</svg>
