<svg width="51" height="51" viewBox="0 0 51 51" fill="none" xmlns="http://www.w3.org/2000/svg">
<rect x="1" y="1" width="49" height="49" rx="24.5" stroke="#FD4D4D"/>
<path fill-rule="evenodd" clip-rule="evenodd" d="M37.5424 34.9889C37.3763 35.1544 37.1762 35.366 36.9639 35.5898C36.4343 36.1519 35.7726 36.8507 35.3578 37.1341C33.1758 38.6251 30.2566 37.9117 28.1917 37.0513C25.4678 35.9164 22.5021 33.8244 19.8393 31.1612C17.174 28.4979 15.0822 25.5313 13.9472 22.8089C13.0879 20.7436 12.373 17.8238 13.8642 15.6413C14.1474 15.2263 14.8478 14.5656 15.4092 14.0349C15.6338 13.8233 15.8438 13.6234 16.0098 13.4579C16.3045 13.1646 16.7034 13 17.1191 13C17.5349 13 17.9338 13.1646 18.2285 13.4579L22.2433 17.4716C22.5364 17.7663 22.701 18.165 22.701 18.5807C22.701 18.9963 22.5364 19.3951 22.2433 19.6898L21.1496 20.7813C20.7844 21.1439 20.546 21.6147 20.4699 22.1237C20.3938 22.6327 20.4841 23.1527 20.7274 23.6063C22.2317 26.4455 24.5541 28.7675 27.3936 30.2713C27.847 30.5145 28.3669 30.6047 28.8757 30.5285C29.3846 30.4523 29.8552 30.2137 30.2175 29.8484L31.3086 28.7568C31.6033 28.4635 32.0021 28.2989 32.4179 28.2989C32.8337 28.2989 33.2325 28.4635 33.5273 28.7568L37.5424 32.7712C37.8355 33.0658 38 33.4644 38 33.88C38 34.2956 37.8355 34.6943 37.5424 34.9889Z" fill="#FD4D4D"/>
</svg>
