<svg width="60" height="60" viewBox="0 0 60 60" fill="none" xmlns="http://www.w3.org/2000/svg">
<path d="M44.5969 22.9688H16.6781V18.4781C16.6781 14.9449 18.0817 11.5565 20.58 9.05814C23.0783 6.5598 26.4668 5.15625 30 5.15625C33.5332 5.15625 36.9217 6.5598 39.42 9.05814C41.9183 11.5565 43.3219 14.9449 43.3219 18.4781C43.3219 18.8511 43.47 19.2088 43.7338 19.4725C43.9975 19.7362 44.3552 19.8844 44.7281 19.8844C45.1011 19.8844 45.4588 19.7362 45.7225 19.4725C45.9862 19.2088 46.1344 18.8511 46.1344 18.4781C46.1344 14.199 44.4345 10.0952 41.4087 7.0694C38.3829 4.04362 34.2791 2.34375 30 2.34375C25.7209 2.34375 21.6171 4.04362 18.5913 7.0694C15.5655 10.0952 13.8656 14.199 13.8656 18.4781V23.1094C11.6948 23.471 9.72251 24.5907 8.29949 26.2695C6.87646 27.9483 6.0949 30.0774 6.09375 32.2781V48.3469C6.09623 50.8151 7.07783 53.1815 8.82314 54.9269C10.5685 56.6722 12.9349 57.6538 15.4031 57.6562H44.5969C47.0651 57.6538 49.4315 56.6722 51.1769 54.9269C52.9222 53.1815 53.9038 50.8151 53.9062 48.3469V32.2781C53.9038 29.8099 52.9222 27.4435 51.1769 25.6981C49.4315 23.9528 47.0651 22.9712 44.5969 22.9688ZM51.0938 48.3469C51.0913 50.0692 50.406 51.7203 49.1881 52.9381C47.9703 54.156 46.3192 54.8413 44.5969 54.8438H15.4031C13.6808 54.8413 12.0297 54.156 10.8119 52.9381C9.59402 51.7203 8.90873 50.0692 8.90625 48.3469V32.2781C8.90873 30.5558 9.59402 28.9047 10.8119 27.6869C12.0297 26.469 13.6808 25.7837 15.4031 25.7812H44.5969C46.3192 25.7837 47.9703 26.469 49.1881 27.6869C50.406 28.9047 51.0913 30.5558 51.0938 32.2781V48.3469Z" fill="white"/>
</svg>
