<svg width="20" height="21" viewBox="0 0 20 21" fill="none" xmlns="http://www.w3.org/2000/svg">
<g clip-path="url(#clip0_1079_876)">
<path d="M9.99996 0.160156C6.00601 0.160156 2.75671 3.40945 2.75671 7.40336C2.75671 12.3599 9.23871 19.6364 9.51468 19.9438C9.7739 20.2325 10.2265 20.232 10.4852 19.9438C10.7612 19.6364 17.2432 12.3599 17.2432 7.40336C17.2431 3.40945 13.9939 0.160156 9.99996 0.160156ZM9.99996 11.0476C7.9905 11.0476 6.35574 9.41281 6.35574 7.40336C6.35574 5.39391 7.99054 3.75914 9.99996 3.75914C12.0094 3.75914 13.6441 5.39394 13.6441 7.4034C13.6441 9.41285 12.0094 11.0476 9.99996 11.0476Z" fill="#275AAE"/>
</g>
<defs>
<clipPath id="clip0_1079_876">
<rect width="20" height="20" fill="white" transform="translate(0 0.160156)"/>
</clipPath>
</defs>
</svg>
