<svg width="18" height="17" viewBox="0 0 18 17" fill="none" xmlns="http://www.w3.org/2000/svg">
<path d="M9 0C5.60515 0 2.84325 2.7619 2.84325 6.15672C2.84325 10.3698 8.35294 16.5548 8.58752 16.8161C8.80786 17.0615 9.19255 17.0611 9.41249 16.8161C9.64707 16.5548 15.1568 10.3698 15.1568 6.15672C15.1567 2.7619 12.3948 0 9 0ZM9 9.25434C7.29197 9.25434 5.90242 7.86476 5.90242 6.15672C5.90242 4.44869 7.292 3.05914 9 3.05914C10.708 3.05914 12.0976 4.44872 12.0976 6.15676C12.0976 7.86479 10.708 9.25434 9 9.25434Z" fill="#FD4D4D"/>
</svg>
