<svg width="61" height="60" viewBox="0 0 61 60" fill="none" xmlns="http://www.w3.org/2000/svg">
<path d="M29.4292 52.5H31.3042V54.375H29.4292V52.5ZM45.6048 46.5731L46.9304 45.2475L48.2561 46.5731L46.9304 47.8987L45.6048 46.5731ZM52.8667 29.0625H54.7417V30.9375H52.8667V29.0625Z" fill="white"/>
<path d="M57.5543 23.4375H50.9074C50.5447 22.2937 50.0852 21.1828 49.534 20.1169L54.2318 15.4181C54.4075 15.2423 54.5063 15.0039 54.5063 14.7553C54.5063 14.5067 54.4075 14.2683 54.2318 14.0925L50.254 10.1156C47.6516 7.46324 44.5494 5.35283 41.1266 3.90633C37.7038 2.45983 34.0284 1.70593 30.3125 1.68819C26.5967 1.67044 22.9142 2.3892 19.4778 3.80294C16.0414 5.21668 12.9192 7.29736 10.2915 9.92479C7.66394 12.5522 5.58303 15.6743 4.16905 19.1106C2.75507 22.5469 2.03605 26.2294 2.05353 29.9452C2.07102 33.661 2.82466 37.3366 4.27091 40.7594C5.71717 44.1823 7.82736 47.2846 10.4796 49.8872L14.4565 53.865C14.6323 54.0408 14.8707 54.1395 15.1193 54.1395C15.3679 54.1395 15.6063 54.0408 15.7821 53.865L20.4808 49.1672C21.5477 49.7182 22.6595 50.1774 23.8043 50.5397V57.1875C23.8043 57.4362 23.903 57.6746 24.0789 57.8504C24.2547 58.0262 24.4931 58.125 24.7418 58.125H35.9918C36.2404 58.125 36.4789 58.0262 36.6547 57.8504C36.8305 57.6746 36.9293 57.4362 36.9293 57.1875V50.5406C38.0731 50.1782 39.184 49.719 40.2499 49.1681L44.9486 53.866C45.1245 54.0417 45.3629 54.1404 45.6115 54.1404C45.86 54.1404 46.0985 54.0417 46.2743 53.866L54.229 45.9113C54.4047 45.7355 54.5034 45.497 54.5034 45.2485C54.5034 44.9999 54.4047 44.7614 54.229 44.5856L49.5311 39.8869C50.0832 38.8198 50.5433 37.7077 50.9065 36.5625H57.5543C57.8029 36.5625 58.0414 36.4637 58.2172 36.2879C58.393 36.1121 58.4918 35.8737 58.4918 35.625V24.375C58.4918 24.1264 58.393 23.8879 58.2172 23.7121C58.0414 23.5363 57.8029 23.4375 57.5543 23.4375ZM11.8043 11.4375C16.6114 6.62885 23.0975 3.87394 29.8958 3.75328C36.6941 3.63261 43.2739 6.1556 48.2486 10.7906L46.9249 12.1144C42.2984 7.84483 36.1995 5.53086 29.9053 5.65706C23.6111 5.78326 17.6098 8.33985 13.1582 12.7914C8.7066 17.243 6.15001 23.2443 6.02381 29.5385C5.89761 35.8327 8.21158 41.9317 12.4811 46.5581L11.1574 47.8819C6.52235 42.9071 3.99936 36.3274 4.12002 29.5291C4.24069 22.7307 6.9956 16.2447 11.8043 11.4375ZM38.3215 22.0453C40.4029 24.1609 41.564 27.0133 41.5519 29.981C41.5398 32.9488 40.3555 35.7916 38.2569 37.8902C36.1584 39.9887 33.3156 41.1731 30.3478 41.1851C27.38 41.1972 24.5277 40.0361 22.4121 37.9547C22.2363 37.7789 21.9979 37.6802 21.7493 37.6802C21.5007 37.6802 21.2623 37.7789 21.0865 37.9547L13.8077 45.2335C9.87579 40.9615 7.74748 35.3349 7.86775 29.5301C7.98801 23.7253 10.3475 18.1917 14.453 14.0863C18.5585 9.98079 24.0921 7.62126 29.8969 7.501C35.7016 7.38073 41.3282 9.50904 45.6002 13.441L38.3215 20.7188C38.2343 20.8058 38.1651 20.9092 38.118 21.023C38.0708 21.1369 38.0465 21.2588 38.0465 21.382C38.0465 21.5053 38.0708 21.6272 38.118 21.7411C38.1651 21.8549 38.2343 21.9583 38.3215 22.0453ZM56.6168 34.6875H50.208C50.0031 34.6874 49.8037 34.7544 49.6405 34.8784C49.4773 35.0023 49.3592 35.1763 49.3043 35.3738C48.8925 36.8444 48.3068 38.2606 47.5596 39.5925C47.4589 39.7712 47.4195 39.9781 47.4477 40.1813C47.4758 40.3845 47.5698 40.5729 47.7152 40.7175L52.2424 45.2456L45.6143 51.8738L41.0861 47.3466C40.9415 47.2011 40.7531 47.1071 40.5499 47.079C40.3467 47.0509 40.1399 47.0902 39.9611 47.191C38.6292 47.9381 37.213 48.5238 35.7424 48.9356C35.5449 48.9906 35.3709 49.1087 35.247 49.2719C35.1231 49.4351 35.056 49.6344 35.0561 49.8394V56.25H25.6793V49.8413C25.6794 49.6363 25.6123 49.437 25.4884 49.2738C25.3645 49.1105 25.1905 48.9924 24.993 48.9375C23.5224 48.5257 22.1062 47.94 20.7743 47.1928C20.5955 47.0921 20.3887 47.0528 20.1855 47.0809C19.9823 47.109 19.7939 47.203 19.6493 47.3485L15.1211 51.8756L12.4699 49.2244L21.7746 39.9206C24.2831 42.0924 27.5211 43.2334 30.837 43.1142C34.1528 42.995 37.3005 41.6243 39.6466 39.278C41.9926 36.9317 43.363 33.7839 43.4819 30.468C43.6008 27.1521 42.4594 23.9143 40.2874 21.406L49.5911 12.1013L52.2424 14.7525L47.7152 19.2806C47.5698 19.4253 47.4758 19.6137 47.4477 19.8169C47.4195 20.0201 47.4589 20.2269 47.5596 20.4056C48.3069 21.7375 48.8926 23.1537 49.3043 24.6244C49.3592 24.8218 49.4773 24.9958 49.6405 25.1198C49.8037 25.2437 50.0031 25.3108 50.208 25.3106H56.6168V34.6875Z" fill="white"/>
<path d="M31.3042 26.3831V15.9375C31.3042 15.6889 31.2054 15.4504 31.0296 15.2746C30.8538 15.0988 30.6153 15 30.3667 15C30.1181 15 29.8796 15.0988 29.7038 15.2746C29.528 15.4504 29.4292 15.6889 29.4292 15.9375V26.3831C28.7849 26.5516 28.1971 26.8886 27.7262 27.3595C27.2553 27.8304 26.9183 28.4182 26.7498 29.0625H20.0542C19.8056 29.0625 19.5671 29.1613 19.3913 29.3371C19.2155 29.5129 19.1167 29.7514 19.1167 30C19.1167 30.2486 19.2155 30.4871 19.3913 30.6629C19.5671 30.8387 19.8056 30.9375 20.0542 30.9375H26.7498C26.9138 31.5772 27.2441 32.1622 27.7072 32.633C28.1703 33.1038 28.7498 33.4437 29.3868 33.6181C30.0238 33.7925 30.6955 33.7953 31.3339 33.6261C31.9723 33.4569 32.5545 33.1218 33.0215 32.6548C33.4885 32.1878 33.8236 31.6056 33.9928 30.9672C34.162 30.3288 34.1592 29.6571 33.9848 29.0201C33.8104 28.3831 33.4705 27.8036 32.9997 27.3405C32.5289 26.8774 31.9439 26.5471 31.3042 26.3831ZM30.3667 31.875C29.9959 31.875 29.6333 31.765 29.325 31.559C29.0167 31.353 28.7763 31.0601 28.6344 30.7175C28.4925 30.3749 28.4554 29.9979 28.5277 29.6342C28.6001 29.2705 28.7787 28.9364 29.0409 28.6742C29.3031 28.412 29.6372 28.2334 30.0009 28.161C30.3646 28.0887 30.7416 28.1258 31.0842 28.2677C31.4268 28.4096 31.7197 28.65 31.9257 28.9583C32.1317 29.2666 32.2417 29.6292 32.2417 30C32.2417 30.4973 32.0442 30.9742 31.6925 31.3258C31.3409 31.6775 30.864 31.875 30.3667 31.875ZM30.3667 12.1875C30.1181 12.1875 29.8796 12.0887 29.7038 11.9129C29.528 11.7371 29.4292 11.4986 29.4292 11.25V9.375C29.4292 9.12636 29.528 8.8879 29.7038 8.71209C29.8796 8.53627 30.1181 8.4375 30.3667 8.4375C30.6153 8.4375 30.8538 8.53627 31.0296 8.71209C31.2054 8.8879 31.3042 9.12636 31.3042 9.375V11.25C31.3042 11.4986 31.2054 11.7371 31.0296 11.9129C30.8538 12.0887 30.6153 12.1875 30.3667 12.1875ZM39.7417 14.7C39.5772 14.6998 39.4157 14.6564 39.2733 14.574C39.1309 14.4917 39.0127 14.3733 38.9305 14.2308C38.8484 14.0883 38.8051 13.9267 38.8052 13.7623C38.8052 13.5978 38.8485 13.4362 38.9308 13.2938L39.8683 11.6691C39.9935 11.4555 40.1981 11.3001 40.4374 11.2368C40.6767 11.1736 40.9314 11.2075 41.1458 11.3313C41.3602 11.4551 41.5169 11.6587 41.5818 11.8976C41.6466 12.1365 41.6144 12.3914 41.492 12.6066L40.5545 14.2313C40.4722 14.3739 40.3537 14.4923 40.211 14.5746C40.0683 14.6569 39.9064 14.7002 39.7417 14.7ZM20.9917 14.7C20.827 14.7002 20.6651 14.6569 20.5224 14.5746C20.3797 14.4923 20.2612 14.3739 20.1789 14.2313L19.2414 12.6066C19.119 12.3914 19.0868 12.1365 19.1516 11.8976C19.2165 11.6587 19.3732 11.4551 19.5876 11.3313C19.802 11.2075 20.0567 11.1736 20.296 11.2368C20.5353 11.3001 20.7399 11.4555 20.8651 11.6691L21.8026 13.2938C21.8849 13.4362 21.9282 13.5978 21.9282 13.7623C21.9283 13.9267 21.885 14.0883 21.8029 14.2308C21.7207 14.3733 21.6025 14.4917 21.4601 14.574C21.3177 14.6564 21.1562 14.6998 20.9917 14.7ZM14.1283 21.5625C13.9636 21.5628 13.8019 21.5195 13.6595 21.4369L12.0348 20.4994C11.8213 20.3742 11.6659 20.1696 11.6026 19.9302C11.5393 19.6909 11.5733 19.4362 11.6971 19.2218C11.8209 19.0075 12.0244 18.8507 12.2633 18.7859C12.5022 18.721 12.7571 18.7533 12.9723 18.8756L14.597 19.8131C14.7757 19.9163 14.9154 20.0756 14.9944 20.2663C15.0733 20.4569 15.0872 20.6683 15.0338 20.8676C14.9804 21.067 14.8627 21.2431 14.6989 21.3688C14.5352 21.4944 14.3346 21.5625 14.1283 21.5625ZM11.6167 30.9375H9.7417C9.49306 30.9375 9.2546 30.8387 9.07879 30.6629C8.90297 30.4871 8.8042 30.2486 8.8042 30C8.8042 29.7514 8.90297 29.5129 9.07879 29.3371C9.2546 29.1613 9.49306 29.0625 9.7417 29.0625H11.6167C11.8653 29.0625 12.1038 29.1613 12.2796 29.3371C12.4554 29.5129 12.5542 29.7514 12.5542 30C12.5542 30.2486 12.4554 30.4871 12.2796 30.6629C12.1038 30.8387 11.8653 30.9375 11.6167 30.9375ZM12.5054 41.25C12.2991 41.25 12.0985 41.1819 11.9348 41.0563C11.771 40.9306 11.6533 40.7545 11.5999 40.5551C11.5465 40.3558 11.5604 40.1444 11.6393 39.9538C11.7183 39.7631 11.858 39.6038 12.0367 39.5006L13.6614 38.5631C13.768 38.5006 13.886 38.4598 14.0085 38.443C14.131 38.4263 14.2556 38.4339 14.3751 38.4655C14.4947 38.4971 14.6068 38.5521 14.705 38.6272C14.8032 38.7023 14.8856 38.7961 14.9474 38.9031C15.0092 39.0102 15.0493 39.1284 15.0652 39.2511C15.0811 39.3737 15.0727 39.4982 15.0403 39.6175C15.0079 39.7368 14.9522 39.8486 14.8764 39.9463C14.8007 40.044 14.7064 40.1258 14.5989 40.1869L12.9742 41.1244C12.8318 41.207 12.6701 41.2503 12.5054 41.25Z" fill="white"/>
<path d="M30.3665 39.375C29.1349 39.3784 27.9149 39.137 26.7773 38.6648C25.6398 38.1926 24.6074 37.499 23.7403 36.6243C23.6509 36.5377 23.5796 36.4342 23.5307 36.3197C23.4817 36.2053 23.456 36.0822 23.4551 35.9578C23.4542 35.8333 23.4781 35.7099 23.5254 35.5947C23.5727 35.4796 23.6425 35.375 23.7306 35.2871C23.8187 35.1992 23.9235 35.1298 24.0388 35.0828C24.1541 35.0358 24.2775 35.0123 24.402 35.0135C24.5265 35.0148 24.6495 35.0408 24.7638 35.0901C24.8781 35.1394 24.9814 35.2109 25.0678 35.3006C25.7611 36.0087 26.5879 36.5724 27.5004 36.9589C28.4129 37.3454 29.393 37.5471 30.384 37.5524C31.3749 37.5577 32.3571 37.3663 33.2737 36.9895C34.1903 36.6127 35.023 36.0579 35.7237 35.3572C36.4245 34.6564 36.9793 33.8237 37.3561 32.9071C37.7329 31.9906 37.9242 31.0084 37.919 30.0174C37.9137 29.0264 37.712 28.0463 37.3255 27.1338C36.9389 26.2213 36.3753 25.3945 35.6672 24.7012C35.5775 24.6149 35.506 24.5115 35.4567 24.3972C35.4074 24.2829 35.3813 24.1599 35.3801 24.0354C35.3788 23.911 35.4024 23.7875 35.4494 23.6722C35.4963 23.5569 35.5658 23.4522 35.6537 23.364C35.7416 23.2759 35.8462 23.2061 35.9613 23.1588C36.0765 23.1115 36.1999 23.0876 36.3243 23.0885C36.4488 23.0894 36.5719 23.1151 36.6863 23.1641C36.8008 23.213 36.9043 23.2843 36.9909 23.3737C38.3008 24.6847 39.1927 26.3545 39.554 28.1721C39.9153 29.9898 39.7298 31.8737 39.021 33.586C38.3121 35.2983 37.1117 36.762 35.5713 37.7924C34.0309 38.8227 32.2197 39.3735 30.3665 39.375Z" fill="white"/>
</svg>
