<svg width="50" height="51" viewBox="0 0 50 51" fill="none" xmlns="http://www.w3.org/2000/svg">
<g clip-path="url(#clip0_669_569)">
<path d="M11.4582 28.0061C5.14072 28.0061 0 33.1467 0 39.4647C0 45.7822 5.14062 50.9229 11.4582 50.9229C17.7761 50.9229 22.9168 45.7823 22.9168 39.4647C22.9168 33.1468 17.7762 28.0061 11.4582 28.0061ZM11.4582 48.8397C6.28857 48.8397 2.0832 44.6343 2.0832 39.4647C2.0832 34.2947 6.28857 30.0897 11.4582 30.0897C16.6282 30.0897 20.8332 34.2947 20.8332 39.4647C20.8332 44.6343 16.6282 48.8397 11.4582 48.8397Z" fill="white"/>
<path d="M10.4168 39.4647H6.25V41.5479H11.4582C11.595 41.548 11.7306 41.5211 11.857 41.4688C11.9834 41.4165 12.0983 41.3398 12.1951 41.243C12.2919 41.1462 12.3686 41.0313 12.4209 40.9049C12.4732 40.7785 12.5001 40.6429 12.5 40.5061V34.2561H10.4168V39.4647Z" fill="white"/>
<path d="M47.9168 5.08965H43.75V3.00605C43.75 1.85703 42.8158 0.922852 41.6668 0.922852H39.5832C38.4342 0.922852 37.5 1.85703 37.5 3.00605V5.08965H14.5832V3.00605C14.5832 1.85703 13.649 0.922852 12.5 0.922852H10.4168C9.26777 0.922852 8.3332 1.85703 8.3332 3.00605V5.08965H4.1668C3.01777 5.08965 2.0832 6.02383 2.0832 7.17285V28.0061H4.1668V13.4229H41.6668V11.3396H4.1668V7.17285H8.3332C8.3332 8.32188 9.26777 9.25605 10.4168 9.25605H12.5C13.649 9.25605 14.5832 8.32188 14.5832 7.17285H37.5C37.5 8.32188 38.4342 9.25605 39.5832 9.25605H41.6668C42.8158 9.25605 43.75 8.32188 43.75 7.17285H47.9168V11.3396H43.75V13.4229H47.9168V44.6729H23.9582V46.7561H47.9168C49.0658 46.7561 50 45.8219 50 44.6729V7.17285C50 6.02383 49.0658 5.08965 47.9168 5.08965ZM10.4168 7.17285V3.00605H12.5L12.502 7.17285H10.4168ZM39.5832 7.17285V3.00605H41.6668L41.6687 7.17285H39.5832Z" fill="white"/>
<path d="M12.5 23.8396C13.649 23.8396 14.5832 22.905 14.5832 21.756V19.6728C14.5832 18.5238 13.649 17.5896 12.5 17.5896H8.3332C7.18418 17.5896 6.25 18.5238 6.25 19.6728V21.756C6.25 22.905 7.18418 23.8396 8.3332 23.8396H12.5ZM8.3332 19.6728H12.5L12.502 21.756H8.3332V19.6728ZM25 21.756V19.6728C25 18.5238 24.0658 17.5896 22.9168 17.5896H18.75C17.601 17.5896 16.6668 18.5238 16.6668 19.6728V21.756C16.6668 22.905 17.601 23.8396 18.75 23.8396H22.9168C24.0658 23.8396 25 22.905 25 21.756ZM18.75 21.756V19.6728H22.9168L22.9188 21.756H18.75ZM29.1668 23.8396H33.3332C34.4822 23.8396 35.4168 22.905 35.4168 21.756V19.6728C35.4168 18.5238 34.4822 17.5896 33.3332 17.5896H29.1668C28.0178 17.5896 27.0832 18.5238 27.0832 19.6728V21.756C27.0832 22.905 28.0178 23.8396 29.1668 23.8396ZM29.1668 19.6728H33.3332L33.3355 21.756H29.1668V19.6728ZM39.5832 23.8396H43.75C44.899 23.8396 45.8332 22.905 45.8332 21.756V19.6728C45.8332 18.5238 44.899 17.5896 43.75 17.5896H39.5832C38.4342 17.5896 37.5 18.5238 37.5 19.6728V21.756C37.5 22.905 38.4342 23.8396 39.5832 23.8396ZM39.5832 19.6728H43.75L43.752 21.756H39.5832V19.6728ZM27.0832 30.0896C27.0832 31.2386 28.0178 32.1728 29.1668 32.1728H33.3332C34.4822 32.1728 35.4168 31.2386 35.4168 30.0896V28.006C35.4168 26.857 34.4822 25.9228 33.3332 25.9228H29.1668C28.0178 25.9228 27.0832 26.857 27.0832 28.006V30.0896ZM29.1668 28.006H33.3332L33.3355 30.0896H29.1668V28.006ZM37.5 30.0896C37.5 31.2386 38.4342 32.1728 39.5832 32.1728H43.75C44.899 32.1728 45.8332 31.2386 45.8332 30.0896V28.006C45.8332 26.857 44.899 25.9228 43.75 25.9228H39.5832C38.4342 25.9228 37.5 26.857 37.5 28.006V30.0896ZM39.5832 28.006H43.75L43.752 30.0896H39.5832V28.006ZM27.0832 38.4228C27.0832 39.5718 28.0178 40.506 29.1668 40.506H33.3332C34.4822 40.506 35.4168 39.5718 35.4168 38.4228V36.3396C35.4168 35.1906 34.4822 34.256 33.3332 34.256H29.1668C28.0178 34.256 27.0832 35.1906 27.0832 36.3396V38.4228ZM29.1668 36.3396H33.3332L33.3355 38.4228H29.1668V36.3396ZM37.5 38.4228C37.5 39.5718 38.4342 40.506 39.5832 40.506H43.75C44.899 40.506 45.8332 39.5718 45.8332 38.4228V36.3396C45.8332 35.1906 44.899 34.256 43.75 34.256H39.5832C38.4342 34.256 37.5 35.1906 37.5 36.3396V38.4228ZM39.5832 36.3396H43.75L43.752 38.4228H39.5832V36.3396Z" fill="white"/>
</g>
<defs>
<clipPath id="clip0_669_569">
<rect width="50" height="50" fill="white" transform="translate(0 0.922852)"/>
</clipPath>
</defs>
</svg>
