<svg width="50" height="51" viewBox="0 0 50 51" fill="none" xmlns="http://www.w3.org/2000/svg">
<g clip-path="url(#clip0_677_3)">
<path d="M42.7083 46.7561H5.20833C3.8275 46.7545 2.50371 46.2052 1.52731 45.2288C0.550918 44.2524 0.00165306 42.9286 -9.53674e-07 41.5478L-9.53674e-07 12.3811C-9.53674e-07 12.1049 0.109746 11.8399 0.305096 11.6446C0.500447 11.4492 0.765399 11.3395 1.04167 11.3395C1.31793 11.3395 1.58289 11.4492 1.77824 11.6446C1.97359 11.8399 2.08333 12.1049 2.08333 12.3811V41.5478C2.08333 43.2707 3.48542 44.6728 5.20833 44.6728H42.7083C42.9846 44.6728 43.2496 44.5631 43.4449 44.3677C43.6403 44.1724 43.75 43.9074 43.75 43.6311V37.3811C43.75 37.1049 43.8597 36.8399 44.0551 36.6446C44.2504 36.4492 44.5154 36.3395 44.7917 36.3395C45.0679 36.3395 45.3329 36.4492 45.5282 36.6446C45.7236 36.8399 45.8333 37.1049 45.8333 37.3811V43.6311C45.8333 45.3541 44.4313 46.7561 42.7083 46.7561Z" fill="white"/>
<path d="M44.7917 25.9229C44.5154 25.9229 44.2504 25.8131 44.0551 25.6178C43.8597 25.4224 43.75 25.1575 43.75 24.8812V18.6312C43.75 18.3549 43.6403 18.09 43.4449 17.8946C43.2496 17.6993 42.9846 17.5895 42.7083 17.5895H5.20833C4.52175 17.5935 3.84143 17.4589 3.20815 17.1936C2.57487 16.9283 2.00167 16.5379 1.52292 16.0458C1.0363 15.5683 0.65071 14.9978 0.389081 14.3682C0.127452 13.7387 -0.00486606 13.0629 -1.22064e-06 12.3812C-1.22064e-06 9.51035 2.33542 7.17285 5.20833 7.17285H23.0208C23.2971 7.17285 23.5621 7.2826 23.7574 7.47795C23.9528 7.6733 24.0625 7.93825 24.0625 8.21452C24.0625 8.49079 23.9528 8.75574 23.7574 8.95109C23.5621 9.14644 23.2971 9.25618 23.0208 9.25618H5.20833C3.48542 9.25618 2.08333 10.6583 2.08333 12.3812C2.08333 13.2208 2.40833 13.9979 2.99583 14.5729C3.59167 15.1812 4.37083 15.5062 5.20833 15.5062H42.7083C44.4313 15.5062 45.8333 16.9083 45.8333 18.6312V24.8812C45.8333 25.1575 45.7236 25.4224 45.5282 25.6178C45.3329 25.8131 45.0679 25.9229 44.7917 25.9229Z" fill="white"/>
<path d="M38.5417 17.5895C38.2654 17.5895 38.0004 17.4798 37.8051 17.2844C37.6097 17.0891 37.5 16.8241 37.5 16.5479V10.2979C37.5 10.0216 37.3903 9.75663 37.1949 9.56128C36.9996 9.36593 36.7346 9.25619 36.4583 9.25619H32.6458C32.3696 9.25619 32.1046 9.14644 31.9093 8.95109C31.7139 8.75574 31.6042 8.49079 31.6042 8.21452C31.6042 7.93825 31.7139 7.6733 31.9093 7.47795C32.1046 7.2826 32.3696 7.17285 32.6458 7.17285H36.4583C38.1813 7.17285 39.5833 8.57493 39.5833 10.2979V16.5479C39.5833 16.8241 39.4736 17.0891 39.2782 17.2844C39.0829 17.4798 38.8179 17.5895 38.5417 17.5895Z" fill="white"/>
<path d="M37.5 17.5895C37.3179 17.5895 37.139 17.5419 36.9811 17.4512C36.8232 17.3606 36.6918 17.2301 36.6 17.0728L29.8396 5.48324L9.91042 17.4416C9.79305 17.5119 9.66298 17.5584 9.52764 17.5784C9.39229 17.5985 9.25433 17.5917 9.12162 17.5584C8.98891 17.5251 8.86405 17.466 8.75418 17.3845C8.6443 17.303 8.55156 17.2006 8.48125 17.0832C8.41094 16.9659 8.36443 16.8358 8.34439 16.7005C8.32434 16.5651 8.33115 16.4272 8.36443 16.2944C8.3977 16.1617 8.45679 16.0369 8.53831 15.927C8.61984 15.8171 8.72221 15.7244 8.83958 15.6541L29.6729 3.15408C29.7911 3.08339 29.9221 3.0368 30.0584 3.01697C30.1947 2.99715 30.3335 3.00449 30.467 3.03858C30.6004 3.07266 30.7258 3.13281 30.8358 3.21556C30.9459 3.29832 31.0385 3.40203 31.1083 3.52074L38.4 16.0207C38.4936 16.179 38.5435 16.3592 38.5447 16.5431C38.546 16.7269 38.4984 16.9078 38.4069 17.0672C38.3154 17.2267 38.1833 17.3591 38.024 17.4508C37.8646 17.5426 37.6838 17.5904 37.5 17.5895ZM48.9583 38.4228H38.5417C34.5208 38.4228 31.25 35.152 31.25 31.1312C31.25 27.1103 34.5208 23.8395 38.5417 23.8395H48.9583C49.2346 23.8395 49.4996 23.9492 49.6949 24.1446C49.8903 24.3399 50 24.6049 50 24.8812V37.3812C50 37.6574 49.8903 37.9224 49.6949 38.1177C49.4996 38.3131 49.2346 38.4228 48.9583 38.4228ZM38.5417 25.9228C35.6688 25.9228 33.3333 28.2603 33.3333 31.1312C33.3333 34.002 35.6688 36.3395 38.5417 36.3395H47.9167V25.9228H38.5417Z" fill="white"/>
<path d="M38.5417 34.2561C36.8188 34.2561 35.4167 32.854 35.4167 31.1311C35.4167 29.4082 36.8188 28.0061 38.5417 28.0061C40.2646 28.0061 41.6667 29.4082 41.6667 31.1311C41.6667 32.854 40.2646 34.2561 38.5417 34.2561ZM38.5417 30.0894C38.2648 30.09 37.9996 30.2005 37.8042 30.3966C37.6089 30.5927 37.4994 30.8585 37.5 31.1353C37.5006 31.4121 37.611 31.6774 37.8072 31.8727C38.0033 32.0681 38.269 32.1775 38.5458 32.1769C38.6829 32.1767 38.8186 32.1494 38.9451 32.0967C39.0716 32.044 39.1865 31.9669 39.2833 31.8698C39.38 31.7726 39.4566 31.6574 39.5088 31.5307C39.561 31.4039 39.5878 31.2682 39.5875 31.1311C39.5872 30.994 39.56 30.8584 39.5073 30.7318C39.4545 30.6053 39.3774 30.4904 39.2803 30.3937C39.1832 30.2969 39.068 30.2203 38.9413 30.1681C38.8145 30.1159 38.6787 30.0892 38.5417 30.0894Z" fill="white"/>
</g>
<defs>
<clipPath id="clip0_677_3">
<rect width="50" height="50" fill="white" transform="translate(0 0.922852)"/>
</clipPath>
</defs>
</svg>
