<svg width="50" height="51" viewBox="0 0 50 51" fill="none" xmlns="http://www.w3.org/2000/svg">
<g clip-path="url(#clip0_677_26)">
<path d="M29.6449 50.6927L38.4529 41.8844L38.6836 41.1888H38.7836V41.1887V4.91221C38.7836 4.41624 38.3817 4.01434 37.8857 4.01434H14.8754C14.272 2.164 12.5304 0.822852 10.4809 0.822852C8.46384 0.822852 6.69671 2.14996 6.08708 4.01434H3.60363C3.60363 4.01434 3.60362 4.01434 3.60362 4.01434C3.48571 4.01433 3.36895 4.03754 3.26001 4.08266C3.15106 4.12777 3.05208 4.19391 2.9687 4.27729C2.88532 4.36067 2.81918 4.45966 2.77406 4.5686C2.72895 4.67754 2.70573 4.7943 2.70575 4.91221C2.70575 4.91222 2.70575 4.91222 2.70575 4.91223V50.125C2.70575 50.6209 3.10765 51.0228 3.60362 51.0228H28.9427C29.2298 51.0228 29.4802 50.8941 29.6449 50.6927ZM35.711 42.0867L29.8474 47.9504V42.0867H35.711ZM10.4809 2.6186C11.5169 2.6186 12.4244 3.17969 12.9162 4.01434H8.04563C8.54229 3.17523 9.45969 2.6186 10.4809 2.6186ZM4.50149 5.81009H13.3064V11.2952C13.3064 11.9733 12.7547 12.525 12.0766 12.525C11.3985 12.525 10.8468 11.9733 10.8468 11.2952V8.1037C10.8468 7.60773 10.4449 7.20583 9.94894 7.20583C9.45296 7.20583 9.05106 7.60773 9.05106 8.1037V11.2952C9.05106 12.9635 10.4083 14.3207 12.0766 14.3207C13.7449 14.3207 15.1021 12.9635 15.1021 11.2952V5.81009H36.9879V40.2909H28.9496C28.8317 40.2909 28.7149 40.3141 28.606 40.3592C28.497 40.4044 28.398 40.4705 28.3147 40.5539C28.2313 40.6373 28.1651 40.7363 28.12 40.8452C28.0749 40.9541 28.0517 41.0709 28.0517 41.1888V49.2271H4.50149V5.81009Z" fill="white" stroke="white" stroke-width="0.2"/>
<path d="M31.5028 37.7782C31.9987 37.7782 32.4006 37.3763 32.4006 36.8803C32.4006 36.3844 31.9987 35.9825 31.5028 35.9825H9.9866C9.49062 35.9825 9.08872 36.3844 9.08872 36.8803C9.08872 37.3763 9.49062 37.7782 9.9866 37.7782H31.5028ZM9.9866 32.991H31.5028C31.9987 32.991 32.4006 32.5891 32.4006 32.0931C32.4006 31.5971 31.9987 31.1952 31.5028 31.1952H9.9866C9.49062 31.1952 9.08872 31.5971 9.08872 32.0931C9.08872 32.5891 9.49062 32.991 9.9866 32.991ZM9.9866 28.2037H31.5028C31.9987 28.2037 32.4006 27.8018 32.4006 27.3059C32.4006 26.8099 31.9987 26.408 31.5028 26.408H9.9866C9.49062 26.408 9.08872 26.8099 9.08872 27.3059C9.08872 27.8018 9.49062 28.2037 9.9866 28.2037ZM9.9866 23.4165H31.5028C31.9987 23.4165 32.4006 23.0146 32.4006 22.5186C32.4006 22.0227 31.9987 21.6208 31.5028 21.6208H9.9866C9.49062 21.6208 9.08872 22.0227 9.08872 22.5186C9.08872 23.0146 9.49062 23.4165 9.9866 23.4165ZM9.9866 18.6293H31.5028C31.9987 18.6293 32.4006 18.2274 32.4006 17.7314C32.4006 17.2354 31.9987 16.8335 31.5028 16.8335H9.9866C9.49062 16.8335 9.08872 17.2354 9.08872 17.7314C9.08872 18.2274 9.49062 18.6293 9.9866 18.6293ZM42.1411 4.01438H41.0772C40.5813 4.01438 40.1794 4.41628 40.1794 4.91225C40.1794 5.40823 40.5813 5.81012 41.0772 5.81012H41.2432V49.2271H32.8249C32.3289 49.2271 31.927 49.629 31.927 50.125C31.927 50.621 32.3289 51.0229 32.8249 51.0229H42.1411C42.637 51.0229 43.0389 50.621 43.0389 50.125V4.91225C43.0389 4.41628 42.637 4.01438 42.1411 4.01438ZM46.3964 4.01438H45.3326C44.8366 4.01438 44.4347 4.41628 44.4347 4.91225C44.4347 5.40822 44.8366 5.81012 45.3326 5.81012H45.4985V49.2271H45.3326C44.8366 49.2271 44.4347 49.629 44.4347 50.125C44.4347 50.621 44.8366 51.0229 45.3326 51.0229H46.3964C46.8924 51.0229 47.2943 50.621 47.2943 50.125V4.91225C47.2943 4.41628 46.8924 4.01438 46.3964 4.01438Z" fill="white" stroke="white" stroke-width="0.2"/>
</g>
<defs>
<clipPath id="clip0_677_26">
<rect width="50" height="50" fill="white" transform="translate(0 0.922852)"/>
</clipPath>
</defs>
</svg>
