<svg width="50" height="51" viewBox="0 0 50 51" fill="none" xmlns="http://www.w3.org/2000/svg">
<g clip-path="url(#clip0_677_47)">
<path d="M31.5852 31.8144L31.5852 31.8144C31.1342 32.2767 30.5296 32.5315 29.8838 32.5315M31.5852 31.8144L29.8838 32.5315M31.5852 31.8144L35.4241 27.8785L35.4241 27.8785C36.3389 26.9405 36.3199 25.4334 35.3818 24.5186L35.3818 24.5186C34.4438 23.604 32.9364 23.6229 32.0217 24.5608L29.8393 26.7981L29.5164 26.4841L29.5164 26.4841C28.577 25.571 27.0698 25.5919 26.1562 26.5312L26.1561 26.5312C25.2428 27.4705 25.2639 28.9776 26.2033 29.891L28.2272 31.8588M31.5852 31.8144L28.2272 31.8588M29.8838 32.5315C29.2648 32.5327 28.6701 32.2912 28.2272 31.8588M29.8838 32.5315L28.2272 31.8588M27.3521 27.6939L27.3521 27.6939C27.6245 27.4138 28.0741 27.408 28.3538 27.68L28.3538 27.68L29.2737 28.5744L29.2737 28.5744C29.4321 28.7284 29.6452 28.8132 29.8661 28.8103C30.087 28.8074 30.2978 28.7169 30.4521 28.5588L30.4521 28.5588L33.2157 25.7254L33.2157 25.7253C33.4885 25.4457 33.938 25.4403 34.2174 25.7127C34.497 25.9853 34.5026 26.4347 34.2301 26.7142C34.2301 26.7142 34.2301 26.7142 34.2301 26.7142L30.3911 30.6501L30.3911 30.65L30.3897 30.6516C30.1319 30.9273 29.6569 30.9333 29.3915 30.6648L29.3901 30.6634L27.3661 28.6955C27.0862 28.4232 27.0799 27.9737 27.3521 27.6939Z" fill="white" stroke="white" stroke-width="0.2"/>
<path d="M24.2902 32.8707L24.2903 32.8707L24.2891 32.8693C24.1543 32.6974 23.9574 32.5853 23.7407 32.5571C23.5241 32.5289 23.3051 32.5867 23.1307 32.7183C22.9563 32.8499 22.8404 33.0446 22.8081 33.2606C22.7757 33.4767 22.8294 33.6968 22.9576 33.8737L22.9576 33.8737L22.9588 33.8753C23.2308 34.2353 23.5274 34.5761 23.8465 34.8952L23.9172 34.8245L23.8465 34.8952C25.6698 36.7183 28.0946 37.7225 30.6731 37.7225C33.2517 37.7225 35.6764 36.7183 37.4997 34.8952C39.3232 33.0721 40.3274 30.6477 40.3274 28.0695C40.3274 25.4912 39.3231 23.0668 37.4997 21.2438C33.7354 17.48 27.6108 17.4801 23.8465 21.2438L23.9172 21.3145L23.8465 21.2438C21.2803 23.8096 20.3721 27.553 21.4765 31.0125L21.4765 31.0125C21.5439 31.2231 21.6921 31.3984 21.8886 31.4998C22.0851 31.6012 22.3138 31.6205 22.5245 31.5533L22.5245 31.5533C22.6289 31.52 22.7256 31.4665 22.8093 31.3958C22.8929 31.3252 22.9618 31.2387 23.012 31.1414C23.0623 31.0441 23.0928 30.9378 23.102 30.8287C23.1111 30.7195 23.0987 30.6097 23.0654 30.5054C22.1515 27.6427 22.9027 24.546 25.026 22.4231L25.026 22.4231C28.1397 19.3097 33.2066 19.3097 36.3203 22.4231C37.8289 23.9315 38.6596 25.9364 38.6596 28.0696C38.6596 30.2027 37.8289 32.2076 36.3203 33.716C34.8118 35.2243 32.8066 36.0549 30.6731 36.0549C28.5398 36.0549 26.5345 35.2244 25.0259 33.716C24.7615 33.4515 24.5157 33.1691 24.2902 32.8707Z" fill="white" stroke="white" stroke-width="0.2"/>
<mask id="path-3-outside-1_677_47" maskUnits="userSpaceOnUse" x="-1.0001" y="-0.0771484" width="52" height="52" fill="black">
<rect fill="white" x="-1.0001" y="-0.0771484" width="52" height="52"/>
<path d="M48.9902 41.4767L44.3599 36.8469C44.2222 36.7093 44.0355 36.6319 43.8408 36.6319C43.6462 36.6319 43.4595 36.7093 43.3218 36.8469L43.2935 36.8752L41.5115 35.0936C42.7174 33.2351 43.4241 31.0973 43.5635 28.8863C43.5757 28.6921 43.5103 28.5009 43.3815 28.3549C43.2528 28.2089 43.0714 28.12 42.8771 28.1077C42.473 28.0831 42.1241 28.3895 42.0984 28.7939C41.9232 31.5741 40.7389 34.1946 38.7682 36.1633C36.5393 38.392 33.6122 39.5076 30.6843 39.5104C30.6806 39.5103 30.677 39.5099 30.6731 39.5099H30.6148C27.7027 39.4952 24.7951 38.38 22.5781 36.1633C20.4158 34.0014 19.225 31.1269 19.225 28.0693C19.225 25.0118 20.4158 22.1373 22.5781 19.9754C27.0417 15.5123 34.3046 15.5123 38.7682 19.9754C40.4307 21.6377 41.5277 23.7345 41.9409 26.0393C42.0125 26.4382 42.3941 26.7032 42.7929 26.6321C42.8877 26.6151 42.9783 26.5796 43.0595 26.5276C43.1406 26.4756 43.2107 26.4081 43.2658 26.329C43.3209 26.2499 43.3598 26.1607 43.3804 26.0666C43.401 25.9724 43.4028 25.8751 43.3858 25.7803C42.9194 23.179 41.6816 20.8128 39.8062 18.9375C38.9012 18.0314 37.866 17.2655 36.735 16.6649V10.7503C36.734 10.5558 36.6568 10.3695 36.52 10.2313L27.4253 1.13779C27.287 1.00101 27.1007 0.923852 26.9062 0.922852L2.20186 0.922852C0.987793 0.922852 3.81471e-07 1.91045 3.81471e-07 3.12441V9.29268C3.8062e-07 9.38906 0.0189862 9.4845 0.0558735 9.57354C0.0927609 9.66259 0.146827 9.7435 0.214985 9.81165C0.283143 9.8798 0.364058 9.93385 0.453108 9.97073C0.542159 10.0076 0.637601 10.0266 0.733985 10.0266C0.830368 10.0266 0.925811 10.0076 1.01486 9.97073C1.10391 9.93385 1.18483 9.8798 1.25298 9.81165C1.32114 9.7435 1.37521 9.66259 1.4121 9.57354C1.44898 9.4845 1.46797 9.38906 1.46797 9.29268V3.12441C1.46797 2.71973 1.79717 2.39053 2.20195 2.39053H26.1725V9.28262C26.1725 10.4966 27.1603 11.4842 28.3743 11.4842H35.2673V16.0003C33.8353 15.4577 32.3255 15.179 30.8133 15.1627C30.8061 15.1617 30.799 15.1603 30.7915 15.1603H14.4048C14.3074 15.1587 14.2107 15.1765 14.1202 15.2126C14.0298 15.2488 13.9475 15.3026 13.8781 15.3709C13.8086 15.4392 13.7535 15.5207 13.7159 15.6105C13.6782 15.7003 13.6588 15.7967 13.6588 15.8941C13.6588 15.9915 13.6782 16.088 13.7159 16.1778C13.7535 16.2676 13.8086 16.3491 13.8781 16.4174C13.9475 16.4857 14.0298 16.5395 14.1202 16.5756C14.2107 16.6118 14.3074 16.6296 14.4048 16.628H24.6808C23.6111 17.1879 22.6255 17.8955 21.7531 18.7301H14.4048C14.3074 18.7285 14.2107 18.7463 14.1202 18.7825C14.0298 18.8186 13.9475 18.8724 13.8781 18.9407C13.8086 19.009 13.7535 19.0905 13.7159 19.1803C13.6782 19.2701 13.6588 19.3666 13.6588 19.464C13.6588 19.5614 13.6782 19.6578 13.7159 19.7476C13.7535 19.8374 13.8086 19.9189 13.8781 19.9872C13.9475 20.0555 14.0298 20.1093 14.1202 20.1455C14.2107 20.1816 14.3074 20.1994 14.4048 20.1979H20.4321C19.2341 21.7497 18.4153 23.537 18.0234 25.4449H14.4049C14.3075 25.4433 14.2108 25.4611 14.1203 25.4973C14.0299 25.5335 13.9476 25.5873 13.8782 25.6556C13.8087 25.7239 13.7536 25.8053 13.7159 25.8952C13.6783 25.985 13.6589 26.0814 13.6589 26.1788C13.6589 26.2762 13.6783 26.3726 13.7159 26.4625C13.7536 26.5523 13.8087 26.6337 13.8782 26.702C13.9476 26.7703 14.0299 26.8241 14.1203 26.8603C14.2108 26.8965 14.3075 26.9143 14.4049 26.9127H17.8091C17.7749 27.2974 17.7576 27.6833 17.7574 28.0695C17.7574 28.3883 17.769 28.7053 17.7918 29.02H14.405C14.3076 29.0184 14.2109 29.0362 14.1204 29.0724C14.03 29.1086 13.9477 29.1624 13.8783 29.2307C13.8088 29.299 13.7537 29.3804 13.716 29.4703C13.6784 29.5601 13.659 29.6565 13.659 29.7539C13.659 29.8513 13.6784 29.9477 13.716 30.0376C13.7537 30.1274 13.8088 30.2088 13.8783 30.2771C13.9477 30.3454 14.03 30.3992 14.1204 30.4354C14.2109 30.4716 14.3076 30.4894 14.405 30.4878H17.9831C18.3574 32.4742 19.192 34.3355 20.4344 35.9438H14.405C14.3086 35.9438 14.2132 35.9628 14.1241 35.9997C14.0351 36.0366 13.9542 36.0907 13.886 36.1588C13.8179 36.2269 13.7638 36.3078 13.727 36.3969C13.6901 36.4859 13.6711 36.5814 13.6711 36.6777C13.6711 36.7741 13.6901 36.8695 13.727 36.9586C13.7638 37.0476 13.8179 37.1285 13.886 37.1967C13.9542 37.2648 14.0351 37.3189 14.1241 37.3558C14.2132 37.3926 14.3086 37.4116 14.405 37.4116H21.7561C22.6272 38.2447 23.6112 38.9511 24.679 39.5103H14.4046C14.3072 39.5087 14.2105 39.5265 14.1201 39.5626C14.0296 39.5988 13.9473 39.6526 13.8779 39.7209C13.8084 39.7892 13.7533 39.8707 13.7157 39.9605C13.678 40.0503 13.6586 40.1467 13.6586 40.2441C13.6586 40.3415 13.678 40.438 13.7157 40.5278C13.7533 40.6176 13.8084 40.6991 13.8779 40.7674C13.9473 40.8357 14.0296 40.8895 14.1201 40.9256C14.2105 40.9618 14.3072 40.9796 14.4046 40.978H30.6731C32.2426 40.9783 33.7991 40.6939 35.2671 40.1386V48.7217C35.2671 49.1263 34.9379 49.4556 34.5331 49.4556H2.20186C1.79717 49.4556 1.46787 49.1264 1.46787 48.7217V12.2285C1.46787 11.8232 1.13926 11.4946 0.733887 11.4946C0.328516 11.4946 -9.72748e-05 11.8231 -9.72748e-05 12.2285V48.7217C3.81471e-07 49.9353 0.987793 50.9229 2.20186 50.9229H34.5332C35.7473 50.9229 36.7351 49.9353 36.7351 48.7213V39.4735C37.0643 39.2987 37.3858 39.1096 37.6986 38.9067L39.4802 40.688C39.1719 40.9571 39.1554 41.47 39.4518 41.7542L44.0822 46.3841C45.3739 47.7303 47.6985 47.7302 48.9901 46.3841C50.3366 45.0925 50.3365 42.7682 48.9902 41.4767ZM28.3742 10.0165C27.9695 10.0165 27.6402 9.6873 27.6402 9.28262V3.42842L34.2292 10.0165H28.3742ZM38.8959 38.0281C39.2122 37.767 39.5159 37.491 39.8062 37.2012C40.0961 36.911 40.372 36.6073 40.6331 36.291L42.2554 37.913L40.5181 39.65L38.8959 38.0281ZM47.9522 45.3462C47.2069 46.123 45.8656 46.1229 45.1202 45.3462L41.0087 41.2353L43.8408 38.4035L47.9523 42.5145C48.7291 43.2599 48.7292 44.6009 47.9522 45.3462Z"/>
</mask>
<path d="M48.9902 41.4767L44.3599 36.8469C44.2222 36.7093 44.0355 36.6319 43.8408 36.6319C43.6462 36.6319 43.4595 36.7093 43.3218 36.8469L43.2935 36.8752L41.5115 35.0936C42.7174 33.2351 43.4241 31.0973 43.5635 28.8863C43.5757 28.6921 43.5103 28.5009 43.3815 28.3549C43.2528 28.2089 43.0714 28.12 42.8771 28.1077C42.473 28.0831 42.1241 28.3895 42.0984 28.7939C41.9232 31.5741 40.7389 34.1946 38.7682 36.1633C36.5393 38.392 33.6122 39.5076 30.6843 39.5104C30.6806 39.5103 30.677 39.5099 30.6731 39.5099H30.6148C27.7027 39.4952 24.7951 38.38 22.5781 36.1633C20.4158 34.0014 19.225 31.1269 19.225 28.0693C19.225 25.0118 20.4158 22.1373 22.5781 19.9754C27.0417 15.5123 34.3046 15.5123 38.7682 19.9754C40.4307 21.6377 41.5277 23.7345 41.9409 26.0393C42.0125 26.4382 42.3941 26.7032 42.7929 26.6321C42.8877 26.6151 42.9783 26.5796 43.0595 26.5276C43.1406 26.4756 43.2107 26.4081 43.2658 26.329C43.3209 26.2499 43.3598 26.1607 43.3804 26.0666C43.401 25.9724 43.4028 25.8751 43.3858 25.7803C42.9194 23.179 41.6816 20.8128 39.8062 18.9375C38.9012 18.0314 37.866 17.2655 36.735 16.6649V10.7503C36.734 10.5558 36.6568 10.3695 36.52 10.2313L27.4253 1.13779C27.287 1.00101 27.1007 0.923852 26.9062 0.922852L2.20186 0.922852C0.987793 0.922852 3.81471e-07 1.91045 3.81471e-07 3.12441V9.29268C3.8062e-07 9.38906 0.0189862 9.4845 0.0558735 9.57354C0.0927609 9.66259 0.146827 9.7435 0.214985 9.81165C0.283143 9.8798 0.364058 9.93385 0.453108 9.97073C0.542159 10.0076 0.637601 10.0266 0.733985 10.0266C0.830368 10.0266 0.925811 10.0076 1.01486 9.97073C1.10391 9.93385 1.18483 9.8798 1.25298 9.81165C1.32114 9.7435 1.37521 9.66259 1.4121 9.57354C1.44898 9.4845 1.46797 9.38906 1.46797 9.29268V3.12441C1.46797 2.71973 1.79717 2.39053 2.20195 2.39053H26.1725V9.28262C26.1725 10.4966 27.1603 11.4842 28.3743 11.4842H35.2673V16.0003C33.8353 15.4577 32.3255 15.179 30.8133 15.1627C30.8061 15.1617 30.799 15.1603 30.7915 15.1603H14.4048C14.3074 15.1587 14.2107 15.1765 14.1202 15.2126C14.0298 15.2488 13.9475 15.3026 13.8781 15.3709C13.8086 15.4392 13.7535 15.5207 13.7159 15.6105C13.6782 15.7003 13.6588 15.7967 13.6588 15.8941C13.6588 15.9915 13.6782 16.088 13.7159 16.1778C13.7535 16.2676 13.8086 16.3491 13.8781 16.4174C13.9475 16.4857 14.0298 16.5395 14.1202 16.5756C14.2107 16.6118 14.3074 16.6296 14.4048 16.628H24.6808C23.6111 17.1879 22.6255 17.8955 21.7531 18.7301H14.4048C14.3074 18.7285 14.2107 18.7463 14.1202 18.7825C14.0298 18.8186 13.9475 18.8724 13.8781 18.9407C13.8086 19.009 13.7535 19.0905 13.7159 19.1803C13.6782 19.2701 13.6588 19.3666 13.6588 19.464C13.6588 19.5614 13.6782 19.6578 13.7159 19.7476C13.7535 19.8374 13.8086 19.9189 13.8781 19.9872C13.9475 20.0555 14.0298 20.1093 14.1202 20.1455C14.2107 20.1816 14.3074 20.1994 14.4048 20.1979H20.4321C19.2341 21.7497 18.4153 23.537 18.0234 25.4449H14.4049C14.3075 25.4433 14.2108 25.4611 14.1203 25.4973C14.0299 25.5335 13.9476 25.5873 13.8782 25.6556C13.8087 25.7239 13.7536 25.8053 13.7159 25.8952C13.6783 25.985 13.6589 26.0814 13.6589 26.1788C13.6589 26.2762 13.6783 26.3726 13.7159 26.4625C13.7536 26.5523 13.8087 26.6337 13.8782 26.702C13.9476 26.7703 14.0299 26.8241 14.1203 26.8603C14.2108 26.8965 14.3075 26.9143 14.4049 26.9127H17.8091C17.7749 27.2974 17.7576 27.6833 17.7574 28.0695C17.7574 28.3883 17.769 28.7053 17.7918 29.02H14.405C14.3076 29.0184 14.2109 29.0362 14.1204 29.0724C14.03 29.1086 13.9477 29.1624 13.8783 29.2307C13.8088 29.299 13.7537 29.3804 13.716 29.4703C13.6784 29.5601 13.659 29.6565 13.659 29.7539C13.659 29.8513 13.6784 29.9477 13.716 30.0376C13.7537 30.1274 13.8088 30.2088 13.8783 30.2771C13.9477 30.3454 14.03 30.3992 14.1204 30.4354C14.2109 30.4716 14.3076 30.4894 14.405 30.4878H17.9831C18.3574 32.4742 19.192 34.3355 20.4344 35.9438H14.405C14.3086 35.9438 14.2132 35.9628 14.1241 35.9997C14.0351 36.0366 13.9542 36.0907 13.886 36.1588C13.8179 36.2269 13.7638 36.3078 13.727 36.3969C13.6901 36.4859 13.6711 36.5814 13.6711 36.6777C13.6711 36.7741 13.6901 36.8695 13.727 36.9586C13.7638 37.0476 13.8179 37.1285 13.886 37.1967C13.9542 37.2648 14.0351 37.3189 14.1241 37.3558C14.2132 37.3926 14.3086 37.4116 14.405 37.4116H21.7561C22.6272 38.2447 23.6112 38.9511 24.679 39.5103H14.4046C14.3072 39.5087 14.2105 39.5265 14.1201 39.5626C14.0296 39.5988 13.9473 39.6526 13.8779 39.7209C13.8084 39.7892 13.7533 39.8707 13.7157 39.9605C13.678 40.0503 13.6586 40.1467 13.6586 40.2441C13.6586 40.3415 13.678 40.438 13.7157 40.5278C13.7533 40.6176 13.8084 40.6991 13.8779 40.7674C13.9473 40.8357 14.0296 40.8895 14.1201 40.9256C14.2105 40.9618 14.3072 40.9796 14.4046 40.978H30.6731C32.2426 40.9783 33.7991 40.6939 35.2671 40.1386V48.7217C35.2671 49.1263 34.9379 49.4556 34.5331 49.4556H2.20186C1.79717 49.4556 1.46787 49.1264 1.46787 48.7217V12.2285C1.46787 11.8232 1.13926 11.4946 0.733887 11.4946C0.328516 11.4946 -9.72748e-05 11.8231 -9.72748e-05 12.2285V48.7217C3.81471e-07 49.9353 0.987793 50.9229 2.20186 50.9229H34.5332C35.7473 50.9229 36.7351 49.9353 36.7351 48.7213V39.4735C37.0643 39.2987 37.3858 39.1096 37.6986 38.9067L39.4802 40.688C39.1719 40.9571 39.1554 41.47 39.4518 41.7542L44.0822 46.3841C45.3739 47.7303 47.6985 47.7302 48.9901 46.3841C50.3366 45.0925 50.3365 42.7682 48.9902 41.4767ZM28.3742 10.0165C27.9695 10.0165 27.6402 9.6873 27.6402 9.28262V3.42842L34.2292 10.0165H28.3742ZM38.8959 38.0281C39.2122 37.767 39.5159 37.491 39.8062 37.2012C40.0961 36.911 40.372 36.6073 40.6331 36.291L42.2554 37.913L40.5181 39.65L38.8959 38.0281ZM47.9522 45.3462C47.2069 46.123 45.8656 46.1229 45.1202 45.3462L41.0087 41.2353L43.8408 38.4035L47.9523 42.5145C48.7291 43.2599 48.7292 44.6009 47.9522 45.3462Z" fill="white"/>
<path d="M48.9902 41.4767L44.3599 36.8469C44.2222 36.7093 44.0355 36.6319 43.8408 36.6319C43.6462 36.6319 43.4595 36.7093 43.3218 36.8469L43.2935 36.8752L41.5115 35.0936C42.7174 33.2351 43.4241 31.0973 43.5635 28.8863C43.5757 28.6921 43.5103 28.5009 43.3815 28.3549C43.2528 28.2089 43.0714 28.12 42.8771 28.1077C42.473 28.0831 42.1241 28.3895 42.0984 28.7939C41.9232 31.5741 40.7389 34.1946 38.7682 36.1633C36.5393 38.392 33.6122 39.5076 30.6843 39.5104C30.6806 39.5103 30.677 39.5099 30.6731 39.5099H30.6148C27.7027 39.4952 24.7951 38.38 22.5781 36.1633C20.4158 34.0014 19.225 31.1269 19.225 28.0693C19.225 25.0118 20.4158 22.1373 22.5781 19.9754C27.0417 15.5123 34.3046 15.5123 38.7682 19.9754C40.4307 21.6377 41.5277 23.7345 41.9409 26.0393C42.0125 26.4382 42.3941 26.7032 42.7929 26.6321C42.8877 26.6151 42.9783 26.5796 43.0595 26.5276C43.1406 26.4756 43.2107 26.4081 43.2658 26.329C43.3209 26.2499 43.3598 26.1607 43.3804 26.0666C43.401 25.9724 43.4028 25.8751 43.3858 25.7803C42.9194 23.179 41.6816 20.8128 39.8062 18.9375C38.9012 18.0314 37.866 17.2655 36.735 16.6649V10.7503C36.734 10.5558 36.6568 10.3695 36.52 10.2313L27.4253 1.13779C27.287 1.00101 27.1007 0.923852 26.9062 0.922852L2.20186 0.922852C0.987793 0.922852 3.81471e-07 1.91045 3.81471e-07 3.12441V9.29268C3.8062e-07 9.38906 0.0189862 9.4845 0.0558735 9.57354C0.0927609 9.66259 0.146827 9.7435 0.214985 9.81165C0.283143 9.8798 0.364058 9.93385 0.453108 9.97073C0.542159 10.0076 0.637601 10.0266 0.733985 10.0266C0.830368 10.0266 0.925811 10.0076 1.01486 9.97073C1.10391 9.93385 1.18483 9.8798 1.25298 9.81165C1.32114 9.7435 1.37521 9.66259 1.4121 9.57354C1.44898 9.4845 1.46797 9.38906 1.46797 9.29268V3.12441C1.46797 2.71973 1.79717 2.39053 2.20195 2.39053H26.1725V9.28262C26.1725 10.4966 27.1603 11.4842 28.3743 11.4842H35.2673V16.0003C33.8353 15.4577 32.3255 15.179 30.8133 15.1627C30.8061 15.1617 30.799 15.1603 30.7915 15.1603H14.4048C14.3074 15.1587 14.2107 15.1765 14.1202 15.2126C14.0298 15.2488 13.9475 15.3026 13.8781 15.3709C13.8086 15.4392 13.7535 15.5207 13.7159 15.6105C13.6782 15.7003 13.6588 15.7967 13.6588 15.8941C13.6588 15.9915 13.6782 16.088 13.7159 16.1778C13.7535 16.2676 13.8086 16.3491 13.8781 16.4174C13.9475 16.4857 14.0298 16.5395 14.1202 16.5756C14.2107 16.6118 14.3074 16.6296 14.4048 16.628H24.6808C23.6111 17.1879 22.6255 17.8955 21.7531 18.7301H14.4048C14.3074 18.7285 14.2107 18.7463 14.1202 18.7825C14.0298 18.8186 13.9475 18.8724 13.8781 18.9407C13.8086 19.009 13.7535 19.0905 13.7159 19.1803C13.6782 19.2701 13.6588 19.3666 13.6588 19.464C13.6588 19.5614 13.6782 19.6578 13.7159 19.7476C13.7535 19.8374 13.8086 19.9189 13.8781 19.9872C13.9475 20.0555 14.0298 20.1093 14.1202 20.1455C14.2107 20.1816 14.3074 20.1994 14.4048 20.1979H20.4321C19.2341 21.7497 18.4153 23.537 18.0234 25.4449H14.4049C14.3075 25.4433 14.2108 25.4611 14.1203 25.4973C14.0299 25.5335 13.9476 25.5873 13.8782 25.6556C13.8087 25.7239 13.7536 25.8053 13.7159 25.8952C13.6783 25.985 13.6589 26.0814 13.6589 26.1788C13.6589 26.2762 13.6783 26.3726 13.7159 26.4625C13.7536 26.5523 13.8087 26.6337 13.8782 26.702C13.9476 26.7703 14.0299 26.8241 14.1203 26.8603C14.2108 26.8965 14.3075 26.9143 14.4049 26.9127H17.8091C17.7749 27.2974 17.7576 27.6833 17.7574 28.0695C17.7574 28.3883 17.769 28.7053 17.7918 29.02H14.405C14.3076 29.0184 14.2109 29.0362 14.1204 29.0724C14.03 29.1086 13.9477 29.1624 13.8783 29.2307C13.8088 29.299 13.7537 29.3804 13.716 29.4703C13.6784 29.5601 13.659 29.6565 13.659 29.7539C13.659 29.8513 13.6784 29.9477 13.716 30.0376C13.7537 30.1274 13.8088 30.2088 13.8783 30.2771C13.9477 30.3454 14.03 30.3992 14.1204 30.4354C14.2109 30.4716 14.3076 30.4894 14.405 30.4878H17.9831C18.3574 32.4742 19.192 34.3355 20.4344 35.9438H14.405C14.3086 35.9438 14.2132 35.9628 14.1241 35.9997C14.0351 36.0366 13.9542 36.0907 13.886 36.1588C13.8179 36.2269 13.7638 36.3078 13.727 36.3969C13.6901 36.4859 13.6711 36.5814 13.6711 36.6777C13.6711 36.7741 13.6901 36.8695 13.727 36.9586C13.7638 37.0476 13.8179 37.1285 13.886 37.1967C13.9542 37.2648 14.0351 37.3189 14.1241 37.3558C14.2132 37.3926 14.3086 37.4116 14.405 37.4116H21.7561C22.6272 38.2447 23.6112 38.9511 24.679 39.5103H14.4046C14.3072 39.5087 14.2105 39.5265 14.1201 39.5626C14.0296 39.5988 13.9473 39.6526 13.8779 39.7209C13.8084 39.7892 13.7533 39.8707 13.7157 39.9605C13.678 40.0503 13.6586 40.1467 13.6586 40.2441C13.6586 40.3415 13.678 40.438 13.7157 40.5278C13.7533 40.6176 13.8084 40.6991 13.8779 40.7674C13.9473 40.8357 14.0296 40.8895 14.1201 40.9256C14.2105 40.9618 14.3072 40.9796 14.4046 40.978H30.6731C32.2426 40.9783 33.7991 40.6939 35.2671 40.1386V48.7217C35.2671 49.1263 34.9379 49.4556 34.5331 49.4556H2.20186C1.79717 49.4556 1.46787 49.1264 1.46787 48.7217V12.2285C1.46787 11.8232 1.13926 11.4946 0.733887 11.4946C0.328516 11.4946 -9.72748e-05 11.8231 -9.72748e-05 12.2285V48.7217C3.81471e-07 49.9353 0.987793 50.9229 2.20186 50.9229H34.5332C35.7473 50.9229 36.7351 49.9353 36.7351 48.7213V39.4735C37.0643 39.2987 37.3858 39.1096 37.6986 38.9067L39.4802 40.688C39.1719 40.9571 39.1554 41.47 39.4518 41.7542L44.0822 46.3841C45.3739 47.7303 47.6985 47.7302 48.9901 46.3841C50.3366 45.0925 50.3365 42.7682 48.9902 41.4767ZM28.3742 10.0165C27.9695 10.0165 27.6402 9.6873 27.6402 9.28262V3.42842L34.2292 10.0165H28.3742ZM38.8959 38.0281C39.2122 37.767 39.5159 37.491 39.8062 37.2012C40.0961 36.911 40.372 36.6073 40.6331 36.291L42.2554 37.913L40.5181 39.65L38.8959 38.0281ZM47.9522 45.3462C47.2069 46.123 45.8656 46.1229 45.1202 45.3462L41.0087 41.2353L43.8408 38.4035L47.9523 42.5145C48.7291 43.2599 48.7292 44.6009 47.9522 45.3462Z" stroke="white" stroke-width="0.4" mask="url(#path-3-outside-1_677_47)"/>
<path d="M6.60844 29.6236L6.53773 29.6943L6.60844 29.6236C6.59461 29.6098 6.58683 29.591 6.58682 29.5714V26.3609C6.58682 26.3204 6.62004 26.2872 6.66055 26.2872H9.87148C9.91219 26.2872 9.94531 26.3204 9.94531 26.3609V29.5715C9.94531 29.612 9.91213 29.6452 9.87148 29.6452H6.6606C6.64104 29.6452 6.62227 29.6374 6.60844 29.6236ZM6.66055 21.0231H9.87148C10.832 21.0231 11.6133 20.2421 11.6133 19.2817V16.0712C11.6133 15.1108 10.8321 14.3297 9.87148 14.3297H6.66055C5.70016 14.3297 4.91885 15.1108 4.91885 16.0712V19.2817C4.91885 20.2421 5.70016 21.0231 6.66055 21.0231ZM6.58682 16.0712C6.58682 16.0307 6.62004 15.9975 6.66055 15.9975H9.87148C9.91219 15.9975 9.94531 16.0307 9.94531 16.0712V19.2817C9.94531 19.3222 9.91213 19.3555 9.87148 19.3555H6.6606C6.64104 19.3555 6.62228 19.3477 6.60844 19.3338C6.59461 19.32 6.58683 19.3012 6.58682 19.2817V16.0712ZM4.91885 29.5715C4.91885 30.5318 5.70006 31.3129 6.66055 31.3129H9.87148C10.832 31.3129 11.6133 30.5318 11.6133 29.5715V26.3609C11.6133 25.4006 10.8321 24.6195 9.87148 24.6195H6.66055C5.70016 24.6195 4.91885 25.4006 4.91885 26.3609V29.5715ZM4.91885 40.0703C4.91885 41.0306 5.70006 41.8117 6.66055 41.8117H9.87148C10.832 41.8117 11.6133 41.0306 11.6133 40.0703V36.8598C11.6133 35.8993 10.8321 35.1183 9.87148 35.1183H6.66055C5.70016 35.1183 4.91885 35.8993 4.91885 36.8598V40.0703ZM6.58682 36.8598C6.58682 36.8192 6.62004 36.786 6.66055 36.786H9.87148C9.91219 36.786 9.94531 36.8192 9.94531 36.8598V40.0703C9.94531 40.1108 9.91213 40.144 9.87148 40.144H6.6606C6.64103 40.144 6.62227 40.1363 6.60844 40.1224C6.59461 40.1086 6.58683 40.0898 6.58682 40.0703V36.8598Z" fill="white" stroke="white" stroke-width="0.2"/>
</g>
<defs>
<clipPath id="clip0_677_47">
<rect width="50" height="50" fill="white" transform="translate(0 0.922852)"/>
</clipPath>
</defs>
</svg>
