<svg width="50" height="51" viewBox="0 0 50 51" fill="none" xmlns="http://www.w3.org/2000/svg">
<g clip-path="url(#clip0_677_65)">
<path d="M5.37879 11.9319H11.8697V22.035H11.1364V22.0349L11.1322 22.0351C9.26146 22.113 7.70303 23.6713 7.70303 25.6198V46.7562C7.70303 47.2668 7.56217 47.6275 7.35678 47.8846C7.1504 48.1428 6.87251 48.3043 6.58635 48.4042C6.06473 48.5863 5.53718 48.5583 5.40637 48.5513C5.39267 48.5506 5.38332 48.5501 5.37879 48.5501C4.22421 48.5501 3.35758 47.6124 3.35758 46.5289V14.0289C3.35758 12.8697 4.29991 11.9319 5.37879 11.9319ZM44.8485 22.1107H44.1152V8.04406C44.1152 7.91875 44.0942 7.80986 44.0497 7.70988C44.0055 7.61034 43.9403 7.5247 43.8586 7.44304L38.2525 1.83698C38.1709 1.75532 38.0852 1.6901 37.9857 1.64586C37.8857 1.60142 37.7768 1.58042 37.6515 1.58042H12.803C12.553 1.58042 12.3369 1.66419 12.1831 1.81804C12.0292 1.9719 11.9455 2.188 11.9455 2.438V10.2925H5.37879C3.27543 10.2925 1.64242 12.0067 1.64242 14.1047V46.5289C1.64242 48.6309 3.35522 50.2653 5.37879 50.2653H44.8485C46.7977 50.2653 48.3576 48.7053 48.3576 46.7562V25.5441C48.3576 23.6692 46.7962 22.1107 44.8485 22.1107ZM38.5091 7.18648V4.4976L41.198 7.18648H38.5091ZM13.6606 3.29557H36.7939V8.04406C36.7939 8.29405 36.8777 8.51016 37.0316 8.66401C37.1854 8.81786 37.4015 8.90163 37.6515 8.90163H42.4V22.035H13.6606V3.29557ZM46.6424 46.7562C46.6424 47.7616 45.8539 48.5501 44.8485 48.5501H8.89827C9.22613 48.0173 9.41818 47.3242 9.41818 46.7562V25.5441C9.41818 24.96 9.59525 24.5703 9.85883 24.3068C10.1249 24.0407 10.4894 23.8929 10.8814 23.8145C11.2729 23.7361 11.6832 23.7288 12.0324 23.7371C12.1485 23.7398 12.256 23.7442 12.3543 23.7482C12.4045 23.7502 12.4523 23.7522 12.4976 23.7538C12.6229 23.7581 12.7332 23.76 12.8098 23.7501H44.8485C45.8539 23.7501 46.6424 24.5387 46.6424 25.5441V46.7562Z" fill="white" stroke="white" stroke-width="0.2"/>
<path d="M17.4242 8.90165H32.3485C32.5985 8.90165 32.8146 8.81788 32.9684 8.66403C33.1223 8.51017 33.2061 8.29407 33.2061 8.04407C33.2061 7.79408 33.1223 7.57798 32.9684 7.42412C32.8146 7.27027 32.5985 7.1865 32.3485 7.1865H17.4242C17.1742 7.1865 16.9581 7.27027 16.8043 7.42412C16.6504 7.57798 16.5667 7.79408 16.5667 8.04407C16.5667 8.56024 16.9968 8.90165 17.4242 8.90165ZM38.6364 11.5047H17.4242C17.1742 11.5047 16.9581 11.5885 16.8043 11.7423C16.6504 11.8962 16.5667 12.1123 16.5667 12.3623C16.5667 12.6123 16.6504 12.8284 16.8043 12.9822C16.9581 13.1361 17.1742 13.2198 17.4242 13.2198H38.6364C38.8864 13.2198 39.1025 13.1361 39.2563 12.9822C39.4102 12.8284 39.4939 12.6123 39.4939 12.3623C39.4939 12.1403 39.384 11.9268 39.2279 11.7707C39.0718 11.6146 38.8583 11.5047 38.6364 11.5047ZM38.6364 15.8229H17.4242C17.1742 15.8229 16.9581 15.9066 16.8043 16.0605C16.6504 16.2143 16.5667 16.4304 16.5667 16.6804C16.5667 16.9304 16.6504 17.1465 16.8043 17.3004C16.9581 17.4542 17.1742 17.538 17.4242 17.538H38.6364C38.8864 17.538 39.1025 17.4542 39.2563 17.3004C39.4102 17.1465 39.4939 16.9304 39.4939 16.6804C39.4939 16.4585 39.384 16.245 39.2279 16.0889C39.0718 15.9328 38.8583 15.8229 38.6364 15.8229ZM33.8121 32.5926V31.0744C33.8121 27.8365 31.1907 25.2926 28.0303 25.2926C24.7924 25.2926 22.2485 27.914 22.2485 31.0744V32.5884C21.0296 32.931 20.203 34.0895 20.203 35.3926V44.1047C20.203 45.7526 21.5374 47.0077 23.1061 47.0077H32.9545C34.6024 47.0077 35.8576 45.6733 35.8576 44.1047V35.3955C35.9335 34.079 35.0227 33.0004 33.8121 32.5926ZM23.9636 31.0744C23.9636 28.8569 25.8128 27.0077 28.0303 27.0077C30.2478 27.0077 32.097 28.8569 32.097 31.0744V32.4138H30.7818V31.0744C30.7818 29.5798 29.5249 28.3229 28.0303 28.3229C26.5357 28.3229 25.2788 29.5798 25.2788 31.0744V32.4138H23.9636V31.0744ZM29.0667 31.0744V32.4138H26.9182V31.0744C26.9182 30.5235 27.4037 30.038 27.9545 30.038C28.5854 30.038 29.0667 30.5277 29.0667 31.0744ZM34.2182 44.1047C34.2182 44.8032 33.6608 45.2926 33.0303 45.2926H23.1818C22.4833 45.2926 21.9939 44.7352 21.9939 44.1047V35.3926C21.9939 34.694 22.5513 34.2047 23.1818 34.2047H33.0303C33.7288 34.2047 34.2182 34.7621 34.2182 35.3926V44.1047Z" fill="white" stroke="white" stroke-width="0.2"/>
<path d="M28.0303 35.9743C26.5357 35.9743 25.2788 37.2312 25.2788 38.7259C25.2788 39.9609 26.1101 40.9636 27.1727 41.3712V44.1046C27.1727 44.3546 27.2565 44.5707 27.4104 44.7246C27.5642 44.8785 27.7803 44.9622 28.0303 44.9622C28.2803 44.9622 28.4964 44.8785 28.6503 44.7246C28.8041 44.5707 28.8879 44.3546 28.8879 44.1046V41.3773C30.0304 41.0359 30.7818 39.9526 30.7818 38.7259C30.7818 37.1536 29.523 35.9743 28.0303 35.9743ZM28.0303 39.7622C27.4795 39.7622 26.9939 39.2767 26.9939 38.7259C26.9939 38.175 27.4795 37.6895 28.0303 37.6895C28.5811 37.6895 29.0667 38.175 29.0667 38.7259C29.0667 39.2767 28.5811 39.7622 28.0303 39.7622Z" fill="white" stroke="white" stroke-width="0.2"/>
</g>
<defs>
<clipPath id="clip0_677_65">
<rect width="50" height="50" fill="white" transform="translate(0 0.922852)"/>
</clipPath>
</defs>
</svg>
