<svg width="50" height="51" viewBox="0 0 50 51" fill="none" xmlns="http://www.w3.org/2000/svg">
<g clip-path="url(#clip0_677_83)">
<mask id="path-1-outside-1_677_83" maskUnits="userSpaceOnUse" x="-0.999979" y="1.22046" width="52" height="49" fill="black">
<rect fill="white" x="-0.999979" y="1.22046" width="52" height="49"/>
<path d="M0.390624 31.9758L5.89629 35.1544C5.98515 35.2057 6.08325 35.239 6.18498 35.2524C6.2867 35.2657 6.39007 35.2589 6.48917 35.2324C6.58827 35.2058 6.68116 35.16 6.76254 35.0975C6.84392 35.035 6.9122 34.9571 6.96348 34.8682L7.16182 34.5247L10.3503 36.3915C10.2749 36.6625 10.2367 36.9426 10.2367 37.224C10.2352 37.628 10.3138 38.0284 10.468 38.4018C10.6222 38.7753 10.849 39.1144 11.1352 39.3997C11.4207 39.6856 11.7599 39.9122 12.1332 40.0666C12.5066 40.221 12.9068 40.3002 13.3108 40.2995C13.3701 40.2995 13.4295 40.2971 13.4888 40.2938C13.4854 40.3524 13.4833 40.411 13.4833 40.4706C13.4824 40.8745 13.5613 41.2746 13.7155 41.648C13.8697 42.0214 14.0961 42.3606 14.3817 42.6462C14.6674 42.9319 15.0066 43.1583 15.38 43.3125C15.7533 43.4666 16.1535 43.5456 16.5574 43.5447C16.617 43.5447 16.6763 43.5425 16.7354 43.5392C16.7318 43.5985 16.73 43.6578 16.7298 43.7171C16.7289 44.1211 16.8078 44.5212 16.962 44.8946C17.1161 45.268 17.3426 45.6072 17.6282 45.8929C17.9138 46.1785 18.2531 46.4049 18.6264 46.5591C18.9998 46.7133 19.4 46.7922 19.8039 46.7914C20.0202 46.7913 20.236 46.7687 20.4477 46.724C20.5458 47.3267 20.8555 47.8747 21.3212 48.2697C21.7869 48.6647 22.378 48.8809 22.9887 48.8794C23.2975 48.8798 23.6038 48.8248 23.8933 48.7171L24.0484 48.8721C24.3833 49.2075 24.8041 49.444 25.2647 49.5555C25.7253 49.6671 26.2077 49.6494 26.6588 49.5044C27.11 49.3594 27.5124 49.0928 27.8218 48.7338C28.1311 48.3748 28.3354 47.9374 28.4122 47.4698C28.6237 47.5149 28.8394 47.5378 29.0557 47.5381C29.4746 47.5387 29.8893 47.4535 30.2741 47.2878C30.659 47.1221 31.0058 46.8794 31.2934 46.5746C31.5809 46.2699 31.8031 45.9096 31.9462 45.5158C32.0893 45.122 32.1503 44.7031 32.1255 44.2848C32.1841 44.2881 32.2427 44.2902 32.3022 44.2902C32.7212 44.291 33.1359 44.2061 33.5208 44.0406C33.9057 43.8751 34.2526 43.6325 34.5402 43.3279C34.8278 43.0232 35.05 42.6629 35.1931 42.2691C35.3362 41.8754 35.3971 41.4565 35.3722 41.0382C35.4308 41.0416 35.4894 41.0436 35.5489 41.0436C36.1123 41.043 36.6647 40.8878 37.1459 40.5949C37.6271 40.302 38.0187 39.8825 38.2779 39.3823C38.5371 38.8821 38.6541 38.3204 38.616 37.7583C38.5779 37.1962 38.3862 36.6554 38.0618 36.1948L42.3717 33.7167L43.0365 34.8682C43.1401 35.0476 43.3108 35.1786 43.5109 35.2322C43.711 35.2858 43.9243 35.2578 44.1037 35.1542L49.6094 31.9758C49.7888 31.8722 49.9197 31.7016 49.9734 31.5015C50.027 31.3013 49.9989 31.0881 49.8953 30.9086L42.6745 18.4019C42.5709 18.2225 42.4003 18.0916 42.2002 18.038C42.0001 17.9843 41.7868 18.0124 41.6074 18.116L36.1018 21.2947C35.9223 21.3983 35.7914 21.5689 35.7378 21.7691C35.6841 21.9692 35.7122 22.1824 35.8158 22.3619L36.4544 23.4679L35.5417 23.8135C35.1229 23.9811 34.6575 23.9905 34.2323 23.84L28.1469 21.8116C27.8092 21.696 27.4518 21.649 27.0958 21.6733C26.7397 21.6976 26.392 21.7926 26.0731 21.953L24.8622 22.5499C24.8508 22.543 24.8397 22.5357 24.8277 22.5294L23.3853 21.7676C22.9966 21.5594 22.563 21.4491 22.122 21.4464C21.6811 21.4437 21.2462 21.5487 20.855 21.7522L18.9294 22.7385C18.7834 22.8202 18.6193 22.8641 18.4521 22.8664L13.8622 22.9189L14.1839 22.3616C14.2875 22.1821 14.3156 21.9689 14.2619 21.7688C14.2083 21.5686 14.0774 21.398 13.8979 21.2944L8.39258 18.116C8.21315 18.0124 7.99993 17.9843 7.79982 18.038C7.59971 18.0916 7.42909 18.2225 7.32549 18.4019L0.104687 30.9086C0.00109143 31.0881 -0.0269825 31.3013 0.0266408 31.5015C0.0802642 31.7016 0.211192 31.8722 0.390624 31.9758ZM12.2399 38.2952C11.9575 38.0103 11.799 37.6254 11.799 37.2243C11.799 36.8231 11.9575 36.4382 12.2399 36.1534L14.9872 33.4061C15.2716 33.1237 15.6563 32.9655 16.0571 32.9662C16.4578 32.9669 16.842 33.1264 17.1254 33.4098C17.4087 33.6933 17.5682 34.0774 17.5689 34.4782C17.5695 34.879 17.4113 35.2637 17.1288 35.548L14.3817 38.2952C14.0975 38.5787 13.7123 38.738 13.3108 38.738C12.9093 38.738 12.5242 38.5787 12.2399 38.2952ZM15.4866 41.5418C15.2043 41.257 15.0458 40.8723 15.0457 40.4713C15.0456 40.0704 15.2038 39.6856 15.4859 39.4006L15.4866 39.4L18.2339 36.6528C18.5186 36.3723 18.9027 36.2158 19.3024 36.2173C19.702 36.2188 20.0849 36.3782 20.3675 36.6608C20.6502 36.9435 20.8096 37.3263 20.8111 37.726C20.8126 38.1257 20.6561 38.5097 20.3756 38.7945L17.6283 41.5418C17.3441 41.8253 16.959 41.9846 16.5575 41.9846C16.156 41.9846 15.7709 41.8253 15.4866 41.5418ZM18.7332 44.7883C18.4496 44.5041 18.2903 44.119 18.2903 43.7174C18.2903 43.3159 18.4496 42.9308 18.7332 42.6465L21.4804 39.8994C21.7644 39.6153 22.1496 39.4558 22.5513 39.4558C22.9529 39.4558 23.3381 39.6153 23.6222 39.8994C23.9062 40.1834 24.0658 40.5686 24.0658 40.9703C24.0658 41.3719 23.9062 41.7571 23.6222 42.0412C23.596 42.0677 23.5717 42.0962 23.5496 42.1262C23.4676 42.1902 23.3895 42.2591 23.3158 42.3325L21.1662 44.4819C21.0927 44.5558 21.0237 44.6341 20.9596 44.7163C20.9297 44.7383 20.9014 44.7625 20.8749 44.7885C20.5906 45.0721 20.2055 45.2313 19.804 45.2313C19.4025 45.2313 19.0174 45.072 18.7332 44.7883ZM22.2713 47.0222C22.0811 46.8318 21.9742 46.5736 21.9742 46.3044C21.9742 46.0353 22.0811 45.7771 22.2713 45.5867L24.4207 43.4373C24.6111 43.2469 24.8693 43.1399 25.1385 43.1399C25.4077 43.1399 25.6659 43.2469 25.8563 43.4373C26.0466 43.6276 26.1536 43.8858 26.1536 44.155C26.1536 44.4243 26.0466 44.6824 25.8563 44.8728L23.7068 47.0222C23.5158 47.2113 23.2579 47.3174 22.9891 47.3174C22.7203 47.3174 22.4623 47.2113 22.2713 47.0222ZM26.5886 47.7676C26.3997 47.956 26.1442 48.0625 25.8774 48.0641C25.6106 48.0657 25.3539 47.9622 25.1628 47.776L26.5973 46.3416C26.7835 46.5327 26.8869 46.7895 26.8853 47.0564C26.8837 47.3232 26.7771 47.5787 26.5886 47.7676ZM30.127 45.5338C29.8427 45.8174 29.4576 45.9767 29.0562 45.9767C28.6547 45.9767 28.2696 45.8174 27.9854 45.5338C27.9588 45.5076 27.9303 45.4834 27.9002 45.4613C27.8362 45.3793 27.7673 45.3012 27.6939 45.2275L27.5444 45.078C27.6818 44.7211 27.738 44.3381 27.7087 43.9568C27.6795 43.5755 27.5657 43.2055 27.3756 42.8737C27.1854 42.5419 26.9237 42.2567 26.6095 42.0387C26.2952 41.8208 25.9364 41.6756 25.559 41.6137C25.6444 41.212 25.6491 40.7973 25.573 40.3937C25.8605 40.2338 26.1924 40.1719 26.5183 40.2172C26.8442 40.2625 27.1465 40.4126 27.3796 40.6449L30.127 43.3921C30.4106 43.6764 30.5698 44.0615 30.5698 44.463C30.5698 44.8645 30.4106 45.2496 30.127 45.5338ZM33.3736 42.2873C33.0888 42.5696 32.7039 42.728 32.3028 42.728C31.9018 42.728 31.5169 42.5696 31.232 42.2873L28.4847 39.54C28.209 39.2544 28.0565 38.8721 28.0599 38.4752C28.0633 38.0783 28.2224 37.6986 28.5029 37.4179C28.7834 37.1371 29.1629 36.9776 29.5598 36.9738C29.9567 36.97 30.3392 37.1222 30.625 37.3975V37.3981L33.3723 40.1453C33.6561 40.4294 33.8155 40.8145 33.8157 41.2161C33.8159 41.6177 33.6567 42.0029 33.3731 42.2873H33.3736ZM36.6201 39.0407C36.3359 39.3243 35.9508 39.4835 35.5494 39.4835C35.1479 39.4835 34.7628 39.3243 34.4786 39.0407L31.7313 36.2934C31.4508 36.0087 31.2942 35.6246 31.2957 35.2249C31.2972 34.8253 31.4567 34.4424 31.7393 34.1598C32.0219 33.8771 32.4048 33.7177 32.8045 33.7162C33.2041 33.7147 33.5882 33.8712 33.8729 34.1517L36.6198 36.8995C36.9022 37.1843 37.0606 37.5692 37.0606 37.9703C37.0606 38.3714 36.9022 38.7563 36.6198 39.0412L36.6201 39.0407ZM41.7126 19.8598L48.1521 31.0132L43.9995 33.4107L37.5595 22.2572L41.7126 19.8598ZM26.764 23.3545C26.8998 23.2834 27.049 23.2413 27.2019 23.2309C27.3549 23.2205 27.5084 23.242 27.6526 23.294L33.7382 25.3225C34.5048 25.5854 35.3398 25.5686 36.0952 25.275L37.2461 24.8389L41.5907 32.3638L36.958 35.0275L34.9774 33.0468C34.7677 32.837 34.5286 32.6588 34.2676 32.5177L28.0396 27.8487C27.6438 27.5525 27.1712 27.3762 26.6781 27.3409L25.763 27.2601C25.2506 27.2109 24.7347 27.3091 24.2762 27.5432C23.8177 27.7773 23.4357 28.1375 23.1751 28.5815L21.9619 30.5765C21.944 30.6102 21.9158 30.6373 21.8814 30.6539C21.8471 30.6705 21.8083 30.6757 21.7708 30.6687L19.9251 30.4363C19.8972 30.4328 19.8704 30.4233 19.8466 30.4084C19.8227 30.3936 19.8023 30.3738 19.7868 30.3504C19.7713 30.327 19.761 30.3005 19.7566 30.2727C19.7523 30.2449 19.754 30.2166 19.7616 30.1895L20.7284 26.7618C20.7695 26.6021 20.8455 26.4535 20.951 26.3268C21.0564 26.2 21.1887 26.0982 21.3382 26.0288L26.764 23.3545ZM18.47 24.4288C18.879 24.4243 19.2809 24.3215 19.6419 24.1293L21.5675 23.1429C21.735 23.0528 21.9225 23.0061 22.1127 23.0073C22.3029 23.0084 22.4898 23.0573 22.6562 23.1495L23.1339 23.4015L20.647 24.6274C20.3007 24.7932 19.9943 25.0319 19.7487 25.3271C19.5032 25.6222 19.3243 25.967 19.2242 26.3377L18.2574 29.7654C18.1887 30.0089 18.1734 30.2643 18.2125 30.5143C18.2516 30.7642 18.3442 31.0028 18.4839 31.2137C18.6237 31.4246 18.8073 31.6028 19.0223 31.7362C19.2373 31.8696 19.4785 31.9551 19.7295 31.9867L21.5752 32.219C21.9119 32.2642 22.2544 32.2096 22.5604 32.0621C22.8663 31.9145 23.1223 31.6805 23.2966 31.3889L24.5099 29.394C24.6201 29.2003 24.7841 29.0426 24.9821 28.9402C25.1801 28.8378 25.4035 28.795 25.6253 28.817L26.5403 28.8978C26.7434 28.9076 26.939 28.9778 27.102 29.0994L31.5321 32.4206C30.9931 32.6641 30.536 33.0582 30.2158 33.5554C29.8956 34.0526 29.7259 34.6319 29.7271 35.2233C29.7271 35.2825 29.7293 35.3414 29.7325 35.4001C29.3143 35.3751 28.8954 35.4361 28.5016 35.5791C28.1079 35.7222 27.7476 35.9444 27.4429 36.232C27.1383 36.5196 26.8957 36.8665 26.7302 37.2514C26.5647 37.6362 26.4797 38.0509 26.4806 38.4699C26.4806 38.5292 26.4827 38.5879 26.4859 38.6466C25.9361 38.6146 25.3876 38.7305 24.8977 38.9821C24.8433 38.9174 24.7863 38.8551 24.7267 38.7953C24.4199 38.4883 24.0515 38.25 23.6458 38.0958C23.2401 37.9417 22.8064 37.8753 22.3731 37.9011C22.3765 37.8425 22.3785 37.7839 22.3785 37.7244C22.3795 37.3055 22.2947 36.8908 22.1293 36.5059C21.964 36.121 21.7216 35.774 21.4171 35.4863C21.1126 35.1986 20.7524 34.9763 20.3587 34.833C19.965 34.6898 19.5462 34.6286 19.128 34.6534C19.1528 34.2353 19.0917 33.8165 18.9486 33.4229C18.8054 33.0292 18.5832 32.6691 18.2956 32.3645C18.0081 32.06 17.6612 31.8176 17.2764 31.6521C16.8916 31.4867 16.4771 31.4017 16.0582 31.4025C15.6541 31.401 15.2538 31.4796 14.8803 31.6338C14.5068 31.788 14.1677 32.0148 13.8824 32.3009L11.1401 35.044L7.94307 33.1718L12.9542 24.4921L18.47 24.4288ZM8.28789 19.8598L12.4404 22.2572L6.00088 33.4107L1.84844 31.0132L8.28789 19.8598ZM25 20.5312C26.8108 20.5312 28.5809 19.9943 30.0865 18.9883C31.5921 17.9823 32.7656 16.5524 33.4585 14.8795C34.1515 13.2066 34.3328 11.3657 33.9796 9.58977C33.6263 7.8138 32.7544 6.18246 31.474 4.90204C30.1936 3.62163 28.5622 2.74966 26.7863 2.39639C25.0103 2.04312 23.1694 2.22442 21.4965 2.91736C19.8236 3.61031 18.3937 4.78378 17.3877 6.28937C16.3817 7.79497 15.8447 9.56507 15.8447 11.3758C15.8475 13.8031 16.8129 16.1302 18.5293 17.8466C20.2456 19.5629 22.5727 20.5284 25 20.5312ZM25 3.78316C26.5017 3.78314 27.9698 4.22844 29.2184 5.06275C30.4671 5.89706 31.4403 7.0829 32.015 8.47032C32.5897 9.85774 32.74 11.3844 32.4471 12.8573C32.1541 14.3302 31.431 15.6831 30.3691 16.745C29.3072 17.8069 27.9543 18.53 26.4814 18.823C25.0085 19.116 23.4818 18.9656 22.0944 18.3909C20.707 17.8162 19.5211 16.843 18.6868 15.5943C17.8525 14.3457 17.4072 12.8777 17.4072 11.3759C17.4095 9.36289 18.2102 7.43295 19.6336 6.00951C21.057 4.58606 22.987 3.78546 25 3.78316ZM21.5246 11.4127C21.4028 11.245 21.3525 11.0359 21.3849 10.8312C21.4173 10.6266 21.5297 10.4432 21.6973 10.3213C21.8649 10.1995 22.074 10.1493 22.2787 10.1817C22.4833 10.214 22.6668 10.3264 22.7886 10.494L23.9844 12.1397L27.9651 8.87876C28.1256 8.74904 28.3308 8.68805 28.5361 8.70912C28.7413 8.73019 28.9299 8.8316 29.0607 8.99121C29.1914 9.15082 29.2537 9.35568 29.234 9.56106C29.2142 9.76645 29.114 9.95568 28.9553 10.0875L24.3341 13.873C24.2518 13.9404 24.1566 13.9903 24.0543 14.0197C23.952 14.049 23.8448 14.0571 23.7393 14.0435C23.6338 14.0299 23.5321 13.9949 23.4406 13.9407C23.3491 13.8864 23.2696 13.814 23.207 13.728L21.5246 11.4127Z"/>
</mask>
<path d="M0.390624 31.9758L5.89629 35.1544C5.98515 35.2057 6.08325 35.239 6.18498 35.2524C6.2867 35.2657 6.39007 35.2589 6.48917 35.2324C6.58827 35.2058 6.68116 35.16 6.76254 35.0975C6.84392 35.035 6.9122 34.9571 6.96348 34.8682L7.16182 34.5247L10.3503 36.3915C10.2749 36.6625 10.2367 36.9426 10.2367 37.224C10.2352 37.628 10.3138 38.0284 10.468 38.4018C10.6222 38.7753 10.849 39.1144 11.1352 39.3997C11.4207 39.6856 11.7599 39.9122 12.1332 40.0666C12.5066 40.221 12.9068 40.3002 13.3108 40.2995C13.3701 40.2995 13.4295 40.2971 13.4888 40.2938C13.4854 40.3524 13.4833 40.411 13.4833 40.4706C13.4824 40.8745 13.5613 41.2746 13.7155 41.648C13.8697 42.0214 14.0961 42.3606 14.3817 42.6462C14.6674 42.9319 15.0066 43.1583 15.38 43.3125C15.7533 43.4666 16.1535 43.5456 16.5574 43.5447C16.617 43.5447 16.6763 43.5425 16.7354 43.5392C16.7318 43.5985 16.73 43.6578 16.7298 43.7171C16.7289 44.1211 16.8078 44.5212 16.962 44.8946C17.1161 45.268 17.3426 45.6072 17.6282 45.8929C17.9138 46.1785 18.2531 46.4049 18.6264 46.5591C18.9998 46.7133 19.4 46.7922 19.8039 46.7914C20.0202 46.7913 20.236 46.7687 20.4477 46.724C20.5458 47.3267 20.8555 47.8747 21.3212 48.2697C21.7869 48.6647 22.378 48.8809 22.9887 48.8794C23.2975 48.8798 23.6038 48.8248 23.8933 48.7171L24.0484 48.8721C24.3833 49.2075 24.8041 49.444 25.2647 49.5555C25.7253 49.6671 26.2077 49.6494 26.6588 49.5044C27.11 49.3594 27.5124 49.0928 27.8218 48.7338C28.1311 48.3748 28.3354 47.9374 28.4122 47.4698C28.6237 47.5149 28.8394 47.5378 29.0557 47.5381C29.4746 47.5387 29.8893 47.4535 30.2741 47.2878C30.659 47.1221 31.0058 46.8794 31.2934 46.5746C31.5809 46.2699 31.8031 45.9096 31.9462 45.5158C32.0893 45.122 32.1503 44.7031 32.1255 44.2848C32.1841 44.2881 32.2427 44.2902 32.3022 44.2902C32.7212 44.291 33.1359 44.2061 33.5208 44.0406C33.9057 43.8751 34.2526 43.6325 34.5402 43.3279C34.8278 43.0232 35.05 42.6629 35.1931 42.2691C35.3362 41.8754 35.3971 41.4565 35.3722 41.0382C35.4308 41.0416 35.4894 41.0436 35.5489 41.0436C36.1123 41.043 36.6647 40.8878 37.1459 40.5949C37.6271 40.302 38.0187 39.8825 38.2779 39.3823C38.5371 38.8821 38.6541 38.3204 38.616 37.7583C38.5779 37.1962 38.3862 36.6554 38.0618 36.1948L42.3717 33.7167L43.0365 34.8682C43.1401 35.0476 43.3108 35.1786 43.5109 35.2322C43.711 35.2858 43.9243 35.2578 44.1037 35.1542L49.6094 31.9758C49.7888 31.8722 49.9197 31.7016 49.9734 31.5015C50.027 31.3013 49.9989 31.0881 49.8953 30.9086L42.6745 18.4019C42.5709 18.2225 42.4003 18.0916 42.2002 18.038C42.0001 17.9843 41.7868 18.0124 41.6074 18.116L36.1018 21.2947C35.9223 21.3983 35.7914 21.5689 35.7378 21.7691C35.6841 21.9692 35.7122 22.1824 35.8158 22.3619L36.4544 23.4679L35.5417 23.8135C35.1229 23.9811 34.6575 23.9905 34.2323 23.84L28.1469 21.8116C27.8092 21.696 27.4518 21.649 27.0958 21.6733C26.7397 21.6976 26.392 21.7926 26.0731 21.953L24.8622 22.5499C24.8508 22.543 24.8397 22.5357 24.8277 22.5294L23.3853 21.7676C22.9966 21.5594 22.563 21.4491 22.122 21.4464C21.6811 21.4437 21.2462 21.5487 20.855 21.7522L18.9294 22.7385C18.7834 22.8202 18.6193 22.8641 18.4521 22.8664L13.8622 22.9189L14.1839 22.3616C14.2875 22.1821 14.3156 21.9689 14.2619 21.7688C14.2083 21.5686 14.0774 21.398 13.8979 21.2944L8.39258 18.116C8.21315 18.0124 7.99993 17.9843 7.79982 18.038C7.59971 18.0916 7.42909 18.2225 7.32549 18.4019L0.104687 30.9086C0.00109143 31.0881 -0.0269825 31.3013 0.0266408 31.5015C0.0802642 31.7016 0.211192 31.8722 0.390624 31.9758ZM12.2399 38.2952C11.9575 38.0103 11.799 37.6254 11.799 37.2243C11.799 36.8231 11.9575 36.4382 12.2399 36.1534L14.9872 33.4061C15.2716 33.1237 15.6563 32.9655 16.0571 32.9662C16.4578 32.9669 16.842 33.1264 17.1254 33.4098C17.4087 33.6933 17.5682 34.0774 17.5689 34.4782C17.5695 34.879 17.4113 35.2637 17.1288 35.548L14.3817 38.2952C14.0975 38.5787 13.7123 38.738 13.3108 38.738C12.9093 38.738 12.5242 38.5787 12.2399 38.2952ZM15.4866 41.5418C15.2043 41.257 15.0458 40.8723 15.0457 40.4713C15.0456 40.0704 15.2038 39.6856 15.4859 39.4006L15.4866 39.4L18.2339 36.6528C18.5186 36.3723 18.9027 36.2158 19.3024 36.2173C19.702 36.2188 20.0849 36.3782 20.3675 36.6608C20.6502 36.9435 20.8096 37.3263 20.8111 37.726C20.8126 38.1257 20.6561 38.5097 20.3756 38.7945L17.6283 41.5418C17.3441 41.8253 16.959 41.9846 16.5575 41.9846C16.156 41.9846 15.7709 41.8253 15.4866 41.5418ZM18.7332 44.7883C18.4496 44.5041 18.2903 44.119 18.2903 43.7174C18.2903 43.3159 18.4496 42.9308 18.7332 42.6465L21.4804 39.8994C21.7644 39.6153 22.1496 39.4558 22.5513 39.4558C22.9529 39.4558 23.3381 39.6153 23.6222 39.8994C23.9062 40.1834 24.0658 40.5686 24.0658 40.9703C24.0658 41.3719 23.9062 41.7571 23.6222 42.0412C23.596 42.0677 23.5717 42.0962 23.5496 42.1262C23.4676 42.1902 23.3895 42.2591 23.3158 42.3325L21.1662 44.4819C21.0927 44.5558 21.0237 44.6341 20.9596 44.7163C20.9297 44.7383 20.9014 44.7625 20.8749 44.7885C20.5906 45.0721 20.2055 45.2313 19.804 45.2313C19.4025 45.2313 19.0174 45.072 18.7332 44.7883ZM22.2713 47.0222C22.0811 46.8318 21.9742 46.5736 21.9742 46.3044C21.9742 46.0353 22.0811 45.7771 22.2713 45.5867L24.4207 43.4373C24.6111 43.2469 24.8693 43.1399 25.1385 43.1399C25.4077 43.1399 25.6659 43.2469 25.8563 43.4373C26.0466 43.6276 26.1536 43.8858 26.1536 44.155C26.1536 44.4243 26.0466 44.6824 25.8563 44.8728L23.7068 47.0222C23.5158 47.2113 23.2579 47.3174 22.9891 47.3174C22.7203 47.3174 22.4623 47.2113 22.2713 47.0222ZM26.5886 47.7676C26.3997 47.956 26.1442 48.0625 25.8774 48.0641C25.6106 48.0657 25.3539 47.9622 25.1628 47.776L26.5973 46.3416C26.7835 46.5327 26.8869 46.7895 26.8853 47.0564C26.8837 47.3232 26.7771 47.5787 26.5886 47.7676ZM30.127 45.5338C29.8427 45.8174 29.4576 45.9767 29.0562 45.9767C28.6547 45.9767 28.2696 45.8174 27.9854 45.5338C27.9588 45.5076 27.9303 45.4834 27.9002 45.4613C27.8362 45.3793 27.7673 45.3012 27.6939 45.2275L27.5444 45.078C27.6818 44.7211 27.738 44.3381 27.7087 43.9568C27.6795 43.5755 27.5657 43.2055 27.3756 42.8737C27.1854 42.5419 26.9237 42.2567 26.6095 42.0387C26.2952 41.8208 25.9364 41.6756 25.559 41.6137C25.6444 41.212 25.6491 40.7973 25.573 40.3937C25.8605 40.2338 26.1924 40.1719 26.5183 40.2172C26.8442 40.2625 27.1465 40.4126 27.3796 40.6449L30.127 43.3921C30.4106 43.6764 30.5698 44.0615 30.5698 44.463C30.5698 44.8645 30.4106 45.2496 30.127 45.5338ZM33.3736 42.2873C33.0888 42.5696 32.7039 42.728 32.3028 42.728C31.9018 42.728 31.5169 42.5696 31.232 42.2873L28.4847 39.54C28.209 39.2544 28.0565 38.8721 28.0599 38.4752C28.0633 38.0783 28.2224 37.6986 28.5029 37.4179C28.7834 37.1371 29.1629 36.9776 29.5598 36.9738C29.9567 36.97 30.3392 37.1222 30.625 37.3975V37.3981L33.3723 40.1453C33.6561 40.4294 33.8155 40.8145 33.8157 41.2161C33.8159 41.6177 33.6567 42.0029 33.3731 42.2873H33.3736ZM36.6201 39.0407C36.3359 39.3243 35.9508 39.4835 35.5494 39.4835C35.1479 39.4835 34.7628 39.3243 34.4786 39.0407L31.7313 36.2934C31.4508 36.0087 31.2942 35.6246 31.2957 35.2249C31.2972 34.8253 31.4567 34.4424 31.7393 34.1598C32.0219 33.8771 32.4048 33.7177 32.8045 33.7162C33.2041 33.7147 33.5882 33.8712 33.8729 34.1517L36.6198 36.8995C36.9022 37.1843 37.0606 37.5692 37.0606 37.9703C37.0606 38.3714 36.9022 38.7563 36.6198 39.0412L36.6201 39.0407ZM41.7126 19.8598L48.1521 31.0132L43.9995 33.4107L37.5595 22.2572L41.7126 19.8598ZM26.764 23.3545C26.8998 23.2834 27.049 23.2413 27.2019 23.2309C27.3549 23.2205 27.5084 23.242 27.6526 23.294L33.7382 25.3225C34.5048 25.5854 35.3398 25.5686 36.0952 25.275L37.2461 24.8389L41.5907 32.3638L36.958 35.0275L34.9774 33.0468C34.7677 32.837 34.5286 32.6588 34.2676 32.5177L28.0396 27.8487C27.6438 27.5525 27.1712 27.3762 26.6781 27.3409L25.763 27.2601C25.2506 27.2109 24.7347 27.3091 24.2762 27.5432C23.8177 27.7773 23.4357 28.1375 23.1751 28.5815L21.9619 30.5765C21.944 30.6102 21.9158 30.6373 21.8814 30.6539C21.8471 30.6705 21.8083 30.6757 21.7708 30.6687L19.9251 30.4363C19.8972 30.4328 19.8704 30.4233 19.8466 30.4084C19.8227 30.3936 19.8023 30.3738 19.7868 30.3504C19.7713 30.327 19.761 30.3005 19.7566 30.2727C19.7523 30.2449 19.754 30.2166 19.7616 30.1895L20.7284 26.7618C20.7695 26.6021 20.8455 26.4535 20.951 26.3268C21.0564 26.2 21.1887 26.0982 21.3382 26.0288L26.764 23.3545ZM18.47 24.4288C18.879 24.4243 19.2809 24.3215 19.6419 24.1293L21.5675 23.1429C21.735 23.0528 21.9225 23.0061 22.1127 23.0073C22.3029 23.0084 22.4898 23.0573 22.6562 23.1495L23.1339 23.4015L20.647 24.6274C20.3007 24.7932 19.9943 25.0319 19.7487 25.3271C19.5032 25.6222 19.3243 25.967 19.2242 26.3377L18.2574 29.7654C18.1887 30.0089 18.1734 30.2643 18.2125 30.5143C18.2516 30.7642 18.3442 31.0028 18.4839 31.2137C18.6237 31.4246 18.8073 31.6028 19.0223 31.7362C19.2373 31.8696 19.4785 31.9551 19.7295 31.9867L21.5752 32.219C21.9119 32.2642 22.2544 32.2096 22.5604 32.0621C22.8663 31.9145 23.1223 31.6805 23.2966 31.3889L24.5099 29.394C24.6201 29.2003 24.7841 29.0426 24.9821 28.9402C25.1801 28.8378 25.4035 28.795 25.6253 28.817L26.5403 28.8978C26.7434 28.9076 26.939 28.9778 27.102 29.0994L31.5321 32.4206C30.9931 32.6641 30.536 33.0582 30.2158 33.5554C29.8956 34.0526 29.7259 34.6319 29.7271 35.2233C29.7271 35.2825 29.7293 35.3414 29.7325 35.4001C29.3143 35.3751 28.8954 35.4361 28.5016 35.5791C28.1079 35.7222 27.7476 35.9444 27.4429 36.232C27.1383 36.5196 26.8957 36.8665 26.7302 37.2514C26.5647 37.6362 26.4797 38.0509 26.4806 38.4699C26.4806 38.5292 26.4827 38.5879 26.4859 38.6466C25.9361 38.6146 25.3876 38.7305 24.8977 38.9821C24.8433 38.9174 24.7863 38.8551 24.7267 38.7953C24.4199 38.4883 24.0515 38.25 23.6458 38.0958C23.2401 37.9417 22.8064 37.8753 22.3731 37.9011C22.3765 37.8425 22.3785 37.7839 22.3785 37.7244C22.3795 37.3055 22.2947 36.8908 22.1293 36.5059C21.964 36.121 21.7216 35.774 21.4171 35.4863C21.1126 35.1986 20.7524 34.9763 20.3587 34.833C19.965 34.6898 19.5462 34.6286 19.128 34.6534C19.1528 34.2353 19.0917 33.8165 18.9486 33.4229C18.8054 33.0292 18.5832 32.6691 18.2956 32.3645C18.0081 32.06 17.6612 31.8176 17.2764 31.6521C16.8916 31.4867 16.4771 31.4017 16.0582 31.4025C15.6541 31.401 15.2538 31.4796 14.8803 31.6338C14.5068 31.788 14.1677 32.0148 13.8824 32.3009L11.1401 35.044L7.94307 33.1718L12.9542 24.4921L18.47 24.4288ZM8.28789 19.8598L12.4404 22.2572L6.00088 33.4107L1.84844 31.0132L8.28789 19.8598ZM25 20.5312C26.8108 20.5312 28.5809 19.9943 30.0865 18.9883C31.5921 17.9823 32.7656 16.5524 33.4585 14.8795C34.1515 13.2066 34.3328 11.3657 33.9796 9.58977C33.6263 7.8138 32.7544 6.18246 31.474 4.90204C30.1936 3.62163 28.5622 2.74966 26.7863 2.39639C25.0103 2.04312 23.1694 2.22442 21.4965 2.91736C19.8236 3.61031 18.3937 4.78378 17.3877 6.28937C16.3817 7.79497 15.8447 9.56507 15.8447 11.3758C15.8475 13.8031 16.8129 16.1302 18.5293 17.8466C20.2456 19.5629 22.5727 20.5284 25 20.5312ZM25 3.78316C26.5017 3.78314 27.9698 4.22844 29.2184 5.06275C30.4671 5.89706 31.4403 7.0829 32.015 8.47032C32.5897 9.85774 32.74 11.3844 32.4471 12.8573C32.1541 14.3302 31.431 15.6831 30.3691 16.745C29.3072 17.8069 27.9543 18.53 26.4814 18.823C25.0085 19.116 23.4818 18.9656 22.0944 18.3909C20.707 17.8162 19.5211 16.843 18.6868 15.5943C17.8525 14.3457 17.4072 12.8777 17.4072 11.3759C17.4095 9.36289 18.2102 7.43295 19.6336 6.00951C21.057 4.58606 22.987 3.78546 25 3.78316ZM21.5246 11.4127C21.4028 11.245 21.3525 11.0359 21.3849 10.8312C21.4173 10.6266 21.5297 10.4432 21.6973 10.3213C21.8649 10.1995 22.074 10.1493 22.2787 10.1817C22.4833 10.214 22.6668 10.3264 22.7886 10.494L23.9844 12.1397L27.9651 8.87876C28.1256 8.74904 28.3308 8.68805 28.5361 8.70912C28.7413 8.73019 28.9299 8.8316 29.0607 8.99121C29.1914 9.15082 29.2537 9.35568 29.234 9.56106C29.2142 9.76645 29.114 9.95568 28.9553 10.0875L24.3341 13.873C24.2518 13.9404 24.1566 13.9903 24.0543 14.0197C23.952 14.049 23.8448 14.0571 23.7393 14.0435C23.6338 14.0299 23.5321 13.9949 23.4406 13.9407C23.3491 13.8864 23.2696 13.814 23.207 13.728L21.5246 11.4127Z" fill="white"/>
<path d="M0.390624 31.9758L5.89629 35.1544C5.98515 35.2057 6.08325 35.239 6.18498 35.2524C6.2867 35.2657 6.39007 35.2589 6.48917 35.2324C6.58827 35.2058 6.68116 35.16 6.76254 35.0975C6.84392 35.035 6.9122 34.9571 6.96348 34.8682L7.16182 34.5247L10.3503 36.3915C10.2749 36.6625 10.2367 36.9426 10.2367 37.224C10.2352 37.628 10.3138 38.0284 10.468 38.4018C10.6222 38.7753 10.849 39.1144 11.1352 39.3997C11.4207 39.6856 11.7599 39.9122 12.1332 40.0666C12.5066 40.221 12.9068 40.3002 13.3108 40.2995C13.3701 40.2995 13.4295 40.2971 13.4888 40.2938C13.4854 40.3524 13.4833 40.411 13.4833 40.4706C13.4824 40.8745 13.5613 41.2746 13.7155 41.648C13.8697 42.0214 14.0961 42.3606 14.3817 42.6462C14.6674 42.9319 15.0066 43.1583 15.38 43.3125C15.7533 43.4666 16.1535 43.5456 16.5574 43.5447C16.617 43.5447 16.6763 43.5425 16.7354 43.5392C16.7318 43.5985 16.73 43.6578 16.7298 43.7171C16.7289 44.1211 16.8078 44.5212 16.962 44.8946C17.1161 45.268 17.3426 45.6072 17.6282 45.8929C17.9138 46.1785 18.2531 46.4049 18.6264 46.5591C18.9998 46.7133 19.4 46.7922 19.8039 46.7914C20.0202 46.7913 20.236 46.7687 20.4477 46.724C20.5458 47.3267 20.8555 47.8747 21.3212 48.2697C21.7869 48.6647 22.378 48.8809 22.9887 48.8794C23.2975 48.8798 23.6038 48.8248 23.8933 48.7171L24.0484 48.8721C24.3833 49.2075 24.8041 49.444 25.2647 49.5555C25.7253 49.6671 26.2077 49.6494 26.6588 49.5044C27.11 49.3594 27.5124 49.0928 27.8218 48.7338C28.1311 48.3748 28.3354 47.9374 28.4122 47.4698C28.6237 47.5149 28.8394 47.5378 29.0557 47.5381C29.4746 47.5387 29.8893 47.4535 30.2741 47.2878C30.659 47.1221 31.0058 46.8794 31.2934 46.5746C31.5809 46.2699 31.8031 45.9096 31.9462 45.5158C32.0893 45.122 32.1503 44.7031 32.1255 44.2848C32.1841 44.2881 32.2427 44.2902 32.3022 44.2902C32.7212 44.291 33.1359 44.2061 33.5208 44.0406C33.9057 43.8751 34.2526 43.6325 34.5402 43.3279C34.8278 43.0232 35.05 42.6629 35.1931 42.2691C35.3362 41.8754 35.3971 41.4565 35.3722 41.0382C35.4308 41.0416 35.4894 41.0436 35.5489 41.0436C36.1123 41.043 36.6647 40.8878 37.1459 40.5949C37.6271 40.302 38.0187 39.8825 38.2779 39.3823C38.5371 38.8821 38.6541 38.3204 38.616 37.7583C38.5779 37.1962 38.3862 36.6554 38.0618 36.1948L42.3717 33.7167L43.0365 34.8682C43.1401 35.0476 43.3108 35.1786 43.5109 35.2322C43.711 35.2858 43.9243 35.2578 44.1037 35.1542L49.6094 31.9758C49.7888 31.8722 49.9197 31.7016 49.9734 31.5015C50.027 31.3013 49.9989 31.0881 49.8953 30.9086L42.6745 18.4019C42.5709 18.2225 42.4003 18.0916 42.2002 18.038C42.0001 17.9843 41.7868 18.0124 41.6074 18.116L36.1018 21.2947C35.9223 21.3983 35.7914 21.5689 35.7378 21.7691C35.6841 21.9692 35.7122 22.1824 35.8158 22.3619L36.4544 23.4679L35.5417 23.8135C35.1229 23.9811 34.6575 23.9905 34.2323 23.84L28.1469 21.8116C27.8092 21.696 27.4518 21.649 27.0958 21.6733C26.7397 21.6976 26.392 21.7926 26.0731 21.953L24.8622 22.5499C24.8508 22.543 24.8397 22.5357 24.8277 22.5294L23.3853 21.7676C22.9966 21.5594 22.563 21.4491 22.122 21.4464C21.6811 21.4437 21.2462 21.5487 20.855 21.7522L18.9294 22.7385C18.7834 22.8202 18.6193 22.8641 18.4521 22.8664L13.8622 22.9189L14.1839 22.3616C14.2875 22.1821 14.3156 21.9689 14.2619 21.7688C14.2083 21.5686 14.0774 21.398 13.8979 21.2944L8.39258 18.116C8.21315 18.0124 7.99993 17.9843 7.79982 18.038C7.59971 18.0916 7.42909 18.2225 7.32549 18.4019L0.104687 30.9086C0.00109143 31.0881 -0.0269825 31.3013 0.0266408 31.5015C0.0802642 31.7016 0.211192 31.8722 0.390624 31.9758ZM12.2399 38.2952C11.9575 38.0103 11.799 37.6254 11.799 37.2243C11.799 36.8231 11.9575 36.4382 12.2399 36.1534L14.9872 33.4061C15.2716 33.1237 15.6563 32.9655 16.0571 32.9662C16.4578 32.9669 16.842 33.1264 17.1254 33.4098C17.4087 33.6933 17.5682 34.0774 17.5689 34.4782C17.5695 34.879 17.4113 35.2637 17.1288 35.548L14.3817 38.2952C14.0975 38.5787 13.7123 38.738 13.3108 38.738C12.9093 38.738 12.5242 38.5787 12.2399 38.2952ZM15.4866 41.5418C15.2043 41.257 15.0458 40.8723 15.0457 40.4713C15.0456 40.0704 15.2038 39.6856 15.4859 39.4006L15.4866 39.4L18.2339 36.6528C18.5186 36.3723 18.9027 36.2158 19.3024 36.2173C19.702 36.2188 20.0849 36.3782 20.3675 36.6608C20.6502 36.9435 20.8096 37.3263 20.8111 37.726C20.8126 38.1257 20.6561 38.5097 20.3756 38.7945L17.6283 41.5418C17.3441 41.8253 16.959 41.9846 16.5575 41.9846C16.156 41.9846 15.7709 41.8253 15.4866 41.5418ZM18.7332 44.7883C18.4496 44.5041 18.2903 44.119 18.2903 43.7174C18.2903 43.3159 18.4496 42.9308 18.7332 42.6465L21.4804 39.8994C21.7644 39.6153 22.1496 39.4558 22.5513 39.4558C22.9529 39.4558 23.3381 39.6153 23.6222 39.8994C23.9062 40.1834 24.0658 40.5686 24.0658 40.9703C24.0658 41.3719 23.9062 41.7571 23.6222 42.0412C23.596 42.0677 23.5717 42.0962 23.5496 42.1262C23.4676 42.1902 23.3895 42.2591 23.3158 42.3325L21.1662 44.4819C21.0927 44.5558 21.0237 44.6341 20.9596 44.7163C20.9297 44.7383 20.9014 44.7625 20.8749 44.7885C20.5906 45.0721 20.2055 45.2313 19.804 45.2313C19.4025 45.2313 19.0174 45.072 18.7332 44.7883ZM22.2713 47.0222C22.0811 46.8318 21.9742 46.5736 21.9742 46.3044C21.9742 46.0353 22.0811 45.7771 22.2713 45.5867L24.4207 43.4373C24.6111 43.2469 24.8693 43.1399 25.1385 43.1399C25.4077 43.1399 25.6659 43.2469 25.8563 43.4373C26.0466 43.6276 26.1536 43.8858 26.1536 44.155C26.1536 44.4243 26.0466 44.6824 25.8563 44.8728L23.7068 47.0222C23.5158 47.2113 23.2579 47.3174 22.9891 47.3174C22.7203 47.3174 22.4623 47.2113 22.2713 47.0222ZM26.5886 47.7676C26.3997 47.956 26.1442 48.0625 25.8774 48.0641C25.6106 48.0657 25.3539 47.9622 25.1628 47.776L26.5973 46.3416C26.7835 46.5327 26.8869 46.7895 26.8853 47.0564C26.8837 47.3232 26.7771 47.5787 26.5886 47.7676ZM30.127 45.5338C29.8427 45.8174 29.4576 45.9767 29.0562 45.9767C28.6547 45.9767 28.2696 45.8174 27.9854 45.5338C27.9588 45.5076 27.9303 45.4834 27.9002 45.4613C27.8362 45.3793 27.7673 45.3012 27.6939 45.2275L27.5444 45.078C27.6818 44.7211 27.738 44.3381 27.7087 43.9568C27.6795 43.5755 27.5657 43.2055 27.3756 42.8737C27.1854 42.5419 26.9237 42.2567 26.6095 42.0387C26.2952 41.8208 25.9364 41.6756 25.559 41.6137C25.6444 41.212 25.6491 40.7973 25.573 40.3937C25.8605 40.2338 26.1924 40.1719 26.5183 40.2172C26.8442 40.2625 27.1465 40.4126 27.3796 40.6449L30.127 43.3921C30.4106 43.6764 30.5698 44.0615 30.5698 44.463C30.5698 44.8645 30.4106 45.2496 30.127 45.5338ZM33.3736 42.2873C33.0888 42.5696 32.7039 42.728 32.3028 42.728C31.9018 42.728 31.5169 42.5696 31.232 42.2873L28.4847 39.54C28.209 39.2544 28.0565 38.8721 28.0599 38.4752C28.0633 38.0783 28.2224 37.6986 28.5029 37.4179C28.7834 37.1371 29.1629 36.9776 29.5598 36.9738C29.9567 36.97 30.3392 37.1222 30.625 37.3975V37.3981L33.3723 40.1453C33.6561 40.4294 33.8155 40.8145 33.8157 41.2161C33.8159 41.6177 33.6567 42.0029 33.3731 42.2873H33.3736ZM36.6201 39.0407C36.3359 39.3243 35.9508 39.4835 35.5494 39.4835C35.1479 39.4835 34.7628 39.3243 34.4786 39.0407L31.7313 36.2934C31.4508 36.0087 31.2942 35.6246 31.2957 35.2249C31.2972 34.8253 31.4567 34.4424 31.7393 34.1598C32.0219 33.8771 32.4048 33.7177 32.8045 33.7162C33.2041 33.7147 33.5882 33.8712 33.8729 34.1517L36.6198 36.8995C36.9022 37.1843 37.0606 37.5692 37.0606 37.9703C37.0606 38.3714 36.9022 38.7563 36.6198 39.0412L36.6201 39.0407ZM41.7126 19.8598L48.1521 31.0132L43.9995 33.4107L37.5595 22.2572L41.7126 19.8598ZM26.764 23.3545C26.8998 23.2834 27.049 23.2413 27.2019 23.2309C27.3549 23.2205 27.5084 23.242 27.6526 23.294L33.7382 25.3225C34.5048 25.5854 35.3398 25.5686 36.0952 25.275L37.2461 24.8389L41.5907 32.3638L36.958 35.0275L34.9774 33.0468C34.7677 32.837 34.5286 32.6588 34.2676 32.5177L28.0396 27.8487C27.6438 27.5525 27.1712 27.3762 26.6781 27.3409L25.763 27.2601C25.2506 27.2109 24.7347 27.3091 24.2762 27.5432C23.8177 27.7773 23.4357 28.1375 23.1751 28.5815L21.9619 30.5765C21.944 30.6102 21.9158 30.6373 21.8814 30.6539C21.8471 30.6705 21.8083 30.6757 21.7708 30.6687L19.9251 30.4363C19.8972 30.4328 19.8704 30.4233 19.8466 30.4084C19.8227 30.3936 19.8023 30.3738 19.7868 30.3504C19.7713 30.327 19.761 30.3005 19.7566 30.2727C19.7523 30.2449 19.754 30.2166 19.7616 30.1895L20.7284 26.7618C20.7695 26.6021 20.8455 26.4535 20.951 26.3268C21.0564 26.2 21.1887 26.0982 21.3382 26.0288L26.764 23.3545ZM18.47 24.4288C18.879 24.4243 19.2809 24.3215 19.6419 24.1293L21.5675 23.1429C21.735 23.0528 21.9225 23.0061 22.1127 23.0073C22.3029 23.0084 22.4898 23.0573 22.6562 23.1495L23.1339 23.4015L20.647 24.6274C20.3007 24.7932 19.9943 25.0319 19.7487 25.3271C19.5032 25.6222 19.3243 25.967 19.2242 26.3377L18.2574 29.7654C18.1887 30.0089 18.1734 30.2643 18.2125 30.5143C18.2516 30.7642 18.3442 31.0028 18.4839 31.2137C18.6237 31.4246 18.8073 31.6028 19.0223 31.7362C19.2373 31.8696 19.4785 31.9551 19.7295 31.9867L21.5752 32.219C21.9119 32.2642 22.2544 32.2096 22.5604 32.0621C22.8663 31.9145 23.1223 31.6805 23.2966 31.3889L24.5099 29.394C24.6201 29.2003 24.7841 29.0426 24.9821 28.9402C25.1801 28.8378 25.4035 28.795 25.6253 28.817L26.5403 28.8978C26.7434 28.9076 26.939 28.9778 27.102 29.0994L31.5321 32.4206C30.9931 32.6641 30.536 33.0582 30.2158 33.5554C29.8956 34.0526 29.7259 34.6319 29.7271 35.2233C29.7271 35.2825 29.7293 35.3414 29.7325 35.4001C29.3143 35.3751 28.8954 35.4361 28.5016 35.5791C28.1079 35.7222 27.7476 35.9444 27.4429 36.232C27.1383 36.5196 26.8957 36.8665 26.7302 37.2514C26.5647 37.6362 26.4797 38.0509 26.4806 38.4699C26.4806 38.5292 26.4827 38.5879 26.4859 38.6466C25.9361 38.6146 25.3876 38.7305 24.8977 38.9821C24.8433 38.9174 24.7863 38.8551 24.7267 38.7953C24.4199 38.4883 24.0515 38.25 23.6458 38.0958C23.2401 37.9417 22.8064 37.8753 22.3731 37.9011C22.3765 37.8425 22.3785 37.7839 22.3785 37.7244C22.3795 37.3055 22.2947 36.8908 22.1293 36.5059C21.964 36.121 21.7216 35.774 21.4171 35.4863C21.1126 35.1986 20.7524 34.9763 20.3587 34.833C19.965 34.6898 19.5462 34.6286 19.128 34.6534C19.1528 34.2353 19.0917 33.8165 18.9486 33.4229C18.8054 33.0292 18.5832 32.6691 18.2956 32.3645C18.0081 32.06 17.6612 31.8176 17.2764 31.6521C16.8916 31.4867 16.4771 31.4017 16.0582 31.4025C15.6541 31.401 15.2538 31.4796 14.8803 31.6338C14.5068 31.788 14.1677 32.0148 13.8824 32.3009L11.1401 35.044L7.94307 33.1718L12.9542 24.4921L18.47 24.4288ZM8.28789 19.8598L12.4404 22.2572L6.00088 33.4107L1.84844 31.0132L8.28789 19.8598ZM25 20.5312C26.8108 20.5312 28.5809 19.9943 30.0865 18.9883C31.5921 17.9823 32.7656 16.5524 33.4585 14.8795C34.1515 13.2066 34.3328 11.3657 33.9796 9.58977C33.6263 7.8138 32.7544 6.18246 31.474 4.90204C30.1936 3.62163 28.5622 2.74966 26.7863 2.39639C25.0103 2.04312 23.1694 2.22442 21.4965 2.91736C19.8236 3.61031 18.3937 4.78378 17.3877 6.28937C16.3817 7.79497 15.8447 9.56507 15.8447 11.3758C15.8475 13.8031 16.8129 16.1302 18.5293 17.8466C20.2456 19.5629 22.5727 20.5284 25 20.5312ZM25 3.78316C26.5017 3.78314 27.9698 4.22844 29.2184 5.06275C30.4671 5.89706 31.4403 7.0829 32.015 8.47032C32.5897 9.85774 32.74 11.3844 32.4471 12.8573C32.1541 14.3302 31.431 15.6831 30.3691 16.745C29.3072 17.8069 27.9543 18.53 26.4814 18.823C25.0085 19.116 23.4818 18.9656 22.0944 18.3909C20.707 17.8162 19.5211 16.843 18.6868 15.5943C17.8525 14.3457 17.4072 12.8777 17.4072 11.3759C17.4095 9.36289 18.2102 7.43295 19.6336 6.00951C21.057 4.58606 22.987 3.78546 25 3.78316ZM21.5246 11.4127C21.4028 11.245 21.3525 11.0359 21.3849 10.8312C21.4173 10.6266 21.5297 10.4432 21.6973 10.3213C21.8649 10.1995 22.074 10.1493 22.2787 10.1817C22.4833 10.214 22.6668 10.3264 22.7886 10.494L23.9844 12.1397L27.9651 8.87876C28.1256 8.74904 28.3308 8.68805 28.5361 8.70912C28.7413 8.73019 28.9299 8.8316 29.0607 8.99121C29.1914 9.15082 29.2537 9.35568 29.234 9.56106C29.2142 9.76645 29.114 9.95568 28.9553 10.0875L24.3341 13.873C24.2518 13.9404 24.1566 13.9903 24.0543 14.0197C23.952 14.049 23.8448 14.0571 23.7393 14.0435C23.6338 14.0299 23.5321 13.9949 23.4406 13.9407C23.3491 13.8864 23.2696 13.814 23.207 13.728L21.5246 11.4127Z" stroke="white" stroke-width="0.4" mask="url(#path-1-outside-1_677_83)"/>
</g>
<defs>
<clipPath id="clip0_677_83">
<rect width="50" height="50" fill="white" transform="translate(0 0.922852)"/>
</clipPath>
</defs>
</svg>
